<svg width="28" height="28" viewBox="0 0 28 28" fill="none" xmlns="http://www.w3.org/2000/svg">
<path d="M27.5276 13.7638C27.5276 6.16016 21.3623 0 13.7638 0C6.16016 0 0 6.16016 0 13.7638C0 20.6319 5.03153 26.3267 11.6132 27.3581V17.7432H8.11806V13.7647H11.6132V10.7306C11.6132 7.28191 13.6649 5.37734 16.8099 5.37734C18.3162 5.37734 19.893 5.64573 19.893 5.64573V9.03249H18.1544C16.4477 9.03249 15.9144 10.0949 15.9144 11.1831V13.7638H19.7313L19.1179 17.7424H15.9144V27.3573C22.4909 26.3258 27.5276 20.6311 27.5276 13.7629V13.7638Z" fill="black"/>
</svg>
