<svg width="28" height="26" viewBox="0 0 28 26" fill="none" xmlns="http://www.w3.org/2000/svg">
<path d="M27.5276 12.9366C27.5276 5.78992 21.3623 0 13.7638 0C6.16016 0 0 5.78992 0 12.9366C0 19.3919 5.03153 24.7444 11.6132 25.7139V16.6769H8.11806V12.9374H11.6132V10.0857C11.6132 6.84425 13.6649 5.05416 16.8099 5.05416C18.3162 5.05416 19.893 5.30642 19.893 5.30642V8.48962H18.1544C16.4477 8.48962 15.9144 9.48817 15.9144 10.511V12.9366H19.7313L19.1179 16.676H15.9144V25.7131C22.4909 24.7436 27.5276 19.3911 27.5276 12.9358V12.9366Z" fill="black"/>
</svg>
