<svg width="18" height="19" viewBox="0 0 18 19" fill="none" xmlns="http://www.w3.org/2000/svg">
<path d="M16.1532 7.20064C15.2358 6.60881 14.6605 5.81747 14.2005 4.59894C14.0295 4.14597 13.6029 3.85308 13.1137 3.85308C12.5878 3.85308 12.1069 4.17295 11.7945 4.73052C11.6191 5.03856 11.5113 5.37679 11.4775 5.725C11.1535 5.16773 10.4952 5.04918 10.1831 5.44545C10.1831 5.44545 7.61605 3.60477 6.74044 3.01869C5.57682 2.2407 4.03551 3.10237 4.07408 3.99225C2.60477 3.24093 0.991771 4.56741 1.48872 5.95755C0.920411 5.85931 -0.533151 7.28038 0.994985 8.37188C-0.0635238 8.47436 -0.474648 10.0376 0.755511 10.7492C0.755511 10.7492 0.761297 10.9654 0.77769 11.0715C-0.0329869 11.3038 -0.312642 12.7494 0.471356 13.2057C0.471356 13.2057 6.12552 16.6112 8.07186 17.6356C9.1294 18.1923 10.9504 18.4109 12.5727 17.914C14.1481 17.76 15.4846 16.9723 16.5586 15.5685C19.5142 11.7052 17.1728 7.85857 16.1532 7.20064ZM15.807 15.1919C14.5762 16.8231 12.8086 16.9923 11.456 16.9923C9.24801 16.9923 7.89924 15.9939 7.89924 15.9939L1.83941 11.7261C0.692187 10.979 1.38297 9.7887 2.18786 9.81053L7.00853 12.9089L7.60191 12.9437C7.60191 12.9437 3.29619 10.0282 1.9021 9.00191C1.0882 8.4028 1.35564 7.25855 2.40933 7.03116L8.4383 11.1134L9.03104 11.1482L2.59095 6.4372C1.23028 5.49912 2.59577 3.73029 3.91497 4.63108C5.43635 5.66982 10.0134 8.96219 10.0134 8.96219L10.6067 8.99736L4.58132 4.28968C4.52924 3.56323 5.55368 2.93168 6.37271 3.50956C8.01978 4.6717 12.9636 8.15449 12.9636 8.15449C12.8363 7.81825 12.7726 7.56538 12.7726 7.56538C12.7726 7.56538 11.8334 6.09247 12.3422 5.02007C12.789 4.07957 13.6929 4.23238 13.8752 4.7378C14.3596 6.08337 14.8614 6.88198 15.8652 7.55507C17.1471 8.41463 18.458 11.68 15.807 15.1919Z" fill="black"/>
<path d="M13.5127 0.269539L10.7451 0L11.6895 3.71715L13.5127 0.269539Z" fill="black"/>
<path d="M15.8028 0.989746L14.3965 4.0802L17.6768 3.25127L15.8028 0.989746Z" fill="black"/>
<path d="M8.07135 0.469727L6.0752 2.02602L8.95017 3.79303L8.07135 0.469727Z" fill="black"/>
</svg>
