<svg width="18" height="19" viewBox="0 0 18 19" fill="none" xmlns="http://www.w3.org/2000/svg">
<path d="M16.1532 7.20088C15.2358 6.60905 14.6605 5.81772 14.2005 4.59918C14.0295 4.14621 13.6029 3.85333 13.1137 3.85333C12.5878 3.85333 12.1069 4.17319 11.7945 4.73077C11.6191 5.03881 11.5113 5.37703 11.4775 5.72524C11.1535 5.16797 10.4952 5.04942 10.1831 5.4457C10.1831 5.4457 7.61605 3.60501 6.74044 3.01894C5.57682 2.24094 4.03551 3.10262 4.07408 3.99249C2.60477 3.24118 0.991771 4.56765 1.48872 5.95779C0.920411 5.85956 -0.533151 7.28062 0.994985 8.37212C-0.0635238 8.4746 -0.474648 10.0379 0.755511 10.7495C0.755511 10.7495 0.761297 10.9656 0.77769 11.0718C-0.0329869 11.304 -0.312642 12.7496 0.471356 13.2059C0.471356 13.2059 6.12552 16.6114 8.07186 17.6359C9.1294 18.1926 10.9504 18.4112 12.5727 17.9142C14.1481 17.7602 15.4846 16.9725 16.5586 15.5687C19.5142 11.7054 17.1728 7.85881 16.1532 7.20088ZM15.807 15.1922C14.5762 16.8233 12.8086 16.9925 11.456 16.9925C9.24801 16.9925 7.89924 15.9941 7.89924 15.9941L1.83941 11.7263C0.692187 10.9793 1.38297 9.78894 2.18786 9.81077L7.00853 12.9091L7.60191 12.944C7.60191 12.944 3.29619 10.0285 1.9021 9.00216C1.0882 8.40305 1.35564 7.25879 2.40933 7.0314L8.4383 11.1136L9.03104 11.1485L2.59095 6.43744C1.23028 5.49936 2.59577 3.73053 3.91497 4.63132C5.43635 5.67006 10.0134 8.96244 10.0134 8.96244L10.6067 8.99761L4.58132 4.28992C4.52924 3.56347 5.55368 2.93192 6.37271 3.50981C8.01978 4.67195 12.9636 8.15473 12.9636 8.15473C12.8363 7.81849 12.7726 7.56563 12.7726 7.56563C12.7726 7.56563 11.8334 6.09271 12.3422 5.02032C12.789 4.07981 13.6929 4.23262 13.8752 4.73804C14.3596 6.08362 14.8614 6.88223 15.8652 7.55532C17.1471 8.41487 18.458 11.6803 15.807 15.1922Z" fill="black"/>
<path d="M13.5127 0.269539L10.7451 0L11.6895 3.71715L13.5127 0.269539Z" fill="black"/>
<path d="M15.8028 0.989746L14.3965 4.0802L17.6768 3.25127L15.8028 0.989746Z" fill="black"/>
<path d="M8.07086 0.469727L6.07471 2.02602L8.94969 3.79303L8.07086 0.469727Z" fill="black"/>
</svg>
