<svg width="26" height="28" viewBox="0 0 26 28" fill="none" xmlns="http://www.w3.org/2000/svg">
<path fill-rule="evenodd" clip-rule="evenodd" d="M5.4165 10.5004C5.4165 5.98541 8.80734 2.33374 12.9998 2.33374C17.1923 2.33374 20.5832 5.98541 20.5832 10.5004C20.5832 15.3654 15.7948 22.0737 13.834 24.6287C13.4007 25.1887 12.6098 25.1887 12.1765 24.6287C10.2048 22.0737 5.4165 15.3654 5.4165 10.5004ZM10.2915 10.5004C10.2915 12.1104 11.5048 13.4171 12.9998 13.4171C14.4948 13.4171 15.7082 12.1104 15.7082 10.5004C15.7082 8.89041 14.4948 7.58374 12.9998 7.58374C11.5048 7.58374 10.2915 8.89041 10.2915 10.5004Z" fill="#0081FE"/>
</svg>
