<svg width="26" height="28" viewBox="0 0 26 28" fill="none" xmlns="http://www.w3.org/2000/svg">
<path fill-rule="evenodd" clip-rule="evenodd" d="M5.4165 10.5002C5.4165 5.98516 8.80734 2.3335 12.9998 2.3335C17.1923 2.3335 20.5832 5.98516 20.5832 10.5002C20.5832 15.3652 15.7948 22.0735 13.834 24.6285C13.4007 25.1885 12.6098 25.1885 12.1765 24.6285C10.2048 22.0735 5.4165 15.3652 5.4165 10.5002ZM10.2915 10.5002C10.2915 12.1102 11.5048 13.4168 12.9998 13.4168C14.4948 13.4168 15.7082 12.1102 15.7082 10.5002C15.7082 8.89016 14.4948 7.5835 12.9998 7.5835C11.5048 7.5835 10.2915 8.89016 10.2915 10.5002Z" fill="#0081FE"/>
</svg>
