<svg width="26" height="28" viewBox="0 0 26 28" fill="none" xmlns="http://www.w3.org/2000/svg">
<path fill-rule="evenodd" clip-rule="evenodd" d="M5.41602 10.5004C5.41602 5.98541 8.80685 2.33374 12.9993 2.33374C17.1918 2.33374 20.5827 5.98541 20.5827 10.5004C20.5827 15.3654 15.7943 22.0737 13.8335 24.6287C13.4002 25.1887 12.6093 25.1887 12.176 24.6287C10.2043 22.0737 5.41602 15.3654 5.41602 10.5004ZM10.291 10.5004C10.291 12.1104 11.5043 13.4171 12.9993 13.4171C14.4943 13.4171 15.7077 12.1104 15.7077 10.5004C15.7077 8.89041 14.4943 7.58374 12.9993 7.58374C11.5043 7.58374 10.291 8.89041 10.291 10.5004Z" fill="#0081FE"/>
</svg>
