<svg width="18" height="19" viewBox="0 0 18 19" fill="none" xmlns="http://www.w3.org/2000/svg">
<path d="M14.9469 12.4281C14.4793 12.4282 14.0179 12.5297 13.5985 12.7248C13.1791 12.92 12.8129 13.2035 12.5283 13.5535L5.94318 10.0282C6.16444 9.42267 6.16444 8.76468 5.94318 8.15913L12.5283 4.63388C12.9879 5.19639 13.6519 5.57868 14.3924 5.70719C15.1329 5.8357 15.8976 5.70136 16.5395 5.33001C17.1813 4.95866 17.6548 4.37655 17.869 3.69568C18.0831 3.01481 18.0227 2.28329 17.6994 1.64189C17.3761 1.00049 16.8128 0.49453 16.1177 0.221361C15.4227 -0.0518076 14.6452 -0.07288 13.9347 0.162199C13.2242 0.397278 12.6309 0.871898 12.2691 1.49473C11.9073 2.11756 11.8025 2.8446 11.9749 3.53595L5.27757 7.12129C4.85848 6.70078 4.31511 6.40874 3.71792 6.28306C3.12073 6.15737 2.49727 6.20385 1.92842 6.41644C1.35957 6.62904 0.871573 6.99795 0.527713 7.47533C0.183853 7.95272 0 8.51654 0 9.09368C0 9.67082 0.183853 10.2346 0.527713 10.712C0.871573 11.1894 1.35957 11.5583 1.92842 11.7709C2.49727 11.9835 3.12073 12.03 3.71792 11.9043C4.31511 11.7786 4.85848 11.4866 5.27757 11.0661L11.9749 14.6514C11.8305 15.2334 11.8817 15.8434 12.1214 16.3967C12.3612 16.95 12.7775 17.4192 13.3127 17.7393C13.8479 18.0594 14.4754 18.2144 15.1082 18.1829C15.741 18.1514 16.3478 17.9349 16.8442 17.5635C17.3407 17.1921 17.7024 16.6841 17.879 16.1101C18.0556 15.536 18.0385 14.9244 17.83 14.36C17.6214 13.7955 17.2318 13.3063 16.7152 12.9601C16.1986 12.614 15.5806 12.428 14.9469 12.4281ZM14.9469 1.21231C15.2965 1.21231 15.6383 1.31009 15.9289 1.49328C16.2196 1.67648 16.4462 1.93686 16.5799 2.2415C16.7137 2.54615 16.7487 2.88137 16.6805 3.20478C16.6123 3.52818 16.444 3.82525 16.1968 4.05842C15.9496 4.29158 15.6346 4.45037 15.2918 4.5147C14.9489 4.57903 14.5935 4.54601 14.2705 4.41982C13.9475 4.29364 13.6715 4.07995 13.4773 3.80577C13.283 3.5316 13.1794 3.20926 13.1794 2.87952C13.1799 2.4375 13.3663 2.01372 13.6977 1.70116C14.029 1.38861 14.4783 1.2128 14.9469 1.21231ZM3.05607 10.7609C2.70648 10.7609 2.36474 10.6631 2.07406 10.4799C1.78339 10.2967 1.55684 10.0363 1.42306 9.73169C1.28927 9.42705 1.25427 9.09183 1.32247 8.76842C1.39067 8.44501 1.55902 8.14794 1.80621 7.91478C2.05341 7.68162 2.36836 7.52283 2.71123 7.4585C3.05411 7.39417 3.40951 7.42719 3.73248 7.55337C4.05546 7.67956 4.33152 7.89325 4.52574 8.16742C4.71996 8.4416 4.82363 8.76393 4.82363 9.09368C4.82311 9.5357 4.63672 9.95948 4.30535 10.272C3.97398 10.5846 3.52469 10.7604 3.05607 10.7609ZM14.9469 16.975C14.5973 16.975 14.2556 16.8773 13.9649 16.6941C13.6743 16.5109 13.4477 16.2505 13.3139 15.9459C13.1801 15.6412 13.1451 15.306 13.2133 14.9826C13.2815 14.6592 13.4499 14.3621 13.6971 14.1289C13.9443 13.8958 14.2592 13.737 14.6021 13.6727C14.945 13.6083 15.3004 13.6413 15.6233 13.7675C15.9463 13.8937 16.2224 14.1074 16.4166 14.3816C16.6108 14.6558 16.7145 14.9781 16.7145 15.3078C16.714 15.7499 16.5276 16.1736 16.1962 16.4862C15.8648 16.7987 15.4156 16.9746 14.9469 16.975Z" fill="black"/>
</svg>
