<svg width="15" height="20" viewBox="0 0 15 20" fill="none" xmlns="http://www.w3.org/2000/svg">
<path d="M0 3.31416C0 2.68875 0.263396 2.08896 0.732245 1.64673C1.20109 1.2045 1.83699 0.956055 2.50004 0.956055L12.5002 0.956055C13.1633 0.956055 13.7991 1.2045 14.268 1.64673C14.7368 2.08896 15.0002 2.68875 15.0002 3.31416V19.2314C15.0002 19.338 14.9695 19.4427 14.9113 19.5341C14.8532 19.6256 14.7699 19.7005 14.6702 19.7508C14.5706 19.8012 14.4583 19.825 14.3454 19.82C14.2324 19.8149 14.1231 19.781 14.029 19.7219L7.50012 16.4028L0.971266 19.7219C0.877146 19.781 0.7678 19.8149 0.654875 19.82C0.541949 19.825 0.429673 19.8012 0.330005 19.7508C0.230336 19.7005 0.147007 19.6256 0.088894 19.5341C0.0307805 19.4427 5.84015e-05 19.338 0 19.2314V3.31416ZM2.50004 2.13511C2.16851 2.13511 1.85057 2.25933 1.61614 2.48045C1.38172 2.70156 1.25002 3.00146 1.25002 3.31416V18.1302L7.15387 15.2038C7.25644 15.1394 7.37691 15.105 7.50012 15.105C7.62333 15.105 7.7438 15.1394 7.84638 15.2038L13.7502 18.1302V3.31416C13.7502 3.00146 13.6185 2.70156 13.3841 2.48045C13.1497 2.25933 12.8317 2.13511 12.5002 2.13511H2.50004Z" fill="black"/>
</svg>
