<svg width="15" height="20" viewBox="0 0 15 20" fill="none" xmlns="http://www.w3.org/2000/svg">
<path d="M0 3.31392C0 2.68851 0.263396 2.08872 0.732245 1.64648C1.20109 1.20425 1.83699 0.955811 2.50004 0.955811L12.5002 0.955811C13.1633 0.955811 13.7991 1.20425 14.268 1.64648C14.7368 2.08872 15.0002 2.68851 15.0002 3.31392V19.2312C15.0002 19.3378 14.9695 19.4424 14.9113 19.5339C14.8532 19.6254 14.7699 19.7002 14.6702 19.7506C14.5706 19.8009 14.4583 19.8248 14.3454 19.8197C14.2324 19.8146 14.1231 19.7807 14.029 19.7216L7.50012 16.4026L0.971266 19.7216C0.877146 19.7807 0.7678 19.8146 0.654875 19.8197C0.541949 19.8248 0.429673 19.8009 0.330005 19.7506C0.230336 19.7002 0.147007 19.6254 0.088894 19.5339C0.0307805 19.4424 5.84015e-05 19.3378 0 19.2312V3.31392ZM2.50004 2.13487C2.16851 2.13487 1.85057 2.25909 1.61614 2.4802C1.38172 2.70132 1.25002 3.00121 1.25002 3.31392V18.1299L7.15387 15.2035C7.25644 15.1391 7.37691 15.1048 7.50012 15.1048C7.62333 15.1048 7.7438 15.1391 7.84638 15.2035L13.7502 18.1299V3.31392C13.7502 3.00121 13.6185 2.70132 13.3841 2.4802C13.1497 2.25909 12.8317 2.13487 12.5002 2.13487H2.50004Z" fill="black"/>
</svg>
