<svg width="28" height="28" viewBox="0 0 28 28" fill="none" xmlns="http://www.w3.org/2000/svg">
<path d="M25.3335 0H2.0197C0.90478 0 0 0.8835 0 1.97144V25.3859C0 26.4754 0.90478 27.36 2.0197 27.36H25.3335C26.4491 27.36 27.36 26.4754 27.36 25.3859V1.97144C27.36 0.8835 26.4491 0 25.3335 0ZM8.11452 23.3145H4.0546V10.2581H8.11452V23.3145ZM6.08456 8.47286C4.78382 8.47286 3.73236 7.41874 3.73236 6.11914C3.73236 4.82144 4.78382 3.76732 6.08456 3.76732C7.38226 3.76732 8.43638 4.82144 8.43638 6.11914C8.43638 7.41874 7.38226 8.47286 6.08456 8.47286ZM23.313 23.3145H19.2595V16.9655C19.2595 15.4508 19.2299 13.5033 17.1502 13.5033C15.0381 13.5033 14.7163 15.1529 14.7163 16.8557V23.3149H10.6598V10.2581H14.5529V12.0411H14.6083C15.1502 11.0151 16.4741 9.93244 18.4486 9.93244C22.5549 9.93244 23.3134 12.6358 23.3134 16.1527L23.313 23.3145Z" fill="black"/>
</svg>
