<svg width="28" height="27" viewBox="0 0 28 27" fill="none" xmlns="http://www.w3.org/2000/svg">
<path d="M27.53 13.5427C27.53 6.06119 21.3641 0 13.765 0C6.1607 0 0 6.06119 0 13.5427C0 20.3005 5.03197 25.9037 11.6142 26.9186V17.4582H8.11877V13.5435H11.6142V10.5582C11.6142 7.16492 13.6661 5.29095 16.8114 5.29095C18.3178 5.29095 19.8947 5.55503 19.8947 5.55503V8.88737H18.156C16.4492 8.88737 15.9158 9.9327 15.9158 11.0034V13.5427H19.733L19.1196 17.4573H15.9158V26.9177C22.4929 25.9029 27.53 20.2996 27.53 13.5418V13.5427Z" fill="black"/>
</svg>
