<svg width="26" height="28" viewBox="0 0 26 28" fill="none" xmlns="http://www.w3.org/2000/svg">
<path fill-rule="evenodd" clip-rule="evenodd" d="M5.41626 10.5004C5.41626 5.98541 8.80709 2.33374 12.9996 2.33374C17.1921 2.33374 20.5829 5.98541 20.5829 10.5004C20.5829 15.3654 15.7946 22.0737 13.8338 24.6287C13.4004 25.1887 12.6096 25.1887 12.1763 24.6287C10.2046 22.0737 5.41626 15.3654 5.41626 10.5004ZM10.2913 10.5004C10.2913 12.1104 11.5046 13.4171 12.9996 13.4171C14.4946 13.4171 15.7079 12.1104 15.7079 10.5004C15.7079 8.89041 14.4946 7.58374 12.9996 7.58374C11.5046 7.58374 10.2913 8.89041 10.2913 10.5004Z" fill="#0081FE"/>
</svg>
