<svg width="26" height="28" viewBox="0 0 26 28" fill="none" xmlns="http://www.w3.org/2000/svg">
<path fill-rule="evenodd" clip-rule="evenodd" d="M5.41602 10.5002C5.41602 5.98516 8.80685 2.3335 12.9993 2.3335C17.1918 2.3335 20.5827 5.98516 20.5827 10.5002C20.5827 15.3652 15.7943 22.0735 13.8335 24.6285C13.4002 25.1885 12.6093 25.1885 12.176 24.6285C10.2043 22.0735 5.41602 15.3652 5.41602 10.5002ZM10.291 10.5002C10.291 12.1102 11.5043 13.4168 12.9993 13.4168C14.4943 13.4168 15.7077 12.1102 15.7077 10.5002C15.7077 8.89016 14.4943 7.5835 12.9993 7.5835C11.5043 7.5835 10.291 8.89016 10.291 10.5002Z" fill="#0081FE"/>
</svg>
