<svg width="134" height="138" viewBox="0 0 134 138" fill="none" xmlns="http://www.w3.org/2000/svg">
<path d="M66.5316 59.4576C77.4578 59.4576 86.3152 50.1485 86.3152 38.6652C86.3152 27.1819 77.4578 17.8728 66.5316 17.8728C55.6055 17.8728 46.748 27.1819 46.748 38.6652C46.748 50.1485 55.6055 59.4576 66.5316 59.4576Z" fill="#1C1515"/>
<path d="M36.523 40.7439H38.518C38.518 40.0803 38.518 39.5052 38.518 38.8416C38.5301 33.31 39.9962 27.8923 42.7506 23.2014C45.505 18.5105 49.4377 14.7337 54.1038 12.2981C52.7224 8.91189 50.5051 5.98712 47.6875 3.83445C44.8699 1.68178 41.5572 0.381603 38.1011 0.0720069C34.645 -0.237589 31.1747 0.454958 28.0587 2.07609C24.9427 3.69723 22.2974 6.18641 20.4038 9.27927C18.5101 12.3721 17.4388 15.9532 17.3037 19.6421C17.1685 23.3309 17.9745 26.9899 19.6361 30.2303C21.2978 33.4708 23.7529 36.1717 26.7408 38.0462C29.7288 39.9207 33.1379 40.8988 36.6061 40.8766L36.523 40.7439Z" fill="#1C1515"/>
<path d="M94.6269 38.6647V40.567H96.6219C100.044 40.5304 103.393 39.5126 106.318 37.6206C109.242 35.7287 111.633 33.0325 113.239 29.816C114.846 26.5995 115.607 22.9816 115.445 19.343C115.282 15.7045 114.201 12.18 112.315 9.14042C110.429 6.10085 107.808 3.65867 104.728 2.07094C101.648 0.483203 98.2227 -0.19136 94.8129 0.118251C91.4031 0.427862 88.1347 1.7102 85.3518 3.83028C82.569 5.95036 80.3745 8.82977 78.9995 12.1654C83.6671 14.5915 87.6041 18.3588 90.3656 23.0415C93.1272 27.7243 94.6032 33.1359 94.6269 38.6647Z" fill="#1C1515"/>
<path d="M84.3618 61.5358C92.6255 63.2768 100.616 66.2557 108.094 70.3836C109.147 70.9996 110.102 71.7912 110.92 72.7283H133.031V57.5985C133.035 57.0182 132.89 56.4478 132.612 55.9488C132.333 55.4498 131.932 55.0412 131.452 54.7672C120.679 48.7698 108.696 45.657 96.5395 45.6982H93.7964C92.356 51.9302 89.0433 57.4912 84.3618 61.5358Z" fill="#1C1515"/>
<path d="M18.859 81.3114C18.8514 79.0834 19.4167 76.8957 20.4936 74.9851C21.5706 73.0746 23.1181 71.5142 24.9686 70.4728C32.4468 66.3449 40.4369 63.366 48.7006 61.625C44.0418 57.6148 40.7311 52.1039 39.266 45.9201H36.5229C24.3661 45.8789 12.383 48.9917 1.61069 54.9891C1.1301 55.2631 0.728976 55.6717 0.450631 56.1707C0.172286 56.6697 0.0273003 57.2401 0.0313318 57.8204V86.0893H18.859V81.3114Z" fill="#1C1515"/>
<path d="M80.9111 106.837H105.682V113.03H80.9111V106.837Z" fill="#1C1515"/>
<path d="M128.085 82.8168H99.5321V78.3928C99.5321 77.2195 99.0942 76.0943 98.3148 75.2647C97.5354 74.435 96.4782 73.9689 95.3759 73.9689C94.2736 73.9689 93.2165 74.435 92.437 75.2647C91.6576 76.0943 91.2197 77.2195 91.2197 78.3928V82.8168H83.1567V70.2971C77.6884 69.0748 72.1191 68.4376 66.5318 68.3948C53.4138 68.3366 40.4832 71.7091 28.8765 78.2159C28.3595 78.5014 27.9267 78.9334 27.626 79.4643C27.3253 79.9952 27.1683 80.6042 27.1724 81.2241V106.042H56.7231V132.984C56.7231 134.157 57.161 135.283 57.9405 136.112C58.7199 136.942 59.777 137.408 60.8793 137.408H128.085C129.188 137.408 130.245 136.942 131.024 136.112C131.804 135.283 132.242 134.157 132.242 132.984V87.2407C132.242 86.0674 131.804 84.9421 131.024 84.1125C130.245 83.2828 129.188 82.8168 128.085 82.8168ZM123.929 128.649H65.0355V91.6646H91.2197V95.6904C91.2197 96.8636 91.6576 97.9889 92.437 98.8185C93.2165 99.6482 94.2736 100.114 95.3759 100.114C96.4782 100.114 97.5354 99.6482 98.3148 98.8185C99.0942 97.9889 99.5321 96.8636 99.5321 95.6904V91.6646H123.929V128.649Z" fill="#1C1515"/>
</svg>
