<svg width="17" height="20" viewBox="0 0 17 20" fill="none" xmlns="http://www.w3.org/2000/svg">
<g clip-path="url(#clip0_506_1433)">
<path fill-rule="evenodd" clip-rule="evenodd" d="M7.59364 19.3144C7.98883 19.3144 15.0501 11.7698 15.0501 7.65175C15.0501 3.53367 11.7117 0.195312 7.59364 0.195312C3.47556 0.195312 0.137207 3.53367 0.137207 7.65175C0.137207 11.7698 7.19846 19.3144 7.59364 19.3144ZM7.59365 11.3812C9.68152 11.3812 11.3741 9.68863 11.3741 7.60076C11.3741 5.51289 9.68152 3.82034 7.59365 3.82034C5.50579 3.82034 3.81324 5.51289 3.81324 7.60076C3.81324 9.68863 5.50579 11.3812 7.59365 11.3812Z" fill="#1DAEEF"/>
<path fill-rule="evenodd" clip-rule="evenodd" d="M0.137207 7.65175C0.137207 11.7698 7.19846 19.3144 7.59364 19.3144V11.3812C5.50578 11.3811 3.81324 9.68862 3.81324 7.60076C3.81324 5.5129 5.50578 3.82035 7.59364 3.82034V0.195312C3.47556 0.195312 0.137207 3.53367 0.137207 7.65175Z" fill="#3EC3FF"/>
</g>
<defs>
<clipPath id="clip0_506_1433">
<rect width="16" height="20" fill="white" transform="translate(0.03125)"/>
</clipPath>
</defs>
</svg>
