<svg width="30" height="29" viewBox="0 0 30 29" fill="none" xmlns="http://www.w3.org/2000/svg">
<path d="M16.2359 0.424194V2.35263C18.1433 2.35263 19.9302 2.83474 21.5967 3.79896C23.1828 4.74309 24.4477 6.00863 25.3914 7.59557C26.3551 9.26286 26.8369 11.0507 26.8369 12.959H28.7644C28.7644 10.6891 28.1922 8.57988 27.0478 6.63135C25.9435 4.74309 24.4477 3.24654 22.5604 2.14171C20.6129 0.996699 18.5047 0.424194 16.2359 0.424194ZM6.26736 3.31685C5.72526 3.31685 5.25344 3.4876 4.85189 3.82909L1.74988 6.99293L1.84023 6.93267C1.33829 7.35451 1.00701 7.8768 0.846388 8.49952C0.705844 9.12225 0.746 9.72488 0.966854 10.3074C1.52903 11.8743 2.28194 13.4813 3.22559 15.1285C4.55072 17.3985 6.12682 19.4374 7.95389 21.2453C10.8852 24.1982 14.5293 26.5284 18.8862 28.2359H18.9163C19.4986 28.4368 20.0808 28.4769 20.6631 28.3564C21.2654 28.2359 21.7974 27.9747 22.2592 27.573L25.301 24.5297C25.7026 24.1279 25.9033 23.6357 25.9033 23.0532C25.9033 22.4506 25.7026 21.9484 25.301 21.5466L21.3557 17.5692C20.9542 17.1674 20.4522 16.9666 19.8499 16.9666C19.2476 16.9666 18.7456 17.1674 18.3441 17.5692L16.4467 19.4976C14.9208 18.7745 13.5957 17.8806 12.4714 16.8159C11.347 15.7312 10.4536 14.4154 9.791 12.8686L11.7185 10.9402C12.1401 10.4983 12.3509 9.97598 12.3509 9.37335C12.3509 8.75062 12.11 8.24843 11.6281 7.86676L11.7185 7.95715L7.68284 3.82909C7.28128 3.4876 6.80946 3.31685 6.26736 3.31685ZM16.2359 4.28107V6.20951C17.4607 6.20951 18.585 6.51082 19.609 7.11346C20.653 7.7161 21.4762 8.5397 22.0785 9.58427C22.6809 10.6088 22.982 11.7337 22.982 12.959H24.9095C24.9095 11.3922 24.518 9.93581 23.7349 8.58992C22.9519 7.28421 21.9079 6.23964 20.6028 5.45621C19.2576 4.67278 17.802 4.28107 16.2359 4.28107ZM6.26736 5.24529C6.3276 5.24529 6.39787 5.27542 6.47818 5.33568L10.4234 9.37335C10.4435 9.4537 10.4234 9.52401 10.3632 9.58427L7.50214 12.4167L7.71295 13.0193L8.10447 13.863C8.42571 14.546 8.79715 15.2089 9.21878 15.8517C9.80103 16.7556 10.4435 17.529 11.1462 18.1718C12.0899 19.0959 13.2243 19.9396 14.5494 20.7029C15.212 21.0846 15.7741 21.3658 16.2359 21.5466L16.8383 21.8178L19.7596 18.895C19.7997 18.8548 19.8298 18.8347 19.8499 18.8347C19.87 18.8347 19.9001 18.8548 19.9403 18.895L24.006 22.9628C24.0461 23.003 24.0662 23.0331 24.0662 23.0532C24.0662 23.0532 24.0461 23.0733 24.006 23.1135L20.9943 26.0965C20.5526 26.4782 20.0708 26.5786 19.5487 26.3978C15.4529 24.8109 12.0397 22.6414 9.30913 19.8894C7.62261 18.202 6.1469 16.2836 4.882 14.1342C3.97851 12.5874 3.27579 11.0909 2.77385 9.64453V9.6144C2.69353 9.43361 2.6835 9.22269 2.74373 8.98163C2.80396 8.72049 2.91439 8.51961 3.07501 8.379L6.05655 5.33568C6.11678 5.27542 6.18705 5.24529 6.26736 5.24529ZM16.2359 8.13794V10.0664C17.039 10.0664 17.7217 10.3476 18.2839 10.9101C18.846 11.4725 19.1271 12.1555 19.1271 12.959H21.0546C21.0546 12.0953 20.8337 11.2917 20.392 10.5485C19.9704 9.80524 19.3881 9.22269 18.6453 8.80084C17.9024 8.35891 17.0993 8.13794 16.2359 8.13794Z" fill="black"/>
</svg>
