<svg width="29" height="28" viewBox="0 0 29 28" fill="none" xmlns="http://www.w3.org/2000/svg">
<path d="M10.0938 1.64062V6.5625H8.125V4.59375H2.21875V22.3125H4.1875V23.2969C4.1875 24.0967 4.47461 24.7837 5.04883 25.3579C5.64355 25.9526 6.34082 26.25 7.14062 26.25C7.94043 26.25 8.62744 25.9526 9.20166 25.3579C9.79639 24.7837 10.0938 24.0967 10.0938 23.2969V22.3125H25.8438V6.5625H21.9062V1.64062H10.0938ZM12.0625 3.60938H19.9375V8.53125H12.0625V3.60938ZM4.1875 6.5625H6.15625V20.3438H4.1875V6.5625ZM8.125 8.53125H10.0938V10.5H21.9062V8.53125H23.875V20.3438H8.125V8.53125ZM11.0781 12.4688V14.4375H13.0469V12.4688H11.0781ZM15.0156 12.4688V14.4375H16.9844V12.4688H15.0156ZM18.9531 12.4688V14.4375H20.9219V12.4688H18.9531ZM11.0781 16.4062V18.375H13.0469V16.4062H11.0781ZM15.0156 16.4062V18.375H16.9844V16.4062H15.0156ZM18.9531 16.4062V18.375H20.9219V16.4062H18.9531ZM6.15625 22.3125H8.125V23.2969C8.125 23.5635 8.02246 23.7993 7.81738 24.0044C7.63281 24.189 7.40723 24.2812 7.14062 24.2812C6.87402 24.2812 6.63818 24.189 6.43311 24.0044C6.24854 23.7993 6.15625 23.5635 6.15625 23.2969V22.3125Z" fill="black"/>
</svg>
