<svg width="148" height="151" viewBox="0 0 148 151" fill="none" xmlns="http://www.w3.org/2000/svg">
<path d="M22.0813 63.8984C22.0813 61.8224 23.7266 60.1396 25.7563 60.1396H33.1063C35.136 60.1396 36.7813 61.8224 36.7813 63.8984V71.4158C36.7813 73.4918 35.136 75.1745 33.1063 75.1745H25.7563C23.7266 75.1745 22.0813 73.4918 22.0813 71.4158V63.8984Z" fill="#222121"/>
<path d="M44.1306 63.8984C44.1306 61.8224 45.7759 60.1396 47.8056 60.1396H55.1556C57.1853 60.1396 58.8306 61.8224 58.8306 63.8984V71.4158C58.8306 73.4918 57.1853 75.1745 55.1556 75.1745H47.8056C45.7759 75.1745 44.1306 73.4918 44.1306 71.4158V63.8984Z" fill="#222121"/>
<path d="M25.7563 82.6917C23.7266 82.6917 22.0813 84.3744 22.0813 86.4504V93.9678C22.0813 96.0438 23.7266 97.7265 25.7563 97.7265H33.1063C35.136 97.7265 36.7813 96.0438 36.7813 93.9678V86.4504C36.7813 84.3744 35.136 82.6917 33.1063 82.6917H25.7563Z" fill="#222121"/>
<path d="M22.0813 109.003C22.0813 106.927 23.7266 105.245 25.7563 105.245H33.1063C35.136 105.245 36.7813 106.927 36.7813 109.003V116.521C36.7813 118.597 35.136 120.28 33.1063 120.28H25.7563C23.7266 120.28 22.0813 118.597 22.0813 116.521V109.003Z" fill="#222121"/>
<path d="M47.8056 82.6917C45.7759 82.6917 44.1306 84.3744 44.1306 86.4504V93.9678C44.1306 96.0438 45.7759 97.7265 47.8056 97.7265H55.1556C57.1853 97.7265 58.8306 96.0438 58.8306 93.9678V86.4504C58.8306 84.3744 57.1853 82.6917 55.1556 82.6917H47.8056Z" fill="#222121"/>
<path d="M44.1306 109.003C44.1306 106.927 45.7759 105.245 47.8056 105.245H55.1556C57.1853 105.245 58.8306 106.927 58.8306 109.003V116.521C58.8306 118.597 57.1853 120.28 55.1556 120.28H47.8056C45.7759 120.28 44.1306 118.597 44.1306 116.521V109.003Z" fill="#222121"/>
<path d="M113.956 67.6572C111.926 67.6572 110.281 69.34 110.281 71.4159V78.9334C110.281 81.0093 111.926 82.6921 113.956 82.6921H121.306C123.336 82.6921 124.981 81.0093 124.981 78.9334V71.4159C124.981 69.34 123.336 67.6572 121.306 67.6572H113.956Z" fill="#222121"/>
<path d="M110.281 93.968C110.281 91.892 111.926 90.2092 113.956 90.2092H121.306C123.336 90.2092 124.981 91.892 124.981 93.968V101.485C124.981 103.561 123.336 105.244 121.306 105.244H113.956C111.926 105.244 110.281 103.561 110.281 101.485V93.968Z" fill="#222121"/>
<path d="M113.956 112.761C111.926 112.761 110.281 114.444 110.281 116.52V124.037C110.281 126.113 111.926 127.796 113.956 127.796H121.306C123.336 127.796 124.981 126.113 124.981 124.037V116.52C124.981 114.444 123.336 112.761 121.306 112.761H113.956Z" fill="#222121"/>
<path fill-rule="evenodd" clip-rule="evenodd" d="M7.38125 142.831H0.03125V150.349H147.031V142.831H139.681V63.8983C139.681 57.6705 134.745 52.6221 128.656 52.6221H106.606V11.2762C106.606 5.04853 101.67 0 95.5812 0H51.4812C45.3921 0 40.4562 5.04853 40.4562 11.2762V45.1047H18.4062C12.3173 45.1047 7.38125 50.153 7.38125 56.3808V142.831ZM66.1812 142.831V56.3808C66.1812 54.3049 64.5359 52.6221 62.5062 52.6221H18.4062C16.3766 52.6221 14.7312 54.3049 14.7312 56.3808V142.831H66.1812ZM132.331 142.831V63.8983C132.331 61.8223 130.686 60.1396 128.656 60.1396H106.606V142.831H132.331ZM58.8312 15.0349C56.8015 15.0349 55.1562 16.7177 55.1562 18.7936V26.3111C55.1562 28.387 56.8015 30.0698 58.8312 30.0698H66.1812C68.2109 30.0698 69.8562 28.387 69.8562 26.3111V18.7936C69.8562 16.7177 68.2109 15.0349 66.1812 15.0349H58.8312ZM58.8312 37.5872C56.8015 37.5872 55.1562 39.27 55.1562 41.3459V45.1047H62.5062C65.3301 45.1047 67.9056 46.1906 69.8562 47.976V41.3459C69.8562 39.27 68.2109 37.5872 66.1812 37.5872H58.8312ZM80.8812 15.0349C78.8515 15.0349 77.2062 16.7177 77.2062 18.7936V26.3111C77.2062 28.387 78.8515 30.0698 80.8812 30.0698H88.2312C90.2609 30.0698 91.9062 28.387 91.9062 26.3111V18.7936C91.9062 16.7177 90.2609 15.0349 88.2312 15.0349H80.8812ZM77.2062 41.3459C77.2062 39.27 78.8515 37.5872 80.8812 37.5872H88.2312C90.2609 37.5872 91.9062 39.27 91.9062 41.3459V48.8634C91.9062 50.9393 90.2609 52.6221 88.2312 52.6221H80.8812C78.8515 52.6221 77.2062 50.9393 77.2062 48.8634V41.3459ZM80.8812 60.1396C78.8515 60.1396 77.2062 61.8223 77.2062 63.8983V71.4157C77.2062 73.4917 78.8515 75.1744 80.8812 75.1744H88.2312C90.2609 75.1744 91.9062 73.4917 91.9062 71.4157V63.8983C91.9062 61.8223 90.2609 60.1396 88.2312 60.1396H80.8812ZM77.2062 86.4506C77.2062 84.3747 78.8515 82.6919 80.8812 82.6919H88.2312C90.2609 82.6919 91.9062 84.3747 91.9062 86.4506V93.9681C91.9062 96.044 90.2609 97.7268 88.2312 97.7268H80.8812C78.8515 97.7268 77.2062 96.044 77.2062 93.9681V86.4506ZM80.8812 105.244C78.8515 105.244 77.2062 106.927 77.2062 109.003V116.52C77.2062 118.596 78.8515 120.279 80.8812 120.279H88.2312C90.2609 120.279 91.9062 118.596 91.9062 116.52V109.003C91.9062 106.927 90.2609 105.244 88.2312 105.244H80.8812Z" fill="#222121"/>
</svg>
