<svg width="27" height="28" viewBox="0 0 27 28" fill="none" xmlns="http://www.w3.org/2000/svg">
<path fill-rule="evenodd" clip-rule="evenodd" d="M5.44775 10.5003C5.44775 5.98533 8.83859 2.33366 13.0311 2.33366C17.2236 2.33366 20.6144 5.98533 20.6144 10.5003C20.6144 15.3653 15.8261 22.0737 13.8653 24.6287C13.4319 25.1887 12.6411 25.1887 12.2078 24.6287C10.2361 22.0737 5.44775 15.3653 5.44775 10.5003ZM10.3228 10.5003C10.3228 12.1103 11.5361 13.417 13.0311 13.417C14.5261 13.417 15.7394 12.1103 15.7394 10.5003C15.7394 8.89033 14.5261 7.58366 13.0311 7.58366C11.5361 7.58366 10.3228 8.89033 10.3228 10.5003Z" fill="#0081FE"/>
</svg>
