<svg width="25" height="24" viewBox="0 0 25 24" fill="none" xmlns="http://www.w3.org/2000/svg">
<path fill-rule="evenodd" clip-rule="evenodd" d="M7.03125 3H17.0312C17.5813 3 18.0312 3.45 18.0312 4V6C18.0312 6.55 17.5813 7 17.0312 7H7.03125C6.48125 7 6.03125 6.55 6.03125 6V4C6.03125 3.45 6.48125 3 7.03125 3ZM5.03125 8H19.0312C20.6912 8 22.0312 9.34 22.0312 11V15C22.0312 16.1 21.1313 17 20.0312 17H18.0312V19C18.0312 20.1 17.1313 21 16.0312 21H8.03125C6.93125 21 6.03125 20.1 6.03125 19V17H4.03125C2.93125 17 2.03125 16.1 2.03125 15V11C2.03125 9.34 3.37125 8 5.03125 8ZM9.03125 19H15.0312C15.5813 19 16.0312 18.55 16.0312 18V14H8.03125V18C8.03125 18.55 8.48125 19 9.03125 19ZM19.0312 12C18.4813 12 18.0312 11.55 18.0312 11C18.0312 10.45 18.4813 10 19.0312 10C19.5812 10 20.0312 10.45 20.0312 11C20.0312 11.55 19.5812 12 19.0312 12Z" fill="#0081FE"/>
</svg>
