<svg width="25" height="24" viewBox="0 0 25 24" fill="none" xmlns="http://www.w3.org/2000/svg">
<path fill-rule="evenodd" clip-rule="evenodd" d="M19.2613 15.26L16.7213 14.97C16.1113 14.9 15.5113 15.11 15.0813 15.54L13.2413 17.38C10.4113 15.94 8.09129 13.63 6.65129 10.79L8.50129 8.93999C8.93129 8.50999 9.14129 7.90999 9.07129 7.29999L8.78129 4.77999C8.66129 3.76999 7.81129 3.00999 6.79129 3.00999H5.06129C3.93129 3.00999 2.99129 3.94999 3.06129 5.07999C3.59129 13.62 10.4213 20.44 18.9513 20.97C20.0813 21.04 21.0213 20.1 21.0213 18.97V17.24C21.0313 16.23 20.2713 15.38 19.2613 15.26Z" fill="#0081FE"/>
</svg>
