<svg width="50" height="64" viewBox="0 0 50 64" fill="none" xmlns="http://www.w3.org/2000/svg">
<path d="M24.5313 0C11.0003 0 0.03125 10.6934 0.03125 23.8845C0.03125 28.2959 0.916967 32.8521 3.4587 36.1361L24.5313 63.3619L45.6038 36.1361C47.9125 33.1533 49.0312 27.8802 49.0312 23.8845C49.0313 10.6934 38.0622 0 24.5313 0ZM24.5313 13.8333C30.2246 13.8333 34.8414 18.3342 34.8414 23.8844C34.8414 29.4348 30.2246 33.9356 24.5313 33.9356C18.8379 33.9356 14.2211 29.4348 14.2211 23.8845C14.2211 18.3342 18.8379 13.8333 24.5313 13.8333Z" fill="url(#paint0_linear_506_1471)"/>
<defs>
<linearGradient id="paint0_linear_506_1471" x1="25.0313" y1="-4.5" x2="25.0312" y2="78" gradientUnits="userSpaceOnUse">
<stop stop-color="#AA3529"/>
<stop offset="1" stop-color="#2C2480"/>
</linearGradient>
</defs>
</svg>
