<svg width="28" height="26" viewBox="0 0 28 26" fill="none" xmlns="http://www.w3.org/2000/svg">
<path d="M27.5588 12.9366C27.5588 5.78992 21.3935 0 13.795 0C6.19141 0 0.03125 5.78992 0.03125 12.9366C0.03125 19.3919 5.06278 24.7444 11.6444 25.7139V16.6769H8.14931V12.9374H11.6444V10.0857C11.6444 6.84425 13.6961 5.05416 16.8411 5.05416C18.3474 5.05416 19.9242 5.30642 19.9242 5.30642V8.48962H18.1857C16.479 8.48962 15.9456 9.48817 15.9456 10.511V12.9366H19.7625L19.1492 16.676H15.9456V25.7131C22.5221 24.7436 27.5588 19.3911 27.5588 12.9358V12.9366Z" fill="black"/>
</svg>
