<svg width="28" height="26" viewBox="0 0 28 26" fill="none" xmlns="http://www.w3.org/2000/svg">
<path d="M25.3647 0H2.05095C0.93603 0 0.03125 0.830401 0.03125 1.85295V23.8602C0.03125 24.8842 0.93603 25.7156 2.05095 25.7156H25.3647C26.4804 25.7156 27.3913 24.8842 27.3913 23.8602V1.85295C27.3913 0.830401 26.4804 0 25.3647 0ZM8.14577 21.9133H4.08585V9.64158H8.14577V21.9133ZM6.11581 7.96363C4.81507 7.96363 3.76361 6.97287 3.76361 5.75137C3.76361 4.53167 4.81507 3.5409 6.11581 3.5409C7.41351 3.5409 8.46763 4.53167 8.46763 5.75137C8.46763 6.97287 7.41351 7.96363 6.11581 7.96363ZM23.3442 21.9133H19.2908V15.9458C19.2908 14.5222 19.2612 12.6917 17.1814 12.6917C15.0694 12.6917 14.7475 14.2422 14.7475 15.8426V21.9137H10.691V9.64158H14.5841V11.3174H14.6396C15.1815 10.353 16.5054 9.33549 18.4799 9.33549C22.5861 9.33549 23.3446 11.8763 23.3446 15.1819L23.3442 21.9133Z" fill="black"/>
</svg>
