<svg width="179" height="124" viewBox="0 0 179 124" fill="none" xmlns="http://www.w3.org/2000/svg">
<path d="M10.155 0C4.56469 0 0.03125 4.27419 0.03125 9.51562V97.0385C0.03125 102.28 5.12094 107.077 10.7113 107.077H25.285C26.9816 116.566 35.7425 123.808 46.3112 123.808C56.88 123.808 65.6409 116.566 67.3375 107.077H100.268C105.844 107.077 110.391 102.803 110.391 97.5613V9.72476C110.391 4.36569 105.9 0 100.379 0H10.155ZM117.511 23.4231V107.077C119.222 116.553 128.303 123.808 138.871 123.808C149.44 123.808 158.201 116.553 159.897 107.077H167.351C172.942 107.077 178.031 102.293 178.031 97.0385V64.8317C178.031 58.1002 172.872 51.2249 172.246 50.4014L157.45 31.7885C154.057 27.9456 148.731 23.4231 142.431 23.4231H117.511ZM135.311 40.1538H155.225L166.572 54.375C167.782 55.9827 170.911 60.9105 170.911 64.8317V66.9231H135.311C131.751 66.9231 128.191 63.5769 128.191 60.2308V46.8462C128.191 43.1471 131.751 40.1538 135.311 40.1538ZM46.3112 90.3462C54.1683 90.3462 60.5513 96.3457 60.5513 103.731C60.5513 111.116 54.1683 117.115 46.3112 117.115C38.4542 117.115 32.0713 111.116 32.0713 103.731C32.0713 96.3457 38.4542 90.3462 46.3112 90.3462ZM138.871 90.3462C146.728 90.3462 153.111 96.3457 153.111 103.731C153.111 111.116 146.728 117.115 138.871 117.115C131.014 117.115 124.631 111.116 124.631 103.731C124.631 96.3457 131.014 90.3462 138.871 90.3462Z" fill="black"/>
</svg>
