<svg width="53" height="7" viewBox="0 0 53 7" fill="none" xmlns="http://www.w3.org/2000/svg">
<path d="M8.31182 3.5C8.31182 4.19223 8.069 4.86892 7.61406 5.44449C7.15912 6.02007 6.51249 6.46867 5.75596 6.73358C4.99942 6.99848 4.16694 7.0678 3.36381 6.93275C2.56067 6.7977 1.82294 6.46435 1.24391 5.97487C0.664884 5.48539 0.27056 4.86175 0.110806 4.18281C-0.0489475 3.50388 0.0330439 2.80015 0.346412 2.16061C0.659781 1.52107 1.19045 0.97444 1.87132 0.589855C2.55218 0.205271 3.35267 0 4.17154 0C5.26922 0.00106143 6.32159 0.370151 7.09777 1.0263C7.87396 1.68245 8.31057 2.57207 8.31182 3.5ZM26.2531 0C25.4342 0 24.6337 0.205271 23.9528 0.589855C23.272 0.97444 22.7413 1.52107 22.4279 2.16061C22.1146 2.80015 22.0326 3.50388 22.1923 4.18281C22.3521 4.86175 22.7464 5.48539 23.3254 5.97487C23.9045 6.46435 24.6422 6.7977 25.4453 6.93275C26.2485 7.0678 27.0809 6.99848 27.8375 6.73358C28.594 6.46867 29.2406 6.02007 29.6956 5.44449C30.1505 4.86892 30.3933 4.19223 30.3933 3.5C30.3921 2.57207 29.9555 1.68245 29.1793 1.0263C28.4031 0.370151 27.3507 0.00106143 26.2531 0ZM48.3346 0C47.5157 0 46.7152 0.205271 46.0344 0.589855C45.3535 0.97444 44.8228 1.52107 44.5095 2.16061C44.1961 2.80015 44.1141 3.50388 44.2738 4.18281C44.4336 4.86175 44.8279 5.48539 45.407 5.97487C45.986 6.46435 46.7237 6.7977 47.5269 6.93275C48.33 7.0678 49.1625 6.99848 49.919 6.73358C50.6755 6.46867 51.3222 6.02007 51.7771 5.44449C52.232 4.86892 52.4749 4.19223 52.4749 3.5C52.4736 2.57207 52.037 1.68245 51.2608 1.0263C50.4846 0.370151 49.4323 0.00106143 48.3346 0Z" fill="black"/>
</svg>
