<svg width="86" height="110" viewBox="0 0 86 110" fill="none" xmlns="http://www.w3.org/2000/svg">
<path d="M64.1175 29.8483C64.1175 29.8483 69.2376 26.7472 70.883 32.4829C72.5298 38.2201 61.4961 41.9817 61.4961 41.9817L64.1175 29.8483Z" fill="#EFB075"/>
<path d="M31.4928 29.8483C31.4928 29.8483 26.372 26.7472 24.7259 32.4829C23.0804 38.2201 34.1134 41.9817 34.1134 41.9817L31.4928 29.8483Z" fill="#EFB075"/>
<path d="M40.5625 48.3208H55.0516V69.1733H40.5625V48.3208Z" fill="#EFB075"/>
<path d="M59.6445 44.0929L62.9168 28.9468L63.428 28.6367C63.6024 28.5318 65.184 27.6064 67.0598 27.6064C68.4962 27.6064 71.0736 28.1881 72.1919 32.0842C74.1901 39.0465 62.4269 43.1435 61.9263 43.315L59.6445 44.0929ZM65.3065 30.8173L63.3908 39.683C66.4154 38.2412 70.3733 35.6545 69.5772 32.8813C68.9435 30.6712 67.8372 30.416 67.0598 30.416C66.3875 30.416 65.7351 30.6342 65.3065 30.8173Z" fill="black"/>
<path d="M35.9648 44.0929L33.6843 43.315C33.1824 43.1435 21.4206 39.0465 23.4175 32.0849C24.5358 28.1881 27.1138 27.6064 28.5502 27.6064C30.426 27.6064 32.0082 28.5318 32.1826 28.6367L32.6939 28.9468L35.9648 44.0929ZM28.5502 30.416C27.7728 30.416 26.6665 30.6712 26.0321 32.8813C25.2367 35.6545 29.1939 38.2412 32.2193 39.683L30.3042 30.8166C29.8769 30.6342 29.2232 30.416 28.5502 30.416Z" fill="black"/>
<path d="M65.5083 32.4038C62.6941 49.7072 57.992 55.9203 47.805 55.9203C37.6167 55.9203 32.5052 46.5436 30.1016 29.9859C30.1016 13.9151 37.5322 10.2666 47.7218 10.2666C57.9068 10.2666 65.5083 15.8398 65.5083 32.4038Z" fill="#EFB075"/>
<path d="M47.8049 57.3246C34.2584 57.3246 30.4443 41.8403 28.7536 30.1932L28.7383 29.9853C28.7383 11.2621 38.8833 8.86133 47.721 8.86133C56.4569 8.86133 66.8715 12.9454 66.8715 32.4033L66.8529 32.6358C63.9254 50.6326 58.7627 57.3246 47.8049 57.3246ZM31.4647 29.8811C33.9536 46.9162 38.9951 54.515 47.8049 54.515C57.1785 54.515 61.4612 48.6969 64.1451 32.2867C64.1144 18.4157 58.7414 11.6709 47.721 11.6709C39.296 11.6709 31.498 13.8789 31.4647 29.8811Z" fill="black"/>
<path d="M37.0869 11.6891L52.1444 14.7737C58.2589 16.1531 57.8996 15.9659 60.3757 17.3035C62.5123 18.4579 65.5916 31.2218 65.5916 31.2218L66.5475 23.031C66.5475 23.031 63.3511 11.5142 61.4354 9.65117C59.5196 7.78886 51.9939 3.09839 46.8991 4.79202C41.8043 6.48559 35.9493 8.1332 35.9493 8.1332C35.9493 8.1332 32.0167 16.0098 29.0586 24.1079L30.7626 32.8879C30.7626 32.8879 33.5304 24.0469 34.9555 20.6597C36.3807 17.2726 36.3807 17.2726 36.3807 17.2726L37.0869 11.6891Z" fill="#2B0F01"/>
<path d="M66.0186 38.2912L64.3864 31.5299C63.0059 25.8044 60.8252 19.1721 59.7802 18.4252C57.7699 17.34 57.7699 17.34 53.82 16.4586L51.879 16.0237L38.1482 13.2107L37.5211 17.7811L36.096 21.1682C34.7115 24.46 31.973 33.1926 31.9457 33.2804L30.4813 37.9592L27.7715 23.9991L27.8966 23.6568C30.8461 15.5827 34.806 7.6265 34.8459 7.54694L35.0955 7.04621L35.6227 6.89804C35.6813 6.88158 41.5103 5.23808 46.5193 3.57332C47.3646 3.29209 48.3032 3.14941 49.3056 3.14941C54.3685 3.14941 60.3526 6.83768 62.2883 8.71988C64.3478 10.7221 67.1927 20.699 67.7426 22.6786L67.8118 22.9269L66.0186 38.2912ZM30.3475 24.2165L31.0617 27.8959C31.9544 25.185 33.0607 21.9474 33.8168 20.1503L35.1721 16.9285L35.9096 11.0966C34.559 13.9645 32.2559 19.0452 30.3475 24.2165ZM36.323 10.2269L54.3459 13.9563C58.4649 14.8755 58.6246 14.9118 60.9264 16.1547C62.4094 16.9559 63.9298 20.8643 65.1053 24.6809L65.285 23.1348C63.983 18.4944 61.7132 11.6797 60.5843 10.5815C59.1571 9.19524 53.7082 5.70932 49.3056 5.70932C48.5628 5.70932 47.8812 5.81015 47.2808 6.00976C43.1065 7.3974 38.3751 8.76859 36.8102 9.21581C36.6877 9.46687 36.5227 9.80778 36.323 10.2269Z" fill="#2B0F01"/>
<path d="M58.0274 62.7388C58.0274 62.7388 56.3234 68.0067 47.8032 68.0067C39.283 68.0067 37.5789 62.7388 37.5789 62.7388L32.4668 103.127H63.1395L58.0274 62.7388Z" fill="white"/>
<path d="M63.1388 104.483H32.4661L31.1621 102.952L36.2742 62.5643L38.8256 62.3119C38.8829 62.4738 40.4338 66.6525 47.8025 66.6525C55.1711 66.6525 56.7221 62.4738 56.7846 62.2954L59.33 62.5643L64.4422 102.952L63.1388 104.483ZM33.9638 101.772H61.6412L57.1441 66.245C55.4733 67.8007 52.6017 69.3633 47.8025 69.3633C43.0032 69.3633 40.131 67.8007 38.4609 66.245L33.9638 101.772Z" fill="#010A7F"/>
<path d="M47.8041 73.9773C37.1705 73.9773 35.2328 66.4965 35.2148 66.4211L36.5361 66.0781C36.6027 66.3429 38.2775 72.5725 47.8041 72.5725C57.3308 72.5725 59.0055 66.3429 59.0721 66.0781L60.394 66.4211C60.3754 66.4965 58.4371 73.9773 47.8041 73.9773Z" fill="#C3C3C3"/>
<path d="M84.7728 87.2563L78.6914 71.1946L58.806 62.3296L61.4366 82.0557L47.7943 94.3476L34.172 82.0557L36.8033 62.3296L16.9172 71.1946L10.8359 87.2563L36.7904 108.417L36.7927 108.427H58.8153L58.8177 108.418L84.7728 87.2563Z" fill="#F10009"/>
<path d="M58.8175 109.782H36.7947L36.161 109.239L35.9767 109.479L10.022 88.3194L9.61328 86.7637L15.6946 70.7018L16.3975 69.9514L36.2835 61.0864L38.108 62.5132L35.5733 81.5163L47.7971 92.5475L60.0396 81.5163L57.5061 62.5132L59.33 61.0864L79.2154 69.9514L79.9183 70.7018L85.9996 86.7637L85.5909 88.3194L59.6362 109.48L59.4738 109.268L58.8175 109.782ZM37.2633 107.071H58.3515L83.1959 86.8158L77.6684 72.2136L60.4283 64.5284L62.7407 81.8716L62.3041 83.0761L48.6611 95.368L46.9291 95.3667L33.3081 83.0747L32.8714 81.8716L35.1852 64.5284L17.9451 72.2136L12.4163 86.8158L37.2633 107.071Z" fill="#010A7F"/>
<path d="M65.4957 66.1425L55.6907 60.5576C56.7973 63.0945 57.7717 68.4815 58.5353 73.937C57.7973 79.6096 55.3817 82.252 47.793 94.3481C47.793 94.3481 62.4577 81.0026 70.1445 80.8215C68.9943 73.0306 65.4957 66.1425 65.4957 66.1425Z" fill="#F10009"/>
<path d="M48.6657 95.3625L46.6914 93.612C48.1984 91.2085 49.5031 89.1782 50.6307 87.4222C55.0918 80.4737 56.6374 78.066 57.2112 73.9408C56.0743 65.8852 55.1078 62.5186 54.4941 61.1125L56.3299 59.3716L66.1348 64.9565L66.6633 65.5134C66.8097 65.8029 70.2777 72.6938 71.4466 80.6163L70.1779 82.1748C64.2697 82.3147 52.6462 91.7422 48.6657 95.3625ZM57.974 63.4049C58.6064 65.9319 59.2294 69.389 59.8392 73.7433L59.8418 74.1164C59.2387 78.7478 57.6292 81.4257 53.449 87.9421C57.9887 84.4836 64.0194 80.4887 68.615 79.6313C67.514 73.7062 65.1616 68.5014 64.5053 67.124L57.974 63.4049Z" fill="#010A7F"/>
<path d="M29.8969 66.1425L39.7019 60.5576C38.5952 63.0945 37.6209 68.4815 36.8572 73.937C37.5953 79.6096 40.0109 82.252 47.5996 94.3481C47.5996 94.3481 32.9349 81.0026 25.248 80.8215C26.3983 73.0306 29.8969 66.1425 29.8969 66.1425Z" fill="#F10009"/>
<path d="M46.7295 95.3625C42.7496 91.7422 31.1268 82.3147 25.2193 82.1748L23.9492 80.6163C25.1194 72.6938 28.5861 65.8029 28.7332 65.5134L29.2617 64.9565L39.0666 59.3716L40.9024 61.1125C40.2887 62.5186 39.3215 65.8866 38.1866 73.9408C38.7577 78.066 40.3034 80.4723 44.7632 87.418C45.8907 89.1754 47.1954 91.2071 48.7037 93.612L46.7295 95.3625ZM26.7815 79.6313C31.3771 80.4887 37.4078 84.4836 41.9468 87.9421C37.7673 81.4244 36.1577 78.7478 35.5553 74.1164L35.5573 73.7433C36.1664 69.3903 36.7901 65.9332 37.4218 63.4049L30.8905 67.124C30.2355 68.5014 27.8825 73.7062 26.7815 79.6313Z" fill="#010A7F"/>
<path d="M48.3413 1.28076C66.5506 1.28076 69.9587 15.3287 66.5506 27.6206C66.5506 27.6206 68.2547 20.5967 47.8062 20.5967C27.3577 20.5967 29.0617 27.6206 29.0617 27.6206C25.6536 15.3287 29.0617 1.28076 48.3413 1.28076Z" fill="#F10009"/>
<path d="M67.746 27.9717L65.3377 27.353C65.3417 27.3242 65.4456 26.6334 64.7214 25.7493C63.5352 24.3026 59.7597 21.8758 47.8074 21.8758C35.6422 21.8758 31.9339 24.3726 30.8056 25.8611C30.1932 26.6698 30.2664 27.3036 30.2678 27.3091L27.8688 27.9717C25.6622 20.0135 26.5082 12.5642 30.1906 7.53361C33.8503 2.53453 39.9569 0 48.3426 0C56.0308 0 61.931 2.50846 65.4056 7.25512C69.1319 12.3461 69.9852 19.8969 67.746 27.9717ZM47.8074 19.3159C57.1517 19.3159 63.3142 20.7522 66.1565 23.5879C67.0644 17.7396 66.1192 12.4813 63.422 8.79642C60.3934 4.65818 55.3198 2.55991 48.3426 2.55991C40.7783 2.55991 35.3386 4.75215 32.1742 9.07559C29.5229 12.6966 28.5857 17.8521 29.4624 23.5838C32.3053 20.7509 38.4671 19.3159 47.8074 19.3159Z" fill="#010A7F"/>
<path d="M29.0563 25.8631C29.0563 25.8631 30.7603 22.3511 47.8007 22.3511C64.8411 22.3511 66.5452 25.8631 66.5452 25.8631C66.5452 25.8631 68.2492 15.3271 47.8007 15.3271C27.3522 15.3271 29.0563 25.8631 29.0563 25.8631Z" fill="#F10009"/>
<path d="M28.3986 30.0724L27.8362 26.0748C27.8149 25.9417 27.3389 22.7837 29.8617 19.7148C32.9529 15.9546 38.9903 14.0483 47.8061 14.0483C56.6218 14.0483 62.6592 15.9546 65.7504 19.7148C68.2732 22.7837 67.7979 25.9417 67.7753 26.0748L67.1483 29.9572L65.4828 26.5268C65.2152 26.2436 62.3477 23.6322 47.8061 23.6322C32.507 23.6322 30.1293 26.5227 30.1067 26.5515L28.3986 30.0724ZM47.8061 21.0723C57.3886 21.0723 62.373 22.1581 64.9623 23.2639C64.7333 22.6568 64.3712 21.9853 63.8054 21.3096C62.0042 19.1654 57.7667 16.6082 47.8061 16.6082C37.8454 16.6082 33.6079 19.1654 31.8074 21.3096C31.2403 21.9853 30.8788 22.6568 30.6492 23.2639C33.2398 22.1581 38.2242 21.0723 47.8061 21.0723Z" fill="#010A7F"/>
<path d="M41.9218 65.4114V55.7162H53.6843V65.4104C55.1743 64.636 55.9967 63.671 56.4108 63.0191V54.6187L48.0142 55.3383L39.1953 53.2139V63.0235C39.6076 63.6717 40.4296 64.6367 41.9218 65.4114Z" fill="black"/>
<path d="M19.5532 86.3191L0 76.2441V55.7635L19.5532 45.6885L39.1058 55.7635V76.2441L19.5532 86.3191ZM2.72647 74.5073L19.5532 83.1775L36.3793 74.5073V57.5003L19.5532 48.8301L2.72647 57.5003V74.5073Z" fill="#40210F"/>
<path d="M37.7464 56.6318L19.5568 47.2598L1.36719 56.6318L19.5568 66.0039L37.7464 56.6318Z" fill="#C59D62"/>
<path d="M1.36719 56.6323L19.5568 66.0044V84.7485L1.36719 75.3765V56.6323Z" fill="#B08046"/>
<path d="M37.7404 56.6323L19.5508 66.0044V84.7485L37.7404 75.3765V56.6323Z" fill="#926134"/>
<path d="M26.3752 50.7744L8.18555 60.1465L12.733 62.4895L30.9226 53.1174L26.3752 50.7744Z" fill="#FFCB7F"/>
<path d="M8.18555 60.1455V64.5094L12.733 66.7938V62.4885" fill="#E8A85C"/>
</svg>
