<svg width="52" height="7" viewBox="0 0 52 7" fill="none" xmlns="http://www.w3.org/2000/svg">
<path d="M8.21053 3.47039C8.21053 4.15677 7.96976 4.82774 7.51867 5.39844C7.06758 5.96914 6.42642 6.41395 5.67628 6.67662C4.92614 6.93928 4.10071 7.00801 3.30437 6.8741C2.50803 6.7402 1.77654 6.40967 1.20241 5.92433C0.628274 5.43899 0.237286 4.82062 0.0788833 4.14743C-0.0795192 3.47424 0.00177875 2.77646 0.312496 2.14233C0.623214 1.5082 1.1494 0.966198 1.8245 0.584866C2.49961 0.203534 3.29332 0 4.10527 0C5.19367 0.00105245 6.23713 0.36702 7.00675 1.01762C7.77637 1.66821 8.20928 2.55031 8.21053 3.47039ZM26 0C25.1881 0 24.3944 0.203534 23.7192 0.584866C23.0441 0.966198 22.518 1.5082 22.2072 2.14233C21.8965 2.77646 21.8152 3.47424 21.9736 4.14743C22.132 4.82062 22.523 5.43899 23.0971 5.92433C23.6713 6.40967 24.4028 6.7402 25.1991 6.8741C25.9954 7.00801 26.8209 6.93928 27.571 6.67662C28.3212 6.41395 28.9623 5.96914 29.4134 5.39844C29.8645 4.82774 30.1053 4.15677 30.1053 3.47039C30.104 2.55031 29.6711 1.66821 28.9015 1.01762C28.1319 0.36702 27.0884 0.00105245 26 0ZM47.8947 0C47.0828 0 46.2891 0.203534 45.614 0.584866C44.9389 0.966198 44.4127 1.5082 44.102 2.14233C43.7913 2.77646 43.71 3.47424 43.8684 4.14743C44.0268 4.82062 44.4177 5.43899 44.9919 5.92433C45.566 6.40967 46.2975 6.7402 47.0938 6.8741C47.8902 7.00801 48.7156 6.93928 49.4658 6.67662C50.2159 6.41395 50.857 5.96914 51.3081 5.39844C51.7592 4.82774 52 4.15677 52 3.47039C51.9988 2.55031 51.5658 1.66821 50.7962 1.01762C50.0266 0.36702 48.9831 0.00105245 47.8947 0Z" fill="black"/>
</svg>
