<svg width="29" height="29" viewBox="0 0 29 29" fill="none" xmlns="http://www.w3.org/2000/svg">
<path d="M16.2049 0.424316V2.35275C18.1123 2.35275 19.8992 2.83486 21.5657 3.79908C23.1518 4.74321 24.4167 6.00875 25.3603 7.59569C26.3241 9.26299 26.8059 11.0508 26.8059 12.9592H28.7334C28.7334 10.6892 28.1612 8.58 27.0168 6.63147C25.9125 4.74321 24.4167 3.24666 22.5294 2.14183C20.5819 0.996821 18.4737 0.424316 16.2049 0.424316ZM6.23636 3.31697C5.69426 3.31697 5.22243 3.48772 4.82088 3.82921L1.71888 6.99305L1.80923 6.93279C1.30729 7.35464 0.976004 7.87692 0.815382 8.49965C0.674839 9.12237 0.714994 9.72501 0.935848 10.3076C1.49802 11.8744 2.25094 13.4814 3.19459 15.1286C4.51971 17.3986 6.09581 19.4375 7.92288 21.2454C10.8542 24.1983 14.4983 26.5285 18.8552 28.236H18.8853C19.4675 28.4369 20.0498 28.477 20.6321 28.3565C21.2344 28.236 21.7664 27.9748 22.2282 27.5731L25.27 24.5298C25.6716 24.128 25.8723 23.6359 25.8723 23.0533C25.8723 22.4507 25.6716 21.9485 25.27 21.5467L21.3247 17.5693C20.9232 17.1676 20.4212 16.9667 19.8189 16.9667C19.2166 16.9667 18.7146 17.1676 18.3131 17.5693L16.4157 19.4978C14.8898 18.7746 13.5647 17.8807 12.4404 16.816C11.316 15.7313 10.4226 14.4155 9.75999 12.8688L11.6874 10.9403C12.1091 10.4984 12.3199 9.97611 12.3199 9.37347C12.3199 8.75074 12.079 8.24855 11.5971 7.86688L11.6874 7.95727L7.65183 3.82921C7.25028 3.48772 6.77845 3.31697 6.23636 3.31697ZM16.2049 4.28119V6.20963C17.4297 6.20963 18.554 6.51095 19.578 7.11358C20.622 7.71622 21.4452 8.53982 22.0475 9.58439C22.6499 10.6089 22.951 11.7338 22.951 12.9592H24.8785C24.8785 11.3923 24.487 9.93593 23.7039 8.59004C22.9209 7.28433 21.8769 6.23976 20.5718 5.45633C19.2266 4.6729 17.771 4.28119 16.2049 4.28119ZM6.23636 5.24541C6.29659 5.24541 6.36686 5.27554 6.44717 5.3358L10.3924 9.37347C10.4125 9.45382 10.3924 9.52413 10.3322 9.58439L7.47113 12.4168L7.68195 13.0194L8.07346 13.8631C8.39471 14.5461 8.76614 15.209 9.18778 15.8518C9.77003 16.7558 10.4125 17.5292 11.1152 18.172C12.0589 19.096 13.1933 19.9397 14.5184 20.703C15.181 21.0847 15.7431 21.3659 16.2049 21.5467L16.8073 21.8179L19.7286 18.8951C19.7687 18.8549 19.7988 18.8349 19.8189 18.8349C19.839 18.8349 19.8691 18.8549 19.9093 18.8951L23.975 22.9629C24.0151 23.0031 24.0352 23.0332 24.0352 23.0533C24.0352 23.0533 24.0151 23.0734 23.975 23.1136L20.9633 26.0966C20.5216 26.4783 20.0398 26.5787 19.5177 26.398C15.4219 24.811 12.0087 22.6415 9.27812 19.8895C7.5916 18.2021 6.11589 16.2837 4.851 14.1343C3.9475 12.5875 3.24478 11.091 2.74284 9.64466V9.61452C2.66253 9.43373 2.65249 9.22281 2.71272 8.98176C2.77296 8.72061 2.88338 8.51973 3.044 8.37912L6.02554 5.3358C6.08577 5.27554 6.15605 5.24541 6.23636 5.24541ZM16.2049 8.13806V10.0665C17.008 10.0665 17.6907 10.3477 18.2528 10.9102C18.815 11.4727 19.0961 12.1556 19.0961 12.9592H21.0236C21.0236 12.0954 20.8027 11.2919 20.361 10.5486C19.9394 9.80536 19.3571 9.22281 18.6142 8.80096C17.8714 8.35903 17.0683 8.13806 16.2049 8.13806Z" fill="black"/>
</svg>
