<svg width="860" height="650" viewBox="0 0 860 650" fill="none" xmlns="http://www.w3.org/2000/svg">
<g opacity="0.04">
<path d="M830 325C830 403.286 788.088 476.366 715.967 530.877C643.829 585.4 542.823 620 430 620C317.177 620 216.171 585.4 144.033 530.877C71.9117 476.366 30 403.286 30 325C30 246.714 71.9117 173.634 144.033 119.123C216.171 64.6001 317.177 30 430 30C542.823 30 643.829 64.6001 715.967 119.123C788.088 173.634 830 246.714 830 325Z" stroke="#3293FF" stroke-width="60"/>
<path d="M715 325C715 379.284 685.96 430.635 634.65 469.416C583.322 508.21 511.067 533.081 430 533.081C348.933 533.081 276.678 508.21 225.35 469.416C174.04 430.635 145 379.284 145 325C145 270.716 174.04 219.365 225.35 180.584C276.678 141.79 348.933 116.918 430 116.918C511.067 116.918 583.322 141.79 634.65 180.584C685.96 219.365 715 270.716 715 325Z" stroke="#3293FF" stroke-width="60"/>
<path d="M600 325C600 355.282 583.832 384.903 553.332 407.955C522.816 431.02 479.311 446.163 430 446.163C380.689 446.163 337.184 431.02 306.668 407.955C276.168 384.903 260 355.282 260 325C260 294.718 276.168 265.097 306.668 242.045C337.184 218.98 380.689 203.837 430 203.837C479.311 203.837 522.816 218.98 553.332 242.045C583.832 265.097 600 294.718 600 325Z" stroke="#3293FF" stroke-width="60"/>
</g>
</svg>
