<svg width="179" height="181" viewBox="0 0 179 181" fill="none" xmlns="http://www.w3.org/2000/svg">
<ellipse cx="89.5" cy="90.5" rx="89.5" ry="90.5" fill="black" fill-opacity="0.05"/>
<ellipse cx="89.4988" cy="90.4999" rx="55.0769" ry="55.6923" fill="black" fill-opacity="0.05"/>
<path d="M89 144.003H46V115.991L69.7632 101.984C81.9842 127.196 77.6842 117.555 89 144.003Z" fill="#374F68"/>
<path d="M132 115.991V144.003H89C100.316 117.555 96.0158 127.196 108.237 101.984L132 115.991Z" fill="#374F68"/>
<path d="M132 115.991V144.003H89C100.316 117.555 96.0158 127.196 108.237 101.984L132 115.991Z" fill="#374F68"/>
<path d="M132 115.991V144.003H89C100.316 117.555 96.0158 127.196 108.237 101.984L132 115.991Z" fill="#425B72"/>
<path d="M108.237 101.984L98.0526 122.993L89 113.656L100.316 97.3149L108.237 101.984Z" fill="#DAD7E5"/>
<path d="M100.319 97.3149L95.793 103.828C97.6223 104.905 98.982 106.665 99.5923 108.745C100.203 110.824 100.017 113.066 99.0745 115.01L96.1551 121.056L98.0561 122.993L108.24 101.984L100.319 97.3149Z" fill="#EDEBF2"/>
<path d="M100.315 86.2041V97.3158L88.9994 113.657L77.6836 97.3158V86.2041C80.8948 88.856 84.8858 90.301 88.9994 90.301C93.113 90.301 97.104 88.856 100.315 86.2041Z" fill="#F6CCAF"/>
<path d="M77.6836 86.2041V92.4603C80.8391 94.3409 84.4715 95.1955 88.1056 94.9123C91.7396 94.6291 95.2062 93.2212 98.052 90.8729V100.584L100.315 97.3158V86.2041C97.104 88.856 93.113 90.301 88.9994 90.301C84.8858 90.301 80.8948 88.856 77.6836 86.2041Z" fill="#EDB996"/>
<path d="M88.9986 113.656L79.9459 122.993L69.7617 101.984L77.6828 97.3149L88.9986 113.656Z" fill="#DAD7E5"/>
<path d="M98.0525 122.994L88.9999 144.003L79.9473 122.994L88.9999 113.656L98.0525 122.994Z" fill="#F26674"/>
<path d="M95.7894 120.659L87.3704 140.222L79.9473 122.994L88.9999 113.656L95.7894 120.659Z" fill="#FD2E0D"/>
<path d="M107.102 62.2985C107.102 72.1029 108.256 79.6197 100.313 86.2026C97.6507 88.401 94.441 89.7792 91.053 90.1787C87.665 90.5781 84.2365 89.9825 81.1622 88.4604C78.088 86.9383 75.493 84.5517 73.6759 81.5752C71.8589 78.5987 70.8938 75.1534 70.8917 71.6361C70.8917 63.8392 70.1675 58.6569 73.1548 53.1944C78.1338 42.9464 92.8669 39.9584 101.761 49.0859C105.16 52.5922 107.079 57.3404 107.102 62.2985Z" fill="#FFDEC7"/>
<path d="M102.578 66.9678C102.578 74.9047 103.506 80.9741 99.3188 86.9735C96.9216 88.6911 94.1574 89.7855 91.2617 90.1633C88.3659 90.5411 85.4246 90.1912 82.6883 89.1434C79.9519 88.0956 77.5018 86.381 75.5466 84.1456C73.5914 81.9102 72.1891 79.2204 71.4593 76.3053C70.6899 73.1306 70.8935 71.6366 70.8935 62.299C70.9017 58.4621 72.0554 54.7209 74.1978 51.5842C76.916 49.6517 80.0948 48.5226 83.3903 48.319C86.6858 48.1155 89.9725 48.8453 92.8949 50.4294C95.8174 52.0135 98.2642 54.3917 99.9709 57.3067C101.678 60.2217 102.579 63.5625 102.578 66.9678Z" fill="#F6CCAF"/>
<path d="M110.547 57.3959C103.734 35.8729 74.0871 36.0129 67.4108 57.6294C67.1941 58.1691 66.7892 58.6053 66.2759 58.8521C65.7626 59.0989 65.1783 59.1382 64.6383 58.9623C64.0983 58.7864 63.6418 58.4081 63.359 57.902C63.0762 57.3959 62.9877 56.7989 63.1108 56.2287C71.1224 30.177 106.88 30.177 114.892 56.1354C114.998 56.4372 115.043 56.7584 115.023 57.0789C115.004 57.3995 114.92 57.7124 114.778 57.9981C114.636 58.2838 114.438 58.5362 114.197 58.7395C113.956 58.9428 113.677 59.0926 113.377 59.1795C113.078 59.2665 112.764 59.2887 112.455 59.2448C112.147 59.2009 111.851 59.0918 111.585 58.9244C111.319 58.757 111.09 58.5349 110.911 58.2719C110.733 58.0089 110.608 57.7107 110.547 57.3959Z" fill="#374F68"/>
<path d="M114.888 56.1368C113.449 51.4008 110.815 47.1442 107.257 43.8027C103.699 40.4611 99.3447 38.1547 94.6388 37.1193C89.9329 36.0839 85.0447 36.3567 80.4746 37.9099C75.9044 39.4631 71.8164 42.2408 68.6289 45.9589C72.0128 42.8565 76.095 40.676 80.5041 39.6156C84.9133 38.5553 89.5095 38.6487 93.8747 39.8874C98.2399 41.1262 102.236 43.4709 105.498 46.7084C108.761 49.9458 111.188 53.9733 112.557 58.4245C112.64 58.6477 112.678 58.8859 112.67 59.1248C113.025 59.1321 113.377 59.0532 113.697 58.8942C114.017 58.7353 114.296 58.5009 114.512 58.21C114.728 57.9191 114.875 57.5798 114.94 57.2196C115.005 56.8595 114.987 56.4885 114.888 56.1368Z" fill="#425B72"/>
<path d="M103.099 83.3091C101.631 85.209 99.8163 86.7949 97.7584 87.9779H91.2632C90.6629 87.9779 90.0873 87.7319 89.6629 87.2941C89.2384 86.8564 89 86.2626 89 85.6435C89 85.0244 89.2384 84.4306 89.6629 83.9928C90.0873 83.555 90.6629 83.3091 91.2632 83.3091H103.099Z" fill="#EDB996"/>
<path d="M113.897 85.6434H93.5288C92.9286 85.6434 92.3529 85.3975 91.9285 84.9597C91.5041 84.5219 91.2656 83.9282 91.2656 83.3091C91.2656 82.6899 91.5041 82.0962 91.9285 81.6584C92.3529 81.2206 92.9286 80.9747 93.5288 80.9747H111.634V71.6371C111.634 71.018 111.872 70.4242 112.297 69.9865C112.721 69.5487 113.297 69.3027 113.897 69.3027C114.497 69.3027 115.073 69.5487 115.497 69.9865C115.922 70.4242 116.16 71.018 116.16 71.6371V83.3091C116.16 83.9282 115.922 84.5219 115.497 84.9597C115.073 85.3975 114.497 85.6434 113.897 85.6434Z" fill="#374F68"/>
<path d="M112.762 69.6533C114.256 70.587 113.894 70.7271 113.894 83.3094C113.894 83.9285 113.656 84.5223 113.231 84.9601C112.807 85.3979 112.231 85.6438 111.631 85.6438H113.894C114.494 85.6438 115.07 85.3979 115.494 84.9601C115.919 84.5223 116.157 83.9285 116.157 83.3094V71.6375C116.151 71.2309 116.042 70.833 115.841 70.4833C115.639 70.1337 115.353 69.8442 115.01 69.6437C114.667 69.4433 114.279 69.3387 113.885 69.3404C113.491 69.342 113.104 69.4499 112.762 69.6533Z" fill="#425B72"/>
<path d="M70.8962 71.6375C70.8962 76.6564 72.1862 76.3063 70.8962 76.3063C69.3153 76.3046 67.7522 75.9613 66.3077 75.2984C64.8633 74.6355 63.5695 73.6678 62.5099 72.4576C61.4502 71.2474 60.6482 69.8216 60.1554 68.2721C59.6627 66.7226 59.4902 65.0838 59.6491 63.4613C59.808 61.8389 60.2947 60.2687 61.0779 58.8522C61.8611 57.4356 62.9234 56.2041 64.1962 55.2369C65.4691 54.2697 66.9244 53.5884 68.4682 53.2368C70.012 52.8853 71.61 52.8713 73.1594 53.1958C70.2852 58.5182 70.8962 62.6268 70.8962 71.6375Z" fill="#FD2E0D"/>
<path d="M118.423 64.6343C118.423 67.7299 117.231 70.6987 115.108 72.8876C112.986 75.0765 110.108 76.3062 107.107 76.3062C105.953 76.3062 107.107 76.3062 107.107 71.6374C107.107 64.2141 107.899 58.8683 104.844 53.1958C106.488 52.8496 108.186 52.885 109.816 53.2993C111.445 53.7137 112.965 54.4967 114.265 55.5916C115.564 56.6865 116.612 58.0659 117.331 59.6299C118.05 61.1939 118.423 62.9033 118.423 64.6343Z" fill="#F26674"/>
<path d="M112.512 74.8813C110.855 75.821 108.994 76.311 107.103 76.3052C105.949 76.3052 107.103 76.3052 107.103 71.6365C107.103 61.8554 107.239 60.8749 106.695 58.4238C108.192 59.0271 109.546 59.952 110.669 61.1372C111.792 62.3223 112.657 63.7405 113.208 65.2974C113.758 66.8543 113.98 68.5142 113.86 70.1666C113.74 71.8191 113.281 73.4263 112.512 74.8813Z" fill="#FD2E0D"/>
<path d="M118.422 137H111.632C111.032 137 110.456 136.754 110.032 136.316C109.608 135.878 109.369 135.285 109.369 134.665C109.369 134.046 109.608 133.453 110.032 133.015C110.456 132.577 111.032 132.331 111.632 132.331H118.422C119.022 132.331 119.598 132.577 120.022 133.015C120.446 133.453 120.685 134.046 120.685 134.665C120.685 135.285 120.446 135.878 120.022 136.316C119.598 136.754 119.022 137 118.422 137Z" fill="#DAD7E5"/>
<path d="M107.105 62.2993V64.447C104.355 64.0394 101.758 62.893 99.5729 61.123C97.3881 59.353 95.6931 57.0215 94.6577 54.3624C91.7655 57.7557 87.9808 60.2104 83.7628 61.4286C79.5447 62.6468 75.0745 62.5763 70.8945 61.2255C71.0326 56.2726 73.0725 51.579 76.5655 48.1775C80.0585 44.7759 84.7185 42.9449 89.5203 43.0873C94.3221 43.2297 98.8724 45.3338 102.17 48.9368C105.468 52.5397 107.243 57.3464 107.105 62.2993Z" fill="#BE927C"/>
<path d="M104.839 66.7813C104.07 66.673 103.313 66.4933 102.575 66.2444C102.394 61.5756 100.878 62.7195 104.839 63.91C104.898 64.8661 104.898 65.8252 104.839 66.7813Z" fill="#F6CCAF"/>
<path d="M102.578 66.2453C100.287 65.5588 98.1794 64.3418 96.4145 62.6872C94.6495 61.0325 93.2742 58.9839 92.3936 56.6977C89.7719 59.7938 86.3992 62.1152 82.6211 63.4237C78.843 64.7323 74.7955 64.981 70.8936 64.1444C70.8376 63.1726 70.8376 62.1982 70.8936 61.2264C75.0735 62.5772 79.5437 62.6477 83.7618 61.4295C87.9799 60.2112 91.7646 57.7566 94.6567 54.3633C96.0727 58.0121 98.7161 61.0122 102.103 62.8138C102.387 63.9353 102.546 65.0865 102.578 66.2453Z" fill="#EDB996"/>
<path d="M102.126 62.8124C98.7312 61.0152 96.0792 58.0145 94.6577 54.3619C91.7655 57.7552 87.9808 60.2098 83.7628 61.4281C79.5447 62.6463 75.0745 62.5758 70.8945 61.225C71.0864 57.7821 72.1987 54.4613 74.1082 51.6306C76.5416 49.879 79.3552 48.7711 82.3012 48.4045C85.2472 48.0379 88.2355 48.4238 91.003 49.5283C93.7704 50.6327 96.2323 52.4219 98.1719 54.7383C100.112 57.0548 101.469 59.8274 102.126 62.8124Z" fill="#A87E6B"/>
</svg>
