<svg width="1445" height="308" viewBox="0 0 1445 308" fill="none" xmlns="http://www.w3.org/2000/svg">
<path d="M0 289C0 261.386 22.3858 239 50 239H1395C1422.61 239 1445 261.386 1445 289V308H0V289Z" fill="black" fill-opacity="0.2"/>
<g opacity="0.3">
<path fill-rule="evenodd" clip-rule="evenodd" d="M452.588 3.86651C452.588 5.94604 450.472 7.63188 447.863 7.63188C445.253 7.63188 443.138 5.94604 443.138 3.86651C443.138 1.78741 445.253 0.101562 447.863 0.101562C450.472 0.101562 452.588 1.78741 452.588 3.86651ZM441.725 8.57325C439.115 8.57325 437 10.2586 437 12.3381C437 14.4175 439.115 16.1031 441.725 16.1031C444.335 16.1031 446.45 14.4175 446.45 12.3381C446.45 10.2586 444.335 8.57325 441.725 8.57325ZM454.001 8.57291C451.391 8.57291 449.276 10.2586 449.276 12.3381C449.276 14.4175 451.391 16.1031 454.001 16.1031C456.61 16.1031 458.726 14.4175 458.726 12.3381C458.726 10.2586 456.61 8.57291 454.001 8.57291Z" fill="white"/>
<path fill-rule="evenodd" clip-rule="evenodd" d="M475.351 12.2919C475.412 12.8504 475.973 13.5614 476.944 13.5614H477.513C477.733 13.5614 477.914 13.4175 477.914 13.2418V3.2817H477.911C477.9 3.11391 477.726 2.97952 477.513 2.97952H475.752C475.539 2.97952 475.365 3.11391 475.353 3.2817H475.351V4.09102C474.272 3.0312 472.571 2.59131 470.865 2.59131C466.987 2.59131 463.844 5.09805 463.844 8.19046C463.844 11.283 466.987 13.7899 470.865 13.7899V13.7901C472.571 13.7901 474.43 13.2623 475.351 12.2906L475.351 12.2919ZM470.872 11.8302C468.406 11.8302 466.406 10.2008 466.406 8.19046C466.406 6.18048 468.406 4.55097 470.872 4.55097C473.338 4.55097 475.337 6.18048 475.337 8.19046C475.337 10.2008 473.338 11.8302 470.872 11.8302Z" fill="white"/>
<path fill-rule="evenodd" clip-rule="evenodd" d="M504.044 12.2909C504.106 12.8494 504.667 13.5604 505.638 13.5604H506.206C506.427 13.5604 506.607 13.4165 506.607 13.2408V3.28073H506.605C506.593 3.11293 506.419 2.97854 506.206 2.97854H504.445C504.232 2.97854 504.058 3.11293 504.046 3.28073H504.044V4.09004C502.965 3.03022 501.264 2.59033 499.558 2.59033C495.68 2.59033 492.537 5.09707 492.537 8.18948C492.537 11.2821 495.68 13.7889 499.558 13.7889V13.7891C501.264 13.7891 503.123 13.2614 504.044 12.2896L504.044 12.2909ZM499.565 11.8292C497.099 11.8292 495.1 10.1998 495.1 8.18948C495.1 6.1795 497.099 4.54999 499.565 4.54999C502.031 4.54999 504.03 6.1795 504.03 8.18948C504.03 10.1998 502.031 11.8292 499.565 11.8292Z" fill="white"/>
<path fill-rule="evenodd" clip-rule="evenodd" d="M536.117 12.2909C536.178 12.8494 536.739 13.5604 537.71 13.5604H538.278C538.499 13.5604 538.679 13.4165 538.679 13.2408V3.28073H538.677C538.665 3.11293 538.491 2.97854 538.278 2.97854H536.517C536.304 2.97854 536.13 3.11293 536.119 3.28073H536.117V4.09004C535.038 3.03022 533.336 2.59033 531.631 2.59033C527.753 2.59033 524.609 5.09707 524.609 8.18948C524.609 11.2821 527.753 13.7889 531.631 13.7889V13.7891C533.336 13.7891 535.195 13.2614 536.116 12.2896L536.117 12.2909ZM531.637 11.8292C529.171 11.8292 527.172 10.1998 527.172 8.18948C527.172 6.1795 529.171 4.54999 531.637 4.54999C534.103 4.54999 536.103 6.1795 536.103 8.18948C536.103 10.1998 534.103 11.8292 531.637 11.8292Z" fill="white"/>
<path fill-rule="evenodd" clip-rule="evenodd" d="M522.384 12.6328L522.383 7.47892H522.383C522.383 4.57369 520.085 2.61377 516.42 2.61377C514.671 2.61377 513.236 3.42053 512.73 4.11356C512.62 3.57167 512.26 3.00206 511.141 3.00206H510.571C510.35 3.00206 510.17 3.14606 510.17 3.32176V12.3153V12.3166V13.2827H510.172C510.184 13.4502 510.358 13.5848 510.571 13.5848H512.332C512.359 13.5848 512.385 13.5822 512.411 13.5782C512.422 13.5764 512.433 13.5728 512.445 13.5702C512.458 13.567 512.471 13.5645 512.484 13.5605C512.5 13.5553 512.514 13.5483 512.528 13.5418C512.535 13.5384 512.543 13.5359 512.55 13.5322C512.567 13.5232 512.584 13.5124 512.599 13.5012C512.602 13.4992 512.605 13.4978 512.607 13.4959C512.625 13.4824 512.641 13.4676 512.655 13.4521L512.655 13.4518C512.699 13.4035 512.726 13.3454 512.73 13.2827H512.733V7.39902C512.733 5.8387 514.319 4.57368 516.276 4.57368C518.232 4.57368 519.819 5.8387 519.819 7.39902L519.82 12.317L519.821 12.3153C519.821 12.3196 519.822 12.3241 519.822 12.3288V13.2827H519.824C519.836 13.4502 520.009 13.5848 520.222 13.5848H521.984C522.011 13.5848 522.037 13.5822 522.062 13.5782C522.073 13.5767 522.083 13.5734 522.093 13.5711C522.107 13.5678 522.122 13.5649 522.136 13.5605C522.15 13.5557 522.163 13.5491 522.177 13.543C522.185 13.5392 522.194 13.5365 522.202 13.5322C522.218 13.5237 522.233 13.5135 522.248 13.5033C522.251 13.5005 522.256 13.4985 522.259 13.4957C522.276 13.4829 522.291 13.469 522.304 13.4545C522.305 13.4534 522.306 13.4525 522.307 13.4514C522.351 13.4035 522.377 13.3458 522.382 13.2835C522.382 13.2831 522.382 13.2827 522.382 13.2827H522.384V12.633L522.384 12.6328Z" fill="white"/>
<path fill-rule="evenodd" clip-rule="evenodd" d="M482.122 10.8645C483.297 11.514 484.581 11.8295 485.814 11.8295C486.989 11.8295 488.203 11.3438 488.203 10.4984C488.203 9.36975 485.557 9.19413 483.894 8.74345C482.231 8.29276 480.798 7.36113 480.798 5.85241C480.798 3.54381 483.378 2.59033 485.785 2.59033C487.311 2.59033 488.885 2.99146 489.905 3.56608C490.256 3.77842 490.042 4.02221 490.042 4.02221L489.068 5.13158C488.959 5.25654 488.767 5.36449 488.493 5.22925C488.218 5.0941 487.254 4.55008 485.785 4.55008C484.316 4.55008 483.432 5.09104 483.432 5.76154C483.432 6.56559 484.582 6.81847 485.928 7.09252C488.276 7.5971 490.836 8.20359 490.836 10.4984C490.836 12.5325 488.451 13.7895 485.814 13.7895C483.816 13.7895 482.114 13.3352 480.688 12.5002C480.39 12.263 480.598 12.0428 480.598 12.0428L481.567 10.939C481.764 10.7326 482.013 10.8046 482.122 10.8645Z" fill="white"/>
<path d="M715.783 2.9269C715.783 3.60794 715.089 4.16093 714.234 4.16093C713.381 4.16093 712.688 3.60875 712.688 2.9269C712.688 2.24504 713.381 1.69287 714.234 1.69287C715.09 1.69287 715.783 2.24504 715.783 2.9269ZM714.235 1.89841C713.523 1.89841 712.947 2.35841 712.947 2.9269C712.947 3.49457 713.522 3.95539 714.235 3.95539C714.948 3.95539 715.526 3.49457 715.526 2.9269C715.525 2.35841 714.948 1.89841 714.235 1.89841ZM714.905 2.6659C714.905 2.8486 714.666 3.01825 714.424 3.01825C714.559 3.05495 714.665 3.15201 715.016 3.61202H714.687C714.429 3.26212 714.335 3.04843 714.06 3.04843H713.883V3.61202H713.617V2.28256H714.288C714.794 2.28256 714.905 2.48239 714.905 2.6659ZM713.883 2.86491H714.245C714.477 2.86491 714.623 2.81434 714.623 2.66264C714.623 2.51175 714.476 2.46118 714.245 2.46118H713.883V2.86491ZM711.347 14.4043H694.333V1.79727H711.054V4.05571H698.151V6.81984H707.017V9.08562H698.151V12.0186H711.347V14.4043ZM585.793 12.0186H572.597V9.08562H581.463V6.81984H572.597V4.05571H585.501V1.79727H568.779V14.4043H585.793V12.0186ZM617.94 4.17398H625.546V1.79727H606.545V4.17398H614.107V14.4043H617.941V4.17398H617.94ZM672.013 1.79727H682.105C688.28 1.79727 691.603 3.94724 691.603 8.08486C691.603 10.5766 690.197 12.2421 687.901 13.3643C686.306 14.1677 684.068 14.4034 681.128 14.4034H672.013V1.79727ZM680.584 11.8995C685.445 11.8995 687.799 11.3318 687.799 8.02532C687.799 5.31992 685.796 4.17316 682.181 4.17316H675.89V11.8995H680.584ZM652.106 14.4043H648.273L657.548 1.79727H661.324L670.76 14.4043H666.442L664.469 11.8995H654.022L652.106 14.4043ZM655.66 9.50159H662.876L659.336 4.39827L655.66 9.50159ZM631.832 14.4043H628.044V1.79727H640.804C644.357 1.79727 646.684 3.47581 646.684 5.9194C646.684 7.90542 645.482 9.19491 643.129 9.71202L647.105 14.4034H642.83L639.002 9.93713H631.833V14.4043H631.832ZM631.832 7.51474H640.391C642.003 7.51474 642.939 6.87856 642.939 5.83702C642.939 4.88112 641.987 4.21802 640.378 4.21802H631.833V7.51474H631.832Z" fill="white"/>
<path d="M596.43 4.70735L599.766 0.101562L603.452 1.79805L600.117 6.40546H606.786V9.79924H600.117L603.452 14.405L599.766 16.1031L596.43 11.4957L593.973 8.10195L596.43 4.70735Z" fill="white"/>
<path d="M596.429 4.70735L593.095 0.101562L589.409 1.79805L592.743 6.40546H586.072V9.79924H592.743L589.409 14.405L593.095 16.1031L596.429 11.4957L598.887 8.10195L596.429 4.70735Z" fill="white"/>
<path d="M757.884 8.31776C758.849 8.3793 759.659 8.68703 760.354 9.2717C761.048 9.85637 761.395 10.6565 761.395 11.6719C761.395 12.9028 760.894 13.9183 759.852 14.6568C758.81 15.3954 757.344 15.7647 755.376 15.7647H745.883V1.17859H755.337C756.996 1.17859 758.347 1.54786 759.35 2.25562C760.354 2.99416 760.855 3.9481 760.855 5.14822C760.855 6.07138 760.546 6.77915 759.89 7.33305C759.234 7.88695 758.578 8.1639 757.845 8.22544L757.884 8.31776ZM750.398 7.20996H754.334C754.99 7.20996 755.53 7.0561 755.954 6.74837C756.34 6.44065 756.572 6.07138 756.572 5.54825C756.572 5.08667 756.379 4.74818 755.993 4.47123C755.607 4.19427 755.105 4.07119 754.527 4.07119H750.398V7.20996ZM754.565 12.8721C755.26 12.8721 755.839 12.7182 756.225 12.4412C756.61 12.1643 756.803 11.7643 756.803 11.2411C756.803 10.7488 756.61 10.3795 756.186 10.1026C755.8 9.8256 755.26 9.67174 754.642 9.67174H750.398V12.8721H754.565ZM777.024 15.7647H772.663V14.7184C771.583 15.6416 770.155 16.1031 768.457 16.1031C766.836 16.1031 765.563 15.6723 764.598 14.8415C763.634 14.0106 763.132 12.9028 763.132 11.5488V4.84049H767.454V10.8103C767.454 11.4565 767.685 11.9797 768.11 12.3797C768.534 12.7797 769.113 12.9644 769.808 12.9644C770.695 12.9644 771.39 12.7182 771.892 12.2258C772.393 11.7335 772.625 10.9642 772.625 9.91792V4.84049H776.985L777.024 15.7647ZM790.491 15.7647H778.915V15.1184L784.356 7.61H779.069V4.84049H790.414V5.48671L784.973 12.9951H790.453V15.7647H790.491ZM803.92 15.7647H792.382V15.1184L797.785 7.61H792.498V4.84049H803.843V5.48671L798.402 12.9951H803.882L803.92 15.7647ZM810.403 7.42536H818.314V10.5641H810.403V15.7954H805.888V1.17859H819.008V4.31736H810.403V7.42536ZM850.304 11.2104H840.271C840.541 12.5643 841.814 13.3336 843.705 13.3336C845.21 13.3336 846.715 12.8721 847.834 12.1643L849.493 14.4722C847.95 15.5185 845.982 16.1031 843.705 16.1031C839.113 16.1031 835.987 13.8875 835.987 10.318C835.987 8.62548 836.682 7.24073 838.071 6.1637C839.46 5.08667 841.197 4.53277 843.242 4.53277C845.21 4.53277 846.869 5.0559 848.22 6.13293C849.57 7.20996 850.265 8.59471 850.304 10.3487V11.2104ZM841.467 7.79463C840.927 8.10235 840.541 8.53317 840.348 9.05629H845.982C845.789 8.50239 845.441 8.07158 844.94 7.76386C844.438 7.48691 843.859 7.33305 843.242 7.33305C842.586 7.33305 842.007 7.48691 841.467 7.79463ZM834.328 11.2104H824.295C824.565 12.5643 825.838 13.3336 827.729 13.3336C829.234 13.3336 830.739 12.8721 831.858 12.1643L833.518 14.4722C831.974 15.5185 830.006 16.1031 827.729 16.1031C823.137 16.1031 820.012 13.8875 820.012 10.318C820.012 8.62548 820.706 7.24073 822.095 6.1637C823.485 5.08667 825.221 4.53277 827.266 4.53277C829.234 4.53277 830.894 5.0559 832.244 6.13293C833.595 7.20996 834.289 8.59471 834.328 10.3487V11.2104ZM825.491 7.79463C824.951 8.10235 824.565 8.53317 824.372 9.05629H830.006C829.813 8.50239 829.466 8.07158 828.964 7.76386C828.462 7.48691 827.884 7.33305 827.266 7.33305C826.61 7.33305 826.031 7.48691 825.491 7.79463ZM867.167 15.7647H862.806V14.903C861.687 15.7031 860.298 16.1031 858.562 16.1031C856.709 16.1031 855.127 15.5492 853.815 14.4722C852.503 13.3952 851.847 12.0104 851.847 10.318C851.847 8.62548 852.503 7.24073 853.815 6.1637C855.127 5.08667 856.709 4.53277 858.562 4.53277C860.298 4.53277 861.726 4.93281 862.806 5.73289V0.101562H867.167V15.7647ZM861.842 12.3489C862.498 11.8258 862.845 11.1488 862.845 10.318C862.845 9.51788 862.498 8.84089 861.842 8.28699C861.186 7.76386 860.375 7.48691 859.488 7.48691C858.523 7.48691 857.751 7.76386 857.134 8.28699C856.516 8.81012 856.208 9.48711 856.208 10.318C856.208 11.1488 856.516 11.8566 857.134 12.3797C857.751 12.9028 858.523 13.149 859.488 13.149C860.375 13.149 861.147 12.8721 861.842 12.3489Z" fill="white"/>
<path d="M897.266 3.45992C897.266 3.45992 899.329 10.2158 899.659 11.3124C900.043 12.5923 900.736 13.0634 902.733 12.7457L904.021 8.55709C904.348 7.51666 904.567 6.77491 904.777 5.71654H904.814C904.961 6.78531 905.171 7.51978 905.44 8.56073C905.44 8.56073 905.965 10.4623 906.233 11.461C906.503 12.4594 907.252 13.0886 909.208 12.7461L912.279 3.46063H909.8L908.751 7.47516C908.47 8.64373 908.214 9.55681 908.017 10.6259H907.982C907.802 9.56748 907.575 8.69056 907.288 7.55203L906.197 3.46063H903.614L902.446 7.44895C902.116 8.66088 901.806 9.63954 901.609 10.6723H901.574C901.372 9.69971 901.104 8.46973 900.813 7.29655C900.813 7.29655 900.12 4.44391 899.877 3.46063L897.266 3.46089L897.266 3.45992ZM920.897 3.45992V12.7454H923.258V10.7736V3.45947H920.897V3.45992ZM954.138 3.45992V10.3099C954.138 11.2544 954.361 11.9161 954.837 12.3203C955.252 12.6739 955.937 12.9028 956.758 12.9028C957.456 12.9028 958.142 12.7971 958.466 12.7008L958.436 11.2272C958.195 11.2746 957.918 11.3124 957.539 11.3124C956.735 11.3124 956.465 10.9011 956.465 10.0531V7.43227H958.521V5.65569H956.465V3.45994H954.138L954.138 3.45992ZM915.623 5.61248C914.156 5.61248 912.992 5.94151 912.357 6.23453L912.822 7.5052C913.402 7.21264 914.327 6.97045 915.203 6.97045C916.653 6.96747 916.89 7.62543 916.89 8.0474V8.14719C913.731 8.1434 911.735 9.0168 911.735 10.7971C911.735 11.8841 912.751 12.9028 914.517 12.9028C915.605 12.9028 916.514 12.5563 917.059 12.0012H917.113C917.113 12.0012 917.474 13.2068 919.462 12.7457C919.357 12.244 919.323 11.709 919.323 11.0646V8.58404C919.323 7.00306 918.479 5.61251 915.623 5.61251L915.623 5.61248ZM929.741 5.61248C928.264 5.61248 927.601 6.21045 927.198 6.71777H927.163V5.76995H924.911V12.7458H927.284V8.65475C927.284 8.46296 927.311 8.26016 927.395 8.08373C927.591 7.67183 928.071 7.19002 928.837 7.19002C929.794 7.19002 930.242 7.83668 930.242 8.76994V12.7457H932.612V8.60518C932.612 8.4221 932.644 8.20159 932.711 8.03971C932.906 7.57118 933.423 7.18995 934.135 7.18995C935.106 7.18995 935.572 7.82536 935.572 8.92351V12.7457H937.943V8.63719C937.943 6.47041 936.566 5.61251 935.012 5.61251C934.323 5.61251 933.78 5.75043 933.289 5.99141C932.876 6.19386 932.506 6.4815 932.183 6.86026H932.148C931.772 6.10847 930.89 5.61251 929.741 5.61251L929.741 5.61248ZM942.771 5.61248C941.304 5.61248 940.14 5.94151 939.505 6.23453L939.97 7.5052C940.55 7.21264 941.476 6.97045 942.351 6.97045C943.8 6.96747 944.037 7.62543 944.037 8.0474V8.14719C940.879 8.1434 938.883 9.0168 938.883 10.7971C938.883 11.8841 939.899 12.9028 941.666 12.9028C942.753 12.9028 943.663 12.5563 944.207 12.0012H944.26C944.26 12.0012 944.621 13.2068 946.61 12.7457C946.505 12.244 946.472 11.709 946.472 11.0646V8.58404C946.472 7.00306 945.627 5.61251 942.771 5.61251L942.771 5.61248ZM952.624 5.61248C951.715 5.61248 950.682 6.08104 950.248 7.08549H950.181V5.76986H948.046V12.7457H950.48V9.17363C950.48 8.98093 950.495 8.81291 950.533 8.65884C950.713 7.91058 951.43 7.43224 952.458 7.43224C952.74 7.43224 952.942 7.45667 953.161 7.48188V5.65563C952.977 5.62605 952.852 5.61241 952.624 5.61241L952.624 5.61248ZM916.966 9.38335V10.2536C916.966 10.3823 916.952 10.5151 916.907 10.6313C916.725 11.1146 916.098 11.523 915.315 11.523C914.661 11.523 914.143 11.2269 914.143 10.6003C914.143 9.64203 915.463 9.37713 916.966 9.38335H916.966ZM944.114 9.38335V10.2536C944.114 10.3823 944.099 10.5151 944.055 10.6313C943.872 11.1146 943.246 11.523 942.463 11.523C941.809 11.523 941.29 11.2269 941.29 10.6003C941.29 9.64203 942.611 9.37713 944.114 9.38335H944.114Z" fill="white"/>
<path d="M971.282 0.102051C970.52 0.102051 969.915 0.441999 969.915 0.855848L970.377 5.04206C970.428 5.29427 970.815 5.48882 971.283 5.48882C971.751 5.48833 972.136 5.29395 972.189 5.04206L972.654 0.855848C972.654 0.442035 972.046 0.102086 971.283 0.102086L971.282 0.102051ZM963.741 3.46003C963.346 3.46753 962.896 3.70681 962.611 4.10275C962.228 4.62998 962.296 5.21917 962.743 5.42588L967.512 7.20009C967.81 7.28861 968.214 7.11959 968.449 6.79689C968.449 6.79685 968.449 6.79676 968.449 6.79672C968.684 6.47243 968.666 6.1078 968.418 5.94606L964.111 3.53264C963.999 3.48088 963.873 3.45759 963.742 3.46009L963.741 3.46003ZM978.823 3.46003C978.691 3.45753 978.566 3.48083 978.454 3.53258L974.147 5.94601C973.9 6.10774 973.882 6.47238 974.116 6.79666L974.116 6.79684C974.352 7.11954 974.755 7.28855 975.053 7.20004L979.823 5.42591C980.273 5.21921 980.337 4.63005 979.957 4.10279C979.67 3.70683 979.22 3.46757 978.825 3.46007L978.823 3.46003ZM967.69 8.98315C967.628 8.98248 967.569 8.9901 967.513 9.00693L962.744 10.779C962.297 10.9866 962.229 11.576 962.611 12.1038C962.992 12.63 963.664 12.8802 964.112 12.6738L968.419 10.2623C968.667 10.0986 968.685 9.73402 968.449 9.41005L968.451 9.41076C968.261 9.14688 967.957 8.986 967.69 8.9831L967.69 8.98315ZM974.877 8.98315C974.61 8.98606 974.307 9.14693 974.116 9.41082L974.118 9.41011C973.883 9.73408 973.901 10.0986 974.148 10.2623L978.455 12.6739C978.902 12.8802 979.574 12.6301 979.957 12.1039C980.337 11.5761 980.272 10.9867 979.823 10.7791L975.054 9.00698C974.998 8.99015 974.938 8.98253 974.877 8.98321L974.877 8.98315ZM971.282 10.7181C970.815 10.7185 970.429 10.9122 970.378 11.1638L969.915 15.3498C969.915 15.7644 970.521 16.1036 971.283 16.1036C972.046 16.1036 972.653 15.7644 972.653 15.3498L972.189 11.1638C972.137 10.9122 971.752 10.7186 971.283 10.7181H971.282H971.282Z" fill="white"/>
<path fill-rule="evenodd" clip-rule="evenodd" d="M1041.91 10.5979V9.12509C1041.11 9.23128 1040.67 9.32338 1040.22 9.47206C1039.6 9.66325 1039.42 9.89682 1039.42 10.5058C1039.42 11.058 1039.69 11.2634 1040.22 11.2634C1040.76 11.2634 1041.38 11.0226 1041.91 10.5979ZM1038.27 7.27715L1038 7.36214L1037.38 6.00265C1038.18 5.66988 1038.54 5.57079 1039.25 5.43631C1039.96 5.30171 1040.67 5.23092 1041.47 5.23092C1043.78 5.23092 1044.57 5.86817 1044.57 7.75151V11.3696C1044.57 11.7519 1044.84 11.9431 1045.37 11.9431H1045.46V12.7007H1042.8C1042.27 12.7007 1042 12.4812 1042 12.0209V11.7944C1041.47 12.1838 1041.29 12.2688 1040.85 12.4316C1040.4 12.6582 1039.78 12.7715 1039.16 12.7715C1037.56 12.7715 1036.85 12.1059 1036.85 10.7111C1036.85 9.59945 1037.38 8.89141 1038.54 8.52324C1038.89 8.40295 1039.25 8.31086 1039.6 8.24007C1040.31 8.11968 1040.67 8.06308 1041.91 7.90019V7.71611C1041.91 7.06477 1041.64 6.83109 1040.76 6.83109C1040.58 6.83109 1040.22 6.85938 1039.96 6.88768C1039.42 6.96557 1038.98 7.05057 1038.27 7.27715ZM1035.43 3.73012C1035.43 3.07867 1034.81 2.6963 1033.83 2.6963C1032.77 2.6963 1032.23 3.07867 1032.23 3.73012C1032.23 4.39567 1032.77 4.78503 1033.83 4.78503C1034.81 4.78503 1035.43 4.39567 1035.43 3.73012ZM1035.34 12.7009V6.05952C1035.34 5.59926 1034.99 5.33018 1034.45 5.33018H1031.7V6.13032H1031.88C1032.41 6.13032 1032.59 6.3073 1032.59 6.71087V12.7009H1035.34ZM1017.32 8.73862H1014.48L1015.99 4.82325L1017.32 8.73862ZM1013.14 12.6966L1014.03 10.3105H1017.67L1018.56 12.6966H1021.58L1018.38 3.64085C1018.2 3.0461 1017.85 2.85492 1017.05 2.85492H1012.61V3.66915H1012.97C1013.5 3.66915 1013.77 3.80364 1013.77 4.12941C1013.77 4.33469 1013.77 4.46929 1013.5 4.95774L1010.3 12.6966H1013.14ZM1025.4 12.6966V3.57716C1025.4 3.1027 1025.04 2.85492 1024.42 2.85492H1021.67V3.66915H1021.84C1022.38 3.66915 1022.64 3.84614 1022.64 4.2285V12.6966H1025.4ZM1030.37 3.57716V12.6966H1027.62V4.2285C1027.62 3.84614 1027.35 3.66915 1026.82 3.66915H1026.64V2.85492H1029.39C1030.01 2.85492 1030.37 3.1027 1030.37 3.57716ZM1049.63 12.6943V7.69563C1050.26 7.23536 1050.7 7.05838 1051.32 7.05838C1051.94 7.05838 1052.12 7.27076 1052.12 8.0213V12.6943H1054.87V7.66722C1054.87 6.63351 1054.7 6.18745 1054.34 5.79808C1053.9 5.41571 1053.36 5.23873 1052.56 5.23873C1051.5 5.23873 1050.7 5.5502 1049.46 6.40693V6.01046C1049.46 5.5502 1049.19 5.32362 1048.66 5.32362H1045.99V6.12376H1046.08C1046.62 6.12376 1046.88 6.30074 1046.88 6.70431V12.6943H1049.63ZM1059.32 11.2844H1063.4V12.6934H1056.3V11.164L1060.29 6.71757H1058.16C1057.63 6.71757 1057.36 6.88041 1057.36 7.28399V7.43269H1056.39V6.09449C1056.39 5.54931 1056.65 5.32272 1057.36 5.32272H1063.22V6.83792L1059.32 11.2844Z" fill="white"/>
<path fill-rule="evenodd" clip-rule="evenodd" d="M1079.11 12.2867V3.94606C1079.11 3.27343 1078.76 3.05393 1077.96 3.05393H1075.56V3.97441H1075.83C1076.27 3.97441 1076.45 4.10891 1076.45 4.51957V12.2867H1079.11ZM1080.53 12.2867H1083.11V5.99229C1083.11 5.35506 1082.75 5.10016 1081.95 5.10016H1080.53V12.2867ZM1075.03 12.2867V5.10016H1073.61C1072.81 5.10016 1072.45 5.35506 1072.45 5.99229V12.2867H1075.03ZM1086.13 8.09517C1086.13 11.9964 1082.58 14.8427 1077.78 14.8427C1072.99 14.8427 1069.43 11.9964 1069.43 8.09517C1069.43 4.19391 1072.99 1.34759 1077.78 1.34759C1082.58 1.34759 1086.13 4.19391 1086.13 8.09517ZM1087.81 8.09517C1087.81 3.52835 1083.55 0.101444 1077.78 0.101444C1072.1 0.101444 1067.75 3.52835 1067.75 8.09517C1067.75 12.6761 1072.1 16.103 1077.78 16.103C1083.55 16.103 1087.81 12.6761 1087.81 8.09517Z" fill="white"/>
</g>
</svg>
