<svg width="25" height="24" viewBox="0 0 25 24" fill="none" xmlns="http://www.w3.org/2000/svg">
<path fill-rule="evenodd" clip-rule="evenodd" d="M20.1988 15.26L17.6588 14.97C17.0488 14.9 16.4488 15.11 16.0188 15.54L14.1788 17.38C11.3488 15.94 9.02879 13.63 7.58879 10.79L9.43879 8.94001C9.86879 8.51001 10.0788 7.91001 10.0088 7.30001L9.71879 4.78001C9.59879 3.77001 8.74879 3.01001 7.72879 3.01001H5.99879C4.86879 3.01001 3.92879 3.95001 3.99879 5.08001C4.52879 13.62 11.3588 20.44 19.8888 20.97C21.0188 21.04 21.9588 20.1 21.9588 18.97V17.24C21.9688 16.23 21.2088 15.38 20.1988 15.26Z" fill="#0081FE"/>
</svg>
