<svg width="27" height="28" viewBox="0 0 27 28" fill="none" xmlns="http://www.w3.org/2000/svg">
<path fill-rule="evenodd" clip-rule="evenodd" d="M6.38477 10.5004C6.38477 5.98541 9.7756 2.33374 13.9681 2.33374C18.1606 2.33374 21.5514 5.98541 21.5514 10.5004C21.5514 15.3654 16.7631 22.0737 14.8023 24.6287C14.3689 25.1887 13.5781 25.1887 13.1448 24.6287C11.1731 22.0737 6.38477 15.3654 6.38477 10.5004ZM11.2598 10.5004C11.2598 12.1104 12.4731 13.4171 13.9681 13.4171C15.4631 13.4171 16.6764 12.1104 16.6764 10.5004C16.6764 8.89041 15.4631 7.58374 13.9681 7.58374C12.4731 7.58374 11.2598 8.89041 11.2598 10.5004Z" fill="#0081FE"/>
</svg>
