<svg width="25" height="24" viewBox="0 0 25 24" fill="none" xmlns="http://www.w3.org/2000/svg">
<path fill-rule="evenodd" clip-rule="evenodd" d="M7.96875 3H17.9688C18.5188 3 18.9688 3.45 18.9688 4V6C18.9688 6.55 18.5188 7 17.9688 7H7.96875C7.41875 7 6.96875 6.55 6.96875 6V4C6.96875 3.45 7.41875 3 7.96875 3ZM5.96875 8H19.9688C21.6287 8 22.9688 9.34 22.9688 11V15C22.9688 16.1 22.0688 17 20.9688 17H18.9688V19C18.9688 20.1 18.0688 21 16.9688 21H8.96875C7.86875 21 6.96875 20.1 6.96875 19V17H4.96875C3.86875 17 2.96875 16.1 2.96875 15V11C2.96875 9.34 4.30875 8 5.96875 8ZM9.96875 19H15.9688C16.5188 19 16.9688 18.55 16.9688 18V14H8.96875V18C8.96875 18.55 9.41875 19 9.96875 19ZM19.9688 12C19.4188 12 18.9688 11.55 18.9688 11C18.9688 10.45 19.4188 10 19.9688 10C20.5187 10 20.9688 10.45 20.9688 11C20.9688 11.55 20.5187 12 19.9688 12Z" fill="#0081FE"/>
</svg>
