<svg width="179" height="181" viewBox="0 0 179 181" fill="none" xmlns="http://www.w3.org/2000/svg">
<ellipse cx="89.5" cy="90.5" rx="89.5" ry="90.5" fill="black" fill-opacity="0.05"/>
<ellipse cx="89.4988" cy="90.4999" rx="55.0769" ry="55.6923" fill="black" fill-opacity="0.05"/>
<path d="M28.5617 111.683H110.207V60.0509C110.207 55.1421 105.196 50.9858 98.7698 50.9858H39.9989C33.5732 50.9858 28.5617 55.1421 28.5617 60.0509V111.683Z" fill="#C7CFD3" stroke="black"/>
<path d="M111.208 81.5399V111.616H150.916V97.0626C150.916 95.4297 150.304 93.8347 149.163 92.5299L149.163 92.5299L138.182 79.9763L138.182 79.9762C136.591 78.1569 134.125 77.0771 131.493 77.0771H116.303C113.431 77.0771 111.208 79.1299 111.208 81.5399Z" fill="#FD2E0D" stroke="black"/>
<path d="M29.6108 120.078H149.27C150.926 120.078 152.07 119.02 152.07 117.934V113.061C152.07 112.913 151.875 112.616 151.392 112.616H27.9742C27.2225 112.616 26.8106 113.087 26.8106 113.449V117.934C26.8106 119.02 27.9551 120.078 29.6108 120.078Z" fill="#2B3B47" stroke="black"/>
<path d="M145.711 90.4726L145.711 90.4725L138.673 80.2778L138.673 80.2777C138.593 80.1626 138.489 80.1172 138.401 80.1172H130.081C129.934 80.1172 129.716 80.2722 129.716 80.5933V90.7881C129.716 91.1092 129.934 91.2642 130.081 91.2642H145.439C145.559 91.2642 145.683 91.1904 145.758 91.0178C145.833 90.8447 145.824 90.6359 145.711 90.4726Z" fill="#76DFFF" stroke="black"/>
<path d="M148.138 106.683H150.916V100.72H148.138C146.768 100.72 145.855 101.592 145.855 102.45V104.953C145.855 105.811 146.768 106.683 148.138 106.683Z" fill="#FFD469" stroke="black"/>
<path d="M121.703 122.989C121.703 127.029 125.836 130.481 131.178 130.481C136.52 130.481 140.652 127.029 140.652 122.989C140.652 118.948 136.52 115.496 131.178 115.496C125.836 115.496 121.703 118.948 121.703 122.989ZM92.7774 122.989C92.7774 118.948 88.6446 115.496 83.3027 115.496C77.9611 115.496 73.828 118.948 73.828 122.989C73.828 127.029 77.9608 130.481 83.3027 130.481C88.6446 130.481 92.7774 127.029 92.7774 122.989ZM64.9315 122.989C64.9315 118.948 60.7987 115.496 55.4568 115.496C50.1149 115.496 45.9821 118.948 45.9821 122.989C45.9821 127.029 50.1149 130.481 55.4568 130.481C60.7987 130.481 64.9315 127.029 64.9315 122.989Z" fill="#597B91" stroke="black"/>
<path d="M125.145 122.989C125.145 125.508 127.739 127.727 131.183 127.727C134.627 127.727 137.221 125.508 137.221 122.989C137.221 120.469 134.627 118.25 131.183 118.25C127.739 118.25 125.145 120.469 125.145 122.989ZM89.3458 122.989C89.3458 120.469 86.7516 118.25 83.308 118.25C79.8644 118.25 77.2702 120.469 77.2702 122.989C77.2702 125.508 79.8644 127.727 83.308 127.727C86.7516 127.727 89.3458 125.508 89.3458 122.989ZM61.4999 122.989C61.4999 120.469 58.9057 118.25 55.4621 118.25C52.0185 118.25 49.4243 120.469 49.4243 122.989C49.4243 125.508 52.0185 127.727 55.4621 127.727C58.9057 127.727 61.4999 125.508 61.4999 122.989Z" fill="#2B3B47" stroke="black"/>
</svg>
