<svg width="49" height="64" viewBox="0 0 49 64" fill="none" xmlns="http://www.w3.org/2000/svg">
<path d="M24.5 0C10.9691 0 0 10.6934 0 23.8845C0 28.2959 0.885717 32.8521 3.42745 36.1361L24.5 63.3619L45.5726 36.1361C47.8812 33.1533 49 27.8802 49 23.8845C49.0001 10.6934 38.031 0 24.5 0ZM24.5 13.8333C30.1934 13.8333 34.8102 18.3342 34.8102 23.8844C34.8102 29.4348 30.1934 33.9356 24.5 33.9356C18.8067 33.9356 14.1899 29.4348 14.1899 23.8845C14.1899 18.3342 18.8067 13.8333 24.5 13.8333Z" fill="url(#paint0_linear_519_1138)"/>
<defs>
<linearGradient id="paint0_linear_519_1138" x1="25" y1="-4.5" x2="25" y2="78" gradientUnits="userSpaceOnUse">
<stop stop-color="#AA3529"/>
<stop offset="1" stop-color="#2C2480"/>
</linearGradient>
</defs>
</svg>
