<svg width="208" height="360" viewBox="0 0 208 360" fill="none" xmlns="http://www.w3.org/2000/svg">
<path d="M79.2831 83.9478C70.1025 80.9945 54.0748 73.1859 55.867 67.3364C57.9435 60.5591 73.0419 58.69 75.6889 64.7061C75.208 62.351 74.7633 58.2365 77.6877 58.7753C83.5582 59.857 90.6522 70.8077 88.711 73.9147L79.2831 83.9478Z" fill="#FF9494"/>
<path d="M94.1078 67.3203L73.0957 88.084L135.53 126.479C148.792 134.635 167.559 131 175.256 118.783L196.882 84.4546C202.262 75.9149 195.554 65.5202 184.118 64.6757C178.433 64.256 172.912 66.4119 169.62 70.3369L143.632 101.321L94.1078 67.3203Z" fill="#6372FF"/>
<path d="M98.9918 141.857L74.7383 141.857C73.9547 141.857 73.207 141.534 72.7503 140.997C37.7355 99.8966 64.1717 51.9282 83.4909 30.648C84.4888 29.5488 86.4487 29.6151 87.3469 30.7737C104.881 53.3896 129.767 102.758 101.05 140.908C100.605 141.499 99.8223 141.857 98.9918 141.857Z" fill="#2D2B38"/>
<path d="M76.5044 141.857L96.8784 141.857L96.8784 145.723L76.5044 145.723L76.5044 141.857Z" fill="#24222D"/>
<path d="M39.659 83.5969L63.1172 72.1594L59.7017 96.6903L42.462 99.4946C41.0155 99.7299 39.6484 98.8517 39.5356 97.6147L38.4359 85.5529C38.3633 84.7572 38.8388 83.9968 39.659 83.5969Z" fill="#2D2B38"/>
<path d="M129.675 83.5971L106.217 72.1597L109.633 96.6905L126.872 99.4949C128.319 99.7302 129.686 98.8519 129.799 97.6149L130.899 85.5532C130.971 84.7574 130.496 83.9971 129.675 83.5971Z" fill="#2D2B38"/>
<path d="M93.4829 102.286C88.7382 105.816 81.4942 105.438 77.303 101.443C73.1118 97.4472 73.5604 91.3472 78.305 87.8178C83.0497 84.2884 90.2937 84.6662 94.4849 88.6616C98.6761 92.657 98.2275 98.7571 93.4829 102.286Z" fill="white"/>
<path d="M175.065 17.2454L185.375 23.6945C185.375 24.8266 183.849 28.9441 183.087 30.8613C181.861 33.5032 179.26 36.4315 176.085 38.4065L177.297 52.2641L159.795 52.2641L159.795 38.4065C147.813 36.7322 153.053 13.4235 159.256 9.9766L175.065 17.2454Z" fill="#FF9494"/>
<path fill-rule="evenodd" clip-rule="evenodd" d="M159.779 39.4054H159.776V38.3671C160.382 38.3671 161.523 38.367 162.725 38.3112C163.943 38.2546 165.159 38.143 165.941 37.9373L166.309 38.9283C165.367 39.1761 164.015 39.2911 162.793 39.3479C161.555 39.4054 160.386 39.4054 159.779 39.4054Z" fill="#2D2B38"/>
<path d="M146.111 8.54575C140.124 15.3051 157.644 25.9908 164.428 21.0977C173.301 14.6973 174.099 24.3748 174.099 24.3748C176.916 21.5302 181.784 24.845 180.344 28.6834C179.054 32.1207 183.738 37.1594 186.424 26.1754C193.35 26.1754 200.515 12.3862 185.931 7.91454C179.679 -3.92245 163.23 -0.0947004 163.23 4.13702C156.383 -0.144442 151.66 5.34055 153.554 8.54575C152.562 6.86674 147.881 6.54836 146.111 8.54575Z" fill="#2D2B38"/>
<path d="M149.92 354.738V326.282H120.301V331.61L88.9316 340.907V354.738H113.569H124.07H131.879H149.92Z" fill="#6372FF"/>
<path d="M195.156 359.953V331.497H165.537V336.826L134.168 346.122V359.953H158.805H169.307H177.115H195.156Z" fill="#6372FF"/>
<path d="M108.856 330.93H180.21L150.591 227.989L180.21 140.126H106.432L90.0073 227.989L108.856 330.93Z" fill="#2D2B38"/>
<path fill-rule="evenodd" clip-rule="evenodd" d="M163.449 305.548L168.296 326.182C168.332 326.334 168.285 326.492 168.168 326.612C168.051 326.732 167.876 326.802 167.691 326.802H132.014V325.763H166.941L162.24 305.75L163.449 305.548Z" fill="#2D2B38"/>
<path d="M133.764 333.084H205.118L180.211 233.998C197.373 197.479 203.089 176.769 205.118 139.333H139.418L119.627 233.998L133.764 333.084Z" fill="#2D2B38"/>
<path fill-rule="evenodd" clip-rule="evenodd" d="M193.741 306.682L198.588 327.315C198.623 327.468 198.576 327.625 198.459 327.745C198.342 327.866 198.167 327.935 197.983 327.935H162.306V326.897H197.233L192.531 306.883L193.741 306.682Z" fill="#FAFAFF"/>
<path fill-rule="evenodd" clip-rule="evenodd" d="M120.25 234.012L130.13 186.755L128.916 186.575L119.004 233.983L126.083 283.603L127.308 283.479L120.25 234.012Z" fill="#FAFAFF"/>
<path d="M106.435 140.127L205.658 140.013L199.584 67.8045C198.155 50.8115 177.775 39.7175 158.788 45.5967C149.634 48.4312 142.661 54.7921 139.907 62.6709C136.553 72.2625 131.788 85.4677 127.652 95.3451C120.218 113.103 106.435 140.127 106.435 140.127Z" fill="#6372FF"/>
<path d="M93.9136 119.947C83.906 121.496 64.7389 121.855 62.5848 115.869C60.089 108.933 72.2479 100.436 78.4347 104.557C76.5039 102.692 73.4805 99.255 76.4114 98.406C82.295 96.7017 95.5693 103.171 95.8386 106.799L93.9136 119.947Z" fill="#FF9494"/>
<path d="M96.3985 96.4909L91.0874 124.38L169.976 131.098C187.376 132.58 202.313 120.763 201.642 106.047L199.908 67.9978C199.447 57.8983 186.779 51.5531 176.02 56.0335C170.97 58.1365 167.537 62.257 166.906 66.9711L161.935 104.114L96.3985 96.4909Z" fill="#6372FF"/>
<path fill-rule="evenodd" clip-rule="evenodd" d="M194.091 113.841L191.872 127.858L190.894 127.748L193.113 113.731L194.091 113.841Z" fill="white"/>
<path fill-rule="evenodd" clip-rule="evenodd" d="M164.007 90.3759L161.787 104.393C161.77 104.504 161.699 104.605 161.591 104.672C161.484 104.739 161.349 104.766 161.217 104.747L142.845 102.152L143.008 101.333L160.877 103.857L163.029 90.2661L164.007 90.3759Z" fill="white"/>
</svg>
