<svg width="26" height="28" viewBox="0 0 26 28" fill="none" xmlns="http://www.w3.org/2000/svg">
<path fill-rule="evenodd" clip-rule="evenodd" d="M5.4165 10.5003C5.4165 5.98535 8.80734 2.33368 12.9998 2.33368C17.1923 2.33368 20.5832 5.98535 20.5832 10.5003C20.5832 15.3653 15.7948 22.0737 13.834 24.6287C13.4007 25.1887 12.6098 25.1887 12.1765 24.6287C10.2048 22.0737 5.4165 15.3653 5.4165 10.5003ZM10.2915 10.5003C10.2915 12.1103 11.5048 13.417 12.9998 13.417C14.4948 13.417 15.7082 12.1103 15.7082 10.5003C15.7082 8.89035 14.4948 7.58368 12.9998 7.58368C11.5048 7.58368 10.2915 8.89035 10.2915 10.5003Z" fill="#0081FE"/>
</svg>
