<svg width="224" height="240" viewBox="0 0 224 240" fill="none" xmlns="http://www.w3.org/2000/svg">
<path d="M84.2145 172.727V196H79.294V177.398H79.1577L73.8281 180.739V176.375L79.5895 172.727H84.2145ZM89.7457 196V192.455L98.0298 184.784C98.7344 184.102 99.3253 183.489 99.8026 182.943C100.287 182.398 100.655 181.864 100.905 181.341C101.155 180.811 101.28 180.239 101.28 179.625C101.28 178.943 101.125 178.356 100.814 177.864C100.503 177.364 100.079 176.981 99.5412 176.716C99.0033 176.443 98.3935 176.307 97.7116 176.307C96.9995 176.307 96.3783 176.451 95.848 176.739C95.3177 177.027 94.9086 177.439 94.6207 177.977C94.3329 178.515 94.1889 179.155 94.1889 179.898H89.5185C89.5185 178.375 89.8632 177.053 90.5526 175.932C91.242 174.811 92.2079 173.943 93.4503 173.33C94.6927 172.716 96.1245 172.409 97.7457 172.409C99.4124 172.409 100.863 172.705 102.098 173.295C103.34 173.879 104.306 174.689 104.996 175.727C105.685 176.765 106.03 177.955 106.03 179.295C106.03 180.174 105.856 181.042 105.507 181.898C105.166 182.754 104.556 183.705 103.678 184.75C102.799 185.788 101.56 187.034 99.9616 188.489L96.5639 191.818V191.977H106.337V196H89.7457ZM119.027 196.511C117.072 196.504 115.391 196.023 113.982 195.068C112.58 194.114 111.5 192.731 110.743 190.92C109.993 189.11 109.622 186.932 109.629 184.386C109.629 181.848 110.004 179.686 110.754 177.898C111.512 176.11 112.591 174.75 113.993 173.818C115.402 172.879 117.08 172.409 119.027 172.409C120.974 172.409 122.648 172.879 124.05 173.818C125.459 174.758 126.542 176.121 127.3 177.909C128.057 179.689 128.432 181.848 128.425 184.386C128.425 186.939 128.046 189.121 127.288 190.932C126.538 192.742 125.463 194.125 124.061 195.08C122.66 196.034 120.982 196.511 119.027 196.511ZM119.027 192.432C120.36 192.432 121.425 191.761 122.22 190.42C123.016 189.08 123.41 187.068 123.402 184.386C123.402 182.621 123.22 181.152 122.857 179.977C122.5 178.803 121.993 177.92 121.334 177.33C120.682 176.739 119.913 176.443 119.027 176.443C117.701 176.443 116.641 177.106 115.845 178.432C115.05 179.758 114.648 181.742 114.641 184.386C114.641 186.174 114.819 187.667 115.175 188.864C115.538 190.053 116.05 190.947 116.709 191.545C117.368 192.136 118.141 192.432 119.027 192.432ZM138.888 192.455V176.364H142.956V192.455H138.888ZM132.876 186.443V182.375H148.967V186.443H132.876ZM1.6147 231V213.545H13.3761V216.588H5.30504V220.747H12.771V223.79H5.30504V227.957H13.4102V231H1.6147ZM16.2418 231V217.909H19.7021V220.219H19.8555C20.1282 219.452 20.5827 218.847 21.2191 218.403C21.8555 217.96 22.6168 217.739 23.5032 217.739C24.4009 217.739 25.1651 217.963 25.7958 218.412C26.4265 218.855 26.8469 219.457 27.0572 220.219H27.1935C27.4606 219.469 27.9435 218.869 28.6424 218.42C29.3469 217.966 30.1793 217.739 31.1396 217.739C32.3612 217.739 33.3526 218.128 34.114 218.906C34.881 219.679 35.2646 220.776 35.2646 222.196V231H31.6424V222.912C31.6424 222.185 31.4492 221.639 31.0629 221.276C30.6765 220.912 30.1935 220.73 29.614 220.73C28.9549 220.73 28.4407 220.94 28.0714 221.361C27.7021 221.776 27.5174 222.324 27.5174 223.006V231H23.9975V222.835C23.9975 222.193 23.8129 221.682 23.4435 221.301C23.0799 220.92 22.5998 220.73 22.0032 220.73C21.5998 220.73 21.2362 220.832 20.9123 221.037C20.5941 221.236 20.3413 221.517 20.1538 221.881C19.9663 222.239 19.8725 222.659 19.8725 223.142V231H16.2418ZM38.1325 235.909V217.909H41.712V220.108H41.8739C42.033 219.756 42.2631 219.398 42.5643 219.034C42.8711 218.665 43.2688 218.358 43.7575 218.114C44.2518 217.864 44.8654 217.739 45.5984 217.739C46.5529 217.739 47.4336 217.989 48.2404 218.489C49.0472 218.983 49.6921 219.73 50.1751 220.73C50.658 221.724 50.8995 222.972 50.8995 224.472C50.8995 225.932 50.6637 227.165 50.1921 228.17C49.7262 229.17 49.0898 229.929 48.283 230.446C47.4819 230.957 46.5842 231.213 45.5898 231.213C44.8853 231.213 44.2859 231.097 43.7915 230.864C43.3029 230.631 42.9023 230.338 42.5898 229.986C42.2773 229.628 42.0387 229.267 41.8739 228.903H41.7631V235.909H38.1325ZM41.6864 224.455C41.6864 225.233 41.7944 225.912 42.0103 226.491C42.2262 227.071 42.5387 227.523 42.9478 227.847C43.3569 228.165 43.854 228.324 44.4393 228.324C45.0302 228.324 45.5302 228.162 45.9393 227.838C46.3484 227.509 46.658 227.054 46.8683 226.474C47.0842 225.889 47.1921 225.216 47.1921 224.455C47.1921 223.699 47.087 223.034 46.8768 222.46C46.6665 221.886 46.3569 221.437 45.9478 221.114C45.5387 220.79 45.0359 220.628 44.4393 220.628C43.8484 220.628 43.3484 220.784 42.9393 221.097C42.5359 221.409 42.2262 221.852 42.0103 222.426C41.7944 223 41.6864 223.676 41.6864 224.455ZM56.9506 213.545V231H53.32V213.545H56.9506ZM65.7738 231.256C64.4499 231.256 63.305 230.974 62.3391 230.412C61.3789 229.844 60.6374 229.054 60.1147 228.043C59.592 227.026 59.3306 225.847 59.3306 224.506C59.3306 223.153 59.592 221.972 60.1147 220.96C60.6374 219.943 61.3789 219.153 62.3391 218.591C63.305 218.023 64.4499 217.739 65.7738 217.739C67.0977 217.739 68.2397 218.023 69.1999 218.591C70.1658 219.153 70.9102 219.943 71.4329 220.96C71.9556 221.972 72.217 223.153 72.217 224.506C72.217 225.847 71.9556 227.026 71.4329 228.043C70.9102 229.054 70.1658 229.844 69.1999 230.412C68.2397 230.974 67.0977 231.256 65.7738 231.256ZM65.7908 228.443C66.3931 228.443 66.896 228.273 67.2994 227.932C67.7028 227.585 68.0067 227.114 68.2113 226.517C68.4215 225.92 68.5266 225.241 68.5266 224.48C68.5266 223.719 68.4215 223.04 68.2113 222.443C68.0067 221.847 67.7028 221.375 67.2994 221.028C66.896 220.682 66.3931 220.509 65.7908 220.509C65.1829 220.509 64.6715 220.682 64.2567 221.028C63.8477 221.375 63.538 221.847 63.3278 222.443C63.1232 223.04 63.021 223.719 63.021 224.48C63.021 225.241 63.1232 225.92 63.3278 226.517C63.538 227.114 63.8477 227.585 64.2567 227.932C64.6715 228.273 65.1829 228.443 65.7908 228.443ZM76.3974 235.909C75.9371 235.909 75.5053 235.872 75.1019 235.798C74.7042 235.73 74.3746 235.642 74.1133 235.534L74.9315 232.824C75.3576 232.955 75.7411 233.026 76.082 233.037C76.4286 233.048 76.7269 232.969 76.9769 232.798C77.2326 232.628 77.44 232.338 77.5991 231.929L77.8121 231.375L73.1161 217.909H76.9343L79.6445 227.523H79.7809L82.5167 217.909H86.3604L81.2724 232.415C81.0281 233.119 80.6957 233.733 80.2752 234.256C79.8604 234.784 79.3349 235.19 78.6985 235.474C78.0621 235.764 77.2951 235.909 76.3974 235.909ZM93.7624 231.256C92.4158 231.256 91.2567 230.983 90.2852 230.438C89.3192 229.886 88.5749 229.108 88.0522 228.102C87.5295 227.091 87.2681 225.895 87.2681 224.514C87.2681 223.168 87.5295 221.986 88.0522 220.969C88.5749 219.952 89.3107 219.159 90.2596 218.591C91.2141 218.023 92.3335 217.739 93.6175 217.739C94.4812 217.739 95.2852 217.878 96.0295 218.156C96.7795 218.429 97.4329 218.841 97.9897 219.392C98.5522 219.943 98.9897 220.636 99.3022 221.472C99.6147 222.301 99.771 223.273 99.771 224.386V225.384H88.717V223.134H96.3533C96.3533 222.611 96.2397 222.148 96.0124 221.744C95.7852 221.341 95.4698 221.026 95.0664 220.798C94.6687 220.565 94.2056 220.449 93.6772 220.449C93.1261 220.449 92.6374 220.577 92.2113 220.832C91.7908 221.082 91.4613 221.42 91.2227 221.847C90.984 222.267 90.8619 222.736 90.8562 223.253V225.392C90.8562 226.04 90.9755 226.599 91.2141 227.071C91.4585 227.543 91.8022 227.906 92.2454 228.162C92.6886 228.418 93.2141 228.545 93.8221 228.545C94.2255 228.545 94.5948 228.489 94.93 228.375C95.2653 228.261 95.5522 228.091 95.7908 227.864C96.0295 227.636 96.2113 227.358 96.3363 227.028L99.6942 227.25C99.5238 228.057 99.1744 228.761 98.646 229.364C98.1232 229.96 97.4471 230.426 96.6175 230.761C95.7937 231.091 94.842 231.256 93.7624 231.256ZM108.106 231.256C106.76 231.256 105.6 230.983 104.629 230.438C103.663 229.886 102.919 229.108 102.396 228.102C101.873 227.091 101.612 225.895 101.612 224.514C101.612 223.168 101.873 221.986 102.396 220.969C102.919 219.952 103.654 219.159 104.603 218.591C105.558 218.023 106.677 217.739 107.961 217.739C108.825 217.739 109.629 217.878 110.373 218.156C111.123 218.429 111.777 218.841 112.333 219.392C112.896 219.943 113.333 220.636 113.646 221.472C113.958 222.301 114.115 223.273 114.115 224.386V225.384H103.061V223.134H110.697C110.697 222.611 110.583 222.148 110.356 221.744C110.129 221.341 109.814 221.026 109.41 220.798C109.012 220.565 108.549 220.449 108.021 220.449C107.47 220.449 106.981 220.577 106.555 220.832C106.135 221.082 105.805 221.42 105.566 221.847C105.328 222.267 105.206 222.736 105.2 223.253V225.392C105.2 226.04 105.319 226.599 105.558 227.071C105.802 227.543 106.146 227.906 106.589 228.162C107.032 228.418 107.558 228.545 108.166 228.545C108.569 228.545 108.939 228.489 109.274 228.375C109.609 228.261 109.896 228.091 110.135 227.864C110.373 227.636 110.555 227.358 110.68 227.028L114.038 227.25C113.868 228.057 113.518 228.761 112.99 229.364C112.467 229.96 111.791 230.426 110.961 230.761C110.137 231.091 109.186 231.256 108.106 231.256ZM131.576 218.565C131.507 217.878 131.215 217.344 130.698 216.963C130.181 216.582 129.479 216.392 128.593 216.392C127.99 216.392 127.482 216.477 127.067 216.648C126.652 216.812 126.334 217.043 126.113 217.338C125.897 217.634 125.789 217.969 125.789 218.344C125.777 218.656 125.843 218.929 125.985 219.162C126.132 219.395 126.334 219.597 126.59 219.767C126.846 219.932 127.141 220.077 127.476 220.202C127.811 220.321 128.169 220.423 128.55 220.509L130.118 220.884C130.88 221.054 131.578 221.281 132.215 221.565C132.851 221.849 133.402 222.199 133.868 222.614C134.334 223.028 134.695 223.517 134.951 224.08C135.212 224.642 135.346 225.287 135.351 226.014C135.346 227.082 135.073 228.009 134.533 228.793C133.999 229.571 133.226 230.176 132.215 230.608C131.209 231.034 129.996 231.247 128.576 231.247C127.167 231.247 125.939 231.031 124.894 230.599C123.854 230.168 123.042 229.528 122.456 228.682C121.877 227.83 121.573 226.776 121.544 225.52H125.115C125.155 226.105 125.323 226.594 125.618 226.986C125.919 227.372 126.32 227.665 126.82 227.864C127.326 228.057 127.897 228.153 128.533 228.153C129.158 228.153 129.701 228.062 130.161 227.881C130.627 227.699 130.988 227.446 131.243 227.122C131.499 226.798 131.627 226.426 131.627 226.006C131.627 225.614 131.51 225.284 131.277 225.017C131.05 224.75 130.715 224.523 130.272 224.335C129.834 224.148 129.297 223.977 128.661 223.824L126.76 223.347C125.289 222.989 124.127 222.429 123.275 221.668C122.422 220.906 121.999 219.881 122.005 218.591C121.999 217.534 122.28 216.611 122.848 215.821C123.422 215.031 124.209 214.415 125.209 213.972C126.209 213.528 127.346 213.307 128.618 213.307C129.914 213.307 131.044 213.528 132.01 213.972C132.982 214.415 133.738 215.031 134.277 215.821C134.817 216.611 135.096 217.526 135.113 218.565H131.576ZM144.728 217.909V220.636H136.845V217.909H144.728ZM138.635 214.773H142.265V226.977C142.265 227.312 142.316 227.574 142.419 227.761C142.521 227.943 142.663 228.071 142.845 228.145C143.032 228.219 143.248 228.256 143.493 228.256C143.663 228.256 143.833 228.241 144.004 228.213C144.174 228.179 144.305 228.153 144.396 228.136L144.967 230.838C144.785 230.895 144.529 230.96 144.2 231.034C143.87 231.114 143.47 231.162 142.998 231.179C142.123 231.213 141.356 231.097 140.697 230.83C140.044 230.562 139.535 230.148 139.172 229.585C138.808 229.023 138.629 228.312 138.635 227.455V214.773ZM147.093 231V217.909H150.613V220.193H150.75C150.988 219.381 151.389 218.767 151.951 218.352C152.514 217.932 153.162 217.722 153.895 217.722C154.076 217.722 154.272 217.733 154.483 217.756C154.693 217.778 154.877 217.81 155.037 217.849V221.071C154.866 221.02 154.63 220.974 154.329 220.935C154.028 220.895 153.752 220.875 153.502 220.875C152.968 220.875 152.491 220.991 152.071 221.224C151.656 221.452 151.326 221.77 151.082 222.179C150.843 222.588 150.724 223.06 150.724 223.594V231H147.093ZM162.27 231.256C160.924 231.256 159.765 230.983 158.793 230.438C157.827 229.886 157.083 229.108 156.56 228.102C156.037 227.091 155.776 225.895 155.776 224.514C155.776 223.168 156.037 221.986 156.56 220.969C157.083 219.952 157.819 219.159 158.767 218.591C159.722 218.023 160.841 217.739 162.125 217.739C162.989 217.739 163.793 217.878 164.537 218.156C165.287 218.429 165.941 218.841 166.498 219.392C167.06 219.943 167.498 220.636 167.81 221.472C168.123 222.301 168.279 223.273 168.279 224.386V225.384H157.225V223.134H164.861C164.861 222.611 164.748 222.148 164.52 221.744C164.293 221.341 163.978 221.026 163.574 220.798C163.176 220.565 162.713 220.449 162.185 220.449C161.634 220.449 161.145 220.577 160.719 220.832C160.299 221.082 159.969 221.42 159.73 221.847C159.492 222.267 159.37 222.736 159.364 223.253V225.392C159.364 226.04 159.483 226.599 159.722 227.071C159.966 227.543 160.31 227.906 160.753 228.162C161.196 228.418 161.722 228.545 162.33 228.545C162.733 228.545 163.103 228.489 163.438 228.375C163.773 228.261 164.06 228.091 164.299 227.864C164.537 227.636 164.719 227.358 164.844 227.028L168.202 227.25C168.032 228.057 167.682 228.761 167.154 229.364C166.631 229.96 165.955 230.426 165.125 230.761C164.301 231.091 163.35 231.256 162.27 231.256ZM174.279 223.432V231H170.648V217.909H174.108V220.219H174.262C174.551 219.457 175.037 218.855 175.719 218.412C176.401 217.963 177.228 217.739 178.199 217.739C179.108 217.739 179.901 217.938 180.577 218.335C181.253 218.733 181.779 219.301 182.154 220.04C182.529 220.773 182.716 221.648 182.716 222.665V231H179.086V223.312C179.091 222.511 178.887 221.886 178.472 221.438C178.057 220.983 177.486 220.756 176.759 220.756C176.27 220.756 175.838 220.861 175.463 221.071C175.094 221.281 174.804 221.588 174.594 221.991C174.39 222.389 174.284 222.869 174.279 223.432ZM191.475 236.182C190.299 236.182 189.291 236.02 188.45 235.696C187.615 235.378 186.95 234.943 186.456 234.392C185.961 233.841 185.64 233.222 185.493 232.534L188.85 232.082C188.953 232.344 189.115 232.588 189.336 232.815C189.558 233.043 189.85 233.224 190.214 233.361C190.583 233.503 191.032 233.574 191.561 233.574C192.35 233.574 193.001 233.381 193.512 232.994C194.029 232.614 194.288 231.974 194.288 231.077V228.682H194.135C193.975 229.045 193.737 229.389 193.419 229.713C193.1 230.037 192.691 230.301 192.191 230.506C191.691 230.71 191.095 230.812 190.402 230.812C189.419 230.812 188.524 230.585 187.717 230.131C186.916 229.67 186.277 228.969 185.799 228.026C185.328 227.077 185.092 225.878 185.092 224.429C185.092 222.946 185.333 221.707 185.816 220.713C186.299 219.719 186.941 218.974 187.743 218.48C188.549 217.986 189.433 217.739 190.393 217.739C191.126 217.739 191.74 217.864 192.234 218.114C192.728 218.358 193.126 218.665 193.427 219.034C193.734 219.398 193.97 219.756 194.135 220.108H194.271V217.909H197.876V231.128C197.876 232.241 197.603 233.173 197.058 233.923C196.512 234.673 195.757 235.236 194.791 235.611C193.831 235.991 192.725 236.182 191.475 236.182ZM191.552 228.085C192.137 228.085 192.632 227.94 193.035 227.651C193.444 227.355 193.757 226.935 193.973 226.389C194.194 225.838 194.305 225.179 194.305 224.412C194.305 223.645 194.197 222.98 193.981 222.418C193.765 221.849 193.453 221.409 193.044 221.097C192.635 220.784 192.137 220.628 191.552 220.628C190.956 220.628 190.453 220.79 190.044 221.114C189.635 221.432 189.325 221.875 189.115 222.443C188.904 223.011 188.799 223.668 188.799 224.412C188.799 225.168 188.904 225.821 189.115 226.372C189.331 226.918 189.64 227.341 190.044 227.642C190.453 227.937 190.956 228.085 191.552 228.085ZM207.728 217.909V220.636H199.845V217.909H207.728ZM201.635 214.773H205.265V226.977C205.265 227.312 205.316 227.574 205.419 227.761C205.521 227.943 205.663 228.071 205.845 228.145C206.032 228.219 206.248 228.256 206.493 228.256C206.663 228.256 206.833 228.241 207.004 228.213C207.174 228.179 207.305 228.153 207.396 228.136L207.967 230.838C207.785 230.895 207.529 230.96 207.2 231.034C206.87 231.114 206.47 231.162 205.998 231.179C205.123 231.213 204.356 231.097 203.697 230.83C203.044 230.562 202.535 230.148 202.172 229.585C201.808 229.023 201.629 228.312 201.635 227.455V214.773ZM214.005 223.432V231H210.375V213.545H213.903V220.219H214.056C214.352 219.446 214.829 218.841 215.488 218.403C216.147 217.96 216.974 217.739 217.968 217.739C218.877 217.739 219.67 217.938 220.346 218.335C221.028 218.727 221.556 219.293 221.931 220.031C222.312 220.764 222.5 221.642 222.494 222.665V231H218.863V223.312C218.869 222.506 218.664 221.878 218.25 221.429C217.841 220.98 217.267 220.756 216.528 220.756C216.034 220.756 215.596 220.861 215.216 221.071C214.841 221.281 214.545 221.588 214.329 221.991C214.119 222.389 214.011 222.869 214.005 223.432Z" fill="#020988"/>
<path d="M72.2031 202.364H151.797V204.545H72.2031V202.364Z" fill="#020988"/>
<path d="M110.5 59.4575C121.427 59.4575 130.284 50.1484 130.284 38.6651C130.284 27.1818 121.427 17.8727 110.5 17.8727C99.5742 17.8727 90.7168 27.1818 90.7168 38.6651C90.7168 50.1484 99.5742 59.4575 110.5 59.4575Z" fill="#1C1515"/>
<path d="M80.4917 40.7439H82.4867C82.4867 40.0803 82.4867 39.5052 82.4867 38.8416C82.4988 33.31 83.965 27.8923 86.7194 23.2014C89.4737 18.5105 93.4064 14.7337 98.0725 12.2981C96.6911 8.91189 94.4739 5.98712 91.6563 3.83445C88.8387 1.68178 85.5259 0.381603 82.0698 0.0720069C78.6138 -0.237589 75.1434 0.454958 72.0275 2.07609C68.9115 3.69723 66.2662 6.18641 64.3725 9.27927C62.4788 12.3721 61.4076 15.9532 61.2724 19.6421C61.1372 23.3309 61.9433 26.9899 63.6049 30.2303C65.2665 33.4708 67.7217 36.1717 70.7096 38.0462C73.6975 39.9207 77.1066 40.8988 80.5748 40.8766L80.4917 40.7439Z" fill="#1C1515"/>
<path d="M138.596 38.6647V40.567H140.591C144.013 40.5304 147.363 39.5126 150.287 37.6206C153.211 35.7287 155.603 33.0325 157.209 29.816C158.815 26.5995 159.577 22.9816 159.414 19.343C159.251 15.7045 158.17 12.18 156.284 9.14042C154.398 6.10085 151.777 3.65867 148.697 2.07094C145.617 0.483203 142.192 -0.19136 138.782 0.118251C135.372 0.427862 132.104 1.7102 129.321 3.83028C126.538 5.95036 124.344 8.82977 122.969 12.1654C127.636 14.5915 131.573 18.3588 134.335 23.0415C137.096 27.7243 138.572 33.1359 138.596 38.6647Z" fill="#1C1515"/>
<path d="M128.33 61.5359C136.594 63.2769 144.584 66.2558 152.062 70.3837C153.116 70.9998 154.07 71.7913 154.888 72.7284H176.999V57.5986C177.003 57.0183 176.858 56.4479 176.58 55.9489C176.302 55.4499 175.901 55.0413 175.42 54.7673C164.648 48.7699 152.665 45.6571 140.508 45.6983H137.765C136.324 51.9303 133.012 57.4913 128.33 61.5359Z" fill="#1C1515"/>
<path d="M62.8277 81.3113C62.8201 79.0833 63.3854 76.8955 64.4624 74.985C65.5393 73.0745 67.0869 71.514 68.9374 70.4727C76.4156 66.3448 84.4057 63.3659 92.6693 61.6249C88.0105 57.6147 84.6999 52.1038 83.2347 45.92H80.4916C68.3348 45.8788 56.3517 48.9916 45.5794 54.989C45.0989 55.263 44.6977 55.6716 44.4194 56.1706C44.141 56.6696 43.9961 57.24 44.0001 57.8203V86.0891H62.8277V81.3113Z" fill="#1C1515"/>
<path d="M124.879 106.837H149.65V113.03H124.879V106.837Z" fill="#1C1515"/>
<path d="M172.054 82.8166H143.5V78.3927C143.5 77.2194 143.062 76.0942 142.283 75.2645C141.504 74.4349 140.446 73.9688 139.344 73.9688C138.242 73.9688 137.185 74.4349 136.405 75.2645C135.626 76.0942 135.188 77.2194 135.188 78.3927V82.8166H127.125V70.2969C121.657 69.0747 116.087 68.4374 110.5 68.3947C97.3821 68.3365 84.4515 71.709 72.8448 78.2158C72.3278 78.5012 71.895 78.9333 71.5943 79.4642C71.2936 79.9951 71.1366 80.6041 71.1407 81.224V106.042H100.691V132.984C100.691 134.157 101.129 135.282 101.909 136.112C102.688 136.942 103.745 137.408 104.848 137.408H172.054C173.156 137.408 174.213 136.942 174.992 136.112C175.772 135.282 176.21 134.157 176.21 132.984V87.2405C176.21 86.0673 175.772 84.942 174.992 84.1124C174.213 83.2827 173.156 82.8166 172.054 82.8166ZM167.897 128.648H109.004V91.6645H135.188V95.6902C135.188 96.8635 135.626 97.9888 136.405 98.8184C137.185 99.6481 138.242 100.114 139.344 100.114C140.446 100.114 141.504 99.6481 142.283 98.8184C143.062 97.9888 143.5 96.8635 143.5 95.6902V91.6645H167.897V128.648Z" fill="#1C1515"/>
</svg>
