<svg width="500" height="90" viewBox="0 0 500 90" fill="none" xmlns="http://www.w3.org/2000/svg">
<path fill-rule="evenodd" clip-rule="evenodd" d="M5.41602 21.5002C5.41602 16.9852 8.80685 13.3335 12.9993 13.3335C17.1918 13.3335 20.5827 16.9852 20.5827 21.5002C20.5827 26.3652 15.7943 33.0735 13.8335 35.6285C13.4002 36.1885 12.6093 36.1885 12.176 35.6285C10.2043 33.0735 5.41602 26.3652 5.41602 21.5002ZM10.291 21.5002C10.291 23.1102 11.5043 24.4168 12.9993 24.4168C14.4943 24.4168 15.7077 23.1102 15.7077 21.5002C15.7077 19.8902 14.4943 18.5835 12.9993 18.5835C11.5043 18.5835 10.291 19.8902 10.291 21.5002Z" fill="#0081FE"/>
<path d="M52.5735 10.9102H50.2404C50.1978 10.6083 50.1108 10.3402 49.9794 10.1058C49.848 9.8679 49.6793 9.66548 49.4734 9.49858C49.2674 9.33168 49.0295 9.20383 48.7596 9.11506C48.4933 9.02628 48.2038 8.98189 47.8913 8.98189C47.3267 8.98189 46.8349 9.12216 46.4158 9.4027C45.9968 9.67969 45.6719 10.0845 45.4411 10.6172C45.2102 11.1463 45.0948 11.7891 45.0948 12.5455C45.0948 13.3232 45.2102 13.9766 45.4411 14.5057C45.6754 15.0348 46.0021 15.4343 46.4212 15.7042C46.8402 15.9741 47.3249 16.109 47.8754 16.109C48.1843 16.109 48.4702 16.0682 48.733 15.9865C48.9993 15.9048 49.2354 15.7859 49.4414 15.6296C49.6474 15.4698 49.8178 15.2763 49.9528 15.049C50.0913 14.8217 50.1871 14.5625 50.2404 14.2713L52.5735 14.282C52.5131 14.7827 52.3622 15.2656 52.1207 15.7308C51.8828 16.1925 51.5614 16.6062 51.1566 16.9719C50.7553 17.3342 50.2759 17.6218 49.7184 17.8349C49.1644 18.0444 48.5376 18.1491 47.8381 18.1491C46.8651 18.1491 45.995 17.929 45.228 17.4886C44.4645 17.0483 43.8608 16.4109 43.4169 15.5763C42.9766 14.7418 42.7564 13.7315 42.7564 12.5455C42.7564 11.3558 42.9801 10.3438 43.4276 9.50923C43.875 8.67472 44.4822 8.03906 45.2493 7.60227C46.0163 7.16193 46.8793 6.94176 47.8381 6.94176C48.4702 6.94176 49.0561 7.03054 49.5959 7.2081C50.1392 7.38565 50.6204 7.64489 51.0394 7.98579C51.4585 8.32315 51.7994 8.73686 52.0621 9.22692C52.3285 9.71697 52.4989 10.2781 52.5735 10.9102ZM59.2825 11.6452V13.4457H54.3074V11.6452H59.2825ZM61.0297 16.0824V14.266L65.584 7.09091H67.15V9.60511H66.2232L63.3521 14.1488V14.234H69.824V16.0824H61.0297ZM66.2658 18V15.5284L66.3084 14.7241V7.09091H68.4711V18H66.2658ZM75.6381 18.2397C74.7219 18.2362 73.9336 18.0107 73.2731 17.5632C72.6161 17.1158 72.1101 16.4677 71.755 15.619C71.4034 14.7702 71.2294 13.7493 71.233 12.5561C71.233 11.3665 71.4087 10.3526 71.7603 9.51456C72.1154 8.67649 72.6214 8.03906 73.2784 7.60227C73.9389 7.16193 74.7255 6.94176 75.6381 6.94176C76.5508 6.94176 77.3356 7.16193 77.9925 7.60227C78.6531 8.04261 79.1609 8.68182 79.516 9.51989C79.8711 10.3544 80.0469 11.3665 80.0433 12.5561C80.0433 13.7528 79.8658 14.7756 79.5107 15.6243C79.1591 16.473 78.6548 17.1211 77.9979 17.5685C77.3409 18.016 76.5543 18.2397 75.6381 18.2397ZM75.6381 16.3274C76.2631 16.3274 76.7621 16.0131 77.1349 15.3846C77.5078 14.756 77.6925 13.8132 77.6889 12.5561C77.6889 11.7287 77.6037 11.0398 77.4332 10.4893C77.2663 9.93892 77.0284 9.52521 76.7195 9.24822C76.4141 8.97124 76.0536 8.83274 75.6381 8.83274C75.0167 8.83274 74.5195 9.14347 74.1467 9.76491C73.7738 10.3864 73.5856 11.3168 73.582 12.5561C73.582 13.3942 73.6655 14.0938 73.8324 14.6548C74.0028 15.2124 74.2425 15.6314 74.5515 15.9119C74.8604 16.1889 75.2227 16.3274 75.6381 16.3274ZM86.434 7.09091V18H84.1276V9.28018H84.0637L81.5654 10.8462V8.80078L84.2661 7.09091H86.434ZM90.9284 16.5085L90.8699 17.0945C90.8237 17.5632 90.7349 18.0302 90.6035 18.4954C90.4757 18.9641 90.3407 19.3885 90.1987 19.7685C90.0602 20.1484 89.9483 20.4467 89.8631 20.6634H88.3929C88.4462 20.4538 88.519 20.1609 88.6113 19.7844C88.7037 19.4116 88.7907 18.9925 88.8723 18.5273C88.954 18.0621 89.0055 17.5881 89.0268 17.1051L89.0534 16.5085H90.9284ZM101.923 10.2283C101.88 9.79865 101.697 9.46484 101.374 9.22692C101.051 8.98899 100.612 8.87003 100.058 8.87003C99.682 8.87003 99.3642 8.9233 99.1049 9.02983C98.8457 9.13281 98.6468 9.27663 98.5083 9.46129C98.3734 9.64595 98.3059 9.85547 98.3059 10.0898C98.2988 10.2852 98.3397 10.4556 98.4284 10.6012C98.5208 10.7468 98.6468 10.8729 98.8066 10.9794C98.9664 11.0824 99.1511 11.1729 99.3606 11.2511C99.5701 11.3256 99.7939 11.3896 100.032 11.4428L101.012 11.6772C101.488 11.7837 101.925 11.9258 102.322 12.1033C102.72 12.2809 103.064 12.4993 103.356 12.7585C103.647 13.0178 103.872 13.3232 104.032 13.6747C104.195 14.0263 104.279 14.4293 104.282 14.8839C104.279 15.5515 104.108 16.1303 103.771 16.6204C103.437 17.1069 102.954 17.4851 102.322 17.755C101.694 18.0213 100.936 18.1545 100.048 18.1545C99.1671 18.1545 98.4 18.0195 97.7466 17.7496C97.0968 17.4798 96.589 17.0803 96.2232 16.5511C95.861 16.0185 95.671 15.3597 95.6532 14.5749H97.8851C97.91 14.9407 98.0147 15.2461 98.1994 15.4911C98.3876 15.7326 98.638 15.9155 98.9505 16.0398C99.2665 16.1605 99.6234 16.2209 100.021 16.2209C100.412 16.2209 100.751 16.1641 101.039 16.0504C101.33 15.9368 101.555 15.7788 101.715 15.5763C101.875 15.3739 101.955 15.1413 101.955 14.8786C101.955 14.6335 101.882 14.4276 101.736 14.2607C101.594 14.0937 101.385 13.9517 101.108 13.8345C100.834 13.7173 100.499 13.6108 100.101 13.5149L98.9132 13.2166C97.9934 12.9929 97.2672 12.6431 96.7346 12.1673C96.2019 11.6914 95.9373 11.0504 95.9409 10.2443C95.9373 9.58381 96.1131 9.00675 96.4682 8.51314C96.8269 8.01953 97.3187 7.63423 97.9437 7.35724C98.5687 7.08026 99.2789 6.94176 100.074 6.94176C100.884 6.94176 101.591 7.08026 102.194 7.35724C102.802 7.63423 103.274 8.01953 103.611 8.51314C103.949 9.00675 104.123 9.57848 104.133 10.2283H101.923ZM105.791 18V9.81818H108.06V18H105.791ZM106.931 8.76349C106.594 8.76349 106.304 8.65163 106.063 8.42791C105.825 8.20064 105.706 7.92898 105.706 7.61293C105.706 7.30043 105.825 7.03232 106.063 6.80859C106.304 6.58132 106.594 6.46768 106.931 6.46768C107.269 6.46768 107.556 6.58132 107.794 6.80859C108.036 7.03232 108.156 7.30043 108.156 7.61293C108.156 7.92898 108.036 8.20064 107.794 8.42791C107.556 8.65163 107.269 8.76349 106.931 8.76349ZM113.564 21.2386C112.829 21.2386 112.199 21.1374 111.673 20.935C111.151 20.7362 110.736 20.4645 110.427 20.12C110.118 19.7756 109.917 19.3885 109.825 18.9588L111.924 18.6765C111.988 18.8398 112.089 18.9925 112.227 19.1346C112.366 19.2766 112.549 19.3903 112.776 19.4755C113.007 19.5643 113.287 19.6087 113.618 19.6087C114.111 19.6087 114.518 19.4879 114.837 19.2464C115.161 19.0085 115.322 18.609 115.322 18.0479V16.5511H115.226C115.127 16.7784 114.978 16.9933 114.779 17.1957C114.58 17.3981 114.324 17.5632 114.012 17.6911C113.699 17.8189 113.326 17.8828 112.893 17.8828C112.279 17.8828 111.719 17.7408 111.215 17.4567C110.714 17.169 110.315 16.7305 110.017 16.141C109.722 15.5479 109.575 14.7987 109.575 13.8931C109.575 12.9663 109.725 12.1921 110.027 11.5707C110.329 10.9492 110.73 10.484 111.231 10.1751C111.735 9.86612 112.288 9.71165 112.888 9.71165C113.346 9.71165 113.729 9.78977 114.038 9.94602C114.347 10.0987 114.596 10.2905 114.784 10.5213C114.976 10.7486 115.123 10.9723 115.226 11.1925H115.311V9.81818H117.565V18.0799C117.565 18.7759 117.394 19.3583 117.053 19.8271C116.712 20.2958 116.24 20.6474 115.636 20.8817C115.036 21.1197 114.346 21.2386 113.564 21.2386ZM113.612 16.1783C113.978 16.1783 114.287 16.0877 114.539 15.9066C114.795 15.7219 114.99 15.4592 115.125 15.1183C115.263 14.7738 115.333 14.3619 115.333 13.8825C115.333 13.4031 115.265 12.9876 115.13 12.636C114.995 12.2809 114.8 12.0057 114.544 11.8104C114.289 11.6151 113.978 11.5174 113.612 11.5174C113.239 11.5174 112.925 11.6186 112.669 11.821C112.414 12.0199 112.22 12.2969 112.089 12.652C111.957 13.0071 111.892 13.4173 111.892 13.8825C111.892 14.3548 111.957 14.7631 112.089 15.1076C112.224 15.4485 112.417 15.7131 112.669 15.9013C112.925 16.0859 113.239 16.1783 113.612 16.1783ZM121.64 13.2699V18H119.37V9.81818H121.533V11.2617H121.629C121.81 10.7859 122.114 10.4094 122.54 10.1325C122.966 9.85192 123.483 9.71165 124.09 9.71165C124.658 9.71165 125.153 9.83594 125.576 10.0845C125.999 10.3331 126.327 10.6882 126.561 11.1499C126.796 11.608 126.913 12.1548 126.913 12.7905V18H124.644V13.1953C124.647 12.6946 124.52 12.304 124.26 12.0234C124.001 11.7393 123.644 11.5973 123.19 11.5973C122.884 11.5973 122.614 11.663 122.38 11.7944C122.149 11.9258 121.968 12.1175 121.837 12.3697C121.709 12.6183 121.643 12.9183 121.64 13.2699ZM131.035 18.1545C130.513 18.1545 130.047 18.0639 129.639 17.8828C129.231 17.6982 128.907 17.4265 128.669 17.0678C128.435 16.7056 128.318 16.2546 128.318 15.7148C128.318 15.2603 128.401 14.8786 128.568 14.5696C128.735 14.2607 128.962 14.0121 129.25 13.8239C129.538 13.6357 129.864 13.4936 130.23 13.3977C130.6 13.3018 130.987 13.2344 131.391 13.1953C131.867 13.1456 132.251 13.0994 132.542 13.0568C132.833 13.0107 133.044 12.9432 133.176 12.8544C133.307 12.7656 133.373 12.6342 133.373 12.4602V12.4283C133.373 12.0909 133.266 11.8299 133.053 11.6452C132.844 11.4606 132.546 11.3683 132.158 11.3683C131.75 11.3683 131.425 11.4588 131.184 11.6399C130.942 11.8175 130.782 12.0412 130.704 12.3111L128.606 12.1406C128.712 11.6435 128.922 11.2138 129.234 10.8516C129.547 10.4858 129.95 10.2053 130.443 10.0099C130.94 9.81108 131.516 9.71165 132.169 9.71165C132.624 9.71165 133.059 9.76491 133.474 9.87145C133.893 9.97798 134.264 10.1431 134.587 10.3668C134.914 10.5906 135.172 10.8782 135.36 11.2298C135.548 11.5778 135.642 11.995 135.642 12.4815V18H133.49V16.8654H133.426C133.295 17.1211 133.119 17.3466 132.899 17.5419C132.679 17.7337 132.414 17.8846 132.105 17.9947C131.796 18.1012 131.439 18.1545 131.035 18.1545ZM131.684 16.5884C132.018 16.5884 132.313 16.5227 132.569 16.3913C132.824 16.2564 133.025 16.0753 133.171 15.848C133.316 15.6207 133.389 15.3633 133.389 15.0756V14.2074C133.318 14.2536 133.22 14.2962 133.096 14.3352C132.975 14.3707 132.839 14.4045 132.686 14.4364C132.533 14.4648 132.38 14.4915 132.228 14.5163C132.075 14.5376 131.937 14.5572 131.812 14.5749C131.546 14.614 131.313 14.6761 131.114 14.7614C130.916 14.8466 130.761 14.962 130.651 15.1076C130.541 15.2496 130.486 15.4272 130.486 15.6403C130.486 15.9492 130.598 16.1854 130.821 16.3487C131.049 16.5085 131.336 16.5884 131.684 16.5884ZM141.755 9.81818V11.5227H136.827V9.81818H141.755ZM137.946 7.85795H140.215V15.4858C140.215 15.6953 140.247 15.8587 140.311 15.9759C140.375 16.0895 140.464 16.1694 140.577 16.2156C140.695 16.2617 140.829 16.2848 140.982 16.2848C141.089 16.2848 141.195 16.2759 141.302 16.2582C141.408 16.2369 141.49 16.2209 141.547 16.2102L141.904 17.8988C141.79 17.9343 141.63 17.9751 141.424 18.0213C141.218 18.071 140.968 18.1012 140.673 18.1119C140.126 18.1332 139.647 18.0604 139.235 17.8935C138.827 17.7266 138.509 17.4673 138.282 17.1158C138.054 16.7642 137.942 16.3203 137.946 15.7841V7.85795ZM148.479 14.5163V9.81818H150.749V18H148.57V16.5138H148.485C148.3 16.9933 147.993 17.3786 147.563 17.6697C147.137 17.9609 146.617 18.1065 146.003 18.1065C145.456 18.1065 144.975 17.9822 144.559 17.7337C144.144 17.4851 143.819 17.1317 143.584 16.6737C143.353 16.2156 143.236 15.6669 143.233 15.0277V9.81818H145.502V14.6229C145.505 15.1058 145.635 15.4876 145.891 15.7681C146.146 16.0487 146.489 16.1889 146.919 16.1889C147.192 16.1889 147.448 16.1268 147.686 16.0025C147.924 15.8746 148.116 15.6864 148.261 15.4379C148.41 15.1893 148.483 14.8821 148.479 14.5163ZM152.564 18V9.81818H154.764V11.2457H154.849C154.998 10.7379 155.248 10.3544 155.6 10.0952C155.952 9.83239 156.356 9.70099 156.814 9.70099C156.928 9.70099 157.051 9.7081 157.182 9.7223C157.313 9.73651 157.429 9.75604 157.528 9.78089V11.7944C157.422 11.7624 157.274 11.734 157.086 11.7092C156.898 11.6843 156.726 11.6719 156.569 11.6719C156.236 11.6719 155.937 11.7447 155.675 11.8903C155.415 12.0323 155.209 12.2312 155.057 12.4869C154.907 12.7425 154.833 13.0373 154.833 13.3711V18H152.564ZM162.049 18.1598C161.208 18.1598 160.483 17.9893 159.876 17.6484C159.272 17.304 158.807 16.8175 158.48 16.1889C158.154 15.5568 157.99 14.8093 157.99 13.9464C157.99 13.1048 158.154 12.3661 158.48 11.7305C158.807 11.0948 159.267 10.5994 159.86 10.2443C160.457 9.8892 161.156 9.71165 161.959 9.71165C162.498 9.71165 163.001 9.79865 163.466 9.97266C163.935 10.1431 164.343 10.4006 164.691 10.745C165.043 11.0895 165.316 11.5227 165.512 12.0447C165.707 12.5632 165.805 13.1705 165.805 13.8665V14.4897H158.896V13.0835H163.669C163.669 12.7567 163.598 12.4673 163.456 12.2152C163.313 11.9631 163.116 11.766 162.864 11.6239C162.616 11.4783 162.326 11.4055 161.996 11.4055C161.652 11.4055 161.346 11.4854 161.08 11.6452C160.817 11.8015 160.611 12.0128 160.462 12.2791C160.313 12.5419 160.236 12.8349 160.233 13.158V14.495C160.233 14.8999 160.307 15.2496 160.457 15.5444C160.609 15.8391 160.824 16.0664 161.101 16.2262C161.378 16.386 161.707 16.4659 162.087 16.4659C162.339 16.4659 162.57 16.4304 162.779 16.3594C162.989 16.2884 163.168 16.1818 163.317 16.0398C163.466 15.8977 163.58 15.7237 163.658 15.5178L165.757 15.6562C165.65 16.1605 165.432 16.6009 165.101 16.9773C164.775 17.3501 164.352 17.6413 163.834 17.8509C163.319 18.0568 162.724 18.1598 162.049 18.1598ZM170.384 8.99254V7.09091H179.344V8.99254H176.004V18H173.724V8.99254H170.384ZM183.287 18.1598C182.459 18.1598 181.744 17.984 181.14 17.6325C180.54 17.2773 180.077 16.7837 179.75 16.1516C179.423 15.516 179.26 14.7791 179.26 13.9411C179.26 13.0959 179.423 12.3572 179.75 11.7251C180.077 11.0895 180.54 10.5959 181.14 10.2443C181.744 9.8892 182.459 9.71165 183.287 9.71165C184.114 9.71165 184.828 9.8892 185.428 10.2443C186.032 10.5959 186.497 11.0895 186.824 11.7251C187.15 12.3572 187.314 13.0959 187.314 13.9411C187.314 14.7791 187.15 15.516 186.824 16.1516C186.497 16.7837 186.032 17.2773 185.428 17.6325C184.828 17.984 184.114 18.1598 183.287 18.1598ZM183.297 16.402C183.674 16.402 183.988 16.2955 184.24 16.0824C184.492 15.8658 184.682 15.571 184.81 15.1982C184.942 14.8253 185.007 14.4009 185.007 13.9251C185.007 13.4492 184.942 13.0249 184.81 12.652C184.682 12.2791 184.492 11.9844 184.24 11.7678C183.988 11.5511 183.674 11.4428 183.297 11.4428C182.918 11.4428 182.598 11.5511 182.339 11.7678C182.083 11.9844 181.889 12.2791 181.758 12.652C181.63 13.0249 181.566 13.4492 181.566 13.9251C181.566 14.4009 181.63 14.8253 181.758 15.1982C181.889 15.571 182.083 15.8658 182.339 16.0824C182.598 16.2955 182.918 16.402 183.297 16.402ZM190.198 18L187.972 9.81818H190.267L191.535 15.3153H191.61L192.931 9.81818H195.184L196.526 15.2834H196.596L197.842 9.81818H200.133L197.911 18H195.509L194.103 12.8544H194.002L192.595 18H190.198ZM204.867 18.1598C204.025 18.1598 203.301 17.9893 202.693 17.6484C202.09 17.304 201.624 16.8175 201.298 16.1889C200.971 15.5568 200.808 14.8093 200.808 13.9464C200.808 13.1048 200.971 12.3661 201.298 11.7305C201.624 11.0948 202.084 10.5994 202.677 10.2443C203.274 9.8892 203.974 9.71165 204.776 9.71165C205.316 9.71165 205.818 9.79865 206.284 9.97266C206.752 10.1431 207.161 10.4006 207.509 10.745C207.86 11.0895 208.134 11.5227 208.329 12.0447C208.524 12.5632 208.622 13.1705 208.622 13.8665V14.4897H201.713V13.0835H206.486C206.486 12.7567 206.415 12.4673 206.273 12.2152C206.131 11.9631 205.934 11.766 205.682 11.6239C205.433 11.4783 205.144 11.4055 204.813 11.4055C204.469 11.4055 204.164 11.4854 203.897 11.6452C203.634 11.8015 203.428 12.0128 203.279 12.2791C203.13 12.5419 203.054 12.8349 203.05 13.158V14.495C203.05 14.8999 203.125 15.2496 203.274 15.5444C203.427 15.8391 203.642 16.0664 203.919 16.2262C204.195 16.386 204.524 16.4659 204.904 16.4659C205.156 16.4659 205.387 16.4304 205.596 16.3594C205.806 16.2884 205.985 16.1818 206.134 16.0398C206.284 15.8977 206.397 15.7237 206.475 15.5178L208.574 15.6562C208.468 16.1605 208.249 16.6009 207.919 16.9773C207.592 17.3501 207.17 17.6413 206.651 17.8509C206.136 18.0568 205.541 18.1598 204.867 18.1598ZM210.103 18V9.81818H212.303V11.2457H212.388C212.537 10.7379 212.787 10.3544 213.139 10.0952C213.491 9.83239 213.895 9.70099 214.354 9.70099C214.467 9.70099 214.59 9.7081 214.721 9.7223C214.852 9.73651 214.968 9.75604 215.067 9.78089V11.7944C214.961 11.7624 214.813 11.734 214.625 11.7092C214.437 11.6843 214.265 11.6719 214.108 11.6719C213.775 11.6719 213.476 11.7447 213.214 11.8903C212.954 12.0323 212.748 12.2312 212.596 12.4869C212.447 12.7425 212.372 13.0373 212.372 13.3711V18H210.103ZM222.061 7.09091V18H219.755V7.09091H222.061ZM226.265 7.09091V18H223.959V7.09091H226.265ZM230.587 16.5085L230.528 17.0945C230.482 17.5632 230.393 18.0302 230.262 18.4954C230.134 18.9641 229.999 19.3885 229.857 19.7685C229.718 20.1484 229.607 20.4467 229.521 20.6634H228.051C228.104 20.4538 228.177 20.1609 228.27 19.7844C228.362 19.4116 228.449 18.9925 228.531 18.5273C228.612 18.0621 228.664 17.5881 228.685 17.1051L228.712 16.5085H230.587ZM241.581 10.2283C241.538 9.79865 241.355 9.46484 241.032 9.22692C240.709 8.98899 240.271 8.87003 239.717 8.87003C239.34 8.87003 239.022 8.9233 238.763 9.02983C238.504 9.13281 238.305 9.27663 238.167 9.46129C238.032 9.64595 237.964 9.85547 237.964 10.0898C237.957 10.2852 237.998 10.4556 238.087 10.6012C238.179 10.7468 238.305 10.8729 238.465 10.9794C238.625 11.0824 238.809 11.1729 239.019 11.2511C239.228 11.3256 239.452 11.3896 239.69 11.4428L240.67 11.6772C241.146 11.7837 241.583 11.9258 241.98 12.1033C242.378 12.2809 242.723 12.4993 243.014 12.7585C243.305 13.0178 243.531 13.3232 243.69 13.6747C243.854 14.0263 243.937 14.4293 243.941 14.8839C243.937 15.5515 243.767 16.1303 243.429 16.6204C243.096 17.1069 242.613 17.4851 241.98 17.755C241.352 18.0213 240.594 18.1545 239.706 18.1545C238.825 18.1545 238.058 18.0195 237.405 17.7496C236.755 17.4798 236.247 17.0803 235.881 16.5511C235.519 16.0185 235.329 15.3597 235.311 14.5749H237.543C237.568 14.9407 237.673 15.2461 237.858 15.4911C238.046 15.7326 238.296 15.9155 238.609 16.0398C238.925 16.1605 239.282 16.2209 239.679 16.2209C240.07 16.2209 240.409 16.1641 240.697 16.0504C240.988 15.9368 241.213 15.7788 241.373 15.5763C241.533 15.3739 241.613 15.1413 241.613 14.8786C241.613 14.6335 241.54 14.4276 241.395 14.2607C241.252 14.0937 241.043 13.9517 240.766 13.8345C240.493 13.7173 240.157 13.6108 239.759 13.5149L238.571 13.2166C237.652 12.9929 236.925 12.6431 236.393 12.1673C235.86 11.6914 235.596 11.0504 235.599 10.2443C235.596 9.58381 235.771 9.00675 236.126 8.51314C236.485 8.01953 236.977 7.63423 237.602 7.35724C238.227 7.08026 238.937 6.94176 239.733 6.94176C240.542 6.94176 241.249 7.08026 241.853 7.35724C242.46 7.63423 242.932 8.01953 243.27 8.51314C243.607 9.00675 243.781 9.57848 243.792 10.2283H241.581ZM247.783 18.1545C247.261 18.1545 246.795 18.0639 246.387 17.8828C245.979 17.6982 245.655 17.4265 245.418 17.0678C245.183 16.7056 245.066 16.2546 245.066 15.7148C245.066 15.2603 245.149 14.8786 245.316 14.5696C245.483 14.2607 245.71 14.0121 245.998 13.8239C246.286 13.6357 246.612 13.4936 246.978 13.3977C247.348 13.3018 247.735 13.2344 248.139 13.1953C248.615 13.1456 248.999 13.0994 249.29 13.0568C249.581 13.0107 249.793 12.9432 249.924 12.8544C250.055 12.7656 250.121 12.6342 250.121 12.4602V12.4283C250.121 12.0909 250.014 11.8299 249.801 11.6452C249.592 11.4606 249.294 11.3683 248.907 11.3683C248.498 11.3683 248.173 11.4588 247.932 11.6399C247.69 11.8175 247.53 12.0412 247.452 12.3111L245.354 12.1406C245.46 11.6435 245.67 11.2138 245.982 10.8516C246.295 10.4858 246.698 10.2053 247.191 10.0099C247.688 9.81108 248.264 9.71165 248.917 9.71165C249.372 9.71165 249.807 9.76491 250.222 9.87145C250.641 9.97798 251.012 10.1431 251.335 10.3668C251.662 10.5906 251.92 10.8782 252.108 11.2298C252.296 11.5778 252.39 11.995 252.39 12.4815V18H250.238V16.8654H250.174C250.043 17.1211 249.867 17.3466 249.647 17.5419C249.427 17.7337 249.162 17.8846 248.853 17.9947C248.544 18.1012 248.187 18.1545 247.783 18.1545ZM248.432 16.5884C248.766 16.5884 249.061 16.5227 249.317 16.3913C249.572 16.2564 249.773 16.0753 249.919 15.848C250.064 15.6207 250.137 15.3633 250.137 15.0756V14.2074C250.066 14.2536 249.968 14.2962 249.844 14.3352C249.723 14.3707 249.587 14.4045 249.434 14.4364C249.281 14.4648 249.128 14.4915 248.976 14.5163C248.823 14.5376 248.685 14.5572 248.56 14.5749C248.294 14.614 248.061 14.6761 247.862 14.7614C247.664 14.8466 247.509 14.962 247.399 15.1076C247.289 15.2496 247.234 15.4272 247.234 15.6403C247.234 15.9492 247.346 16.1854 247.57 16.3487C247.797 16.5085 248.084 16.5884 248.432 16.5884ZM256.42 13.2699V18H254.151V9.81818H256.313V11.2617H256.409C256.59 10.7859 256.894 10.4094 257.32 10.1325C257.746 9.85192 258.263 9.71165 258.87 9.71165C259.438 9.71165 259.934 9.83594 260.356 10.0845C260.779 10.3331 261.107 10.6882 261.342 11.1499C261.576 11.608 261.693 12.1548 261.693 12.7905V18H259.424V13.1953C259.428 12.6946 259.3 12.304 259.041 12.0234C258.781 11.7393 258.424 11.5973 257.97 11.5973C257.665 11.5973 257.395 11.663 257.16 11.7944C256.929 11.9258 256.748 12.1175 256.617 12.3697C256.489 12.6183 256.423 12.9183 256.42 13.2699ZM265.815 18.1545C265.293 18.1545 264.828 18.0639 264.419 17.8828C264.011 17.6982 263.688 17.4265 263.45 17.0678C263.215 16.7056 263.098 16.2546 263.098 15.7148C263.098 15.2603 263.182 14.8786 263.349 14.5696C263.515 14.2607 263.743 14.0121 264.03 13.8239C264.318 13.6357 264.645 13.4936 265.01 13.3977C265.38 13.3018 265.767 13.2344 266.172 13.1953C266.648 13.1456 267.031 13.0994 267.322 13.0568C267.613 13.0107 267.825 12.9432 267.956 12.8544C268.088 12.7656 268.153 12.6342 268.153 12.4602V12.4283C268.153 12.0909 268.047 11.8299 267.834 11.6452C267.624 11.4606 267.326 11.3683 266.939 11.3683C266.53 11.3683 266.205 11.4588 265.964 11.6399C265.722 11.8175 265.563 12.0412 265.485 12.3111L263.386 12.1406C263.492 11.6435 263.702 11.2138 264.014 10.8516C264.327 10.4858 264.73 10.2053 265.224 10.0099C265.721 9.81108 266.296 9.71165 266.949 9.71165C267.404 9.71165 267.839 9.76491 268.254 9.87145C268.673 9.97798 269.045 10.1431 269.368 10.3668C269.694 10.5906 269.952 10.8782 270.14 11.2298C270.328 11.5778 270.422 11.995 270.422 12.4815V18H268.27V16.8654H268.206C268.075 17.1211 267.899 17.3466 267.679 17.5419C267.459 17.7337 267.194 17.8846 266.885 17.9947C266.577 18.1012 266.22 18.1545 265.815 18.1545ZM266.465 16.5884C266.798 16.5884 267.093 16.5227 267.349 16.3913C267.605 16.2564 267.805 16.0753 267.951 15.848C268.096 15.6207 268.169 15.3633 268.169 15.0756V14.2074C268.098 14.2536 268.001 14.2962 267.876 14.3352C267.756 14.3707 267.619 14.4045 267.466 14.4364C267.313 14.4648 267.161 14.4915 267.008 14.5163C266.855 14.5376 266.717 14.5572 266.593 14.5749C266.326 14.614 266.094 14.6761 265.895 14.7614C265.696 14.8466 265.541 14.962 265.431 15.1076C265.321 15.2496 265.266 15.4272 265.266 15.6403C265.266 15.9492 265.378 16.1854 265.602 16.3487C265.829 16.5085 266.117 16.5884 266.465 16.5884ZM274.452 13.2699V18H272.183V9.81818H274.346V11.2617H274.441C274.623 10.7859 274.926 10.4094 275.352 10.1325C275.778 9.85192 276.295 9.71165 276.902 9.71165C277.471 9.71165 277.966 9.83594 278.388 10.0845C278.811 10.3331 279.14 10.6882 279.374 11.1499C279.608 11.608 279.725 12.1548 279.725 12.7905V18H277.456V13.1953C277.46 12.6946 277.332 12.304 277.073 12.0234C276.814 11.7393 276.457 11.5973 276.002 11.5973C275.697 11.5973 275.427 11.663 275.192 11.7944C274.962 11.9258 274.781 12.1175 274.649 12.3697C274.521 12.6183 274.456 12.9183 274.452 13.2699ZM284.529 18.1332C283.907 18.1332 283.345 17.9734 282.84 17.6538C282.34 17.3306 281.942 16.8565 281.647 16.2315C281.356 15.603 281.21 14.8324 281.21 13.9197C281.21 12.9822 281.361 12.2028 281.663 11.5813C281.965 10.9563 282.366 10.4893 282.867 10.1804C283.371 9.8679 283.923 9.71165 284.524 9.71165C284.982 9.71165 285.363 9.78977 285.669 9.94602C285.978 10.0987 286.226 10.2905 286.415 10.5213C286.606 10.7486 286.752 10.9723 286.851 11.1925H286.921V7.09091H289.184V18H286.947V16.6896H286.851C286.745 16.9169 286.594 17.1424 286.399 17.3661C286.207 17.5863 285.956 17.7692 285.647 17.9148C285.342 18.0604 284.969 18.1332 284.529 18.1332ZM285.248 16.3274C285.614 16.3274 285.923 16.228 286.175 16.0291C286.43 15.8267 286.626 15.5444 286.761 15.1822C286.899 14.82 286.968 14.3956 286.968 13.9091C286.968 13.4226 286.901 13 286.766 12.6413C286.631 12.2827 286.436 12.0057 286.18 11.8104C285.924 11.6151 285.614 11.5174 285.248 11.5174C284.875 11.5174 284.561 11.6186 284.305 11.821C284.049 12.0234 283.856 12.304 283.725 12.6626C283.593 13.0213 283.527 13.4368 283.527 13.9091C283.527 14.3849 283.593 14.8058 283.725 15.1715C283.859 15.5337 284.053 15.8178 284.305 16.0238C284.561 16.2262 284.875 16.3274 285.248 16.3274ZM304.19 10.9102H301.857C301.814 10.6083 301.727 10.3402 301.596 10.1058C301.464 9.8679 301.296 9.66548 301.09 9.49858C300.884 9.33168 300.646 9.20383 300.376 9.11506C300.109 9.02628 299.82 8.98189 299.508 8.98189C298.943 8.98189 298.451 9.12216 298.032 9.4027C297.613 9.67969 297.288 10.0845 297.057 10.6172C296.826 11.1463 296.711 11.7891 296.711 12.5455C296.711 13.3232 296.826 13.9766 297.057 14.5057C297.292 15.0348 297.618 15.4343 298.037 15.7042C298.456 15.9741 298.941 16.109 299.492 16.109C299.801 16.109 300.086 16.0682 300.349 15.9865C300.616 15.9048 300.852 15.7859 301.058 15.6296C301.264 15.4698 301.434 15.2763 301.569 15.049C301.707 14.8217 301.803 14.5625 301.857 14.2713L304.19 14.282C304.129 14.7827 303.978 15.2656 303.737 15.7308C303.499 16.1925 303.178 16.6062 302.773 16.9719C302.372 17.3342 301.892 17.6218 301.335 17.8349C300.781 18.0444 300.154 18.1491 299.454 18.1491C298.481 18.1491 297.611 17.929 296.844 17.4886C296.081 17.0483 295.477 16.4109 295.033 15.5763C294.593 14.7418 294.373 13.7315 294.373 12.5455C294.373 11.3558 294.596 10.3438 295.044 9.50923C295.491 8.67472 296.098 8.03906 296.866 7.60227C297.633 7.16193 298.495 6.94176 299.454 6.94176C300.086 6.94176 300.672 7.03054 301.212 7.2081C301.755 7.38565 302.237 7.64489 302.656 7.98579C303.075 8.32315 303.416 8.73686 303.678 9.22692C303.945 9.71697 304.115 10.2781 304.19 10.9102ZM305.801 18V9.81818H308.001V11.2457H308.086C308.235 10.7379 308.486 10.3544 308.837 10.0952C309.189 9.83239 309.594 9.70099 310.052 9.70099C310.165 9.70099 310.288 9.7081 310.419 9.7223C310.551 9.73651 310.666 9.75604 310.766 9.78089V11.7944C310.659 11.7624 310.512 11.734 310.323 11.7092C310.135 11.6843 309.963 11.6719 309.807 11.6719C309.473 11.6719 309.175 11.7447 308.912 11.8903C308.653 12.0323 308.447 12.2312 308.294 12.4869C308.145 12.7425 308.07 13.0373 308.07 13.3711V18H305.801ZM315.255 18.1598C314.427 18.1598 313.712 17.984 313.108 17.6325C312.508 17.2773 312.044 16.7837 311.718 16.1516C311.391 15.516 311.228 14.7791 311.228 13.9411C311.228 13.0959 311.391 12.3572 311.718 11.7251C312.044 11.0895 312.508 10.5959 313.108 10.2443C313.712 9.8892 314.427 9.71165 315.255 9.71165C316.082 9.71165 316.796 9.8892 317.396 10.2443C318 10.5959 318.465 11.0895 318.792 11.7251C319.118 12.3572 319.282 13.0959 319.282 13.9411C319.282 14.7791 319.118 15.516 318.792 16.1516C318.465 16.7837 318 17.2773 317.396 17.6325C316.796 17.984 316.082 18.1598 315.255 18.1598ZM315.265 16.402C315.642 16.402 315.956 16.2955 316.208 16.0824C316.46 15.8658 316.65 15.571 316.778 15.1982C316.909 14.8253 316.975 14.4009 316.975 13.9251C316.975 13.4492 316.909 13.0249 316.778 12.652C316.65 12.2791 316.46 11.9844 316.208 11.7678C315.956 11.5511 315.642 11.4428 315.265 11.4428C314.885 11.4428 314.566 11.5511 314.306 11.7678C314.051 11.9844 313.857 12.2791 313.726 12.652C313.598 13.0249 313.534 13.4492 313.534 13.9251C313.534 14.4009 313.598 14.8253 313.726 15.1982C313.857 15.571 314.051 15.8658 314.306 16.0824C314.566 16.2955 314.885 16.402 315.265 16.402ZM327.565 12.1513L325.487 12.2791C325.452 12.1016 325.375 11.9418 325.258 11.7997C325.141 11.6541 324.987 11.5387 324.795 11.4535C324.607 11.3647 324.381 11.3203 324.118 11.3203C323.767 11.3203 323.47 11.3949 323.229 11.544C322.987 11.6896 322.866 11.8849 322.866 12.13C322.866 12.3253 322.945 12.4904 323.101 12.6254C323.257 12.7603 323.525 12.8686 323.905 12.9503L325.386 13.2486C326.181 13.4119 326.775 13.6747 327.165 14.0369C327.556 14.3991 327.751 14.875 327.751 15.4645C327.751 16.0007 327.593 16.4712 327.277 16.8761C326.964 17.2809 326.535 17.5969 325.988 17.8242C325.445 18.0479 324.818 18.1598 324.108 18.1598C323.025 18.1598 322.162 17.9343 321.519 17.4833C320.88 17.0288 320.505 16.4109 320.395 15.6296L322.627 15.5124C322.694 15.8427 322.858 16.0948 323.117 16.2688C323.376 16.4393 323.708 16.5245 324.113 16.5245C324.511 16.5245 324.83 16.4482 325.072 16.2955C325.317 16.1392 325.441 15.9386 325.445 15.6935C325.441 15.4876 325.354 15.3189 325.184 15.1875C325.013 15.0526 324.75 14.9496 324.395 14.8786L322.978 14.5962C322.179 14.4364 321.585 14.1594 321.194 13.7653C320.807 13.3711 320.613 12.8686 320.613 12.2578C320.613 11.7322 320.755 11.2795 321.039 10.8995C321.327 10.5195 321.73 10.2266 322.249 10.0206C322.771 9.81463 323.381 9.71165 324.081 9.71165C325.114 9.71165 325.928 9.93004 326.521 10.3668C327.117 10.8036 327.465 11.3984 327.565 12.1513ZM335.987 12.1513L333.91 12.2791C333.875 12.1016 333.798 11.9418 333.681 11.7997C333.564 11.6541 333.409 11.5387 333.218 11.4535C333.029 11.3647 332.804 11.3203 332.541 11.3203C332.19 11.3203 331.893 11.3949 331.652 11.544C331.41 11.6896 331.289 11.8849 331.289 12.13C331.289 12.3253 331.367 12.4904 331.524 12.6254C331.68 12.7603 331.948 12.8686 332.328 12.9503L333.809 13.2486C334.604 13.4119 335.197 13.6747 335.588 14.0369C335.979 14.3991 336.174 14.875 336.174 15.4645C336.174 16.0007 336.016 16.4712 335.7 16.8761C335.387 17.2809 334.958 17.5969 334.411 17.8242C333.867 18.0479 333.241 18.1598 332.53 18.1598C331.447 18.1598 330.584 17.9343 329.942 17.4833C329.302 17.0288 328.928 16.4109 328.818 15.6296L331.05 15.5124C331.117 15.8427 331.28 16.0948 331.54 16.2688C331.799 16.4393 332.131 16.5245 332.536 16.5245C332.934 16.5245 333.253 16.4482 333.495 16.2955C333.74 16.1392 333.864 15.9386 333.867 15.6935C333.864 15.4876 333.777 15.3189 333.606 15.1875C333.436 15.0526 333.173 14.9496 332.818 14.8786L331.401 14.5962C330.602 14.4364 330.007 14.1594 329.617 13.7653C329.23 13.3711 329.036 12.8686 329.036 12.2578C329.036 11.7322 329.178 11.2795 329.462 10.8995C329.75 10.5195 330.153 10.2266 330.671 10.0206C331.193 9.81463 331.804 9.71165 332.504 9.71165C333.537 9.71165 334.35 9.93004 334.943 10.3668C335.54 10.8036 335.888 11.3984 335.987 12.1513ZM341.117 18V7.09091H345.421C346.245 7.09091 346.948 7.23828 347.53 7.53303C348.116 7.82422 348.562 8.23793 348.867 8.77415C349.176 9.30682 349.331 9.93359 349.331 10.6545C349.331 11.3789 349.175 12.0021 348.862 12.5241C348.55 13.0426 348.097 13.4403 347.504 13.7173C346.914 13.9943 346.201 14.1328 345.362 14.1328H342.481V12.2791H344.99C345.43 12.2791 345.796 12.2187 346.087 12.098C346.378 11.9773 346.595 11.7962 346.737 11.5547C346.882 11.3132 346.955 11.0131 346.955 10.6545C346.955 10.2923 346.882 9.98686 346.737 9.73828C346.595 9.4897 346.376 9.30149 346.082 9.17365C345.79 9.04226 345.423 8.97656 344.979 8.97656H343.424V18H341.117ZM347.008 13.0355L349.72 18H347.174L344.521 13.0355H347.008ZM354.483 18.1598C353.656 18.1598 352.94 17.984 352.336 17.6325C351.736 17.2773 351.273 16.7837 350.946 16.1516C350.619 15.516 350.456 14.7791 350.456 13.9411C350.456 13.0959 350.619 12.3572 350.946 11.7251C351.273 11.0895 351.736 10.5959 352.336 10.2443C352.94 9.8892 353.656 9.71165 354.483 9.71165C355.311 9.71165 356.024 9.8892 356.624 10.2443C357.228 10.5959 357.693 11.0895 358.02 11.7251C358.347 12.3572 358.51 13.0959 358.51 13.9411C358.51 14.7791 358.347 15.516 358.02 16.1516C357.693 16.7837 357.228 17.2773 356.624 17.6325C356.024 17.984 355.311 18.1598 354.483 18.1598ZM354.494 16.402C354.87 16.402 355.184 16.2955 355.437 16.0824C355.689 15.8658 355.879 15.571 356.007 15.1982C356.138 14.8253 356.204 14.4009 356.204 13.9251C356.204 13.4492 356.138 13.0249 356.007 12.652C355.879 12.2791 355.689 11.9844 355.437 11.7678C355.184 11.5511 354.87 11.4428 354.494 11.4428C354.114 11.4428 353.794 11.5511 353.535 11.7678C353.279 11.9844 353.086 12.2791 352.954 12.652C352.827 13.0249 352.763 13.4492 352.763 13.9251C352.763 14.4009 352.827 14.8253 352.954 15.1982C353.086 15.571 353.279 15.8658 353.535 16.0824C353.794 16.2955 354.114 16.402 354.494 16.402ZM362.319 18.1545C361.797 18.1545 361.331 18.0639 360.923 17.8828C360.515 17.6982 360.192 17.4265 359.954 17.0678C359.719 16.7056 359.602 16.2546 359.602 15.7148C359.602 15.2603 359.686 14.8786 359.852 14.5696C360.019 14.2607 360.247 14.0121 360.534 13.8239C360.822 13.6357 361.149 13.4936 361.514 13.3977C361.884 13.3018 362.271 13.2344 362.676 13.1953C363.151 13.1456 363.535 13.0994 363.826 13.0568C364.117 13.0107 364.329 12.9432 364.46 12.8544C364.591 12.7656 364.657 12.6342 364.657 12.4602V12.4283C364.657 12.0909 364.551 11.8299 364.338 11.6452C364.128 11.4606 363.83 11.3683 363.443 11.3683C363.034 11.3683 362.709 11.4588 362.468 11.6399C362.226 11.8175 362.067 12.0412 361.988 12.3111L359.89 12.1406C359.996 11.6435 360.206 11.2138 360.518 10.8516C360.831 10.4858 361.234 10.2053 361.727 10.0099C362.225 9.81108 362.8 9.71165 363.453 9.71165C363.908 9.71165 364.343 9.76491 364.758 9.87145C365.177 9.97798 365.548 10.1431 365.872 10.3668C366.198 10.5906 366.456 10.8782 366.644 11.2298C366.832 11.5778 366.926 11.995 366.926 12.4815V18H364.774V16.8654H364.71C364.579 17.1211 364.403 17.3466 364.183 17.5419C363.963 17.7337 363.698 17.8846 363.389 17.9947C363.08 18.1012 362.724 18.1545 362.319 18.1545ZM362.969 16.5884C363.302 16.5884 363.597 16.5227 363.853 16.3913C364.108 16.2564 364.309 16.0753 364.455 15.848C364.6 15.6207 364.673 15.3633 364.673 15.0756V14.2074C364.602 14.2536 364.504 14.2962 364.38 14.3352C364.259 14.3707 364.123 14.4045 363.97 14.4364C363.817 14.4648 363.665 14.4915 363.512 14.5163C363.359 14.5376 363.221 14.5572 363.096 14.5749C362.83 14.614 362.597 14.6761 362.399 14.7614C362.2 14.8466 362.045 14.962 361.935 15.1076C361.825 15.2496 361.77 15.4272 361.77 15.6403C361.77 15.9492 361.882 16.1854 362.106 16.3487C362.333 16.5085 362.621 16.5884 362.969 16.5884ZM371.702 18.1332C371.08 18.1332 370.517 17.9734 370.013 17.6538C369.512 17.3306 369.115 16.8565 368.82 16.2315C368.529 15.603 368.383 14.8324 368.383 13.9197C368.383 12.9822 368.534 12.2028 368.836 11.5813C369.138 10.9563 369.539 10.4893 370.04 10.1804C370.544 9.8679 371.096 9.71165 371.696 9.71165C372.154 9.71165 372.536 9.78977 372.842 9.94602C373.151 10.0987 373.399 10.2905 373.587 10.5213C373.779 10.7486 373.925 10.9723 374.024 11.1925H374.093V7.09091H376.357V18H374.12V16.6896H374.024C373.918 16.9169 373.767 17.1424 373.571 17.3661C373.38 17.5863 373.129 17.7692 372.82 17.9148C372.515 18.0604 372.142 18.1332 371.702 18.1332ZM372.421 16.3274C372.787 16.3274 373.096 16.228 373.348 16.0291C373.603 15.8267 373.799 15.5444 373.934 15.1822C374.072 14.82 374.141 14.3956 374.141 13.9091C374.141 13.4226 374.074 13 373.939 12.6413C373.804 12.2827 373.609 12.0057 373.353 11.8104C373.097 11.6151 372.787 11.5174 372.421 11.5174C372.048 11.5174 371.734 11.6186 371.478 11.821C371.222 12.0234 371.029 12.304 370.897 12.6626C370.766 13.0213 370.7 13.4368 370.7 13.9091C370.7 14.3849 370.766 14.8058 370.897 15.1715C371.032 15.5337 371.226 15.8178 371.478 16.0238C371.734 16.2262 372.048 16.3274 372.421 16.3274ZM380.689 16.5085L380.631 17.0945C380.584 17.5632 380.496 18.0302 380.364 18.4954C380.236 18.9641 380.101 19.3885 379.959 19.7685C379.821 20.1484 379.709 20.4467 379.624 20.6634H378.154C378.207 20.4538 378.28 20.1609 378.372 19.7844C378.464 19.4116 378.551 18.9925 378.633 18.5273C378.715 18.0621 378.766 17.5881 378.788 17.1051L378.814 16.5085H380.689ZM391.684 10.2283C391.641 9.79865 391.458 9.46484 391.135 9.22692C390.812 8.98899 390.373 8.87003 389.819 8.87003C389.443 8.87003 389.125 8.9233 388.866 9.02983C388.606 9.13281 388.408 9.27663 388.269 9.46129C388.134 9.64595 388.067 9.85547 388.067 10.0898C388.06 10.2852 388.1 10.4556 388.189 10.6012C388.282 10.7468 388.408 10.8729 388.567 10.9794C388.727 11.0824 388.912 11.1729 389.121 11.2511C389.331 11.3256 389.555 11.3896 389.793 11.4428L390.773 11.6772C391.248 11.7837 391.685 11.9258 392.083 12.1033C392.481 12.2809 392.825 12.4993 393.116 12.7585C393.408 13.0178 393.633 13.3232 393.793 13.6747C393.956 14.0263 394.04 14.4293 394.043 14.8839C394.04 15.5515 393.869 16.1303 393.532 16.6204C393.198 17.1069 392.715 17.4851 392.083 17.755C391.454 18.0213 390.696 18.1545 389.809 18.1545C388.928 18.1545 388.161 18.0195 387.507 17.7496C386.858 17.4798 386.35 17.0803 385.984 16.5511C385.622 16.0185 385.432 15.3597 385.414 14.5749H387.646C387.671 14.9407 387.775 15.2461 387.96 15.4911C388.148 15.7326 388.399 15.9155 388.711 16.0398C389.027 16.1605 389.384 16.2209 389.782 16.2209C390.172 16.2209 390.512 16.1641 390.799 16.0504C391.09 15.9368 391.316 15.7788 391.476 15.5763C391.636 15.3739 391.715 15.1413 391.715 14.8786C391.715 14.6335 391.643 14.4276 391.497 14.2607C391.355 14.0937 391.146 13.9517 390.869 13.8345C390.595 13.7173 390.259 13.6108 389.862 13.5149L388.674 13.2166C387.754 12.9929 387.028 12.6431 386.495 12.1673C385.963 11.6914 385.698 11.0504 385.702 10.2443C385.698 9.58381 385.874 9.00675 386.229 8.51314C386.588 8.01953 387.079 7.63423 387.704 7.35724C388.329 7.08026 389.04 6.94176 389.835 6.94176C390.645 6.94176 391.351 7.08026 391.955 7.35724C392.562 7.63423 393.035 8.01953 393.372 8.51314C393.709 9.00675 393.883 9.57848 393.894 10.2283H391.684ZM397.885 18.1545C397.363 18.1545 396.898 18.0639 396.49 17.8828C396.081 17.6982 395.758 17.4265 395.52 17.0678C395.286 16.7056 395.169 16.2546 395.169 15.7148C395.169 15.2603 395.252 14.8786 395.419 14.5696C395.586 14.2607 395.813 14.0121 396.101 13.8239C396.388 13.6357 396.715 13.4936 397.081 13.3977C397.45 13.3018 397.837 13.2344 398.242 13.1953C398.718 13.1456 399.101 13.0994 399.393 13.0568C399.684 13.0107 399.895 12.9432 400.026 12.8544C400.158 12.7656 400.224 12.6342 400.224 12.4602V12.4283C400.224 12.0909 400.117 11.8299 399.904 11.6452C399.694 11.4606 399.396 11.3683 399.009 11.3683C398.601 11.3683 398.276 11.4588 398.034 11.6399C397.793 11.8175 397.633 12.0412 397.555 12.3111L395.456 12.1406C395.563 11.6435 395.772 11.2138 396.085 10.8516C396.397 10.4858 396.8 10.2053 397.294 10.0099C397.791 9.81108 398.366 9.71165 399.02 9.71165C399.474 9.71165 399.909 9.76491 400.325 9.87145C400.744 9.97798 401.115 10.1431 401.438 10.3668C401.765 10.5906 402.022 10.8782 402.21 11.2298C402.399 11.5778 402.493 11.995 402.493 12.4815V18H400.341V16.8654H400.277C400.145 17.1211 399.97 17.3466 399.749 17.5419C399.529 17.7337 399.265 17.8846 398.956 17.9947C398.647 18.1012 398.29 18.1545 397.885 18.1545ZM398.535 16.5884C398.869 16.5884 399.164 16.5227 399.419 16.3913C399.675 16.2564 399.876 16.0753 400.021 15.848C400.167 15.6207 400.24 15.3633 400.24 15.0756V14.2074C400.169 14.2536 400.071 14.2962 399.947 14.3352C399.826 14.3707 399.689 14.4045 399.536 14.4364C399.384 14.4648 399.231 14.4915 399.078 14.5163C398.926 14.5376 398.787 14.5572 398.663 14.5749C398.396 14.614 398.164 14.6761 397.965 14.7614C397.766 14.8466 397.612 14.962 397.502 15.1076C397.392 15.2496 397.336 15.4272 397.336 15.6403C397.336 15.9492 397.448 16.1854 397.672 16.3487C397.899 16.5085 398.187 16.5884 398.535 16.5884ZM404.253 18V9.81818H406.453V11.2457H406.538C406.688 10.7379 406.938 10.3544 407.289 10.0952C407.641 9.83239 408.046 9.70099 408.504 9.70099C408.618 9.70099 408.74 9.7081 408.871 9.7223C409.003 9.73651 409.118 9.75604 409.218 9.78089V11.7944C409.111 11.7624 408.964 11.734 408.776 11.7092C408.587 11.6843 408.415 11.6719 408.259 11.6719C407.925 11.6719 407.627 11.7447 407.364 11.8903C407.105 12.0323 406.899 12.2312 406.746 12.4869C406.597 12.7425 406.522 13.0373 406.522 13.3711V18H404.253ZM412.447 15.6456L412.452 12.9237H412.783L415.403 9.81818H418.008L414.487 13.9304H413.949L412.447 15.6456ZM410.391 18V7.09091H412.66V18H410.391ZM415.505 18L413.097 14.4364L414.61 12.8331L418.163 18H415.505ZM421.391 13.2699V18H419.121V7.09091H421.327V11.2617H421.422C421.607 10.7788 421.905 10.4006 422.317 10.1271C422.729 9.85014 423.246 9.71165 423.867 9.71165C424.436 9.71165 424.931 9.83594 425.354 10.0845C425.78 10.3295 426.11 10.6829 426.344 11.1445C426.582 11.6026 426.699 12.1513 426.696 12.7905V18H424.427V13.1953C424.43 12.6911 424.302 12.2987 424.043 12.0181C423.788 11.7376 423.429 11.5973 422.967 11.5973C422.658 11.5973 422.385 11.663 422.147 11.7944C421.913 11.9258 421.728 12.1175 421.593 12.3697C421.462 12.6183 421.394 12.9183 421.391 13.2699ZM432.21 18.1598C431.369 18.1598 430.644 17.9893 430.037 17.6484C429.433 17.304 428.968 16.8175 428.642 16.1889C428.315 15.5568 428.151 14.8093 428.151 13.9464C428.151 13.1048 428.315 12.3661 428.642 11.7305C428.968 11.0948 429.428 10.5994 430.021 10.2443C430.618 9.8892 431.317 9.71165 432.12 9.71165C432.66 9.71165 433.162 9.79865 433.627 9.97266C434.096 10.1431 434.504 10.4006 434.852 10.745C435.204 11.0895 435.477 11.5227 435.673 12.0447C435.868 12.5632 435.966 13.1705 435.966 13.8665V14.4897H429.057V13.0835H433.83C433.83 12.7567 433.759 12.4673 433.617 12.2152C433.475 11.9631 433.278 11.766 433.025 11.6239C432.777 11.4783 432.487 11.4055 432.157 11.4055C431.813 11.4055 431.507 11.4854 431.241 11.6452C430.978 11.8015 430.772 12.0128 430.623 12.2791C430.474 12.5419 430.398 12.8349 430.394 13.158V14.495C430.394 14.8999 430.469 15.2496 430.618 15.5444C430.77 15.8391 430.985 16.0664 431.262 16.2262C431.539 16.386 431.868 16.4659 432.248 16.4659C432.5 16.4659 432.731 16.4304 432.94 16.3594C433.15 16.2884 433.329 16.1818 433.478 16.0398C433.627 15.8977 433.741 15.7237 433.819 15.5178L435.918 15.6562C435.811 16.1605 435.593 16.6009 435.263 16.9773C434.936 17.3501 434.513 17.6413 433.995 17.8509C433.48 18.0568 432.885 18.1598 432.21 18.1598ZM437.447 9.81818H439.716V18.4048C439.716 19.0369 439.591 19.5483 439.343 19.9389C439.094 20.3295 438.737 20.6154 438.272 20.7965C437.811 20.9776 437.258 21.0682 436.616 21.0682C436.537 21.0682 436.463 21.0664 436.392 21.0629C436.317 21.0629 436.239 21.0611 436.157 21.0575V19.2837C436.218 19.2873 436.271 19.2891 436.317 19.2891C436.36 19.2926 436.406 19.2944 436.456 19.2944C436.822 19.2944 437.077 19.2163 437.223 19.06C437.372 18.9073 437.447 18.6765 437.447 18.3675V9.81818ZM438.576 8.76349C438.242 8.76349 437.954 8.65163 437.713 8.42791C437.471 8.20064 437.351 7.92898 437.351 7.61293C437.351 7.30043 437.471 7.03232 437.713 6.80859C437.954 6.58132 438.242 6.46768 438.576 6.46768C438.917 6.46768 439.206 6.58132 439.444 6.80859C439.686 7.03232 439.806 7.30043 439.806 7.61293C439.806 7.92898 439.686 8.20064 439.444 8.42791C439.206 8.65163 438.917 8.76349 438.576 8.76349ZM444 16.5085L443.941 17.0945C443.895 17.5632 443.806 18.0302 443.675 18.4954C443.547 18.9641 443.412 19.3885 443.27 19.7685C443.131 20.1484 443.02 20.4467 442.934 20.6634H441.464C441.517 20.4538 441.59 20.1609 441.683 19.7844C441.775 19.4116 441.862 18.9925 441.944 18.5273C442.025 18.0621 442.077 17.5881 442.098 17.1051L442.125 16.5085H444ZM44.8285 43H42.3569L46.1229 32.0909H49.0952L52.8558 43H50.3842L47.6516 34.5838H47.5664L44.8285 43ZM44.674 38.712H50.5121V40.5124H44.674V38.712ZM56.3954 38.2699V43H54.1262V32.0909H56.3315V36.2617H56.4274C56.612 35.7788 56.9103 35.4006 57.3223 35.1271C57.7342 34.8501 58.2509 34.7116 58.8723 34.7116C59.4405 34.7116 59.9359 34.8359 60.3585 35.0845C60.7846 35.3295 61.1149 35.6829 61.3493 36.1445C61.5872 36.6026 61.7044 37.1513 61.7008 37.7905V43H59.4316V38.1953C59.4352 37.6911 59.3074 37.2987 59.0481 37.0181C58.7924 36.7376 58.4338 36.5973 57.9721 36.5973C57.6632 36.5973 57.3897 36.663 57.1518 36.7944C56.9174 36.9258 56.7328 37.1175 56.5978 37.3697C56.4664 37.6183 56.399 37.9183 56.3954 38.2699ZM63.4866 43V34.8182H65.6492V36.2617H65.7451C65.9156 35.7823 66.1997 35.4041 66.5974 35.1271C66.9951 34.8501 67.471 34.7116 68.0249 34.7116C68.586 34.7116 69.0637 34.8519 69.4578 35.1325C69.852 35.4094 70.1148 35.7859 70.2462 36.2617H70.3314C70.4983 35.793 70.8002 35.4183 71.2369 35.1378C71.6773 34.8537 72.1975 34.7116 72.7977 34.7116C73.5612 34.7116 74.1808 34.9549 74.6567 35.4414C75.1361 35.9244 75.3758 36.6097 75.3758 37.4975V43H73.1119V37.945C73.1119 37.4904 72.9912 37.1495 72.7497 36.9222C72.5083 36.695 72.2064 36.5813 71.8442 36.5813C71.4323 36.5813 71.1109 36.7127 70.8801 36.9755C70.6492 37.2347 70.5338 37.5774 70.5338 38.0036V43H68.3339V37.897C68.3339 37.4957 68.2185 37.1761 67.9877 36.9382C67.7604 36.7003 67.4603 36.5813 67.0874 36.5813C66.8353 36.5813 66.608 36.6452 66.4056 36.7731C66.2068 36.8974 66.0487 37.0732 65.9316 37.3004C65.8144 37.5241 65.7558 37.7869 65.7558 38.0888V43H63.4866ZM80.8969 43.1598C80.0553 43.1598 79.3309 42.9893 78.7236 42.6484C78.1199 42.304 77.6547 41.8175 77.328 41.1889C77.0013 40.5568 76.838 39.8093 76.838 38.9464C76.838 38.1048 77.0013 37.3661 77.328 36.7305C77.6547 36.0948 78.1146 35.5994 78.7077 35.2443C79.3042 34.8892 80.0038 34.7116 80.8064 34.7116C81.3461 34.7116 81.8486 34.7987 82.3138 34.9727C82.7826 35.1431 83.191 35.4006 83.539 35.745C83.8905 36.0895 84.164 36.5227 84.3593 37.0447C84.5546 37.5632 84.6523 38.1705 84.6523 38.8665V39.4897H77.7435V38.0835H82.5162C82.5162 37.7567 82.4452 37.4673 82.3032 37.2152C82.1611 36.9631 81.964 36.766 81.7119 36.6239C81.4633 36.4783 81.1739 36.4055 80.8437 36.4055C80.4992 36.4055 80.1938 36.4854 79.9275 36.6452C79.6647 36.8015 79.4587 37.0128 79.3096 37.2791C79.1604 37.5419 79.0841 37.8349 79.0805 38.158V39.495C79.0805 39.8999 79.1551 40.2496 79.3042 40.5444C79.4569 40.8391 79.6718 41.0664 79.9488 41.2262C80.2258 41.386 80.5542 41.4659 80.9342 41.4659C81.1863 41.4659 81.4172 41.4304 81.6267 41.3594C81.8362 41.2884 82.0155 41.1818 82.1647 41.0398C82.3138 40.8977 82.4275 40.7237 82.5056 40.5178L84.6043 40.6562C84.4978 41.1605 84.2794 41.6009 83.9491 41.9773C83.6224 42.3501 83.1998 42.6413 82.6814 42.8509C82.1665 43.0568 81.5716 43.1598 80.8969 43.1598ZM89.148 43.1332C88.5265 43.1332 87.9637 42.9734 87.4594 42.6538C86.9587 42.3306 86.561 41.8565 86.2662 41.2315C85.9751 40.603 85.8295 39.8324 85.8295 38.9197C85.8295 37.9822 85.9804 37.2028 86.2822 36.5813C86.5841 35.9563 86.9854 35.4893 87.4861 35.1804C87.9903 34.8679 88.5425 34.7116 89.1427 34.7116C89.6008 34.7116 89.9825 34.7898 90.2879 34.946C90.5969 35.0987 90.8454 35.2905 91.0336 35.5213C91.2254 35.7486 91.371 35.9723 91.4704 36.1925H91.5397V32.0909H93.8035V43H91.5663V41.6896H91.4704C91.3639 41.9169 91.213 42.1424 91.0177 42.3661C90.8259 42.5863 90.5756 42.7692 90.2666 42.9148C89.9612 43.0604 89.5883 43.1332 89.148 43.1332ZM89.8671 41.3274C90.2329 41.3274 90.5418 41.228 90.7939 41.0291C91.0496 40.8267 91.2449 40.5444 91.3799 40.1822C91.5184 39.82 91.5876 39.3956 91.5876 38.9091C91.5876 38.4226 91.5202 38 91.3852 37.6413C91.2503 37.2827 91.055 37.0057 90.7993 36.8104C90.5436 36.6151 90.2329 36.5174 89.8671 36.5174C89.4942 36.5174 89.18 36.6186 88.9243 36.821C88.6686 37.0234 88.4751 37.304 88.3437 37.6626C88.2123 38.0213 88.1466 38.4368 88.1466 38.9091C88.1466 39.3849 88.2123 39.8058 88.3437 40.1715C88.4786 40.5337 88.6721 40.8178 88.9243 41.0238C89.18 41.2262 89.4942 41.3274 89.8671 41.3274ZM98.0023 43.1545C97.4803 43.1545 97.0151 43.0639 96.6067 42.8828C96.1983 42.6982 95.8752 42.4265 95.6373 42.0678C95.4029 41.7056 95.2857 41.2546 95.2857 40.7148C95.2857 40.2603 95.3691 39.8786 95.536 39.5696C95.7029 39.2607 95.9302 39.0121 96.2179 38.8239C96.5055 38.6357 96.8322 38.4936 97.198 38.3977C97.5673 38.3018 97.9544 38.2344 98.3592 38.1953C98.835 38.1456 99.2186 38.0994 99.5098 38.0568C99.801 38.0107 100.012 37.9432 100.144 37.8544C100.275 37.7656 100.341 37.6342 100.341 37.4602V37.4283C100.341 37.0909 100.234 36.8299 100.021 36.6452C99.8116 36.4606 99.5133 36.3683 99.1262 36.3683C98.7179 36.3683 98.3929 36.4588 98.1515 36.6399C97.91 36.8175 97.7502 37.0412 97.6721 37.3111L95.5733 37.1406C95.6799 36.6435 95.8894 36.2138 96.2019 35.8516C96.5144 35.4858 96.9174 35.2053 97.411 35.0099C97.9082 34.8111 98.4835 34.7116 99.1369 34.7116C99.5914 34.7116 100.026 34.7649 100.442 34.8714C100.861 34.978 101.232 35.1431 101.555 35.3668C101.882 35.5906 102.139 35.8782 102.328 36.2298C102.516 36.5778 102.61 36.995 102.61 37.4815V43H100.458V41.8654H100.394C100.263 42.1211 100.087 42.3466 99.8667 42.5419C99.6465 42.7337 99.3819 42.8846 99.073 42.9947C98.764 43.1012 98.4071 43.1545 98.0023 43.1545ZM98.6522 41.5884C98.986 41.5884 99.2807 41.5227 99.5364 41.3913C99.7921 41.2564 99.9927 41.0753 100.138 40.848C100.284 40.6207 100.357 40.3633 100.357 40.0756V39.2074C100.286 39.2536 100.188 39.2962 100.064 39.3352C99.943 39.3707 99.8063 39.4045 99.6536 39.4364C99.5009 39.4648 99.3482 39.4915 99.1955 39.5163C99.0428 39.5376 98.9043 39.5572 98.78 39.5749C98.5137 39.614 98.2811 39.6761 98.0822 39.7614C97.8833 39.8466 97.7289 39.962 97.6188 40.1076C97.5087 40.2496 97.4537 40.4272 97.4537 40.6403C97.4537 40.9492 97.5655 41.1854 97.7892 41.3487C98.0165 41.5085 98.3042 41.5884 98.6522 41.5884ZM104.413 43V32.0909H106.682V36.1925H106.751C106.851 35.9723 106.995 35.7486 107.183 35.5213C107.375 35.2905 107.623 35.0987 107.929 34.946C108.238 34.7898 108.621 34.7116 109.079 34.7116C109.676 34.7116 110.226 34.8679 110.73 35.1804C111.235 35.4893 111.638 35.9563 111.94 36.5813C112.241 37.2028 112.392 37.9822 112.392 38.9197C112.392 39.8324 112.245 40.603 111.95 41.2315C111.659 41.8565 111.261 42.3306 110.757 42.6538C110.256 42.9734 109.695 43.1332 109.074 43.1332C108.634 43.1332 108.259 43.0604 107.95 42.9148C107.645 42.7692 107.394 42.5863 107.199 42.3661C107.004 42.1424 106.854 41.9169 106.751 41.6896H106.65V43H104.413ZM106.634 38.9091C106.634 39.3956 106.702 39.82 106.837 40.1822C106.972 40.5444 107.167 40.8267 107.423 41.0291C107.678 41.228 107.989 41.3274 108.355 41.3274C108.724 41.3274 109.037 41.2262 109.292 41.0238C109.548 40.8178 109.741 40.5337 109.873 40.1715C110.008 39.8058 110.075 39.3849 110.075 38.9091C110.075 38.4368 110.01 38.0213 109.878 37.6626C109.747 37.304 109.553 37.0234 109.298 36.821C109.042 36.6186 108.728 36.5174 108.355 36.5174C107.985 36.5174 107.673 36.6151 107.417 36.8104C107.165 37.0057 106.972 37.2827 106.837 37.6413C106.702 38 106.634 38.4226 106.634 38.9091ZM116.24 43.1545C115.718 43.1545 115.252 43.0639 114.844 42.8828C114.436 42.6982 114.112 42.4265 113.875 42.0678C113.64 41.7056 113.523 41.2546 113.523 40.7148C113.523 40.2603 113.606 39.8786 113.773 39.5696C113.94 39.2607 114.168 39.0121 114.455 38.8239C114.743 38.6357 115.07 38.4936 115.435 38.3977C115.805 38.3018 116.192 38.2344 116.597 38.1953C117.072 38.1456 117.456 38.0994 117.747 38.0568C118.038 38.0107 118.25 37.9432 118.381 37.8544C118.512 37.7656 118.578 37.6342 118.578 37.4602V37.4283C118.578 37.0909 118.472 36.8299 118.258 36.6452C118.049 36.4606 117.751 36.3683 117.364 36.3683C116.955 36.3683 116.63 36.4588 116.389 36.6399C116.147 36.8175 115.987 37.0412 115.909 37.3111L113.811 37.1406C113.917 36.6435 114.127 36.2138 114.439 35.8516C114.752 35.4858 115.155 35.2053 115.648 35.0099C116.146 34.8111 116.721 34.7116 117.374 34.7116C117.829 34.7116 118.264 34.7649 118.679 34.8714C119.098 34.978 119.469 35.1431 119.793 35.3668C120.119 35.5906 120.377 35.8782 120.565 36.2298C120.753 36.5778 120.847 36.995 120.847 37.4815V43H118.695V41.8654H118.631C118.5 42.1211 118.324 42.3466 118.104 42.5419C117.884 42.7337 117.619 42.8846 117.31 42.9947C117.001 43.1012 116.644 43.1545 116.24 43.1545ZM116.889 41.5884C117.223 41.5884 117.518 41.5227 117.774 41.3913C118.029 41.2564 118.23 41.0753 118.376 40.848C118.521 40.6207 118.594 40.3633 118.594 40.0756V39.2074C118.523 39.2536 118.425 39.2962 118.301 39.3352C118.18 39.3707 118.044 39.4045 117.891 39.4364C117.738 39.4648 117.585 39.4915 117.433 39.5163C117.28 39.5376 117.142 39.5572 117.017 39.5749C116.751 39.614 116.518 39.6761 116.32 39.7614C116.121 39.8466 115.966 39.962 115.856 40.1076C115.746 40.2496 115.691 40.4272 115.691 40.6403C115.691 40.9492 115.803 41.1854 116.027 41.3487C116.254 41.5085 116.541 41.5884 116.889 41.5884ZM125.623 43.1332C125.001 43.1332 124.438 42.9734 123.934 42.6538C123.433 42.3306 123.036 41.8565 122.741 41.2315C122.45 40.603 122.304 39.8324 122.304 38.9197C122.304 37.9822 122.455 37.2028 122.757 36.5813C123.059 35.9563 123.46 35.4893 123.961 35.1804C124.465 34.8679 125.017 34.7116 125.617 34.7116C126.075 34.7116 126.457 34.7898 126.763 34.946C127.071 35.0987 127.32 35.2905 127.508 35.5213C127.7 35.7486 127.846 35.9723 127.945 36.1925H128.014V32.0909H130.278V43H128.041V41.6896H127.945C127.839 41.9169 127.688 42.1424 127.492 42.3661C127.301 42.5863 127.05 42.7692 126.741 42.9148C126.436 43.0604 126.063 43.1332 125.623 43.1332ZM126.342 41.3274C126.707 41.3274 127.016 41.228 127.269 41.0291C127.524 40.8267 127.72 40.5444 127.854 40.1822C127.993 39.82 128.062 39.3956 128.062 38.9091C128.062 38.4226 127.995 38 127.86 37.6413C127.725 37.2827 127.53 37.0057 127.274 36.8104C127.018 36.6151 126.707 36.5174 126.342 36.5174C125.969 36.5174 125.655 36.6186 125.399 36.821C125.143 37.0234 124.95 37.304 124.818 37.6626C124.687 38.0213 124.621 38.4368 124.621 38.9091C124.621 39.3849 124.687 39.8058 124.818 40.1715C124.953 40.5337 125.147 40.8178 125.399 41.0238C125.655 41.2262 125.969 41.3274 126.342 41.3274ZM133.47 43.1385C133.119 43.1385 132.817 43.0142 132.565 42.7656C132.316 42.5135 132.192 42.2116 132.192 41.8601C132.192 41.5121 132.316 41.2138 132.565 40.9652C132.817 40.7166 133.119 40.5923 133.47 40.5923C133.811 40.5923 134.109 40.7166 134.365 40.9652C134.621 41.2138 134.749 41.5121 134.749 41.8601C134.749 42.0945 134.688 42.3093 134.567 42.5046C134.45 42.6964 134.296 42.8509 134.104 42.968C133.912 43.0817 133.701 43.1385 133.47 43.1385ZM133.47 37.407C133.119 37.407 132.817 37.2827 132.565 37.0341C132.316 36.7855 132.192 36.4837 132.192 36.1286C132.192 35.7805 132.316 35.484 132.565 35.239C132.817 34.9904 133.119 34.8661 133.47 34.8661C133.811 34.8661 134.109 34.9904 134.365 35.239C134.621 35.484 134.749 35.7805 134.749 36.1286C134.749 36.3665 134.688 36.5831 134.567 36.7784C134.45 36.9702 134.296 37.1229 134.104 37.2365C133.912 37.3501 133.701 37.407 133.47 37.407ZM144.094 43.1491C143.299 43.1491 142.59 43.0124 141.969 42.739C141.351 42.462 140.863 42.082 140.504 41.5991C140.149 41.1126 139.966 40.5515 139.955 39.9158H142.278C142.292 40.1822 142.379 40.4165 142.539 40.619C142.702 40.8178 142.919 40.9723 143.189 41.0824C143.459 41.1925 143.762 41.2475 144.1 41.2475C144.451 41.2475 144.762 41.1854 145.032 41.0611C145.302 40.9368 145.513 40.7646 145.666 40.5444C145.818 40.3242 145.895 40.0703 145.895 39.7827C145.895 39.4915 145.813 39.234 145.65 39.0103C145.49 38.783 145.259 38.6055 144.957 38.4776C144.659 38.3498 144.304 38.2859 143.892 38.2859H142.874V36.592H143.892C144.24 36.592 144.547 36.5316 144.813 36.4109C145.083 36.2901 145.293 36.1232 145.442 35.9102C145.591 35.6935 145.666 35.4414 145.666 35.1538C145.666 34.8803 145.6 34.6406 145.469 34.4347C145.341 34.2251 145.16 34.0618 144.925 33.9446C144.694 33.8274 144.425 33.7688 144.116 33.7688C143.803 33.7688 143.517 33.8256 143.258 33.9393C142.999 34.0494 142.791 34.2074 142.635 34.4134C142.479 34.6193 142.395 34.8608 142.384 35.1378H140.174C140.184 34.5092 140.364 33.9553 140.712 33.4759C141.06 32.9964 141.529 32.6218 142.118 32.3519C142.711 32.0785 143.381 31.9418 144.126 31.9418C144.879 31.9418 145.538 32.0785 146.102 32.3519C146.667 32.6254 147.106 32.9947 147.418 33.4599C147.734 33.9215 147.89 34.44 147.887 35.0153C147.89 35.6261 147.7 36.1357 147.317 36.544C146.937 36.9524 146.442 37.2116 145.831 37.3217V37.407C146.633 37.5099 147.244 37.7887 147.663 38.2433C148.086 38.6942 148.295 39.2589 148.292 39.9371C148.295 40.5586 148.116 41.1108 147.754 41.5938C147.395 42.0767 146.9 42.4567 146.268 42.7337C145.635 43.0107 144.911 43.1491 144.094 43.1491ZM154.019 43.1491C153.199 43.1491 152.469 43.016 151.83 42.7496C151.194 42.4798 150.695 42.1122 150.333 41.647C149.971 41.1818 149.79 40.6545 149.79 40.065C149.79 39.6104 149.893 39.1932 150.099 38.8132C150.308 38.4297 150.592 38.1119 150.951 37.8597C151.31 37.604 151.711 37.4407 152.155 37.3697V37.2951C151.573 37.1779 151.1 36.8956 150.738 36.4482C150.376 35.9972 150.195 35.4734 150.195 34.8768C150.195 34.3121 150.36 33.8097 150.69 33.3693C151.02 32.9254 151.473 32.5774 152.048 32.3253C152.627 32.0696 153.284 31.9418 154.019 31.9418C154.754 31.9418 155.41 32.0696 155.985 32.3253C156.564 32.581 157.018 32.9308 157.348 33.3746C157.679 33.815 157.846 34.3157 157.849 34.8768C157.846 35.4769 157.661 36.0007 157.295 36.4482C156.929 36.8956 156.461 37.1779 155.889 37.2951V37.3697C156.326 37.4407 156.722 37.604 157.077 37.8597C157.435 38.1119 157.72 38.4297 157.929 38.8132C158.142 39.1932 158.25 39.6104 158.254 40.065C158.25 40.6545 158.068 41.1818 157.705 41.647C157.343 42.1122 156.842 42.4798 156.203 42.7496C155.568 43.016 154.84 43.1491 154.019 43.1491ZM154.019 41.4553C154.385 41.4553 154.705 41.3896 154.978 41.2582C155.252 41.1232 155.465 40.9386 155.617 40.7042C155.774 40.4663 155.852 40.1928 155.852 39.8839C155.852 39.5678 155.772 39.2891 155.612 39.0476C155.452 38.8026 155.236 38.6108 154.962 38.4723C154.689 38.3303 154.374 38.2592 154.019 38.2592C153.668 38.2592 153.353 38.3303 153.076 38.4723C152.799 38.6108 152.581 38.8026 152.421 39.0476C152.265 39.2891 152.187 39.5678 152.187 39.8839C152.187 40.1928 152.263 40.4663 152.416 40.7042C152.569 40.9386 152.783 41.1232 153.06 41.2582C153.337 41.3896 153.657 41.4553 154.019 41.4553ZM154.019 36.5813C154.325 36.5813 154.596 36.5192 154.834 36.3949C155.072 36.2706 155.259 36.0984 155.394 35.8782C155.528 35.658 155.596 35.4041 155.596 35.1165C155.596 34.8324 155.528 34.5838 155.394 34.3707C155.259 34.1541 155.074 33.9854 154.84 33.8647C154.605 33.7404 154.332 33.6783 154.019 33.6783C153.71 33.6783 153.437 33.7404 153.199 33.8647C152.961 33.9854 152.775 34.1541 152.64 34.3707C152.508 34.5838 152.443 34.8324 152.443 35.1165C152.443 35.4041 152.51 35.658 152.645 35.8782C152.78 36.0984 152.966 36.2706 153.204 36.3949C153.442 36.5192 153.714 36.5813 154.019 36.5813ZM159.867 43V41.3381L163.75 37.7425C164.08 37.4229 164.357 37.1353 164.581 36.8796C164.808 36.6239 164.98 36.3736 165.097 36.1286C165.215 35.88 165.273 35.6119 165.273 35.3242C165.273 35.0046 165.2 34.7294 165.055 34.4986C164.909 34.2642 164.71 34.0849 164.458 33.9606C164.206 33.8327 163.92 33.7688 163.601 33.7688C163.267 33.7688 162.976 33.8363 162.727 33.9712C162.479 34.1062 162.287 34.2997 162.152 34.5518C162.017 34.804 161.949 35.104 161.949 35.4521H159.76C159.76 34.7383 159.922 34.1186 160.245 33.593C160.568 33.0675 161.021 32.6609 161.603 32.3732C162.186 32.0856 162.857 31.9418 163.617 31.9418C164.398 31.9418 165.078 32.0803 165.657 32.3572C166.239 32.6307 166.692 33.0107 167.015 33.4972C167.338 33.9837 167.5 34.5412 167.5 35.1697C167.5 35.5817 167.418 35.9883 167.255 36.3896C167.095 36.7908 166.809 37.2365 166.397 37.7266C165.985 38.2131 165.405 38.7972 164.655 39.479L163.063 41.0398V41.1143H167.644V43H159.867ZM169.315 43V41.3381L173.198 37.7425C173.528 37.4229 173.805 37.1353 174.029 36.8796C174.256 36.6239 174.429 36.3736 174.546 36.1286C174.663 35.88 174.722 35.6119 174.722 35.3242C174.722 35.0046 174.649 34.7294 174.503 34.4986C174.358 34.2642 174.159 34.0849 173.907 33.9606C173.654 33.8327 173.369 33.7688 173.049 33.7688C172.715 33.7688 172.424 33.8363 172.175 33.9712C171.927 34.1062 171.735 34.2997 171.6 34.5518C171.465 34.804 171.398 35.104 171.398 35.4521H169.208C169.208 34.7383 169.37 34.1186 169.693 33.593C170.016 33.0675 170.469 32.6609 171.051 32.3732C171.634 32.0856 172.305 31.9418 173.065 31.9418C173.846 31.9418 174.526 32.0803 175.105 32.3572C175.687 32.6307 176.14 33.0107 176.463 33.4972C176.786 33.9837 176.948 34.5412 176.948 35.1697C176.948 35.5817 176.866 35.9883 176.703 36.3896C176.543 36.7908 176.257 37.2365 175.845 37.7266C175.434 38.2131 174.853 38.7972 174.104 39.479L172.511 41.0398V41.1143H177.092V43H169.315ZM183.509 32.0909V43H181.203V34.2802H181.139L178.641 35.8462V33.8008L181.341 32.0909H183.509ZM190.379 43.2397C189.463 43.2362 188.675 43.0107 188.014 42.5632C187.357 42.1158 186.851 41.4677 186.496 40.619C186.145 39.7702 185.971 38.7493 185.974 37.5561C185.974 36.3665 186.15 35.3526 186.502 34.5146C186.857 33.6765 187.363 33.0391 188.02 32.6023C188.68 32.1619 189.467 31.9418 190.379 31.9418C191.292 31.9418 192.077 32.1619 192.734 32.6023C193.394 33.0426 193.902 33.6818 194.257 34.5199C194.612 35.3544 194.788 36.3665 194.785 37.5561C194.785 38.7528 194.607 39.7756 194.252 40.6243C193.9 41.473 193.396 42.1211 192.739 42.5685C192.082 43.016 191.296 43.2397 190.379 43.2397ZM190.379 41.3274C191.004 41.3274 191.503 41.0131 191.876 40.3846C192.249 39.756 192.434 38.8132 192.43 37.5561C192.43 36.7287 192.345 36.0398 192.174 35.4893C192.008 34.9389 191.77 34.5252 191.461 34.2482C191.155 33.9712 190.795 33.8327 190.379 33.8327C189.758 33.8327 189.261 34.1435 188.888 34.7649C188.515 35.3864 188.327 36.3168 188.323 37.5561C188.323 38.3942 188.407 39.0938 188.574 39.6548C188.744 40.2124 188.984 40.6314 189.293 40.9119C189.602 41.1889 189.964 41.3274 190.379 41.3274ZM198.477 41.5085L198.419 42.0945C198.373 42.5632 198.284 43.0302 198.152 43.4954C198.025 43.9641 197.89 44.3885 197.748 44.7685C197.609 45.1484 197.497 45.4467 197.412 45.6634H195.942C195.995 45.4538 196.068 45.1609 196.16 44.7844C196.252 44.4116 196.339 43.9925 196.421 43.5273C196.503 43.0621 196.554 42.5881 196.576 42.1051L196.602 41.5085H198.477ZM205.86 32.0909V43H203.554V32.0909H205.86ZM209.984 38.2699V43H207.715V34.8182H209.878V36.2617H209.974C210.155 35.7859 210.458 35.4094 210.884 35.1325C211.311 34.8519 211.827 34.7116 212.435 34.7116C213.003 34.7116 213.498 34.8359 213.921 35.0845C214.343 35.3331 214.672 35.6882 214.906 36.1499C215.141 36.608 215.258 37.1548 215.258 37.7905V43H212.989V38.1953C212.992 37.6946 212.864 37.304 212.605 37.0234C212.346 36.7393 211.989 36.5973 211.534 36.5973C211.229 36.5973 210.959 36.663 210.725 36.7944C210.494 36.9258 210.313 37.1175 210.181 37.3697C210.054 37.6183 209.988 37.9183 209.984 38.2699ZM220.061 43.1332C219.44 43.1332 218.877 42.9734 218.373 42.6538C217.872 42.3306 217.474 41.8565 217.179 41.2315C216.888 40.603 216.743 39.8324 216.743 38.9197C216.743 37.9822 216.893 37.2028 217.195 36.5813C217.497 35.9563 217.898 35.4893 218.399 35.1804C218.903 34.8679 219.456 34.7116 220.056 34.7116C220.514 34.7116 220.896 34.7898 221.201 34.946C221.51 35.0987 221.759 35.2905 221.947 35.5213C222.138 35.7486 222.284 35.9723 222.384 36.1925H222.453V32.0909H224.717V43H222.479V41.6896H222.384C222.277 41.9169 222.126 42.1424 221.931 42.3661C221.739 42.5863 221.489 42.7692 221.18 42.9148C220.874 43.0604 220.501 43.1332 220.061 43.1332ZM220.78 41.3274C221.146 41.3274 221.455 41.228 221.707 41.0291C221.963 40.8267 222.158 40.5444 222.293 40.1822C222.431 39.82 222.501 39.3956 222.501 38.9091C222.501 38.4226 222.433 38 222.298 37.6413C222.163 37.2827 221.968 37.0057 221.712 36.8104C221.457 36.6151 221.146 36.5174 220.78 36.5174C220.407 36.5174 220.093 36.6186 219.837 36.821C219.582 37.0234 219.388 37.304 219.257 37.6626C219.125 38.0213 219.06 38.4368 219.06 38.9091C219.06 39.3849 219.125 39.8058 219.257 40.1715C219.392 40.5337 219.585 40.8178 219.837 41.0238C220.093 41.2262 220.407 41.3274 220.78 41.3274ZM226.582 43V34.8182H228.851V43H226.582ZM227.722 33.7635C227.385 33.7635 227.095 33.6516 226.854 33.4279C226.616 33.2006 226.497 32.929 226.497 32.6129C226.497 32.3004 226.616 32.0323 226.854 31.8086C227.095 31.5813 227.385 31.4677 227.722 31.4677C228.06 31.4677 228.347 31.5813 228.585 31.8086C228.827 32.0323 228.947 32.3004 228.947 32.6129C228.947 32.929 228.827 33.2006 228.585 33.4279C228.347 33.6516 228.06 33.7635 227.722 33.7635ZM233.002 43.1545C232.48 43.1545 232.015 43.0639 231.607 42.8828C231.198 42.6982 230.875 42.4265 230.637 42.0678C230.403 41.7056 230.286 41.2546 230.286 40.7148C230.286 40.2603 230.369 39.8786 230.536 39.5696C230.703 39.2607 230.93 39.0121 231.218 38.8239C231.506 38.6357 231.832 38.4936 232.198 38.3977C232.567 38.3018 232.954 38.2344 233.359 38.1953C233.835 38.1456 234.219 38.0994 234.51 38.0568C234.801 38.0107 235.012 37.9432 235.144 37.8544C235.275 37.7656 235.341 37.6342 235.341 37.4602V37.4283C235.341 37.0909 235.234 36.8299 235.021 36.6452C234.812 36.4606 234.513 36.3683 234.126 36.3683C233.718 36.3683 233.393 36.4588 233.151 36.6399C232.91 36.8175 232.75 37.0412 232.672 37.3111L230.573 37.1406C230.68 36.6435 230.889 36.2138 231.202 35.8516C231.514 35.4858 231.917 35.2053 232.411 35.0099C232.908 34.8111 233.483 34.7116 234.137 34.7116C234.591 34.7116 235.026 34.7649 235.442 34.8714C235.861 34.978 236.232 35.1431 236.555 35.3668C236.882 35.5906 237.139 35.8782 237.328 36.2298C237.516 36.5778 237.61 36.995 237.61 37.4815V43H235.458V41.8654H235.394C235.263 42.1211 235.087 42.3466 234.867 42.5419C234.646 42.7337 234.382 42.8846 234.073 42.9947C233.764 43.1012 233.407 43.1545 233.002 43.1545ZM233.652 41.5884C233.986 41.5884 234.281 41.5227 234.536 41.3913C234.792 41.2564 234.993 41.0753 235.138 40.848C235.284 40.6207 235.357 40.3633 235.357 40.0756V39.2074C235.286 39.2536 235.188 39.2962 235.064 39.3352C234.943 39.3707 234.806 39.4045 234.654 39.4364C234.501 39.4648 234.348 39.4915 234.195 39.5163C234.043 39.5376 233.904 39.5572 233.78 39.5749C233.514 39.614 233.281 39.6761 233.082 39.7614C232.883 39.8466 232.729 39.962 232.619 40.1076C232.509 40.2496 232.454 40.4272 232.454 40.6403C232.454 40.9492 232.566 41.1854 232.789 41.3487C233.017 41.5085 233.304 41.5884 233.652 41.5884Z" fill="#121111"/>
<path fill-rule="evenodd" clip-rule="evenodd" d="M19.2291 81.2598L16.6891 80.9698C16.0791 80.8998 15.4791 81.1098 15.0491 81.5398L13.2091 83.3798C10.3791 81.9398 8.05906 79.6298 6.61906 76.7898L8.46906 74.9398C8.89906 74.5098 9.10906 73.9098 9.03906 73.2998L8.74906 70.7798C8.62906 69.7698 7.77906 69.0098 6.75906 69.0098H5.02906C3.89906 69.0098 2.95906 69.9498 3.02906 71.0798C3.55906 79.6198 10.3891 86.4398 18.9191 86.9698C20.0491 87.0398 20.9891 86.0998 20.9891 84.9698V83.2398C20.9991 82.2298 20.2391 81.3798 19.2291 81.2598Z" fill="#0081FE"/>
<path d="M43.525 81.215V74.285H45.46V81.215H43.525ZM40.93 78.665V76.835H48.07V78.665H40.93ZM53.5545 72.32C54.5245 72.32 55.3595 72.52 56.0595 72.92C56.7595 73.32 57.2995 73.905 57.6795 74.675C58.0595 75.435 58.2495 76.385 58.2495 77.525C58.2495 78.735 58.0195 79.76 57.5595 80.6C57.1095 81.44 56.4845 82.08 55.6845 82.52C54.8845 82.96 53.9545 83.18 52.8945 83.18C52.3445 83.18 51.8145 83.12 51.3045 83C50.7945 82.88 50.3545 82.7 49.9845 82.46L50.8845 80.675C51.1745 80.875 51.4845 81.015 51.8145 81.095C52.1445 81.165 52.4895 81.2 52.8495 81.2C53.7495 81.2 54.4645 80.925 54.9945 80.375C55.5345 79.825 55.8045 79.01 55.8045 77.93C55.8045 77.75 55.7995 77.55 55.7895 77.33C55.7795 77.11 55.7545 76.89 55.7145 76.67L56.3745 77.3C56.2045 77.69 55.9645 78.02 55.6545 78.29C55.3445 78.55 54.9845 78.75 54.5745 78.89C54.1645 79.02 53.7045 79.085 53.1945 79.085C52.5245 79.085 51.9145 78.95 51.3645 78.68C50.8245 78.41 50.3895 78.03 50.0595 77.54C49.7395 77.05 49.5795 76.475 49.5795 75.815C49.5795 75.095 49.7545 74.475 50.1045 73.955C50.4645 73.435 50.9445 73.035 51.5445 72.755C52.1545 72.465 52.8245 72.32 53.5545 72.32ZM53.7045 74.135C53.3545 74.135 53.0495 74.2 52.7895 74.33C52.5295 74.45 52.3245 74.63 52.1745 74.87C52.0245 75.1 51.9495 75.375 51.9495 75.695C51.9495 76.175 52.1095 76.56 52.4295 76.85C52.7595 77.13 53.1945 77.27 53.7345 77.27C54.0845 77.27 54.3945 77.205 54.6645 77.075C54.9445 76.935 55.1595 76.745 55.3095 76.505C55.4595 76.265 55.5345 75.995 55.5345 75.695C55.5345 75.395 55.4595 75.13 55.3095 74.9C55.1695 74.66 54.9645 74.475 54.6945 74.345C54.4245 74.205 54.0945 74.135 53.7045 74.135ZM61.2767 83V73.4L62.3267 74.45H59.1767V72.5H63.7067V83H61.2767ZM74.0688 72.32C75.0388 72.32 75.8738 72.52 76.5738 72.92C77.2738 73.32 77.8138 73.905 78.1938 74.675C78.5738 75.435 78.7638 76.385 78.7638 77.525C78.7638 78.735 78.5338 79.76 78.0738 80.6C77.6238 81.44 76.9988 82.08 76.1988 82.52C75.3988 82.96 74.4688 83.18 73.4088 83.18C72.8588 83.18 72.3288 83.12 71.8188 83C71.3088 82.88 70.8688 82.7 70.4988 82.46L71.3988 80.675C71.6888 80.875 71.9988 81.015 72.3288 81.095C72.6588 81.165 73.0038 81.2 73.3638 81.2C74.2638 81.2 74.9788 80.925 75.5088 80.375C76.0488 79.825 76.3188 79.01 76.3188 77.93C76.3188 77.75 76.3138 77.55 76.3038 77.33C76.2938 77.11 76.2688 76.89 76.2288 76.67L76.8888 77.3C76.7188 77.69 76.4788 78.02 76.1688 78.29C75.8588 78.55 75.4988 78.75 75.0888 78.89C74.6788 79.02 74.2188 79.085 73.7088 79.085C73.0388 79.085 72.4288 78.95 71.8788 78.68C71.3388 78.41 70.9038 78.03 70.5738 77.54C70.2538 77.05 70.0938 76.475 70.0938 75.815C70.0938 75.095 70.2688 74.475 70.6188 73.955C70.9788 73.435 71.4588 73.035 72.0588 72.755C72.6688 72.465 73.3388 72.32 74.0688 72.32ZM74.2188 74.135C73.8688 74.135 73.5638 74.2 73.3038 74.33C73.0438 74.45 72.8388 74.63 72.6888 74.87C72.5388 75.1 72.4638 75.375 72.4638 75.695C72.4638 76.175 72.6238 76.56 72.9438 76.85C73.2738 77.13 73.7088 77.27 74.2488 77.27C74.5988 77.27 74.9088 77.205 75.1788 77.075C75.4588 76.935 75.6738 76.745 75.8238 76.505C75.9738 76.265 76.0488 75.995 76.0488 75.695C76.0488 75.395 75.9738 75.13 75.8238 74.9C75.6838 74.66 75.4788 74.475 75.2088 74.345C74.9388 74.205 74.6088 74.135 74.2188 74.135ZM84.5795 83.18C83.6995 83.18 82.9295 83.05 82.2695 82.79C81.6095 82.52 81.0945 82.145 80.7245 81.665C80.3545 81.175 80.1695 80.605 80.1695 79.955C80.1695 79.305 80.3495 78.755 80.7095 78.305C81.0795 77.845 81.5945 77.5 82.2545 77.27C82.9145 77.03 83.6895 76.91 84.5795 76.91C85.4795 76.91 86.2595 77.03 86.9195 77.27C87.5895 77.5 88.1045 77.845 88.4645 78.305C88.8345 78.755 89.0195 79.305 89.0195 79.955C89.0195 80.605 88.8345 81.175 88.4645 81.665C88.0945 82.145 87.5745 82.52 86.9045 82.79C86.2445 83.05 85.4695 83.18 84.5795 83.18ZM84.5795 81.395C85.1895 81.395 85.6695 81.26 86.0195 80.99C86.3795 80.72 86.5595 80.35 86.5595 79.88C86.5595 79.41 86.3795 79.045 86.0195 78.785C85.6695 78.515 85.1895 78.38 84.5795 78.38C83.9795 78.38 83.5045 78.515 83.1545 78.785C82.8045 79.045 82.6295 79.41 82.6295 79.88C82.6295 80.35 82.8045 80.72 83.1545 80.99C83.5045 81.26 83.9795 81.395 84.5795 81.395ZM84.5795 78.14C83.7695 78.14 83.0595 78.03 82.4495 77.81C81.8495 77.59 81.3795 77.27 81.0395 76.85C80.7095 76.42 80.5445 75.91 80.5445 75.32C80.5445 74.7 80.7145 74.17 81.0545 73.73C81.3945 73.28 81.8695 72.935 82.4795 72.695C83.0895 72.445 83.7895 72.32 84.5795 72.32C85.3895 72.32 86.0945 72.445 86.6945 72.695C87.3045 72.935 87.7795 73.28 88.1195 73.73C88.4695 74.17 88.6445 74.7 88.6445 75.32C88.6445 75.91 88.4745 76.42 88.1345 76.85C87.8045 77.27 87.3345 77.59 86.7245 77.81C86.1145 78.03 85.3995 78.14 84.5795 78.14ZM84.5795 76.715C85.0895 76.715 85.4895 76.6 85.7795 76.37C86.0795 76.14 86.2295 75.825 86.2295 75.425C86.2295 75.005 86.0745 74.68 85.7645 74.45C85.4645 74.22 85.0695 74.105 84.5795 74.105C84.0995 74.105 83.7095 74.22 83.4095 74.45C83.1095 74.68 82.9595 75.005 82.9595 75.425C82.9595 75.825 83.1045 76.14 83.3945 76.37C83.6845 76.6 84.0795 76.715 84.5795 76.715ZM90.3419 83V81.425L94.3919 77.6C94.7119 77.31 94.9469 77.05 95.0969 76.82C95.2469 76.59 95.3469 76.38 95.3969 76.19C95.4569 76 95.4869 75.825 95.4869 75.665C95.4869 75.245 95.3419 74.925 95.0519 74.705C94.7719 74.475 94.3569 74.36 93.8069 74.36C93.3669 74.36 92.9569 74.445 92.5769 74.615C92.2069 74.785 91.8919 75.05 91.6319 75.41L89.8619 74.27C90.2619 73.67 90.8219 73.195 91.5419 72.845C92.2619 72.495 93.0919 72.32 94.0319 72.32C94.8119 72.32 95.4919 72.45 96.0719 72.71C96.6619 72.96 97.1169 73.315 97.4369 73.775C97.7669 74.235 97.9319 74.785 97.9319 75.425C97.9319 75.765 97.8869 76.105 97.7969 76.445C97.7169 76.775 97.5469 77.125 97.2869 77.495C97.0369 77.865 96.6669 78.28 96.1769 78.74L92.8169 81.905L92.3519 81.02H98.2769V83H90.3419ZM103.15 83.18C102.42 83.18 101.695 83.085 100.975 82.895C100.265 82.695 99.6545 82.415 99.1445 82.055L100.105 80.195C100.505 80.485 100.965 80.715 101.485 80.885C102.015 81.055 102.55 81.14 103.09 81.14C103.7 81.14 104.18 81.02 104.53 80.78C104.88 80.54 105.055 80.205 105.055 79.775C105.055 79.505 104.985 79.265 104.845 79.055C104.705 78.845 104.455 78.685 104.095 78.575C103.745 78.465 103.25 78.41 102.61 78.41H99.9245L100.465 72.5H106.87V74.45H101.335L102.595 73.34L102.22 77.555L100.96 76.445H103.18C104.22 76.445 105.055 76.59 105.685 76.88C106.325 77.16 106.79 77.545 107.08 78.035C107.37 78.525 107.515 79.08 107.515 79.7C107.515 80.32 107.36 80.895 107.05 81.425C106.74 81.945 106.26 82.37 105.61 82.7C104.97 83.02 104.15 83.18 103.15 83.18ZM113.3 83.18C112.44 83.18 111.67 82.97 110.99 82.55C110.31 82.12 109.775 81.5 109.385 80.69C108.995 79.88 108.8 78.9 108.8 77.75C108.8 76.6 108.995 75.62 109.385 74.81C109.775 74 110.31 73.385 110.99 72.965C111.67 72.535 112.44 72.32 113.3 72.32C114.17 72.32 114.94 72.535 115.61 72.965C116.29 73.385 116.825 74 117.215 74.81C117.605 75.62 117.8 76.6 117.8 77.75C117.8 78.9 117.605 79.88 117.215 80.69C116.825 81.5 116.29 82.12 115.61 82.55C114.94 82.97 114.17 83.18 113.3 83.18ZM113.3 81.125C113.71 81.125 114.065 81.01 114.365 80.78C114.675 80.55 114.915 80.185 115.085 79.685C115.265 79.185 115.355 78.54 115.355 77.75C115.355 76.96 115.265 76.315 115.085 75.815C114.915 75.315 114.675 74.95 114.365 74.72C114.065 74.49 113.71 74.375 113.3 74.375C112.9 74.375 112.545 74.49 112.235 74.72C111.935 74.95 111.695 75.315 111.515 75.815C111.345 76.315 111.26 76.96 111.26 77.75C111.26 78.54 111.345 79.185 111.515 79.685C111.695 80.185 111.935 80.55 112.235 80.78C112.545 81.01 112.9 81.125 113.3 81.125ZM119.161 80.795V79.16L124.111 72.5H126.661L121.816 79.16L120.631 78.815H128.896V80.795H119.161ZM124.816 83V80.795L124.891 78.815V76.85H127.186V83H124.816ZM133.493 83.18C132.763 83.18 132.038 83.085 131.318 82.895C130.608 82.695 129.998 82.415 129.488 82.055L130.448 80.195C130.848 80.485 131.308 80.715 131.828 80.885C132.358 81.055 132.893 81.14 133.433 81.14C134.043 81.14 134.523 81.02 134.873 80.78C135.223 80.54 135.398 80.205 135.398 79.775C135.398 79.505 135.328 79.265 135.188 79.055C135.048 78.845 134.798 78.685 134.438 78.575C134.088 78.465 133.593 78.41 132.953 78.41H130.268L130.808 72.5H137.213V74.45H131.678L132.938 73.34L132.563 77.555L131.303 76.445H133.523C134.563 76.445 135.398 76.59 136.028 76.88C136.668 77.16 137.133 77.545 137.423 78.035C137.713 78.525 137.858 79.08 137.858 79.7C137.858 80.32 137.703 80.895 137.393 81.425C137.083 81.945 136.603 82.37 135.953 82.7C135.313 83.02 134.493 83.18 133.493 83.18ZM143.494 83.18C142.614 83.18 141.844 83.05 141.184 82.79C140.524 82.52 140.009 82.145 139.639 81.665C139.269 81.175 139.084 80.605 139.084 79.955C139.084 79.305 139.264 78.755 139.624 78.305C139.994 77.845 140.509 77.5 141.169 77.27C141.829 77.03 142.604 76.91 143.494 76.91C144.394 76.91 145.174 77.03 145.834 77.27C146.504 77.5 147.019 77.845 147.379 78.305C147.749 78.755 147.934 79.305 147.934 79.955C147.934 80.605 147.749 81.175 147.379 81.665C147.009 82.145 146.489 82.52 145.819 82.79C145.159 83.05 144.384 83.18 143.494 83.18ZM143.494 81.395C144.104 81.395 144.584 81.26 144.934 80.99C145.294 80.72 145.474 80.35 145.474 79.88C145.474 79.41 145.294 79.045 144.934 78.785C144.584 78.515 144.104 78.38 143.494 78.38C142.894 78.38 142.419 78.515 142.069 78.785C141.719 79.045 141.544 79.41 141.544 79.88C141.544 80.35 141.719 80.72 142.069 80.99C142.419 81.26 142.894 81.395 143.494 81.395ZM143.494 78.14C142.684 78.14 141.974 78.03 141.364 77.81C140.764 77.59 140.294 77.27 139.954 76.85C139.624 76.42 139.459 75.91 139.459 75.32C139.459 74.7 139.629 74.17 139.969 73.73C140.309 73.28 140.784 72.935 141.394 72.695C142.004 72.445 142.704 72.32 143.494 72.32C144.304 72.32 145.009 72.445 145.609 72.695C146.219 72.935 146.694 73.28 147.034 73.73C147.384 74.17 147.559 74.7 147.559 75.32C147.559 75.91 147.389 76.42 147.049 76.85C146.719 77.27 146.249 77.59 145.639 77.81C145.029 78.03 144.314 78.14 143.494 78.14ZM143.494 76.715C144.004 76.715 144.404 76.6 144.694 76.37C144.994 76.14 145.144 75.825 145.144 75.425C145.144 75.005 144.989 74.68 144.679 74.45C144.379 74.22 143.984 74.105 143.494 74.105C143.014 74.105 142.624 74.22 142.324 74.45C142.024 74.68 141.874 75.005 141.874 75.425C141.874 75.825 142.019 76.14 142.309 76.37C142.599 76.6 142.994 76.715 143.494 76.715ZM151.026 83L155.256 73.43L155.886 74.48H150.231L151.311 73.34V76.19H149.151V72.5H157.566V74.075L153.666 83H151.026ZM163.155 83.18C162.295 83.18 161.525 82.97 160.845 82.55C160.165 82.12 159.63 81.5 159.24 80.69C158.85 79.88 158.655 78.9 158.655 77.75C158.655 76.6 158.85 75.62 159.24 74.81C159.63 74 160.165 73.385 160.845 72.965C161.525 72.535 162.295 72.32 163.155 72.32C164.025 72.32 164.795 72.535 165.465 72.965C166.145 73.385 166.68 74 167.07 74.81C167.46 75.62 167.655 76.6 167.655 77.75C167.655 78.9 167.46 79.88 167.07 80.69C166.68 81.5 166.145 82.12 165.465 82.55C164.795 82.97 164.025 83.18 163.155 83.18ZM163.155 81.125C163.565 81.125 163.92 81.01 164.22 80.78C164.53 80.55 164.77 80.185 164.94 79.685C165.12 79.185 165.21 78.54 165.21 77.75C165.21 76.96 165.12 76.315 164.94 75.815C164.77 75.315 164.53 74.95 164.22 74.72C163.92 74.49 163.565 74.375 163.155 74.375C162.755 74.375 162.4 74.49 162.09 74.72C161.79 74.95 161.55 75.315 161.37 75.815C161.2 76.315 161.115 76.96 161.115 77.75C161.115 78.54 161.2 79.185 161.37 79.685C161.55 80.185 161.79 80.55 162.09 80.78C162.4 81.01 162.755 81.125 163.155 81.125Z" fill="black"/>
<path fill-rule="evenodd" clip-rule="evenodd" d="M296 69H306C306.55 69 307 69.45 307 70V72C307 72.55 306.55 73 306 73H296C295.45 73 295 72.55 295 72V70C295 69.45 295.45 69 296 69ZM294 74H308C309.66 74 311 75.34 311 77V81C311 82.1 310.1 83 309 83H307V85C307 86.1 306.1 87 305 87H297C295.9 87 295 86.1 295 85V83H293C291.9 83 291 82.1 291 81V77C291 75.34 292.34 74 294 74ZM298 85H304C304.55 85 305 84.55 305 84V80H297V84C297 84.55 297.45 85 298 85ZM308 78C307.45 78 307 77.55 307 77C307 76.45 307.45 76 308 76C308.55 76 309 76.45 309 77C309 77.55 308.55 78 308 78Z" fill="#0081FE"/>
<path d="M334.085 83.18C333.225 83.18 332.455 82.97 331.775 82.55C331.095 82.12 330.56 81.5 330.17 80.69C329.78 79.88 329.585 78.9 329.585 77.75C329.585 76.6 329.78 75.62 330.17 74.81C330.56 74 331.095 73.385 331.775 72.965C332.455 72.535 333.225 72.32 334.085 72.32C334.955 72.32 335.725 72.535 336.395 72.965C337.075 73.385 337.61 74 338 74.81C338.39 75.62 338.585 76.6 338.585 77.75C338.585 78.9 338.39 79.88 338 80.69C337.61 81.5 337.075 82.12 336.395 82.55C335.725 82.97 334.955 83.18 334.085 83.18ZM334.085 81.125C334.495 81.125 334.85 81.01 335.15 80.78C335.46 80.55 335.7 80.185 335.87 79.685C336.05 79.185 336.14 78.54 336.14 77.75C336.14 76.96 336.05 76.315 335.87 75.815C335.7 75.315 335.46 74.95 335.15 74.72C334.85 74.49 334.495 74.375 334.085 74.375C333.685 74.375 333.33 74.49 333.02 74.72C332.72 74.95 332.48 75.315 332.3 75.815C332.13 76.315 332.045 76.96 332.045 77.75C332.045 78.54 332.13 79.185 332.3 79.685C332.48 80.185 332.72 80.55 333.02 80.78C333.33 81.01 333.685 81.125 334.085 81.125ZM341.702 83L345.932 73.43L346.562 74.48H340.907L341.987 73.34V76.19H339.827V72.5H348.242V74.075L344.342 83H341.702ZM353.313 72.32C354.283 72.32 355.118 72.52 355.818 72.92C356.518 73.32 357.058 73.905 357.438 74.675C357.818 75.435 358.008 76.385 358.008 77.525C358.008 78.735 357.778 79.76 357.318 80.6C356.868 81.44 356.243 82.08 355.443 82.52C354.643 82.96 353.713 83.18 352.653 83.18C352.103 83.18 351.573 83.12 351.063 83C350.553 82.88 350.113 82.7 349.743 82.46L350.643 80.675C350.933 80.875 351.243 81.015 351.573 81.095C351.903 81.165 352.248 81.2 352.608 81.2C353.508 81.2 354.223 80.925 354.753 80.375C355.293 79.825 355.563 79.01 355.563 77.93C355.563 77.75 355.558 77.55 355.548 77.33C355.538 77.11 355.513 76.89 355.473 76.67L356.133 77.3C355.963 77.69 355.723 78.02 355.413 78.29C355.103 78.55 354.743 78.75 354.333 78.89C353.923 79.02 353.463 79.085 352.953 79.085C352.283 79.085 351.673 78.95 351.123 78.68C350.583 78.41 350.148 78.03 349.818 77.54C349.498 77.05 349.338 76.475 349.338 75.815C349.338 75.095 349.513 74.475 349.863 73.955C350.223 73.435 350.703 73.035 351.303 72.755C351.913 72.465 352.583 72.32 353.313 72.32ZM353.463 74.135C353.113 74.135 352.808 74.2 352.548 74.33C352.288 74.45 352.083 74.63 351.933 74.87C351.783 75.1 351.708 75.375 351.708 75.695C351.708 76.175 351.868 76.56 352.188 76.85C352.518 77.13 352.953 77.27 353.493 77.27C353.843 77.27 354.153 77.205 354.423 77.075C354.703 76.935 354.918 76.745 355.068 76.505C355.218 76.265 355.293 75.995 355.293 75.695C355.293 75.395 355.218 75.13 355.068 74.9C354.928 74.66 354.723 74.475 354.453 74.345C354.183 74.205 353.853 74.135 353.463 74.135ZM363.932 83V81.425L367.982 77.6C368.302 77.31 368.537 77.05 368.687 76.82C368.837 76.59 368.937 76.38 368.987 76.19C369.047 76 369.077 75.825 369.077 75.665C369.077 75.245 368.932 74.925 368.642 74.705C368.362 74.475 367.947 74.36 367.397 74.36C366.957 74.36 366.547 74.445 366.167 74.615C365.797 74.785 365.482 75.05 365.222 75.41L363.452 74.27C363.852 73.67 364.412 73.195 365.132 72.845C365.852 72.495 366.682 72.32 367.622 72.32C368.402 72.32 369.082 72.45 369.662 72.71C370.252 72.96 370.707 73.315 371.027 73.775C371.357 74.235 371.522 74.785 371.522 75.425C371.522 75.765 371.477 76.105 371.387 76.445C371.307 76.775 371.137 77.125 370.877 77.495C370.627 77.865 370.257 78.28 369.767 78.74L366.407 81.905L365.942 81.02H371.867V83H363.932ZM377.865 83.18C376.905 83.18 376.07 82.98 375.36 82.58C374.66 82.18 374.12 81.595 373.74 80.825C373.36 80.055 373.17 79.105 373.17 77.975C373.17 76.765 373.395 75.74 373.845 74.9C374.305 74.06 374.935 73.42 375.735 72.98C376.545 72.54 377.475 72.32 378.525 72.32C379.085 72.32 379.62 72.38 380.13 72.5C380.64 72.62 381.08 72.8 381.45 73.04L380.55 74.825C380.26 74.625 379.95 74.49 379.62 74.42C379.29 74.34 378.945 74.3 378.585 74.3C377.675 74.3 376.955 74.575 376.425 75.125C375.895 75.675 375.63 76.49 375.63 77.57C375.63 77.75 375.63 77.95 375.63 78.17C375.64 78.39 375.67 78.61 375.72 78.83L375.045 78.2C375.235 77.81 375.48 77.485 375.78 77.225C376.08 76.955 376.435 76.755 376.845 76.625C377.265 76.485 377.725 76.415 378.225 76.415C378.905 76.415 379.515 76.55 380.055 76.82C380.595 77.09 381.025 77.47 381.345 77.96C381.675 78.45 381.84 79.025 381.84 79.685C381.84 80.395 381.66 81.015 381.3 81.545C380.95 82.065 380.475 82.47 379.875 82.76C379.285 83.04 378.615 83.18 377.865 83.18ZM377.73 81.365C378.07 81.365 378.37 81.305 378.63 81.185C378.9 81.055 379.11 80.87 379.26 80.63C379.41 80.39 379.485 80.115 379.485 79.805C379.485 79.325 379.32 78.945 378.99 78.665C378.67 78.375 378.24 78.23 377.7 78.23C377.34 78.23 377.025 78.3 376.755 78.44C376.485 78.57 376.27 78.755 376.11 78.995C375.96 79.225 375.885 79.495 375.885 79.805C375.885 80.105 375.96 80.375 376.11 80.615C376.26 80.845 376.47 81.03 376.74 81.17C377.01 81.3 377.34 81.365 377.73 81.365ZM387.371 83.18C386.491 83.18 385.721 83.05 385.061 82.79C384.401 82.52 383.886 82.145 383.516 81.665C383.146 81.175 382.961 80.605 382.961 79.955C382.961 79.305 383.141 78.755 383.501 78.305C383.871 77.845 384.386 77.5 385.046 77.27C385.706 77.03 386.481 76.91 387.371 76.91C388.271 76.91 389.051 77.03 389.711 77.27C390.381 77.5 390.896 77.845 391.256 78.305C391.626 78.755 391.811 79.305 391.811 79.955C391.811 80.605 391.626 81.175 391.256 81.665C390.886 82.145 390.366 82.52 389.696 82.79C389.036 83.05 388.261 83.18 387.371 83.18ZM387.371 81.395C387.981 81.395 388.461 81.26 388.811 80.99C389.171 80.72 389.351 80.35 389.351 79.88C389.351 79.41 389.171 79.045 388.811 78.785C388.461 78.515 387.981 78.38 387.371 78.38C386.771 78.38 386.296 78.515 385.946 78.785C385.596 79.045 385.421 79.41 385.421 79.88C385.421 80.35 385.596 80.72 385.946 80.99C386.296 81.26 386.771 81.395 387.371 81.395ZM387.371 78.14C386.561 78.14 385.851 78.03 385.241 77.81C384.641 77.59 384.171 77.27 383.831 76.85C383.501 76.42 383.336 75.91 383.336 75.32C383.336 74.7 383.506 74.17 383.846 73.73C384.186 73.28 384.661 72.935 385.271 72.695C385.881 72.445 386.581 72.32 387.371 72.32C388.181 72.32 388.886 72.445 389.486 72.695C390.096 72.935 390.571 73.28 390.911 73.73C391.261 74.17 391.436 74.7 391.436 75.32C391.436 75.91 391.266 76.42 390.926 76.85C390.596 77.27 390.126 77.59 389.516 77.81C388.906 78.03 388.191 78.14 387.371 78.14ZM387.371 76.715C387.881 76.715 388.281 76.6 388.571 76.37C388.871 76.14 389.021 75.825 389.021 75.425C389.021 75.005 388.866 74.68 388.556 74.45C388.256 74.22 387.861 74.105 387.371 74.105C386.891 74.105 386.501 74.22 386.201 74.45C385.901 74.68 385.751 75.005 385.751 75.425C385.751 75.825 385.896 76.14 386.186 76.37C386.476 76.6 386.871 76.715 387.371 76.715ZM396.913 72.32C397.883 72.32 398.718 72.52 399.418 72.92C400.118 73.32 400.658 73.905 401.038 74.675C401.418 75.435 401.608 76.385 401.608 77.525C401.608 78.735 401.378 79.76 400.918 80.6C400.468 81.44 399.843 82.08 399.043 82.52C398.243 82.96 397.313 83.18 396.253 83.18C395.703 83.18 395.173 83.12 394.663 83C394.153 82.88 393.713 82.7 393.343 82.46L394.243 80.675C394.533 80.875 394.843 81.015 395.173 81.095C395.503 81.165 395.848 81.2 396.208 81.2C397.108 81.2 397.823 80.925 398.353 80.375C398.893 79.825 399.163 79.01 399.163 77.93C399.163 77.75 399.158 77.55 399.148 77.33C399.138 77.11 399.113 76.89 399.073 76.67L399.733 77.3C399.563 77.69 399.323 78.02 399.013 78.29C398.703 78.55 398.343 78.75 397.933 78.89C397.523 79.02 397.063 79.085 396.553 79.085C395.883 79.085 395.273 78.95 394.723 78.68C394.183 78.41 393.748 78.03 393.418 77.54C393.098 77.05 392.938 76.475 392.938 75.815C392.938 75.095 393.113 74.475 393.463 73.955C393.823 73.435 394.303 73.035 394.903 72.755C395.513 72.465 396.183 72.32 396.913 72.32ZM397.063 74.135C396.713 74.135 396.408 74.2 396.148 74.33C395.888 74.45 395.683 74.63 395.533 74.87C395.383 75.1 395.308 75.375 395.308 75.695C395.308 76.175 395.468 76.56 395.788 76.85C396.118 77.13 396.553 77.27 397.093 77.27C397.443 77.27 397.753 77.205 398.023 77.075C398.303 76.935 398.518 76.745 398.668 76.505C398.818 76.265 398.893 75.995 398.893 75.695C398.893 75.395 398.818 75.13 398.668 74.9C398.528 74.66 398.323 74.475 398.053 74.345C397.783 74.205 397.453 74.135 397.063 74.135ZM406.332 83.18C405.602 83.18 404.877 83.085 404.157 82.895C403.437 82.695 402.827 82.415 402.327 82.055L403.272 80.195C403.672 80.485 404.137 80.715 404.667 80.885C405.197 81.055 405.732 81.14 406.272 81.14C406.882 81.14 407.362 81.02 407.712 80.78C408.062 80.54 408.237 80.21 408.237 79.79C408.237 79.39 408.082 79.075 407.772 78.845C407.462 78.615 406.962 78.5 406.272 78.5H405.162V76.895L408.087 73.58L408.357 74.45H402.852V72.5H410.202V74.075L407.292 77.39L406.062 76.685H406.767C408.057 76.685 409.032 76.975 409.692 77.555C410.352 78.135 410.682 78.88 410.682 79.79C410.682 80.38 410.527 80.935 410.217 81.455C409.907 81.965 409.432 82.38 408.792 82.7C408.152 83.02 407.332 83.18 406.332 83.18ZM413.724 83V73.4L414.774 74.45H411.624V72.5H416.154V83H413.724ZM421.848 83.18C421.118 83.18 420.393 83.085 419.673 82.895C418.963 82.695 418.353 82.415 417.843 82.055L418.803 80.195C419.203 80.485 419.663 80.715 420.183 80.885C420.713 81.055 421.248 81.14 421.788 81.14C422.398 81.14 422.878 81.02 423.228 80.78C423.578 80.54 423.753 80.205 423.753 79.775C423.753 79.505 423.683 79.265 423.543 79.055C423.403 78.845 423.153 78.685 422.793 78.575C422.443 78.465 421.948 78.41 421.308 78.41H418.623L419.163 72.5H425.568V74.45H420.033L421.293 73.34L420.918 77.555L419.658 76.445H421.878C422.918 76.445 423.753 76.59 424.383 76.88C425.023 77.16 425.488 77.545 425.778 78.035C426.068 78.525 426.213 79.08 426.213 79.7C426.213 80.32 426.058 80.895 425.748 81.425C425.438 81.945 424.958 82.37 424.308 82.7C423.668 83.02 422.848 83.18 421.848 83.18ZM431.999 83.18C431.139 83.18 430.369 82.97 429.689 82.55C429.009 82.12 428.474 81.5 428.084 80.69C427.694 79.88 427.499 78.9 427.499 77.75C427.499 76.6 427.694 75.62 428.084 74.81C428.474 74 429.009 73.385 429.689 72.965C430.369 72.535 431.139 72.32 431.999 72.32C432.869 72.32 433.639 72.535 434.309 72.965C434.989 73.385 435.524 74 435.914 74.81C436.304 75.62 436.499 76.6 436.499 77.75C436.499 78.9 436.304 79.88 435.914 80.69C435.524 81.5 434.989 82.12 434.309 82.55C433.639 82.97 432.869 83.18 431.999 83.18ZM431.999 81.125C432.409 81.125 432.764 81.01 433.064 80.78C433.374 80.55 433.614 80.185 433.784 79.685C433.964 79.185 434.054 78.54 434.054 77.75C434.054 76.96 433.964 76.315 433.784 75.815C433.614 75.315 433.374 74.95 433.064 74.72C432.764 74.49 432.409 74.375 431.999 74.375C431.599 74.375 431.244 74.49 430.934 74.72C430.634 74.95 430.394 75.315 430.214 75.815C430.044 76.315 429.959 76.96 429.959 77.75C429.959 78.54 430.044 79.185 430.214 79.685C430.394 80.185 430.634 80.55 430.934 80.78C431.244 81.01 431.599 81.125 431.999 81.125Z" fill="black"/>
</svg>
