<svg width="205" height="88" viewBox="0 0 205 88" fill="none" xmlns="http://www.w3.org/2000/svg">
<g filter="url(#filter0_dddi_1190_926)">
<path d="M18 29.8C18 25.3196 18 23.0794 18.8719 21.3681C19.6389 19.8628 20.8628 18.6389 22.3681 17.8719C24.0794 17 26.3196 17 30.8 17H174.2C178.68 17 180.921 17 182.632 17.8719C184.137 18.6389 185.361 19.8628 186.128 21.3681C187 23.0794 187 25.3196 187 29.8V56.2C187 60.6804 187 62.9206 186.128 64.6319C185.361 66.1372 184.137 67.3611 182.632 68.1281C180.921 69 178.68 69 174.2 69H30.8C26.3196 69 24.0794 69 22.3681 68.1281C20.8628 67.3611 19.6389 66.1372 18.8719 64.6319C18 62.9206 18 60.6804 18 56.2V29.8Z" fill="url(#paint0_linear_1190_926)" fill-opacity="0.7"/>
<path d="M42.8849 48V37.8182H45.0376V46.2251H49.4027V48H42.8849ZM51.0033 48V37.8182H57.8641V39.593H53.156V42.0192H57.5111V43.794H53.156V46.2251H57.884V48H51.0033ZM61.5055 48H59.1987L62.7136 37.8182H65.4878L68.9977 48H66.6909L64.1405 40.1449H64.0609L61.5055 48ZM61.3614 43.9979H66.8102V45.6783H61.3614V43.9979ZM70.3982 48V37.8182H74.4153C75.1842 37.8182 75.8405 37.9557 76.384 38.2308C76.9309 38.5026 77.3469 38.8887 77.6319 39.3892C77.9202 39.8864 78.0644 40.4714 78.0644 41.1442C78.0644 41.8203 77.9186 42.402 77.6269 42.8892C77.3353 43.3731 76.9127 43.7443 76.3592 44.0028C75.809 44.2614 75.1428 44.3906 74.3606 44.3906H71.671V42.6605H74.0126C74.4236 42.6605 74.7649 42.6042 75.0367 42.4915C75.3085 42.3788 75.5107 42.2098 75.6433 41.9844C75.7791 41.759 75.8471 41.4789 75.8471 41.1442C75.8471 40.8061 75.7791 40.5211 75.6433 40.2891C75.5107 40.0571 75.3068 39.8814 75.0317 39.7621C74.76 39.6394 74.4169 39.5781 74.0026 39.5781H72.5509V48H70.3982ZM75.8968 43.3665L78.4273 48H76.0509L73.5751 43.3665H75.8968ZM88.2771 37.8182V48H86.4177L81.988 41.5916H81.9134V48H79.7607V37.8182H81.6499L86.0448 44.2216H86.1343V37.8182H88.2771ZM93.6459 37.8182H96.3007L99.1047 44.6591H99.224L102.028 37.8182H104.683V48H102.595V41.3729H102.51L99.8753 47.9503H98.4534L95.8185 41.348H95.7339V48H93.6459V37.8182ZM115.988 42.9091C115.988 44.0194 115.777 44.964 115.357 45.7429C114.939 46.5218 114.369 47.1167 113.646 47.5277C112.927 47.9354 112.118 48.1392 111.22 48.1392C110.315 48.1392 109.503 47.9337 108.784 47.5227C108.065 47.1117 107.496 46.5168 107.079 45.7379C106.661 44.959 106.452 44.0161 106.452 42.9091C106.452 41.7988 106.661 40.8542 107.079 40.0753C107.496 39.2964 108.065 38.7031 108.784 38.2955C109.503 37.8845 110.315 37.679 111.22 37.679C112.118 37.679 112.927 37.8845 113.646 38.2955C114.369 38.7031 114.939 39.2964 115.357 40.0753C115.777 40.8542 115.988 41.7988 115.988 42.9091ZM113.805 42.9091C113.805 42.1899 113.698 41.5833 113.482 41.0895C113.27 40.5956 112.97 40.2211 112.582 39.9659C112.195 39.7107 111.741 39.5831 111.22 39.5831C110.7 39.5831 110.246 39.7107 109.858 39.9659C109.47 40.2211 109.169 40.5956 108.953 41.0895C108.741 41.5833 108.635 42.1899 108.635 42.9091C108.635 43.6283 108.741 44.2348 108.953 44.7287C109.169 45.2225 109.47 45.5971 109.858 45.8523C110.246 46.1075 110.7 46.2351 111.22 46.2351C111.741 46.2351 112.195 46.1075 112.582 45.8523C112.97 45.5971 113.27 45.2225 113.482 44.7287C113.698 44.2348 113.805 43.6283 113.805 42.9091ZM117.758 48V37.8182H121.775C122.544 37.8182 123.2 37.9557 123.743 38.2308C124.29 38.5026 124.706 38.8887 124.991 39.3892C125.28 39.8864 125.424 40.4714 125.424 41.1442C125.424 41.8203 125.278 42.402 124.986 42.8892C124.695 43.3731 124.272 43.7443 123.719 44.0028C123.168 44.2614 122.502 44.3906 121.72 44.3906H119.03V42.6605H121.372C121.783 42.6605 122.124 42.6042 122.396 42.4915C122.668 42.3788 122.87 42.2098 123.003 41.9844C123.139 41.759 123.206 41.4789 123.206 41.1442C123.206 40.8061 123.139 40.5211 123.003 40.2891C122.87 40.0571 122.666 39.8814 122.391 39.7621C122.119 39.6394 121.776 39.5781 121.362 39.5781H119.91V48H117.758ZM123.256 43.3665L125.787 48H123.41L120.934 43.3665H123.256ZM127.12 48V37.8182H133.981V39.593H129.273V42.0192H133.628V43.794H129.273V46.2251H134.001V48H127.12Z" fill="white"/>
<path d="M166.727 43.8562L161.461 49.1227C161.097 49.4867 160.508 49.4867 160.148 49.1227L159.273 48.2475C158.909 47.8835 158.909 47.2949 159.273 46.9348L163.006 43.2017L159.273 39.4687C158.909 39.1047 158.909 38.5161 159.273 38.1559L160.144 37.273C160.508 36.909 161.097 36.909 161.457 37.273L166.724 42.5395C167.091 42.9036 167.091 43.4922 166.727 43.8562Z" fill="white"/>
</g>
<defs>
<filter id="filter0_dddi_1190_926" x="0" y="0" width="205" height="88" filterUnits="userSpaceOnUse" color-interpolation-filters="sRGB">
<feFlood flood-opacity="0" result="BackgroundImageFix"/>
<feColorMatrix in="SourceAlpha" type="matrix" values="0 0 0 0 0 0 0 0 0 0 0 0 0 0 0 0 0 0 127 0" result="hardAlpha"/>
<feOffset dy="3"/>
<feGaussianBlur stdDeviation="2.5"/>
<feColorMatrix type="matrix" values="0 0 0 0 0 0 0 0 0 0 0 0 0 0 0 0 0 0 0.2 0"/>
<feBlend mode="normal" in2="BackgroundImageFix" result="effect1_dropShadow_1190_926"/>
<feColorMatrix in="SourceAlpha" type="matrix" values="0 0 0 0 0 0 0 0 0 0 0 0 0 0 0 0 0 0 127 0" result="hardAlpha"/>
<feOffset dy="1"/>
<feGaussianBlur stdDeviation="9"/>
<feColorMatrix type="matrix" values="0 0 0 0 0 0 0 0 0 0 0 0 0 0 0 0 0 0 0.12 0"/>
<feBlend mode="normal" in2="effect1_dropShadow_1190_926" result="effect2_dropShadow_1190_926"/>
<feColorMatrix in="SourceAlpha" type="matrix" values="0 0 0 0 0 0 0 0 0 0 0 0 0 0 0 0 0 0 127 0" result="hardAlpha"/>
<feOffset dy="6"/>
<feGaussianBlur stdDeviation="5"/>
<feColorMatrix type="matrix" values="0 0 0 0 0 0 0 0 0 0 0 0 0 0 0 0 0 0 0.14 0"/>
<feBlend mode="normal" in2="effect2_dropShadow_1190_926" result="effect3_dropShadow_1190_926"/>
<feBlend mode="normal" in="SourceGraphic" in2="effect3_dropShadow_1190_926" result="shape"/>
<feColorMatrix in="SourceAlpha" type="matrix" values="0 0 0 0 0 0 0 0 0 0 0 0 0 0 0 0 0 0 127 0" result="hardAlpha"/>
<feOffset dy="4"/>
<feGaussianBlur stdDeviation="4"/>
<feComposite in2="hardAlpha" operator="arithmetic" k2="-1" k3="1"/>
<feColorMatrix type="matrix" values="0 0 0 0 0.88125 0 0 0 0 0.9735 0 0 0 0 0.99375 0 0 0 0.1 0"/>
<feBlend mode="normal" in2="shape" result="effect4_innerShadow_1190_926"/>
</filter>
<linearGradient id="paint0_linear_1190_926" x1="18" y1="24.5" x2="154.5" y2="104" gradientUnits="userSpaceOnUse">
<stop stop-color="#FE3506"/>
<stop offset="1" stop-color="#3D34A4"/>
</linearGradient>
</defs>
</svg>
