<svg width="28" height="26" viewBox="0 0 28 26" fill="none" xmlns="http://www.w3.org/2000/svg">
<path d="M25.3335 0H2.0197C0.90478 0 0 0.830401 0 1.85295V23.8602C0 24.8842 0.90478 25.7156 2.0197 25.7156H25.3335C26.4491 25.7156 27.36 24.8842 27.36 23.8602V1.85295C27.36 0.830401 26.4491 0 25.3335 0ZM8.11452 21.9133H4.0546V9.64158H8.11452V21.9133ZM6.08456 7.96363C4.78382 7.96363 3.73236 6.97287 3.73236 5.75137C3.73236 4.53167 4.78382 3.5409 6.08456 3.5409C7.38226 3.5409 8.43638 4.53167 8.43638 5.75137C8.43638 6.97287 7.38226 7.96363 6.08456 7.96363ZM23.313 21.9133H19.2595V15.9458C19.2595 14.5222 19.2299 12.6917 17.1502 12.6917C15.0381 12.6917 14.7163 14.2422 14.7163 15.8426V21.9137H10.6598V9.64158H14.5529V11.3174H14.6083C15.1502 10.353 16.4741 9.33549 18.4486 9.33549C22.5549 9.33549 23.3134 11.8763 23.3134 15.1819L23.313 21.9133Z" fill="black"/>
</svg>
