<svg width="315" height="252" viewBox="0 0 315 252" fill="none" xmlns="http://www.w3.org/2000/svg">
<path d="M125.074 184.727V208H120.153V189.398H120.017L114.688 192.739V188.375L120.449 184.727H125.074ZM139.73 208.511C137.776 208.504 136.094 208.023 134.685 207.068C133.283 206.114 132.204 204.731 131.446 202.92C130.696 201.11 130.325 198.932 130.332 196.386C130.332 193.848 130.707 191.686 131.457 189.898C132.215 188.11 133.295 186.75 134.696 185.818C136.105 184.879 137.783 184.409 139.73 184.409C141.677 184.409 143.351 184.879 144.753 185.818C146.162 186.758 147.245 188.121 148.003 189.909C148.76 191.689 149.135 193.848 149.128 196.386C149.128 198.939 148.749 201.121 147.991 202.932C147.241 204.742 146.166 206.125 144.764 207.08C143.363 208.034 141.685 208.511 139.73 208.511ZM139.73 204.432C141.063 204.432 142.128 203.761 142.923 202.42C143.719 201.08 144.113 199.068 144.105 196.386C144.105 194.621 143.923 193.152 143.56 191.977C143.204 190.803 142.696 189.92 142.037 189.33C141.385 188.739 140.616 188.443 139.73 188.443C138.404 188.443 137.344 189.106 136.548 190.432C135.753 191.758 135.351 193.742 135.344 196.386C135.344 198.174 135.522 199.667 135.878 200.864C136.241 202.053 136.753 202.947 137.412 203.545C138.071 204.136 138.844 204.432 139.73 204.432ZM161.761 208.511C159.807 208.504 158.125 208.023 156.716 207.068C155.314 206.114 154.235 204.731 153.477 202.92C152.727 201.11 152.356 198.932 152.364 196.386C152.364 193.848 152.739 191.686 153.489 189.898C154.246 188.11 155.326 186.75 156.727 185.818C158.136 184.879 159.814 184.409 161.761 184.409C163.708 184.409 165.383 184.879 166.784 185.818C168.193 186.758 169.277 188.121 170.034 189.909C170.792 191.689 171.167 193.848 171.159 196.386C171.159 198.939 170.78 201.121 170.023 202.932C169.273 204.742 168.197 206.125 166.795 207.08C165.394 208.034 163.716 208.511 161.761 208.511ZM161.761 204.432C163.095 204.432 164.159 203.761 164.955 202.42C165.75 201.08 166.144 199.068 166.136 196.386C166.136 194.621 165.955 193.152 165.591 191.977C165.235 190.803 164.727 189.92 164.068 189.33C163.417 188.739 162.648 188.443 161.761 188.443C160.436 188.443 159.375 189.106 158.58 190.432C157.784 191.758 157.383 193.742 157.375 196.386C157.375 198.174 157.553 199.667 157.909 200.864C158.273 202.053 158.784 202.947 159.443 203.545C160.102 204.136 160.875 204.432 161.761 204.432ZM181.622 204.455V188.364H185.69V204.455H181.622ZM175.611 198.443V194.375H191.702V198.443H175.611ZM1.88033 225.545H6.43146L11.2383 237.273H11.4428L16.2496 225.545H20.8008V243H17.2212V231.639H17.0764L12.5593 242.915H10.1218L5.60476 231.597H5.45987V243H1.88033V225.545ZM29.739 243.256C28.3924 243.256 27.2333 242.983 26.2617 242.438C25.2958 241.886 24.5515 241.108 24.0288 240.102C23.506 239.091 23.2447 237.895 23.2447 236.514C23.2447 235.168 23.506 233.986 24.0288 232.969C24.5515 231.952 25.2873 231.159 26.2362 230.591C27.1907 230.023 28.31 229.739 29.5941 229.739C30.4577 229.739 31.2617 229.878 32.006 230.156C32.756 230.429 33.4094 230.841 33.9663 231.392C34.5288 231.943 34.9663 232.636 35.2788 233.472C35.5913 234.301 35.7475 235.273 35.7475 236.386V237.384H24.6935V235.134H32.3299C32.3299 234.611 32.2163 234.148 31.989 233.744C31.7617 233.341 31.4464 233.026 31.043 232.798C30.6452 232.565 30.1822 232.449 29.6538 232.449C29.1026 232.449 28.614 232.577 28.1879 232.832C27.7674 233.082 27.4379 233.42 27.1992 233.847C26.9606 234.267 26.8384 234.736 26.8327 235.253V237.392C26.8327 238.04 26.9521 238.599 27.1907 239.071C27.435 239.543 27.7788 239.906 28.2219 240.162C28.6651 240.418 29.1907 240.545 29.7987 240.545C30.2021 240.545 30.5714 240.489 30.9066 240.375C31.2418 240.261 31.5288 240.091 31.7674 239.864C32.006 239.636 32.1879 239.358 32.3129 239.028L35.6708 239.25C35.5004 240.057 35.1509 240.761 34.6225 241.364C34.0998 241.96 33.4237 242.426 32.5941 242.761C31.7702 243.091 30.8185 243.256 29.739 243.256ZM45.0799 229.909V232.636H37.1964V229.909H45.0799ZM38.9862 226.773H42.6168V238.977C42.6168 239.312 42.668 239.574 42.7702 239.761C42.8725 239.943 43.0146 240.071 43.1964 240.145C43.3839 240.219 43.5998 240.256 43.8441 240.256C44.0146 240.256 44.185 240.241 44.3555 240.213C44.5259 240.179 44.6566 240.153 44.7475 240.136L45.3185 242.838C45.1367 242.895 44.881 242.96 44.5515 243.034C44.2219 243.114 43.8214 243.162 43.3498 243.179C42.4748 243.213 41.7077 243.097 41.0487 242.83C40.3952 242.562 39.8867 242.148 39.5231 241.585C39.1594 241.023 38.9805 240.312 38.9862 239.455V226.773ZM47.445 243V229.909H50.9648V232.193H51.1012C51.3398 231.381 51.7404 230.767 52.3029 230.352C52.8654 229.932 53.5131 229.722 54.2461 229.722C54.4279 229.722 54.6239 229.733 54.8342 229.756C55.0444 229.778 55.229 229.81 55.3881 229.849V233.071C55.2177 233.02 54.9819 232.974 54.6808 232.935C54.3796 232.895 54.104 232.875 53.854 232.875C53.32 232.875 52.8427 232.991 52.4222 233.224C52.0075 233.452 51.6779 233.77 51.4336 234.179C51.195 234.588 51.0756 235.06 51.0756 235.594V243H47.445ZM62.5707 243.256C61.2468 243.256 60.1019 242.974 59.136 242.412C58.1758 241.844 57.4343 241.054 56.9116 240.043C56.3888 239.026 56.1275 237.847 56.1275 236.506C56.1275 235.153 56.3888 233.972 56.9116 232.96C57.4343 231.943 58.1758 231.153 59.136 230.591C60.1019 230.023 61.2468 229.739 62.5707 229.739C63.8945 229.739 65.0366 230.023 65.9968 230.591C66.9627 231.153 67.707 231.943 68.2298 232.96C68.7525 233.972 69.0139 235.153 69.0139 236.506C69.0139 237.847 68.7525 239.026 68.2298 240.043C67.707 241.054 66.9627 241.844 65.9968 242.412C65.0366 242.974 63.8945 243.256 62.5707 243.256ZM62.5877 240.443C63.19 240.443 63.6928 240.273 64.0962 239.932C64.4996 239.585 64.8036 239.114 65.0082 238.517C65.2184 237.92 65.3235 237.241 65.3235 236.48C65.3235 235.719 65.2184 235.04 65.0082 234.443C64.8036 233.847 64.4996 233.375 64.0962 233.028C63.6928 232.682 63.19 232.509 62.5877 232.509C61.9798 232.509 61.4684 232.682 61.0536 233.028C60.6445 233.375 60.3349 233.847 60.1246 234.443C59.9201 235.04 59.8178 235.719 59.8178 236.48C59.8178 237.241 59.9201 237.92 60.1246 238.517C60.3349 239.114 60.6445 239.585 61.0536 239.932C61.4684 240.273 61.9798 240.443 62.5877 240.443ZM71.3746 247.909V229.909H74.9542V232.108H75.1161C75.2752 231.756 75.5053 231.398 75.8065 231.034C76.1133 230.665 76.511 230.358 76.9996 230.114C77.494 229.864 78.1076 229.739 78.8406 229.739C79.7951 229.739 80.6758 229.989 81.4826 230.489C82.2894 230.983 82.9343 231.73 83.4173 232.73C83.9002 233.724 84.1417 234.972 84.1417 236.472C84.1417 237.932 83.9059 239.165 83.4343 240.17C82.9684 241.17 82.332 241.929 81.5252 242.446C80.7241 242.957 79.8263 243.213 78.832 243.213C78.1275 243.213 77.5281 243.097 77.0337 242.864C76.5451 242.631 76.1445 242.338 75.832 241.986C75.5195 241.628 75.2809 241.267 75.1161 240.903H75.0053V247.909H71.3746ZM74.9286 236.455C74.9286 237.233 75.0366 237.912 75.2525 238.491C75.4684 239.071 75.7809 239.523 76.19 239.847C76.5991 240.165 77.0962 240.324 77.6815 240.324C78.2724 240.324 78.7724 240.162 79.1815 239.838C79.5906 239.509 79.9002 239.054 80.1104 238.474C80.3263 237.889 80.4343 237.216 80.4343 236.455C80.4343 235.699 80.3292 235.034 80.119 234.46C79.9087 233.886 79.5991 233.437 79.19 233.114C78.7809 232.79 78.2781 232.628 77.6815 232.628C77.0906 232.628 76.5906 232.784 76.1815 233.097C75.7781 233.409 75.4684 233.852 75.2525 234.426C75.0366 235 74.9286 235.676 74.9286 236.455ZM92.4769 243.256C91.1531 243.256 90.0082 242.974 89.0423 242.412C88.082 241.844 87.3406 241.054 86.8178 240.043C86.2951 239.026 86.0337 237.847 86.0337 236.506C86.0337 235.153 86.2951 233.972 86.8178 232.96C87.3406 231.943 88.082 231.153 89.0423 230.591C90.0082 230.023 91.1531 229.739 92.4769 229.739C93.8008 229.739 94.9428 230.023 95.9031 230.591C96.869 231.153 97.6133 231.943 98.136 232.96C98.6587 233.972 98.9201 235.153 98.9201 236.506C98.9201 237.847 98.6587 239.026 98.136 240.043C97.6133 241.054 96.869 241.844 95.9031 242.412C94.9428 242.974 93.8008 243.256 92.4769 243.256ZM92.494 240.443C93.0962 240.443 93.5991 240.273 94.0025 239.932C94.4059 239.585 94.7099 239.114 94.9144 238.517C95.1246 237.92 95.2298 237.241 95.2298 236.48C95.2298 235.719 95.1246 235.04 94.9144 234.443C94.7099 233.847 94.4059 233.375 94.0025 233.028C93.5991 232.682 93.0962 232.509 92.494 232.509C91.886 232.509 91.3746 232.682 90.9599 233.028C90.5508 233.375 90.2411 233.847 90.0309 234.443C89.8263 235.04 89.7241 235.719 89.7241 236.48C89.7241 237.241 89.8263 237.92 90.0309 238.517C90.2411 239.114 90.5508 239.585 90.9599 239.932C91.3746 240.273 91.886 240.443 92.494 240.443ZM104.912 225.545V243H101.281V225.545H104.912ZM107.82 243V229.909H111.451V243H107.82ZM109.644 228.222C109.104 228.222 108.641 228.043 108.255 227.685C107.874 227.321 107.684 226.886 107.684 226.381C107.684 225.881 107.874 225.452 108.255 225.094C108.641 224.73 109.104 224.548 109.644 224.548C110.184 224.548 110.644 224.73 111.025 225.094C111.411 225.452 111.604 225.881 111.604 226.381C111.604 226.886 111.411 227.321 111.025 227.685C110.644 228.043 110.184 228.222 109.644 228.222ZM121.322 229.909V232.636H113.439V229.909H121.322ZM115.228 226.773H118.859V238.977C118.859 239.312 118.91 239.574 119.012 239.761C119.115 239.943 119.257 240.071 119.439 240.145C119.626 240.219 119.842 240.256 120.086 240.256C120.257 240.256 120.427 240.241 120.598 240.213C120.768 240.179 120.899 240.153 120.99 240.136L121.561 242.838C121.379 242.895 121.123 242.96 120.794 243.034C120.464 243.114 120.064 243.162 119.592 243.179C118.717 243.213 117.95 243.097 117.291 242.83C116.637 242.562 116.129 242.148 115.765 241.585C115.402 241.023 115.223 240.312 115.228 239.455V226.773ZM127.42 243.247C126.585 243.247 125.841 243.102 125.187 242.812C124.534 242.517 124.017 242.082 123.636 241.509C123.261 240.929 123.074 240.207 123.074 239.344C123.074 238.616 123.207 238.006 123.474 237.511C123.741 237.017 124.105 236.619 124.565 236.318C125.025 236.017 125.548 235.79 126.133 235.636C126.724 235.483 127.343 235.375 127.991 235.312C128.752 235.233 129.366 235.159 129.832 235.091C130.298 235.017 130.636 234.909 130.846 234.767C131.056 234.625 131.162 234.415 131.162 234.136V234.085C131.162 233.545 130.991 233.128 130.65 232.832C130.315 232.537 129.838 232.389 129.218 232.389C128.565 232.389 128.045 232.534 127.659 232.824C127.272 233.108 127.017 233.466 126.892 233.898L123.534 233.625C123.704 232.83 124.039 232.142 124.539 231.562C125.039 230.977 125.684 230.528 126.474 230.216C127.27 229.898 128.19 229.739 129.235 229.739C129.963 229.739 130.659 229.824 131.324 229.994C131.994 230.165 132.588 230.429 133.105 230.787C133.627 231.145 134.039 231.605 134.341 232.168C134.642 232.724 134.792 233.392 134.792 234.17V243H131.349V241.185H131.247C131.037 241.594 130.755 241.955 130.403 242.267C130.051 242.574 129.627 242.815 129.133 242.991C128.639 243.162 128.068 243.247 127.42 243.247ZM128.46 240.741C128.994 240.741 129.466 240.636 129.875 240.426C130.284 240.21 130.605 239.92 130.838 239.557C131.071 239.193 131.187 238.781 131.187 238.321V236.932C131.074 237.006 130.917 237.074 130.718 237.136C130.525 237.193 130.306 237.247 130.062 237.298C129.818 237.344 129.574 237.386 129.329 237.426C129.085 237.46 128.863 237.491 128.664 237.52C128.238 237.582 127.866 237.682 127.548 237.818C127.23 237.955 126.983 238.139 126.806 238.372C126.63 238.599 126.542 238.884 126.542 239.224C126.542 239.719 126.721 240.097 127.079 240.358C127.443 240.614 127.903 240.741 128.46 240.741ZM141.24 235.432V243H137.609V229.909H141.069V232.219H141.223C141.512 231.457 141.998 230.855 142.68 230.412C143.362 229.963 144.189 229.739 145.16 229.739C146.069 229.739 146.862 229.938 147.538 230.335C148.214 230.733 148.74 231.301 149.115 232.04C149.49 232.773 149.677 233.648 149.677 234.665V243H146.047V235.312C146.052 234.511 145.848 233.886 145.433 233.438C145.018 232.983 144.447 232.756 143.72 232.756C143.231 232.756 142.799 232.861 142.424 233.071C142.055 233.281 141.765 233.588 141.555 233.991C141.35 234.389 141.245 234.869 141.24 235.432ZM161.17 243H157.216L163.241 225.545H167.997L174.014 243H170.059L165.687 229.534H165.551L161.17 243ZM160.923 236.139H170.264V239.02H160.923V236.139ZM176.047 243V229.909H179.566V232.193H179.703C179.941 231.381 180.342 230.767 180.904 230.352C181.467 229.932 182.115 229.722 182.848 229.722C183.029 229.722 183.225 229.733 183.436 229.756C183.646 229.778 183.831 229.81 183.99 229.849V233.071C183.819 233.02 183.583 232.974 183.282 232.935C182.981 232.895 182.706 232.875 182.456 232.875C181.922 232.875 181.444 232.991 181.024 233.224C180.609 233.452 180.279 233.77 180.035 234.179C179.797 234.588 179.677 235.06 179.677 235.594V243H176.047ZM191.223 243.256C189.877 243.256 188.718 242.983 187.746 242.438C186.78 241.886 186.036 241.108 185.513 240.102C184.99 239.091 184.729 237.895 184.729 236.514C184.729 235.168 184.99 233.986 185.513 232.969C186.036 231.952 186.772 231.159 187.721 230.591C188.675 230.023 189.794 229.739 191.078 229.739C191.942 229.739 192.746 229.878 193.49 230.156C194.24 230.429 194.894 230.841 195.451 231.392C196.013 231.943 196.451 232.636 196.763 233.472C197.076 234.301 197.232 235.273 197.232 236.386V237.384H186.178V235.134H193.814C193.814 234.611 193.701 234.148 193.473 233.744C193.246 233.341 192.931 233.026 192.527 232.798C192.13 232.565 191.667 232.449 191.138 232.449C190.587 232.449 190.098 232.577 189.672 232.832C189.252 233.082 188.922 233.42 188.684 233.847C188.445 234.267 188.323 234.736 188.317 235.253V237.392C188.317 238.04 188.436 238.599 188.675 239.071C188.919 239.543 189.263 239.906 189.706 240.162C190.15 240.418 190.675 240.545 191.283 240.545C191.686 240.545 192.056 240.489 192.391 240.375C192.726 240.261 193.013 240.091 193.252 239.864C193.49 239.636 193.672 239.358 193.797 239.028L197.155 239.25C196.985 240.057 196.635 240.761 196.107 241.364C195.584 241.96 194.908 242.426 194.078 242.761C193.255 243.091 192.303 243.256 191.223 243.256ZM203.334 243.247C202.499 243.247 201.755 243.102 201.101 242.812C200.448 242.517 199.931 242.082 199.55 241.509C199.175 240.929 198.988 240.207 198.988 239.344C198.988 238.616 199.121 238.006 199.388 237.511C199.655 237.017 200.019 236.619 200.479 236.318C200.939 236.017 201.462 235.79 202.047 235.636C202.638 235.483 203.257 235.375 203.905 235.312C204.667 235.233 205.28 235.159 205.746 235.091C206.212 235.017 206.55 234.909 206.76 234.767C206.971 234.625 207.076 234.415 207.076 234.136V234.085C207.076 233.545 206.905 233.128 206.564 232.832C206.229 232.537 205.752 232.389 205.132 232.389C204.479 232.389 203.959 232.534 203.573 232.824C203.186 233.108 202.931 233.466 202.806 233.898L199.448 233.625C199.618 232.83 199.953 232.142 200.453 231.562C200.953 230.977 201.598 230.528 202.388 230.216C203.184 229.898 204.104 229.739 205.15 229.739C205.877 229.739 206.573 229.824 207.238 229.994C207.908 230.165 208.502 230.429 209.019 230.787C209.542 231.145 209.953 231.605 210.255 232.168C210.556 232.724 210.706 233.392 210.706 234.17V243H207.263V241.185H207.161C206.951 241.594 206.669 241.955 206.317 242.267C205.965 242.574 205.542 242.815 205.047 242.991C204.553 243.162 203.982 243.247 203.334 243.247ZM204.374 240.741C204.908 240.741 205.38 240.636 205.789 240.426C206.198 240.21 206.519 239.92 206.752 239.557C206.985 239.193 207.101 238.781 207.101 238.321V236.932C206.988 237.006 206.831 237.074 206.632 237.136C206.439 237.193 206.221 237.247 205.976 237.298C205.732 237.344 205.488 237.386 205.243 237.426C204.999 237.46 204.777 237.491 204.578 237.52C204.152 237.582 203.78 237.682 203.462 237.818C203.144 237.955 202.897 238.139 202.721 238.372C202.544 238.599 202.456 238.884 202.456 239.224C202.456 239.719 202.635 240.097 202.993 240.358C203.357 240.614 203.817 240.741 204.374 240.741ZM224.415 233.642L221.091 233.847C221.034 233.562 220.912 233.307 220.725 233.08C220.537 232.847 220.29 232.662 219.983 232.526C219.682 232.384 219.321 232.312 218.901 232.312C218.338 232.312 217.864 232.432 217.478 232.67C217.091 232.903 216.898 233.216 216.898 233.608C216.898 233.92 217.023 234.185 217.273 234.401C217.523 234.616 217.952 234.79 218.56 234.92L220.929 235.398C222.202 235.659 223.151 236.08 223.776 236.659C224.401 237.239 224.713 238 224.713 238.943C224.713 239.801 224.461 240.554 223.955 241.202C223.455 241.849 222.767 242.355 221.892 242.719C221.023 243.077 220.02 243.256 218.884 243.256C217.151 243.256 215.77 242.895 214.742 242.173C213.719 241.446 213.12 240.457 212.944 239.207L216.515 239.02C216.623 239.548 216.884 239.952 217.299 240.23C217.713 240.503 218.245 240.639 218.892 240.639C219.529 240.639 220.04 240.517 220.426 240.273C220.819 240.023 221.017 239.702 221.023 239.31C221.017 238.98 220.878 238.71 220.605 238.5C220.333 238.284 219.912 238.119 219.344 238.006L217.077 237.554C215.799 237.298 214.847 236.855 214.222 236.224C213.603 235.594 213.293 234.79 213.293 233.812C213.293 232.972 213.52 232.247 213.975 231.639C214.435 231.031 215.08 230.562 215.909 230.233C216.745 229.903 217.722 229.739 218.841 229.739C220.495 229.739 221.796 230.088 222.745 230.787C223.699 231.486 224.256 232.437 224.415 233.642ZM242.091 230.565C242.023 229.878 241.73 229.344 241.213 228.963C240.696 228.582 239.995 228.392 239.108 228.392C238.506 228.392 237.998 228.477 237.583 228.648C237.168 228.812 236.85 229.043 236.628 229.338C236.412 229.634 236.304 229.969 236.304 230.344C236.293 230.656 236.358 230.929 236.5 231.162C236.648 231.395 236.85 231.597 237.105 231.767C237.361 231.932 237.657 232.077 237.992 232.202C238.327 232.321 238.685 232.423 239.066 232.509L240.634 232.884C241.395 233.054 242.094 233.281 242.73 233.565C243.367 233.849 243.918 234.199 244.384 234.614C244.85 235.028 245.211 235.517 245.466 236.08C245.728 236.642 245.861 237.287 245.867 238.014C245.861 239.082 245.588 240.009 245.049 240.793C244.515 241.571 243.742 242.176 242.73 242.608C241.725 243.034 240.512 243.247 239.091 243.247C237.682 243.247 236.455 243.031 235.409 242.599C234.37 242.168 233.557 241.528 232.972 240.682C232.392 239.83 232.088 238.776 232.06 237.52H235.631C235.671 238.105 235.838 238.594 236.134 238.986C236.435 239.372 236.836 239.665 237.336 239.864C237.841 240.057 238.412 240.153 239.049 240.153C239.674 240.153 240.216 240.062 240.676 239.881C241.142 239.699 241.503 239.446 241.759 239.122C242.015 238.798 242.142 238.426 242.142 238.006C242.142 237.614 242.026 237.284 241.793 237.017C241.566 236.75 241.23 236.523 240.787 236.335C240.35 236.148 239.813 235.977 239.176 235.824L237.276 235.347C235.804 234.989 234.642 234.429 233.79 233.668C232.938 232.906 232.515 231.881 232.52 230.591C232.515 229.534 232.796 228.611 233.364 227.821C233.938 227.031 234.725 226.415 235.725 225.972C236.725 225.528 237.861 225.307 239.134 225.307C240.429 225.307 241.56 225.528 242.526 225.972C243.498 226.415 244.253 227.031 244.793 227.821C245.333 228.611 245.611 229.526 245.628 230.565H242.091ZM254.247 243.256C252.9 243.256 251.741 242.983 250.77 242.438C249.804 241.886 249.059 241.108 248.537 240.102C248.014 239.091 247.752 237.895 247.752 236.514C247.752 235.168 248.014 233.986 248.537 232.969C249.059 231.952 249.795 231.159 250.744 230.591C251.699 230.023 252.818 229.739 254.102 229.739C254.966 229.739 255.77 229.878 256.514 230.156C257.264 230.429 257.917 230.841 258.474 231.392C259.037 231.943 259.474 232.636 259.787 233.472C260.099 234.301 260.255 235.273 260.255 236.386V237.384H249.201V235.134H256.838C256.838 234.611 256.724 234.148 256.497 233.744C256.27 233.341 255.954 233.026 255.551 232.798C255.153 232.565 254.69 232.449 254.162 232.449C253.61 232.449 253.122 232.577 252.696 232.832C252.275 233.082 251.946 233.42 251.707 233.847C251.468 234.267 251.346 234.736 251.341 235.253V237.392C251.341 238.04 251.46 238.599 251.699 239.071C251.943 239.543 252.287 239.906 252.73 240.162C253.173 240.418 253.699 240.545 254.306 240.545C254.71 240.545 255.079 240.489 255.414 240.375C255.75 240.261 256.037 240.091 256.275 239.864C256.514 239.636 256.696 239.358 256.821 239.028L260.179 239.25C260.008 240.057 259.659 240.761 259.13 241.364C258.608 241.96 257.931 242.426 257.102 242.761C256.278 243.091 255.326 243.256 254.247 243.256ZM262.625 243V229.909H266.145V232.193H266.281C266.52 231.381 266.92 230.767 267.483 230.352C268.045 229.932 268.693 229.722 269.426 229.722C269.608 229.722 269.804 229.733 270.014 229.756C270.224 229.778 270.409 229.81 270.568 229.849V233.071C270.397 233.02 270.162 232.974 269.86 232.935C269.559 232.895 269.284 232.875 269.034 232.875C268.5 232.875 268.022 232.991 267.602 233.224C267.187 233.452 266.858 233.77 266.613 234.179C266.375 234.588 266.255 235.06 266.255 235.594V243H262.625ZM285.048 229.909L280.471 243H276.38L271.804 229.909H275.639L278.358 239.276H278.494L281.204 229.909H285.048ZM292.45 243.256C291.103 243.256 289.944 242.983 288.973 242.438C288.007 241.886 287.262 241.108 286.74 240.102C286.217 239.091 285.956 237.895 285.956 236.514C285.956 235.168 286.217 233.986 286.74 232.969C287.262 231.952 287.998 231.159 288.947 230.591C289.902 230.023 291.021 229.739 292.305 229.739C293.169 229.739 293.973 229.878 294.717 230.156C295.467 230.429 296.12 230.841 296.677 231.392C297.24 231.943 297.677 232.636 297.99 233.472C298.302 234.301 298.458 235.273 298.458 236.386V237.384H287.404V235.134H295.041C295.041 234.611 294.927 234.148 294.7 233.744C294.473 233.341 294.157 233.026 293.754 232.798C293.356 232.565 292.893 232.449 292.365 232.449C291.814 232.449 291.325 232.577 290.899 232.832C290.478 233.082 290.149 233.42 289.91 233.847C289.672 234.267 289.549 234.736 289.544 235.253V237.392C289.544 238.04 289.663 238.599 289.902 239.071C290.146 239.543 290.49 239.906 290.933 240.162C291.376 240.418 291.902 240.545 292.51 240.545C292.913 240.545 293.282 240.489 293.618 240.375C293.953 240.261 294.24 240.091 294.478 239.864C294.717 239.636 294.899 239.358 295.024 239.028L298.382 239.25C298.211 240.057 297.862 240.761 297.333 241.364C296.811 241.96 296.135 242.426 295.305 242.761C294.481 243.091 293.529 243.256 292.45 243.256ZM305.652 243.213C304.657 243.213 303.757 242.957 302.95 242.446C302.149 241.929 301.512 241.17 301.041 240.17C300.575 239.165 300.342 237.932 300.342 236.472C300.342 234.972 300.583 233.724 301.066 232.73C301.549 231.73 302.191 230.983 302.993 230.489C303.799 229.989 304.683 229.739 305.643 229.739C306.376 229.739 306.987 229.864 307.475 230.114C307.97 230.358 308.368 230.665 308.669 231.034C308.975 231.398 309.208 231.756 309.368 232.108H309.478V225.545H313.1V243H309.521V240.903H309.368C309.197 241.267 308.956 241.628 308.643 241.986C308.336 242.338 307.936 242.631 307.441 242.864C306.953 243.097 306.356 243.213 305.652 243.213ZM306.802 240.324C307.387 240.324 307.882 240.165 308.285 239.847C308.694 239.523 309.007 239.071 309.223 238.491C309.444 237.912 309.555 237.233 309.555 236.455C309.555 235.676 309.447 235 309.231 234.426C309.015 233.852 308.703 233.409 308.294 233.097C307.885 232.784 307.387 232.628 306.802 232.628C306.206 232.628 305.703 232.79 305.294 233.114C304.885 233.437 304.575 233.886 304.365 234.46C304.154 235.034 304.049 235.699 304.049 236.455C304.049 237.216 304.154 237.889 304.365 238.474C304.581 239.054 304.89 239.509 305.294 239.838C305.703 240.162 306.206 240.324 306.802 240.324Z" fill="#010A84"/>
<path d="M113.062 214.364H194.531V216.545H113.062V214.364Z" fill="#010A84"/>
<path d="M106.051 63.8984C106.051 61.8224 107.696 60.1396 109.726 60.1396H117.076C119.105 60.1396 120.751 61.8224 120.751 63.8984V71.4158C120.751 73.4918 119.105 75.1745 117.076 75.1745H109.726C107.696 75.1745 106.051 73.4918 106.051 71.4158V63.8984Z" fill="#222121"/>
<path d="M128.1 63.8984C128.1 61.8224 129.745 60.1396 131.775 60.1396H139.125C141.154 60.1396 142.8 61.8224 142.8 63.8984V71.4158C142.8 73.4918 141.154 75.1745 139.125 75.1745H131.775C129.745 75.1745 128.1 73.4918 128.1 71.4158V63.8984Z" fill="#222121"/>
<path d="M109.726 82.6917C107.696 82.6917 106.051 84.3744 106.051 86.4504V93.9678C106.051 96.0438 107.696 97.7265 109.726 97.7265H117.076C119.105 97.7265 120.751 96.0438 120.751 93.9678V86.4504C120.751 84.3744 119.105 82.6917 117.076 82.6917H109.726Z" fill="#222121"/>
<path d="M106.051 109.003C106.051 106.927 107.696 105.245 109.726 105.245H117.076C119.105 105.245 120.751 106.927 120.751 109.003V116.521C120.751 118.597 119.105 120.28 117.076 120.28H109.726C107.696 120.28 106.051 118.597 106.051 116.521V109.003Z" fill="#222121"/>
<path d="M131.775 82.6917C129.745 82.6917 128.1 84.3744 128.1 86.4504V93.9678C128.1 96.0438 129.745 97.7265 131.775 97.7265H139.125C141.154 97.7265 142.8 96.0438 142.8 93.9678V86.4504C142.8 84.3744 141.154 82.6917 139.125 82.6917H131.775Z" fill="#222121"/>
<path d="M128.1 109.003C128.1 106.927 129.745 105.245 131.775 105.245H139.125C141.154 105.245 142.8 106.927 142.8 109.003V116.521C142.8 118.597 141.154 120.28 139.125 120.28H131.775C129.745 120.28 128.1 118.597 128.1 116.521V109.003Z" fill="#222121"/>
<path d="M197.925 67.6573C195.895 67.6573 194.25 69.3401 194.25 71.4161V78.9335C194.25 81.0095 195.895 82.6922 197.925 82.6922H205.275C207.305 82.6922 208.95 81.0095 208.95 78.9335V71.4161C208.95 69.3401 207.305 67.6573 205.275 67.6573H197.925Z" fill="#222121"/>
<path d="M194.25 93.968C194.25 91.892 195.895 90.2092 197.925 90.2092H205.275C207.305 90.2092 208.95 91.892 208.95 93.968V101.485C208.95 103.561 207.305 105.244 205.275 105.244H197.925C195.895 105.244 194.25 103.561 194.25 101.485V93.968Z" fill="#222121"/>
<path d="M197.925 112.761C195.895 112.761 194.25 114.444 194.25 116.52V124.037C194.25 126.113 195.895 127.796 197.925 127.796H205.275C207.305 127.796 208.95 126.113 208.95 124.037V116.52C208.95 114.444 207.305 112.761 205.275 112.761H197.925Z" fill="#222121"/>
<path fill-rule="evenodd" clip-rule="evenodd" d="M91.35 142.831H84V150.349H231V142.831H223.65V63.8983C223.65 57.6705 218.714 52.6221 212.625 52.6221H190.575V11.2762C190.575 5.04853 185.639 0 179.55 0H135.45C129.361 0 124.425 5.04853 124.425 11.2762V45.1047H102.375C96.2861 45.1047 91.35 50.153 91.35 56.3808V142.831ZM150.15 142.831V56.3808C150.15 54.3049 148.505 52.6221 146.475 52.6221H102.375C100.345 52.6221 98.7 54.3049 98.7 56.3808V142.831H150.15ZM216.3 142.831V63.8983C216.3 61.8223 214.655 60.1396 212.625 60.1396H190.575V142.831H216.3ZM142.8 15.0349C140.77 15.0349 139.125 16.7177 139.125 18.7936V26.3111C139.125 28.387 140.77 30.0698 142.8 30.0698H150.15C152.18 30.0698 153.825 28.387 153.825 26.3111V18.7936C153.825 16.7177 152.18 15.0349 150.15 15.0349H142.8ZM142.8 37.5872C140.77 37.5872 139.125 39.27 139.125 41.3459V45.1047H146.475C149.299 45.1047 151.874 46.1906 153.825 47.976V41.3459C153.825 39.27 152.18 37.5872 150.15 37.5872H142.8ZM164.85 15.0349C162.82 15.0349 161.175 16.7177 161.175 18.7936V26.3111C161.175 28.387 162.82 30.0698 164.85 30.0698H172.2C174.23 30.0698 175.875 28.387 175.875 26.3111V18.7936C175.875 16.7177 174.23 15.0349 172.2 15.0349H164.85ZM161.175 41.3459C161.175 39.27 162.82 37.5872 164.85 37.5872H172.2C174.23 37.5872 175.875 39.27 175.875 41.3459V48.8634C175.875 50.9393 174.23 52.6221 172.2 52.6221H164.85C162.82 52.6221 161.175 50.9393 161.175 48.8634V41.3459ZM164.85 60.1396C162.82 60.1396 161.175 61.8223 161.175 63.8983V71.4157C161.175 73.4917 162.82 75.1744 164.85 75.1744H172.2C174.23 75.1744 175.875 73.4917 175.875 71.4157V63.8983C175.875 61.8223 174.23 60.1396 172.2 60.1396H164.85ZM161.175 86.4506C161.175 84.3747 162.82 82.6919 164.85 82.6919H172.2C174.23 82.6919 175.875 84.3747 175.875 86.4506V93.9681C175.875 96.044 174.23 97.7268 172.2 97.7268H164.85C162.82 97.7268 161.175 96.044 161.175 93.9681V86.4506ZM164.85 105.244C162.82 105.244 161.175 106.927 161.175 109.003V116.52C161.175 118.596 162.82 120.279 164.85 120.279H172.2C174.23 120.279 175.875 118.596 175.875 116.52V109.003C175.875 106.927 174.23 105.244 172.2 105.244H164.85Z" fill="#222121"/>
</svg>
