<svg width="308" height="77" viewBox="0 0 308 77" fill="none" xmlns="http://www.w3.org/2000/svg">
<g filter="url(#filter0_i_1287_800)">
<path d="M49 74L258 75" stroke="url(#paint0_linear_1287_800)" stroke-opacity="0.75" stroke-width="4"/>
</g>
<g filter="url(#filter1_d_1287_800)">
<path d="M36.503 8.72727V48H31.057L11.0946 19.1974H10.7303V48H4.80487V8.72727H10.2892L30.2708 37.5682H30.6351V8.72727H36.503ZM57.381 48.5945C54.479 48.5945 51.9798 47.9744 49.8832 46.7344C47.7994 45.4815 46.1886 43.7237 45.0508 41.4609C43.9258 39.1854 43.3633 36.5199 43.3633 33.4645C43.3633 30.4474 43.9258 27.7884 45.0508 25.4872C46.1886 23.1861 47.7738 21.3899 49.8065 20.0987C51.8519 18.8075 54.2425 18.1619 56.9783 18.1619C58.6403 18.1619 60.2511 18.4368 61.8107 18.9865C63.3704 19.5362 64.7702 20.3991 66.0103 21.5753C67.2504 22.7514 68.2283 24.2791 68.9442 26.1584C69.6602 28.0249 70.0181 30.294 70.0181 32.9659V34.9986H46.604V30.7031H64.3995C64.3995 29.1946 64.0927 27.8587 63.479 26.6953C62.8654 25.5192 62.0025 24.5923 60.8903 23.9148C59.7908 23.2372 58.4996 22.8984 57.0167 22.8984C55.4059 22.8984 53.9996 23.2947 52.7979 24.0874C51.609 24.8672 50.6886 25.8899 50.0366 27.1555C49.3974 28.4084 49.0778 29.7699 49.0778 31.2401V34.5959C49.0778 36.5646 49.4229 38.2393 50.1133 39.62C50.8164 41.0007 51.7944 42.0554 53.0472 42.7841C54.3001 43.5 55.7638 43.858 57.4386 43.858C58.5252 43.858 59.516 43.7045 60.4109 43.3977C61.3058 43.0781 62.0792 42.6051 62.7312 41.9787C63.3832 41.3523 63.8817 40.5788 64.2269 39.6584L69.6538 40.6364C69.2191 42.2344 68.4393 43.6342 67.3143 44.8359C66.2021 46.0249 64.8022 46.9517 63.1147 47.6165C61.44 48.2685 59.5288 48.5945 57.381 48.5945ZM82.7127 48L74.0451 18.5455H79.9705L85.7425 40.1761H86.0302L91.8214 18.5455H97.7468L103.5 40.0803H103.787L109.521 18.5455H115.446L106.798 48H100.949L94.9663 26.7337H94.5252L88.5423 48H82.7127ZM142.959 25.7365L137.763 26.657C137.545 25.9922 137.2 25.3594 136.727 24.7585C136.267 24.1577 135.64 23.6655 134.848 23.282C134.055 22.8984 133.064 22.7067 131.876 22.7067C130.252 22.7067 128.897 23.071 127.81 23.7997C126.724 24.5156 126.18 25.4425 126.18 26.5803C126.18 27.5646 126.545 28.3572 127.273 28.9581C128.002 29.5589 129.178 30.0511 130.802 30.4347L135.481 31.5085C138.191 32.1349 140.211 33.1001 141.54 34.4041C142.87 35.7081 143.535 37.402 143.535 39.4858C143.535 41.25 143.023 42.8224 142.001 44.2031C140.991 45.571 139.578 46.6449 137.763 47.4247C135.96 48.2045 133.87 48.5945 131.492 48.5945C128.194 48.5945 125.503 47.8913 123.419 46.4851C121.335 45.0661 120.057 43.0526 119.584 40.4446L125.126 39.6009C125.471 41.0455 126.18 42.1385 127.254 42.88C128.328 43.6087 129.728 43.973 131.454 43.973C133.333 43.973 134.835 43.5831 135.96 42.8033C137.085 42.0107 137.648 41.0455 137.648 39.9077C137.648 38.9872 137.302 38.2138 136.612 37.5874C135.934 36.9609 134.893 36.4879 133.486 36.1683L128.501 35.0753C125.752 34.4489 123.719 33.4517 122.403 32.0838C121.099 30.7159 120.447 28.9837 120.447 26.8871C120.447 25.1484 120.932 23.6271 121.904 22.3232C122.876 21.0192 124.218 20.0028 125.931 19.2741C127.644 18.5327 129.606 18.1619 131.818 18.1619C135.001 18.1619 137.507 18.8523 139.335 20.233C141.163 21.6009 142.371 23.4354 142.959 25.7365ZM164.59 48V8.72727H178.589C181.631 8.72727 184.156 9.25142 186.163 10.2997C188.183 11.348 189.692 12.799 190.689 14.6527C191.686 16.4936 192.184 18.6222 192.184 21.0384C192.184 23.4418 191.68 25.5575 190.67 27.3857C189.672 29.201 188.164 30.6136 186.144 31.6236C184.137 32.6335 181.612 33.1385 178.569 33.1385H167.965V28.0376H178.032C179.95 28.0376 181.51 27.7628 182.711 27.2131C183.926 26.6634 184.814 25.8643 185.377 24.8161C185.939 23.7678 186.221 22.5085 186.221 21.0384C186.221 19.5554 185.933 18.2706 185.358 17.1839C184.795 16.0973 183.907 15.2663 182.692 14.6911C181.491 14.103 179.912 13.8089 177.956 13.8089H170.515V48H164.59ZM183.977 30.2812L193.68 48H186.93L177.419 30.2812H183.977ZM210.972 48.5945C208.211 48.5945 205.801 47.9616 203.743 46.696C201.685 45.4304 200.087 43.6598 198.949 41.3842C197.811 39.1087 197.242 36.4496 197.242 33.407C197.242 30.3516 197.811 27.6797 198.949 25.3913C200.087 23.103 201.685 21.326 203.743 20.0604C205.801 18.7947 208.211 18.1619 210.972 18.1619C213.734 18.1619 216.143 18.7947 218.202 20.0604C220.26 21.326 221.858 23.103 222.996 25.3913C224.134 27.6797 224.702 30.3516 224.702 33.407C224.702 36.4496 224.134 39.1087 222.996 41.3842C221.858 43.6598 220.26 45.4304 218.202 46.696C216.143 47.9616 213.734 48.5945 210.972 48.5945ZM210.991 43.7812C212.781 43.7812 214.264 43.3082 215.44 42.3622C216.616 41.4162 217.486 40.157 218.048 38.5845C218.624 37.0121 218.911 35.2798 218.911 33.3878C218.911 31.5085 218.624 29.7827 218.048 28.2102C217.486 26.625 216.616 25.353 215.44 24.3942C214.264 23.4354 212.781 22.956 210.991 22.956C209.189 22.956 207.693 23.4354 206.504 24.3942C205.328 25.353 204.452 26.625 203.877 28.2102C203.315 29.7827 203.033 31.5085 203.033 33.3878C203.033 35.2798 203.315 37.0121 203.877 38.5845C204.452 40.157 205.328 41.4162 206.504 42.3622C207.693 43.3082 209.189 43.7812 210.991 43.7812ZM243.509 48.5945C240.748 48.5945 238.338 47.9616 236.28 46.696C234.222 45.4304 232.624 43.6598 231.486 41.3842C230.348 39.1087 229.779 36.4496 229.779 33.407C229.779 30.3516 230.348 27.6797 231.486 25.3913C232.624 23.103 234.222 21.326 236.28 20.0604C238.338 18.7947 240.748 18.1619 243.509 18.1619C246.271 18.1619 248.681 18.7947 250.739 20.0604C252.797 21.326 254.395 23.103 255.533 25.3913C256.671 27.6797 257.24 30.3516 257.24 33.407C257.24 36.4496 256.671 39.1087 255.533 41.3842C254.395 43.6598 252.797 45.4304 250.739 46.696C248.681 47.9616 246.271 48.5945 243.509 48.5945ZM243.529 43.7812C245.318 43.7812 246.801 43.3082 247.977 42.3622C249.154 41.4162 250.023 40.157 250.585 38.5845C251.161 37.0121 251.448 35.2798 251.448 33.3878C251.448 31.5085 251.161 29.7827 250.585 28.2102C250.023 26.625 249.154 25.353 247.977 24.3942C246.801 23.4354 245.318 22.956 243.529 22.956C241.726 22.956 240.23 23.4354 239.041 24.3942C237.865 25.353 236.99 26.625 236.414 28.2102C235.852 29.7827 235.57 31.5085 235.57 33.3878C235.57 35.2798 235.852 37.0121 236.414 38.5845C236.99 40.157 237.865 41.4162 239.041 42.3622C240.23 43.3082 241.726 43.7812 243.529 43.7812ZM263.64 48V18.5455H269.143V23.3395H269.507C270.121 21.7159 271.125 20.4503 272.518 19.5426C273.912 18.6222 275.58 18.1619 277.523 18.1619C279.492 18.1619 281.141 18.6222 282.471 19.5426C283.813 20.4631 284.804 21.7287 285.443 23.3395H285.75C286.453 21.767 287.571 20.5142 289.105 19.581C290.64 18.6349 292.468 18.1619 294.59 18.1619C297.262 18.1619 299.441 18.9993 301.129 20.674C302.829 22.3487 303.679 24.8736 303.679 28.2486V48H297.946V28.7855C297.946 26.7912 297.402 25.3466 296.316 24.4517C295.229 23.5568 293.931 23.1094 292.423 23.1094C290.556 23.1094 289.105 23.6847 288.07 24.8352C287.034 25.973 286.517 27.4368 286.517 29.2266V48H280.802V28.4212C280.802 26.8232 280.304 25.5384 279.306 24.5668C278.309 23.5952 277.012 23.1094 275.414 23.1094C274.327 23.1094 273.324 23.397 272.403 23.9723C271.495 24.5348 270.76 25.321 270.198 26.331C269.648 27.3409 269.373 28.5107 269.373 29.8402V48H263.64Z" fill="black"/>
<path d="M36.503 8.72727H36.903V8.32727H36.503V8.72727ZM36.503 48V48.4H36.903V48H36.503ZM31.057 48L30.7282 48.2279L30.8475 48.4H31.057V48ZM11.0946 19.1974L11.4234 18.9696L11.3041 18.7974H11.0946V19.1974ZM10.7303 19.1974V18.7974H10.3303V19.1974H10.7303ZM10.7303 48V48.4H11.1303V48H10.7303ZM4.80487 48H4.40487V48.4H4.80487V48ZM4.80487 8.72727V8.32727H4.40487V8.72727H4.80487ZM10.2892 8.72727L10.618 8.49947L10.4987 8.32727H10.2892V8.72727ZM30.2708 37.5682L29.942 37.796L30.0613 37.9682H30.2708V37.5682ZM30.6351 37.5682V37.9682H31.0351V37.5682H30.6351ZM30.6351 8.72727V8.32727H30.2351V8.72727H30.6351ZM36.103 8.72727V48H36.903V8.72727H36.103ZM36.503 47.6H31.057V48.4H36.503V47.6ZM31.3858 47.7721L11.4234 18.9696L10.7659 19.4253L30.7282 48.2279L31.3858 47.7721ZM11.0946 18.7974H10.7303V19.5974H11.0946V18.7974ZM10.3303 19.1974V48H11.1303V19.1974H10.3303ZM10.7303 47.6H4.80487V48.4H10.7303V47.6ZM5.20486 48V8.72727H4.40487V48H5.20486ZM4.80487 9.12727H10.2892V8.32727H4.80487V9.12727ZM9.96044 8.95507L29.942 37.796L30.5996 37.3404L10.618 8.49947L9.96044 8.95507ZM30.2708 37.9682H30.6351V37.1682H30.2708V37.9682ZM31.0351 37.5682V8.72727H30.2351V37.5682H31.0351ZM30.6351 9.12727H36.503V8.32727H30.6351V9.12727ZM49.8832 46.7344L49.6771 47.0772L49.6795 47.0787L49.8832 46.7344ZM45.0508 41.4609L44.6922 41.6382L44.6934 41.6406L45.0508 41.4609ZM45.0508 25.4872L44.6922 25.3099L44.6914 25.3115L45.0508 25.4872ZM49.8065 20.0987L49.5929 19.7605L49.592 19.7611L49.8065 20.0987ZM61.8107 18.9865L61.9437 18.6093L61.8107 18.9865ZM66.0103 21.5753L65.735 21.8655L66.0103 21.5753ZM68.9443 26.1584L68.5704 26.3008L68.5708 26.3016L68.9443 26.1584ZM70.0181 34.9986V35.3986H70.4181V34.9986H70.0181ZM46.604 34.9986H46.204V35.3986H46.604V34.9986ZM46.604 30.7031V30.3031H46.204V30.7031H46.604ZM64.3995 30.7031V31.1031H64.7995V30.7031H64.3995ZM63.479 26.6953L63.1244 26.8803L63.1253 26.8819L63.479 26.6953ZM60.8903 23.9148L60.6804 24.2553L60.6822 24.2564L60.8903 23.9148ZM52.7979 24.0874L53.0173 24.4218L53.0182 24.4213L52.7979 24.0874ZM50.0366 27.1555L49.681 26.9724L49.6803 26.9738L50.0366 27.1555ZM50.1133 39.62L49.7555 39.7989L49.7568 39.8015L50.1133 39.62ZM53.0472 42.7841L52.8461 43.1299L52.8488 43.1314L53.0472 42.7841ZM60.4109 43.3977L60.5406 43.7761L60.5454 43.7744L60.4109 43.3977ZM62.7312 41.9787L62.454 41.6903L62.7312 41.9787ZM64.2269 39.6584L64.2979 39.2647L63.9695 39.2056L63.8524 39.5179L64.2269 39.6584ZM69.6538 40.6364L70.0397 40.7413L70.1543 40.3201L69.7247 40.2427L69.6538 40.6364ZM67.3143 44.8359L67.0223 44.5626L67.0222 44.5627L67.3143 44.8359ZM63.1147 47.6165L63.2598 47.9892L63.2613 47.9886L63.1147 47.6165ZM57.381 48.1945C54.5369 48.1945 52.1109 47.5872 50.0868 46.3901L49.6795 47.0787C51.8487 48.3616 54.4212 48.9945 57.381 48.9945V48.1945ZM50.0893 46.3916C48.0731 45.1794 46.5134 43.4794 45.4081 41.2812L44.6934 41.6406C45.8637 43.968 47.5256 45.7837 49.6771 47.0772L50.0893 46.3916ZM45.4094 41.2837C44.3166 39.0733 43.7633 36.4708 43.7633 33.4645H42.9633C42.9633 36.569 43.535 39.2974 44.6922 41.6382L45.4094 41.2837ZM43.7633 33.4645C43.7633 30.4976 44.3162 27.9004 45.4101 25.6629L44.6914 25.3115C43.5353 27.6763 42.9633 30.3973 42.9633 33.4645H43.7633ZM45.4093 25.6645C46.5169 23.4245 48.0542 21.6857 50.0209 20.4364L49.592 19.7611C47.4934 21.0941 45.8602 22.9477 44.6922 25.3099L45.4093 25.6645ZM50.02 20.437C51.9934 19.1912 54.3079 18.5619 56.9783 18.5619V17.7619C54.1771 17.7619 51.7104 18.4238 49.5929 19.7605L50.02 20.437ZM56.9783 18.5619C58.5952 18.5619 60.161 18.8292 61.6778 19.3638L61.9437 18.6093C60.3411 18.0444 58.6853 17.7619 56.9783 17.7619V18.5619ZM61.6778 19.3638C63.1826 19.8942 64.5344 20.7267 65.735 21.8655L66.2856 21.2851C65.0061 20.0716 63.5582 19.1783 61.9437 18.6093L61.6778 19.3638ZM65.735 21.8655C66.9245 22.9937 67.8721 24.4677 68.5705 26.3008L69.318 26.016C68.5845 24.0905 67.5762 22.5091 66.2856 21.2851L65.735 21.8655ZM68.5708 26.3016C69.2643 28.1099 69.6181 30.3275 69.6181 32.9659H70.4181C70.4181 30.2606 70.056 27.9399 69.3177 26.0151L68.5708 26.3016ZM69.6181 32.9659V34.9986H70.4181V32.9659H69.6181ZM70.0181 34.5986H46.604V35.3986H70.0181V34.5986ZM47.004 34.9986V30.7031H46.204V34.9986H47.004ZM46.604 31.1031H64.3995V30.3031H46.604V31.1031ZM64.7995 30.7031C64.7995 29.1392 64.481 27.7375 63.8328 26.5087L63.1253 26.8819C63.7043 27.9798 63.9995 29.25 63.9995 30.7031H64.7995ZM63.8337 26.5103C63.187 25.2709 62.274 24.2893 61.0984 23.5732L60.6822 24.2564C61.731 24.8953 62.5438 25.7675 63.1244 26.8803L63.8337 26.5103ZM61.1001 23.5742C59.9287 22.8523 58.5625 22.4984 57.0167 22.4984V23.2984C58.4367 23.2984 59.653 23.6221 60.6804 24.2553L61.1001 23.5742ZM57.0167 22.4984C55.3372 22.4984 53.8524 22.9127 52.5777 23.7534L53.0182 24.4213C54.1469 23.6768 55.4746 23.2984 57.0167 23.2984V22.4984ZM52.5786 23.7529C51.3319 24.5706 50.3645 25.6455 49.681 26.9724L50.3922 27.3387C51.0126 26.1343 51.8862 25.1638 53.0173 24.4218L52.5786 23.7529ZM49.6803 26.9738C49.011 28.2855 48.6778 29.7096 48.6778 31.2401H49.4778C49.4778 29.8301 49.7837 28.5313 50.3929 27.3373L49.6803 26.9738ZM48.6778 31.2401V34.5959H49.4778V31.2401H48.6778ZM48.6778 34.5959C48.6778 36.6101 49.0308 38.3495 49.7555 39.7989L50.4711 39.4411C49.8151 38.1292 49.4778 36.5191 49.4778 34.5959H48.6778ZM49.7568 39.8015C50.4924 41.2458 51.5221 42.3598 52.8461 43.1299L53.2483 42.4383C52.0666 41.751 51.1405 40.7556 50.4697 39.4385L49.7568 39.8015ZM52.8488 43.1314C54.1712 43.887 55.7055 44.258 57.4386 44.258V43.458C55.8222 43.458 54.429 43.113 53.2457 42.4368L52.8488 43.1314ZM57.4386 44.258C58.5629 44.258 59.5983 44.0992 60.5406 43.7761L60.2811 43.0193C59.4337 43.3099 58.4875 43.458 57.4386 43.458V44.258ZM60.5454 43.7744C61.4907 43.4368 62.3135 42.9347 63.0083 42.2671L62.454 41.6903C61.8449 42.2755 61.1208 42.7195 60.2763 43.021L60.5454 43.7744ZM63.0083 42.2671C63.7071 41.5958 64.2371 40.7703 64.6014 39.7988L63.8524 39.5179C63.5264 40.3874 63.0592 41.1088 62.454 41.6903L63.0083 42.2671ZM64.156 40.052L69.5828 41.03L69.7247 40.2427L64.2979 39.2647L64.156 40.052ZM69.2678 40.5314C68.8501 42.0668 68.1024 43.4088 67.0223 44.5626L67.6063 45.1093C68.7762 43.8597 69.5881 42.4019 70.0397 40.7413L69.2678 40.5314ZM67.0222 44.5627C65.9549 45.7035 64.6067 46.5988 62.9681 47.2443L63.2613 47.9886C64.9977 47.3046 66.4492 46.3462 67.6064 45.1092L67.0222 44.5627ZM62.9696 47.2437C61.3492 47.8746 59.4886 48.1945 57.381 48.1945V48.9945C59.569 48.9945 61.5308 48.6624 63.2598 47.9892L62.9696 47.2437ZM82.7127 48L82.329 48.1129L82.4135 48.4H82.7127V48ZM74.0451 18.5455V18.1455H73.5104L73.6614 18.6584L74.0451 18.5455ZM79.9705 18.5455L80.357 18.4423L80.2778 18.1455H79.9705V18.5455ZM85.7425 40.1761L85.3561 40.2793L85.4353 40.5761H85.7425V40.1761ZM86.0302 40.1761V40.5761H86.3372L86.4166 40.2796L86.0302 40.1761ZM91.8214 18.5455V18.1455H91.5144L91.435 18.442L91.8214 18.5455ZM97.7468 18.5455L98.1333 18.4422L98.054 18.1455H97.7468V18.5455ZM103.5 40.0803L103.113 40.1835L103.192 40.4803H103.5V40.0803ZM103.787 40.0803V40.4803H104.095L104.174 40.1832L103.787 40.0803ZM109.521 18.5455V18.1455H109.214L109.134 18.4425L109.521 18.5455ZM115.446 18.5455L115.83 18.6581L115.981 18.1455H115.446V18.5455ZM106.798 48V48.4H107.097L107.182 48.1127L106.798 48ZM100.949 48L100.564 48.1083L100.646 48.4H100.949V48ZM94.9663 26.7337L95.3513 26.6253L95.2693 26.3337H94.9663V26.7337ZM94.5252 26.7337V26.3337H94.2222L94.1402 26.6253L94.5252 26.7337ZM88.5423 48V48.4H88.8453L88.9273 48.1083L88.5423 48ZM83.0964 47.8871L74.4288 18.4325L73.6614 18.6584L82.329 48.1129L83.0964 47.8871ZM74.0451 18.9455H79.9705V18.1455H74.0451V18.9455ZM79.584 18.6486L85.3561 40.2793L86.129 40.073L80.357 18.4423L79.584 18.6486ZM85.7425 40.5761H86.0302V39.7761H85.7425V40.5761ZM86.4166 40.2796L92.2078 18.6489L91.435 18.442L85.6438 40.0727L86.4166 40.2796ZM91.8214 18.9455H97.7468V18.1455H91.8214V18.9455ZM97.3604 18.6487L103.113 40.1835L103.886 39.977L98.1333 18.4422L97.3604 18.6487ZM103.5 40.4803H103.787V39.6803H103.5V40.4803ZM104.174 40.1832L109.907 18.6484L109.134 18.4425L103.401 39.9773L104.174 40.1832ZM109.521 18.9455H115.446V18.1455H109.521V18.9455ZM115.063 18.4328L106.414 47.8873L107.182 48.1127L115.83 18.6581L115.063 18.4328ZM106.798 47.6H100.949V48.4H106.798V47.6ZM101.334 47.8917L95.3513 26.6253L94.5812 26.842L100.564 48.1083L101.334 47.8917ZM94.9663 26.3337H94.5252V27.1337H94.9663V26.3337ZM94.1402 26.6253L88.1572 47.8917L88.9273 48.1083L94.9103 26.842L94.1402 26.6253ZM88.5423 47.6H82.7127V48.4H88.5423V47.6ZM142.959 25.7365L143.029 26.1304L143.454 26.0552L143.347 25.6375L142.959 25.7365ZM137.763 26.657L137.382 26.7813L137.49 27.1114L137.832 27.0508L137.763 26.657ZM136.727 24.7585L136.41 25.0018L136.413 25.0059L136.727 24.7585ZM134.848 23.282L135.022 22.9219L134.848 23.282ZM127.81 23.7997L128.03 24.1337L128.033 24.1319L127.81 23.7997ZM130.802 30.4347L130.71 30.824L130.712 30.8245L130.802 30.4347ZM135.481 31.5085L135.571 31.1188L135.57 31.1187L135.481 31.5085ZM141.54 34.4041L141.26 34.6897L141.54 34.4041ZM142.001 44.2031L141.679 43.965L141.679 43.9655L142.001 44.2031ZM137.763 47.4247L137.605 47.0572L137.604 47.0576L137.763 47.4247ZM123.419 46.4851L123.194 46.8157L123.195 46.8166L123.419 46.4851ZM119.584 40.4446L119.523 40.0492L119.117 40.1111L119.19 40.516L119.584 40.4446ZM125.126 39.6009L125.515 39.5079L125.429 39.15L125.065 39.2054L125.126 39.6009ZM127.254 42.88L127.027 43.2091L127.029 43.211L127.254 42.88ZM135.96 42.8033L136.188 43.132L136.19 43.1303L135.96 42.8033ZM136.612 37.5874L136.34 37.8811L136.343 37.8836L136.612 37.5874ZM133.486 36.1683L133.575 35.7783L133.572 35.7776L133.486 36.1683ZM128.501 35.0753L128.412 35.4653L128.415 35.466L128.501 35.0753ZM122.403 32.0838L122.113 32.3598L122.114 32.3612L122.403 32.0838ZM121.904 22.3232L121.583 22.0842L121.904 22.3232ZM125.931 19.2741L126.088 19.6422L126.09 19.6412L125.931 19.2741ZM139.335 20.233L139.094 20.5522L139.095 20.5532L139.335 20.233ZM142.89 25.3426L137.693 26.2631L137.832 27.0508L143.029 26.1304L142.89 25.3426ZM138.143 26.5327C137.91 25.8193 137.541 25.1454 137.041 24.5111L136.413 25.0059C136.859 25.5734 137.181 26.1651 137.382 26.7813L138.143 26.5327ZM137.045 24.5153C136.541 23.8573 135.862 23.3282 135.022 22.9219L134.674 23.642C135.419 24.0028 135.993 24.458 136.41 25.0018L137.045 24.5153ZM135.022 22.9219C134.16 22.5046 133.105 22.3067 131.876 22.3067V23.1067C133.024 23.1067 133.951 23.2923 134.674 23.642L135.022 22.9219ZM131.876 22.3067C130.192 22.3067 128.754 22.685 127.587 23.4675L128.033 24.1319C129.039 23.457 130.312 23.1067 131.876 23.1067V22.3067ZM127.59 23.4657C126.41 24.2432 125.78 25.2868 125.78 26.5803H126.58C126.58 25.5981 127.037 24.7881 128.03 24.1337L127.59 23.4657ZM125.78 26.5803C125.78 27.6783 126.194 28.5863 127.019 29.2667L127.528 28.6495C126.896 28.1282 126.58 27.451 126.58 26.5803H125.78ZM127.019 29.2667C127.818 29.9259 129.066 30.4356 130.71 30.8239L130.894 30.0454C129.291 29.6667 128.186 29.192 127.528 28.6495L127.019 29.2667ZM130.712 30.8245L135.391 31.8984L135.57 31.1187L130.891 30.0448L130.712 30.8245ZM135.391 31.8982C138.062 32.5157 140.003 33.4567 141.26 34.6897L141.82 34.1185C140.418 32.7436 138.32 31.7542 135.571 31.1188L135.391 31.8982ZM141.26 34.6897C142.504 35.9092 143.135 37.4954 143.135 39.4858H143.935C143.935 37.3086 143.236 35.507 141.82 34.1185L141.26 34.6897ZM143.135 39.4858C143.135 41.1667 142.649 42.6552 141.679 43.965L142.322 44.4412C143.397 42.9897 143.935 41.3333 143.935 39.4858H143.135ZM141.679 43.9655C140.717 45.2677 139.366 46.3008 137.605 47.0572L137.92 47.7922C139.79 46.989 141.264 45.8744 142.322 44.4407L141.679 43.9655ZM137.604 47.0576C135.861 47.8117 133.826 48.1945 131.492 48.1945V48.9945C133.913 48.9945 136.059 48.5974 137.921 47.7918L137.604 47.0576ZM131.492 48.1945C128.249 48.1945 125.643 47.5032 123.643 46.1535L123.195 46.8166C125.363 48.2795 128.139 48.9945 131.492 48.9945V48.1945ZM123.644 46.1545C121.654 44.7991 120.432 42.8817 119.977 40.3732L119.19 40.516C119.681 43.2234 121.016 45.333 123.194 46.8157L123.644 46.1545ZM119.644 40.84L125.186 39.9963L125.065 39.2054L119.523 40.0492L119.644 40.84ZM124.736 39.6938C125.101 41.2202 125.86 42.4038 127.027 43.2091L127.481 42.5508C126.5 41.8732 125.84 40.8707 125.515 39.5079L124.736 39.6938ZM127.029 43.211C128.188 43.9973 129.674 44.373 131.454 44.373V43.573C129.782 43.573 128.468 43.2201 127.479 42.549L127.029 43.211ZM131.454 44.373C133.385 44.373 134.975 43.9726 136.188 43.132L135.732 42.4745C134.695 43.1936 133.281 43.573 131.454 43.573V44.373ZM136.19 43.1303C137.397 42.2805 138.048 41.2037 138.048 39.9077H137.248C137.248 40.8872 136.774 41.7408 135.73 42.4763L136.19 43.1303ZM138.048 39.9077C138.048 38.8728 137.654 37.9923 136.881 37.2911L136.343 37.8836C136.951 38.4353 137.248 39.1017 137.248 39.9077H138.048ZM136.884 37.2936C136.133 36.6001 135.015 36.1054 133.575 35.7783L133.398 36.5584C134.771 36.8704 135.736 37.3218 136.34 37.8811L136.884 37.2936ZM133.572 35.7776L128.586 34.6846L128.415 35.466L133.401 36.559L133.572 35.7776ZM128.589 34.6853C125.882 34.0683 123.933 33.0971 122.691 31.8064L122.114 32.3612C123.505 33.8063 125.622 34.8294 128.412 35.4653L128.589 34.6853ZM122.692 31.8078C121.467 30.5227 120.847 28.8931 120.847 26.8871H120.047C120.047 29.0742 120.73 30.9091 122.113 32.3598L122.692 31.8078ZM120.847 26.8871C120.847 25.2282 121.308 23.7922 122.225 22.5621L121.583 22.0842C120.556 23.4621 120.047 25.0687 120.047 26.8871H120.847ZM122.225 22.5621C123.148 21.3228 124.43 20.3473 126.088 19.6422L125.774 18.9061C124.006 19.6584 122.603 20.7156 121.583 22.0842L122.225 22.5621ZM126.09 19.6412C127.744 18.9251 129.651 18.5619 131.818 18.5619V17.7619C129.562 17.7619 127.544 18.1402 125.772 18.9071L126.09 19.6412ZM131.818 18.5619C134.947 18.5619 137.358 19.2409 139.094 20.5521L139.576 19.9138C137.656 18.4637 135.055 17.7619 131.818 17.7619V18.5619ZM139.095 20.5532C140.847 21.8641 142.005 23.619 142.572 25.8355L143.347 25.6375C142.737 23.2517 141.479 21.3376 139.575 19.9127L139.095 20.5532ZM164.59 48H164.19V48.4H164.59V48ZM164.59 8.72727V8.32727H164.19V8.72727H164.59ZM186.163 10.2997L185.978 10.6543L185.979 10.6547L186.163 10.2997ZM190.689 14.6527L190.336 14.8422L190.337 14.8432L190.689 14.6527ZM190.67 27.3857L190.319 27.1922L190.319 27.1931L190.67 27.3857ZM186.144 31.6236L185.965 31.2658L185.964 31.2663L186.144 31.6236ZM167.965 33.1385H167.565V33.5385H167.965V33.1385ZM167.965 28.0376V27.6376H167.565V28.0376H167.965ZM182.711 27.2131L182.547 26.8487L182.545 26.8493L182.711 27.2131ZM185.358 17.1839L185.003 17.3678L185.004 17.3711L185.358 17.1839ZM182.692 14.6911L182.516 15.0504L182.521 15.0525L182.692 14.6911ZM170.515 13.8089V13.4089H170.115V13.8089H170.515ZM170.515 48V48.4H170.915V48H170.515ZM183.977 30.2812L184.328 30.0891L184.214 29.8813H183.977V30.2812ZM193.68 48V48.4H194.355L194.031 47.8079L193.68 48ZM186.93 48L186.578 48.1892L186.691 48.4H186.93V48ZM177.419 30.2812V29.8813H176.75L177.066 30.4704L177.419 30.2812ZM164.99 48V8.72727H164.19V48H164.99ZM164.59 9.12727H178.589V8.32727H164.59V9.12727ZM178.589 9.12727C181.588 9.12727 184.044 9.6443 185.978 10.6543L186.348 9.94516C184.268 8.85854 181.674 8.32727 178.589 8.32727V9.12727ZM185.979 10.6547C187.934 11.6692 189.381 13.0651 190.336 14.8422L191.041 14.4632C190.003 12.5329 188.433 11.0269 186.347 9.94468L185.979 10.6547ZM190.337 14.8432C191.298 16.6172 191.784 18.6784 191.784 21.0384H192.584C192.584 18.566 192.074 16.3701 191.04 14.4622L190.337 14.8432ZM191.784 21.0384C191.784 23.3844 191.292 25.4317 190.319 27.1922L191.02 27.5791C192.067 25.6833 192.584 23.4991 192.584 21.0384H191.784ZM190.319 27.1931C189.364 28.9307 187.919 30.2888 185.965 31.2658L186.323 31.9813C188.409 30.9385 189.98 29.4713 191.02 27.5782L190.319 27.1931ZM185.964 31.2663C184.029 32.24 181.571 32.7385 178.569 32.7385V33.5385C181.653 33.5385 184.245 33.027 186.324 31.9809L185.964 31.2663ZM178.569 32.7385H167.965V33.5385H178.569V32.7385ZM168.365 33.1385V28.0376H167.565V33.1385H168.365ZM167.965 28.4376H178.033V27.6376H167.965V28.4376ZM178.033 28.4376C179.984 28.4376 181.606 28.1587 182.878 27.5768L182.545 26.8493C181.414 27.3669 179.917 27.6376 178.033 27.6376V28.4376ZM182.876 27.5775C184.161 26.9961 185.12 26.1402 185.729 25.0052L185.024 24.6269C184.509 25.5885 183.691 26.3306 182.547 26.8487L182.876 27.5775ZM185.729 25.0052C186.33 23.8866 186.621 22.5592 186.621 21.0384H185.821C185.821 22.4579 185.549 23.6489 185.024 24.6269L185.729 25.0052ZM186.621 21.0384C186.621 19.5035 186.323 18.1518 185.711 16.9968L185.004 17.3711C185.543 18.3893 185.821 19.6073 185.821 21.0384H186.621ZM185.713 17.0001C185.106 15.828 184.149 14.9384 182.864 14.3296L182.521 15.0525C183.665 15.5942 184.484 16.3666 185.003 17.3678L185.713 17.0001ZM182.868 14.3318C181.592 13.7074 179.947 13.4089 177.956 13.4089V14.2089C179.877 14.2089 181.389 14.4985 182.516 15.0503L182.868 14.3318ZM177.956 13.4089H170.515V14.2089H177.956V13.4089ZM170.115 13.8089V48H170.915V13.8089H170.115ZM170.515 47.6H164.59V48.4H170.515V47.6ZM183.626 30.4734L193.329 48.1921L194.031 47.8079L184.328 30.0891L183.626 30.4734ZM193.68 47.6H186.93V48.4H193.68V47.6ZM187.283 47.8108L177.771 30.0921L177.066 30.4704L186.578 48.1892L187.283 47.8108ZM177.419 30.6812H183.977V29.8813H177.419V30.6812ZM198.949 41.3842L199.307 41.2053L198.949 41.3842ZM203.743 20.0604L203.952 20.4011L203.743 20.0604ZM218.202 20.0604L217.992 20.4011L218.202 20.0604ZM222.996 41.3842L222.638 41.2053L222.996 41.3842ZM218.202 46.696L218.411 47.0368L218.202 46.696ZM215.44 42.3622L215.19 42.0505L215.44 42.3622ZM218.048 38.5845L217.673 38.4471L217.672 38.4498L218.048 38.5845ZM218.048 28.2102L217.671 28.344L217.673 28.3477L218.048 28.2102ZM215.44 24.3942L215.188 24.7042L215.44 24.3942ZM206.504 24.3942L206.253 24.0828L206.252 24.0841L206.504 24.3942ZM203.877 28.2102L203.501 28.0738L203.501 28.0755L203.877 28.2102ZM203.877 38.5845L203.5 38.7192L203.501 38.722L203.877 38.5845ZM206.504 42.3622L206.254 42.6739L206.255 42.6752L206.504 42.3622ZM210.972 48.1945C208.274 48.1945 205.939 47.5769 203.952 46.3553L203.533 47.0368C205.663 48.3464 208.148 48.9945 210.972 48.9945V48.1945ZM203.952 46.3553C201.961 45.1308 200.413 43.4179 199.307 41.2053L198.591 41.5631C199.76 43.9017 201.408 45.7299 203.533 47.0368L203.952 46.3553ZM199.307 41.2053C198.202 38.9952 197.642 36.3995 197.642 33.407H196.842C196.842 36.4996 197.421 39.2221 198.591 41.5631L199.307 41.2053ZM197.642 33.407C197.642 30.4014 198.202 27.7926 199.307 25.5694L198.591 25.2132C197.421 27.5667 196.842 30.3017 196.842 33.407H197.642ZM199.307 25.5694C200.413 23.3441 201.962 21.6252 203.952 20.4011L203.533 19.7196C201.408 21.0268 199.76 22.8619 198.591 25.2132L199.307 25.5694ZM203.952 20.4011C205.939 19.1795 208.274 18.5619 210.972 18.5619V17.7619C208.148 17.7619 205.663 18.41 203.533 19.7196L203.952 20.4011ZM210.972 18.5619C213.67 18.5619 216.006 19.1795 217.992 20.4011L218.411 19.7196C216.281 18.41 213.797 17.7619 210.972 17.7619V18.5619ZM217.992 20.4011C219.983 21.6252 221.531 23.3441 222.638 25.5694L223.354 25.2132C222.185 22.8619 220.537 21.0268 218.411 19.7196L217.992 20.4011ZM222.638 25.5694C223.743 27.7926 224.302 30.4014 224.302 33.407H225.102C225.102 30.3017 224.524 27.5667 223.354 25.2132L222.638 25.5694ZM224.302 33.407C224.302 36.3995 223.743 38.9952 222.638 41.2053L223.354 41.5631C224.524 39.2221 225.102 36.4996 225.102 33.407H224.302ZM222.638 41.2053C221.532 43.4179 219.983 45.1308 217.992 46.3553L218.411 47.0368C220.536 45.7299 222.184 43.9017 223.354 41.5631L222.638 41.2053ZM217.992 46.3553C216.006 47.5769 213.67 48.1945 210.972 48.1945V48.9945C213.797 48.9945 216.281 48.3464 218.411 47.0368L217.992 46.3553ZM210.991 44.1813C212.855 44.1813 214.431 43.6872 215.691 42.6739L215.19 42.0505C214.097 42.9292 212.708 43.3812 210.991 43.3812V44.1813ZM215.691 42.6739C216.931 41.6768 217.84 40.3535 218.425 38.7192L217.672 38.4498C217.131 39.9604 216.302 41.1556 215.19 42.0505L215.691 42.6739ZM218.424 38.722C219.017 37.1001 219.311 35.3207 219.311 33.3878H218.511C218.511 35.239 218.23 36.924 217.673 38.4471L218.424 38.722ZM219.311 33.3878C219.311 31.4673 219.017 29.6943 218.424 28.0728L217.673 28.3477C218.23 29.871 218.511 31.5497 218.511 33.3878H219.311ZM218.425 28.0765C217.841 26.4299 216.932 25.0941 215.693 24.0841L215.188 24.7042C216.301 25.6118 217.131 26.8201 217.671 28.344L218.425 28.0765ZM215.693 24.0841C214.433 23.0571 212.856 22.556 210.991 22.556V23.356C212.706 23.356 214.095 23.8136 215.188 24.7042L215.693 24.0841ZM210.991 22.556C209.115 22.556 207.526 23.0567 206.253 24.0828L206.755 24.7055C207.861 23.814 209.263 23.356 210.991 23.356V22.556ZM206.252 24.0841C205.013 25.0936 204.098 26.4284 203.501 28.0738L204.253 28.3467C204.807 26.8216 205.643 25.6124 206.757 24.7042L206.252 24.0841ZM203.501 28.0755C202.921 29.6962 202.633 31.4683 202.633 33.3878H203.433C203.433 31.5487 203.709 29.8691 204.254 28.345L203.501 28.0755ZM202.633 33.3878C202.633 35.3197 202.921 37.0982 203.501 38.7192L204.254 38.4498C203.709 36.9259 203.433 35.2399 203.433 33.3878H202.633ZM203.501 38.722C204.099 40.3551 205.015 41.6774 206.254 42.6739L206.755 42.0505C205.642 41.155 204.806 39.9588 204.253 38.4471L203.501 38.722ZM206.255 42.6752C207.528 43.6876 209.116 44.1813 210.991 44.1813V43.3812C209.262 43.3812 207.859 42.9289 206.753 42.0492L206.255 42.6752ZM231.486 41.3842L231.844 41.2053L231.486 41.3842ZM236.28 20.0604L236.49 20.4011L236.28 20.0604ZM250.739 20.0604L250.529 20.4011L250.739 20.0604ZM255.533 41.3842L255.175 41.2053L255.533 41.3842ZM250.739 46.696L250.948 47.0368L250.739 46.696ZM247.977 42.3622L247.727 42.0505L247.977 42.3622ZM250.585 38.5845L250.21 38.4471L250.209 38.4498L250.585 38.5845ZM250.585 28.2102L250.208 28.344L250.21 28.3477L250.585 28.2102ZM247.977 24.3942L247.725 24.7042L247.977 24.3942ZM239.041 24.3942L238.79 24.0828L238.789 24.0841L239.041 24.3942ZM236.414 28.2102L236.038 28.0738L236.038 28.0755L236.414 28.2102ZM236.414 38.5845L236.038 38.7192L236.039 38.722L236.414 38.5845ZM239.041 42.3622L238.791 42.6739L238.792 42.6752L239.041 42.3622ZM243.509 48.1945C240.811 48.1945 238.476 47.5769 236.49 46.3553L236.07 47.0368C238.2 48.3464 240.685 48.9945 243.509 48.9945V48.1945ZM236.49 46.3553C234.498 45.1308 232.95 43.4179 231.844 41.2053L231.128 41.5631C232.298 43.9017 233.945 45.7299 236.07 47.0368L236.49 46.3553ZM231.844 41.2053C230.739 38.9952 230.179 36.3995 230.179 33.407H229.379C229.379 36.4996 229.958 39.2221 231.128 41.5631L231.844 41.2053ZM230.179 33.407C230.179 30.4014 230.739 27.7926 231.844 25.5694L231.128 25.2132C229.958 27.5667 229.379 30.3017 229.379 33.407H230.179ZM231.844 25.5694C232.951 23.3441 234.499 21.6252 236.49 20.4011L236.07 19.7196C233.945 21.0268 232.297 22.8619 231.128 25.2132L231.844 25.5694ZM236.49 20.4011C238.476 19.1795 240.811 18.5619 243.509 18.5619V17.7619C240.685 17.7619 238.2 18.41 236.07 19.7196L236.49 20.4011ZM243.509 18.5619C246.208 18.5619 248.543 19.1795 250.529 20.4011L250.948 19.7196C248.818 18.41 246.334 17.7619 243.509 17.7619V18.5619ZM250.529 20.4011C252.52 21.6252 254.068 23.3441 255.175 25.5694L255.891 25.2132C254.722 22.8619 253.074 21.0268 250.948 19.7196L250.529 20.4011ZM255.175 25.5694C256.28 27.7926 256.84 30.4014 256.84 33.407H257.64C257.64 30.3017 257.061 27.5667 255.891 25.2132L255.175 25.5694ZM256.84 33.407C256.84 36.3995 256.28 38.9952 255.175 41.2053L255.891 41.5631C257.061 39.2221 257.64 36.4996 257.64 33.407H256.84ZM255.175 41.2053C254.069 43.4179 252.521 45.1308 250.529 46.3553L250.948 47.0368C253.074 45.7299 254.721 43.9017 255.891 41.5631L255.175 41.2053ZM250.529 46.3553C248.543 47.5769 246.208 48.1945 243.509 48.1945V48.9945C246.334 48.9945 248.818 48.3464 250.948 47.0368L250.529 46.3553ZM243.529 44.1813C245.392 44.1813 246.968 43.6872 248.228 42.6739L247.727 42.0505C246.634 42.9292 245.245 43.3812 243.529 43.3812V44.1813ZM248.228 42.6739C249.468 41.6768 250.377 40.3535 250.962 38.7192L250.209 38.4498C249.668 39.9604 248.839 41.1556 247.727 42.0505L248.228 42.6739ZM250.961 38.722C251.554 37.1001 251.848 35.3207 251.848 33.3878H251.048C251.048 35.239 250.767 36.924 250.21 38.4471L250.961 38.722ZM251.848 33.3878C251.848 31.4673 251.554 29.6943 250.961 28.0728L250.21 28.3477C250.767 29.871 251.048 31.5497 251.048 33.3878H251.848ZM250.962 28.0765C250.378 26.4299 249.469 25.0941 248.23 24.0841L247.725 24.7042C248.838 25.6118 249.668 26.8201 250.208 28.344L250.962 28.0765ZM248.23 24.0841C246.97 23.0571 245.393 22.556 243.529 22.556V23.356C245.244 23.356 246.632 23.8136 247.725 24.7042L248.23 24.0841ZM243.529 22.556C241.652 22.556 240.063 23.0567 238.79 24.0828L239.292 24.7055C240.398 23.814 241.8 23.356 243.529 23.356V22.556ZM238.789 24.0841C237.55 25.0936 236.635 26.4284 236.038 28.0738L236.79 28.3467C237.344 26.8216 238.18 25.6124 239.294 24.7042L238.789 24.0841ZM236.038 28.0755C235.458 29.6962 235.17 31.4683 235.17 33.3878H235.97C235.97 31.5487 236.246 29.8691 236.791 28.345L236.038 28.0755ZM235.17 33.3878C235.17 35.3197 235.458 37.0982 236.038 38.7192L236.791 38.4498C236.246 36.9259 235.97 35.2399 235.97 33.3878H235.17ZM236.039 38.722C236.636 40.3551 237.552 41.6774 238.791 42.6739L239.292 42.0505C238.179 41.155 237.343 39.9588 236.79 38.4471L236.039 38.722ZM238.792 42.6752C240.065 43.6876 241.653 44.1813 243.529 44.1813V43.3812C241.799 43.3812 240.396 42.9289 239.29 42.0492L238.792 42.6752ZM263.64 48H263.24V48.4H263.64V48ZM263.64 18.5455V18.1455H263.24V18.5455H263.64ZM269.143 18.5455H269.543V18.1455H269.143V18.5455ZM269.143 23.3395H268.743V23.7395H269.143V23.3395ZM269.507 23.3395V23.7395H269.784L269.882 23.4809L269.507 23.3395ZM272.518 19.5426L272.736 19.8778L272.739 19.8764L272.518 19.5426ZM282.471 19.5426L282.243 19.8715L282.244 19.8725L282.471 19.5426ZM285.443 23.3395L285.071 23.487L285.171 23.7395H285.443V23.3395ZM285.75 23.3395V23.7395H286.009L286.115 23.5028L285.75 23.3395ZM289.105 19.581L289.313 19.9227L289.315 19.9214L289.105 19.581ZM301.129 20.674L300.847 20.9579L300.848 20.959L301.129 20.674ZM303.679 48V48.4H304.079V48H303.679ZM297.946 48H297.546V48.4H297.946V48ZM296.316 24.4517L296.57 24.1429L296.316 24.4517ZM288.07 24.8352L288.366 25.1045L288.367 25.1028L288.07 24.8352ZM286.517 48V48.4H286.917V48H286.517ZM280.802 48H280.402V48.4H280.802V48ZM279.306 24.5668L279.027 24.8533L279.306 24.5668ZM272.403 23.9723L272.614 24.3123L272.615 24.3115L272.403 23.9723ZM270.198 26.331L269.848 26.1363L269.846 26.1397L270.198 26.331ZM269.373 48V48.4H269.773V48H269.373ZM264.04 48V18.5455H263.24V48H264.04ZM263.64 18.9455H269.143V18.1455H263.64V18.9455ZM268.743 18.5455V23.3395H269.543V18.5455H268.743ZM269.143 23.7395H269.507V22.9395H269.143V23.7395ZM269.882 23.4809C270.467 21.9331 271.417 20.7369 272.736 19.8778L272.3 19.2074C270.832 20.1636 269.776 21.4987 269.133 23.1981L269.882 23.4809ZM272.739 19.8764C274.056 19.0058 275.645 18.5619 277.523 18.5619V17.7619C275.515 17.7619 273.767 18.2385 272.298 19.2089L272.739 19.8764ZM277.523 18.5619C279.428 18.5619 280.994 19.0066 282.243 19.8715L282.698 19.2137C281.288 18.2377 279.555 17.7619 277.523 17.7619V18.5619ZM282.244 19.8725C283.517 20.745 284.459 21.9451 285.071 23.487L285.815 23.1919C285.148 21.5123 284.109 20.1811 282.697 19.2127L282.244 19.8725ZM285.443 23.7395H285.75V22.9395H285.443V23.7395ZM286.115 23.5028C286.783 22.0077 287.845 20.8157 289.313 19.9227L288.898 19.2392C287.297 20.2127 286.122 21.5264 285.384 23.1762L286.115 23.5028ZM289.315 19.9214C290.776 19.0208 292.529 18.5619 294.59 18.5619V17.7619C292.407 17.7619 290.503 18.2491 288.896 19.2405L289.315 19.9214ZM294.59 18.5619C297.17 18.5619 299.244 19.367 300.847 20.9579L301.411 20.3901C299.639 18.6315 297.353 17.7619 294.59 17.7619V18.5619ZM300.848 20.959C302.445 22.5319 303.279 24.9357 303.279 28.2486H304.079C304.079 24.8114 303.213 22.1655 301.41 20.389L300.848 20.959ZM303.279 28.2486V48H304.079V28.2486H303.279ZM303.679 47.6H297.946V48.4H303.679V47.6ZM298.346 48V28.7855H297.546V48H298.346ZM298.346 28.7855C298.346 26.7236 297.783 25.1416 296.57 24.1429L296.061 24.7605C297.022 25.5516 297.546 26.8588 297.546 28.7855H298.346ZM296.57 24.1429C295.406 23.1847 294.017 22.7094 292.423 22.7094V23.5094C293.846 23.5094 295.052 23.929 296.061 24.7605L296.57 24.1429ZM292.423 22.7094C290.468 22.7094 288.899 23.3156 287.773 24.5676L288.367 25.1028C289.311 24.0537 290.645 23.5094 292.423 23.5094V22.7094ZM287.774 24.566C286.661 25.7893 286.117 27.3545 286.117 29.2266H286.917C286.917 27.519 287.408 26.1567 288.366 25.1045L287.774 24.566ZM286.117 29.2266V48H286.917V29.2266H286.117ZM286.517 47.6H280.802V48.4H286.517V47.6ZM281.202 48V28.4212H280.402V48H281.202ZM281.202 28.4212C281.202 26.7326 280.672 25.3385 279.586 24.2803L279.027 24.8533C279.936 25.7382 280.402 26.9137 280.402 28.4212H281.202ZM279.586 24.2803C278.503 23.225 277.099 22.7094 275.414 22.7094V23.5094C276.924 23.5094 278.116 23.9653 279.027 24.8533L279.586 24.2803ZM275.414 22.7094C274.252 22.7094 273.175 23.018 272.191 23.6331L272.615 24.3115C273.472 23.776 274.402 23.5094 275.414 23.5094V22.7094ZM272.192 23.6323C271.222 24.2336 270.441 25.072 269.848 26.1363L270.547 26.5256C271.079 25.5701 271.769 24.836 272.614 24.3123L272.192 23.6323ZM269.846 26.1397C269.26 27.2169 268.973 28.4544 268.973 29.8402H269.773C269.773 28.5669 270.036 27.4649 270.549 26.5222L269.846 26.1397ZM268.973 29.8402V48H269.773V29.8402H268.973ZM269.373 47.6H263.64V48.4H269.373V47.6Z" fill="black"/>
</g>
<defs>
<filter id="filter0_i_1287_800" x="48.9902" y="72" width="209.02" height="9" filterUnits="userSpaceOnUse" color-interpolation-filters="sRGB">
<feFlood flood-opacity="0" result="BackgroundImageFix"/>
<feBlend mode="normal" in="SourceGraphic" in2="BackgroundImageFix" result="shape"/>
<feColorMatrix in="SourceAlpha" type="matrix" values="0 0 0 0 0 0 0 0 0 0 0 0 0 0 0 0 0 0 127 0" result="hardAlpha"/>
<feOffset dy="4"/>
<feGaussianBlur stdDeviation="2"/>
<feComposite in2="hardAlpha" operator="arithmetic" k2="-1" k3="1"/>
<feColorMatrix type="matrix" values="0 0 0 0 0 0 0 0 0 0 0 0 0 0 0 0 0 0 0.25 0"/>
<feBlend mode="normal" in2="shape" result="effect1_innerShadow_1287_800"/>
</filter>
<filter id="filter1_d_1287_800" x="0.804688" y="8.72729" width="306.875" height="47.8672" filterUnits="userSpaceOnUse" color-interpolation-filters="sRGB">
<feFlood flood-opacity="0" result="BackgroundImageFix"/>
<feColorMatrix in="SourceAlpha" type="matrix" values="0 0 0 0 0 0 0 0 0 0 0 0 0 0 0 0 0 0 127 0" result="hardAlpha"/>
<feOffset dy="4"/>
<feGaussianBlur stdDeviation="2"/>
<feComposite in2="hardAlpha" operator="out"/>
<feColorMatrix type="matrix" values="0 0 0 0 0 0 0 0 0 0 0 0 0 0 0 0 0 0 0.25 0"/>
<feBlend mode="normal" in2="BackgroundImageFix" result="effect1_dropShadow_1287_800"/>
<feBlend mode="normal" in="SourceGraphic" in2="effect1_dropShadow_1287_800" result="shape"/>
</filter>
<linearGradient id="paint0_linear_1287_800" x1="71.0303" y1="75.6052" x2="299.021" y2="102.804" gradientUnits="userSpaceOnUse">
<stop offset="0.000652933" stop-color="#F40211"/>
<stop offset="1" stop-color="#174478"/>
</linearGradient>
</defs>
</svg>
