<svg width="559" height="176" viewBox="0 0 559 176" fill="none" xmlns="http://www.w3.org/2000/svg">
<g filter="url(#filter0_d_1201_1129)">
<path d="M19.8239 138.818V144.273H4.05682V138.818H19.8239ZM7.63636 132.545H14.8977V156.955C14.8977 157.625 15 158.148 15.2045 158.523C15.4091 158.886 15.6932 159.142 16.0568 159.29C16.4318 159.437 16.8636 159.511 17.3523 159.511C17.6932 159.511 18.0341 159.483 18.375 159.426C18.7159 159.358 18.9773 159.307 19.1591 159.273L20.3011 164.676C19.9375 164.79 19.4261 164.92 18.767 165.068C18.108 165.227 17.3068 165.324 16.3636 165.358C14.6136 165.426 13.0795 165.193 11.7614 164.659C10.4545 164.125 9.4375 163.295 8.71023 162.17C7.98295 161.045 7.625 159.625 7.63636 157.909V132.545ZM32.3778 149.864V165H25.1165V130.091H32.1733V143.438H32.4801C33.071 141.892 34.0256 140.682 35.3438 139.807C36.6619 138.92 38.3153 138.477 40.304 138.477C42.1222 138.477 43.7074 138.875 45.0597 139.67C46.4233 140.455 47.4801 141.585 48.2301 143.062C48.9915 144.528 49.3665 146.284 49.3551 148.33V165H42.0938V149.625C42.1051 148.011 41.696 146.756 40.8665 145.858C40.0483 144.96 38.9006 144.511 37.4233 144.511C36.4347 144.511 35.5597 144.722 34.7983 145.142C34.0483 145.562 33.4574 146.176 33.0256 146.983C32.6051 147.778 32.3892 148.739 32.3778 149.864ZM67.0014 165.511C64.3082 165.511 61.9901 164.966 60.0469 163.875C58.1151 162.773 56.6264 161.216 55.581 159.205C54.5355 157.182 54.0128 154.79 54.0128 152.028C54.0128 149.335 54.5355 146.972 55.581 144.938C56.6264 142.903 58.098 141.318 59.9957 140.182C61.9048 139.045 64.1435 138.477 66.7116 138.477C68.4389 138.477 70.0469 138.756 71.5355 139.312C73.0355 139.858 74.3423 140.682 75.456 141.784C76.581 142.886 77.456 144.273 78.081 145.943C78.706 147.602 79.0185 149.545 79.0185 151.773V153.767H56.9105V149.267H72.1832C72.1832 148.222 71.956 147.295 71.5014 146.489C71.0469 145.682 70.4162 145.051 69.6094 144.597C68.8139 144.131 67.8878 143.898 66.831 143.898C65.7287 143.898 64.7514 144.153 63.8991 144.665C63.0582 145.165 62.3991 145.841 61.9219 146.693C61.4446 147.534 61.2003 148.472 61.1889 149.506V153.784C61.1889 155.08 61.4276 156.199 61.9048 157.142C62.3935 158.085 63.081 158.812 63.9673 159.324C64.8537 159.835 65.9048 160.091 67.1207 160.091C67.9276 160.091 68.6662 159.977 69.3366 159.75C70.0071 159.523 70.581 159.182 71.0582 158.727C71.5355 158.273 71.8991 157.716 72.1491 157.057L78.8651 157.5C78.5241 159.114 77.8253 160.523 76.7685 161.727C75.723 162.92 74.3707 163.852 72.7116 164.523C71.0639 165.182 69.1605 165.511 67.0014 165.511ZM408.337 138.818V144.273H392.178V138.818H408.337ZM395.876 165V136.926C395.876 135.028 396.246 133.455 396.984 132.205C397.734 130.955 398.757 130.017 400.053 129.392C401.348 128.767 402.82 128.455 404.467 128.455C405.581 128.455 406.598 128.54 407.518 128.71C408.45 128.881 409.143 129.034 409.598 129.17L408.303 134.625C408.018 134.534 407.666 134.449 407.246 134.369C406.837 134.29 406.416 134.25 405.984 134.25C404.916 134.25 404.172 134.5 403.751 135C403.331 135.489 403.121 136.176 403.121 137.062V165H395.876ZM423.665 165.511C421.017 165.511 418.727 164.949 416.795 163.824C414.875 162.687 413.392 161.108 412.347 159.085C411.301 157.051 410.778 154.693 410.778 152.011C410.778 149.307 411.301 146.943 412.347 144.92C413.392 142.886 414.875 141.307 416.795 140.182C418.727 139.045 421.017 138.477 423.665 138.477C426.312 138.477 428.597 139.045 430.517 140.182C432.449 141.307 433.938 142.886 434.983 144.92C436.028 146.943 436.551 149.307 436.551 152.011C436.551 154.693 436.028 157.051 434.983 159.085C433.938 161.108 432.449 162.687 430.517 163.824C428.597 164.949 426.312 165.511 423.665 165.511ZM423.699 159.886C424.903 159.886 425.909 159.545 426.716 158.864C427.523 158.17 428.131 157.227 428.54 156.034C428.96 154.841 429.17 153.483 429.17 151.96C429.17 150.438 428.96 149.08 428.54 147.886C428.131 146.693 427.523 145.75 426.716 145.057C425.909 144.364 424.903 144.017 423.699 144.017C422.483 144.017 421.46 144.364 420.631 145.057C419.813 145.75 419.193 146.693 418.773 147.886C418.364 149.08 418.159 150.438 418.159 151.96C418.159 153.483 418.364 154.841 418.773 156.034C419.193 157.227 419.813 158.17 420.631 158.864C421.46 159.545 422.483 159.886 423.699 159.886ZM441.273 165V138.818H448.312V143.386H448.585C449.063 141.761 449.864 140.534 450.989 139.705C452.114 138.864 453.409 138.443 454.875 138.443C455.239 138.443 455.631 138.466 456.051 138.511C456.472 138.557 456.841 138.619 457.159 138.699V145.142C456.818 145.04 456.347 144.949 455.744 144.869C455.142 144.79 454.591 144.75 454.091 144.75C453.023 144.75 452.068 144.983 451.227 145.449C450.398 145.903 449.739 146.54 449.25 147.358C448.773 148.176 448.534 149.119 448.534 150.188V165H441.273ZM470.114 130.091H478.381L486.341 145.125H486.682L494.642 130.091H502.909L490.176 152.659V165H482.847V152.659L470.114 130.091ZM513.149 165.511C510.501 165.511 508.212 164.949 506.28 163.824C504.359 162.687 502.876 161.108 501.831 159.085C500.786 157.051 500.263 154.693 500.263 152.011C500.263 149.307 500.786 146.943 501.831 144.92C502.876 142.886 504.359 141.307 506.28 140.182C508.212 139.045 510.501 138.477 513.149 138.477C515.797 138.477 518.081 139.045 520.001 140.182C521.933 141.307 523.422 142.886 524.467 144.92C525.513 146.943 526.036 149.307 526.036 152.011C526.036 154.693 525.513 157.051 524.467 159.085C523.422 161.108 521.933 162.687 520.001 163.824C518.081 164.949 515.797 165.511 513.149 165.511ZM513.183 159.886C514.388 159.886 515.393 159.545 516.2 158.864C517.007 158.17 517.615 157.227 518.024 156.034C518.445 154.841 518.655 153.483 518.655 151.96C518.655 150.438 518.445 149.08 518.024 147.886C517.615 146.693 517.007 145.75 516.2 145.057C515.393 144.364 514.388 144.017 513.183 144.017C511.967 144.017 510.945 144.364 510.115 145.057C509.297 145.75 508.678 146.693 508.257 147.886C507.848 149.08 507.643 150.438 507.643 151.96C507.643 153.483 507.848 154.841 508.257 156.034C508.678 157.227 509.297 158.17 510.115 158.864C510.945 159.545 511.967 159.886 513.183 159.886ZM547.547 153.852V138.818H554.808V165H547.837V160.244H547.564C546.973 161.778 545.99 163.011 544.615 163.943C543.251 164.875 541.587 165.341 539.621 165.341C537.871 165.341 536.331 164.943 535.001 164.148C533.672 163.352 532.632 162.222 531.882 160.756C531.143 159.29 530.768 157.534 530.757 155.489V138.818H538.018V154.193C538.03 155.739 538.445 156.96 539.263 157.858C540.081 158.756 541.178 159.205 542.553 159.205C543.428 159.205 544.246 159.006 545.007 158.608C545.768 158.199 546.382 157.597 546.848 156.801C547.325 156.006 547.558 155.023 547.547 153.852Z" fill="#000A82" fill-opacity="0.9" shape-rendering="crispEdges"/>
<path d="M95.0028 165V130.091H118.526V136.176H102.384V144.494H117.315V150.58H102.384V158.915H118.594V165H95.0028ZM131.314 130.091L138.354 141.989H138.626L145.7 130.091H154.036L143.382 147.545L154.274 165H145.786L138.626 153.085H138.354L131.195 165H122.74L133.666 147.545L122.945 130.091H131.314ZM157.376 136.176V130.091H186.047V136.176H175.359V165H168.064V136.176H157.376ZM190.768 165V130.091H204.541C207.178 130.091 209.428 130.562 211.291 131.506C213.166 132.437 214.592 133.761 215.57 135.477C216.558 137.182 217.053 139.187 217.053 141.494C217.053 143.812 216.553 145.807 215.553 147.477C214.553 149.136 213.104 150.409 211.206 151.295C209.32 152.182 207.036 152.625 204.354 152.625H195.132V146.693H203.161C204.57 146.693 205.74 146.5 206.672 146.114C207.604 145.727 208.297 145.148 208.751 144.375C209.217 143.602 209.45 142.642 209.45 141.494C209.45 140.335 209.217 139.358 208.751 138.562C208.297 137.767 207.598 137.165 206.655 136.756C205.723 136.335 204.547 136.125 203.126 136.125H198.149V165H190.768ZM209.621 149.114L218.297 165H210.149L201.661 149.114H209.621ZM228.286 165H220.376L232.428 130.091H241.939L253.973 165H246.064L237.32 138.068H237.047L228.286 165ZM227.791 151.278H246.473V157.04H227.791V151.278ZM269.284 130.091H278.386L288 153.545H288.409L298.023 130.091H307.125V165H299.966V142.278H299.676L290.642 164.83H285.767L276.733 142.193H276.443V165H269.284V130.091ZM320.587 130.091V165H313.206V130.091H320.587ZM326.659 165V130.091H334.04V158.915H349.006V165H326.659ZM353.893 165V130.091H377.416V136.176H361.274V144.494H376.206V150.58H361.274V158.915H377.484V165H353.893Z" fill="#DC0A0A" shape-rendering="crispEdges"/>
<path d="M19.8239 138.818H20.8239V137.818H19.8239V138.818ZM19.8239 144.273V145.273H20.8239V144.273H19.8239ZM4.05682 144.273H3.05682V145.273H4.05682V144.273ZM4.05682 138.818V137.818H3.05682V138.818H4.05682ZM7.63636 132.545V131.545H6.63636V132.545H7.63636ZM14.8977 132.545H15.8977V131.545H14.8977V132.545ZM15.2045 158.523L14.3266 159.002L14.333 159.013L15.2045 158.523ZM16.0568 159.29L15.6804 160.216L15.6903 160.22L16.0568 159.29ZM18.375 159.426L18.5394 160.413L18.5553 160.41L18.5711 160.407L18.375 159.426ZM19.1591 159.273L20.1375 159.066L19.9354 158.11L18.9748 158.29L19.1591 159.273ZM20.3011 164.676L20.5994 165.631L21.4676 165.359L21.2795 164.469L20.3011 164.676ZM18.767 165.068L18.5483 164.092L18.5404 164.094L18.5324 164.096L18.767 165.068ZM16.3636 165.358L16.3275 164.359L16.3247 164.359L16.3636 165.358ZM11.7614 164.659L11.383 165.585L11.3858 165.586L11.7614 164.659ZM8.71023 162.17L9.55003 161.628L9.55003 161.628L8.71023 162.17ZM7.63636 157.909L8.63636 157.916V157.909H7.63636ZM18.8239 138.818V144.273H20.8239V138.818H18.8239ZM19.8239 143.273H4.05682V145.273H19.8239V143.273ZM5.05682 144.273V138.818H3.05682V144.273H5.05682ZM4.05682 139.818H19.8239V137.818H4.05682V139.818ZM7.63636 133.545H14.8977V131.545H7.63636V133.545ZM13.8977 132.545V156.955H15.8977V132.545H13.8977ZM13.8977 156.955C13.8977 157.706 14.0089 158.419 14.3267 159.002L16.0824 158.044C15.9911 157.876 15.8977 157.544 15.8977 156.955H13.8977ZM14.333 159.013C14.641 159.561 15.0934 159.978 15.6804 160.216L16.4332 158.363C16.293 158.306 16.1772 158.212 16.0761 158.032L14.333 159.013ZM15.6903 160.22C16.2039 160.423 16.7641 160.511 17.3523 160.511V158.511C16.9632 158.511 16.6597 158.452 16.4233 158.359L15.6903 160.22ZM17.3523 160.511C17.749 160.511 18.1449 160.478 18.5394 160.413L18.2106 158.44C17.9233 158.488 17.6373 158.511 17.3523 158.511V160.511ZM18.5711 160.407C18.9109 160.339 19.1676 160.289 19.3434 160.256L18.9748 158.29C18.787 158.325 18.521 158.377 18.1789 158.446L18.5711 160.407ZM18.1807 159.48L19.3228 164.883L21.2795 164.469L20.1375 159.066L18.1807 159.48ZM20.0029 163.722C19.678 163.823 19.1977 163.947 18.5483 164.092L18.9858 166.044C19.6546 165.894 20.197 165.756 20.5994 165.631L20.0029 163.722ZM18.5324 164.096C17.9581 164.235 17.2277 164.326 16.3275 164.359L16.3998 166.357C17.386 166.322 18.2578 166.22 19.0017 166.04L18.5324 164.096ZM16.3247 164.359C14.6845 164.423 13.2969 164.202 12.1369 163.732L11.3858 165.586C12.8622 166.184 14.5428 166.43 16.4026 166.357L16.3247 164.359ZM12.1397 163.733C11.0114 163.272 10.1601 162.571 9.55003 161.628L7.87043 162.713C8.71493 164.02 9.89767 164.978 11.383 165.585L12.1397 163.733ZM9.55003 161.628C8.95461 160.707 8.62591 159.491 8.63634 157.916L6.63639 157.902C6.62409 159.759 7.0113 161.384 7.87043 162.713L9.55003 161.628ZM8.63636 157.909V132.545H6.63636V157.909H8.63636ZM32.3778 149.864L31.3778 149.854V149.864H32.3778ZM32.3778 165V166H33.3778V165H32.3778ZM25.1165 165H24.1165V166H25.1165V165ZM25.1165 130.091V129.091H24.1165V130.091H25.1165ZM32.1733 130.091H33.1733V129.091H32.1733V130.091ZM32.1733 143.438H31.1733V144.438H32.1733V143.438ZM32.4801 143.438V144.438H33.1684L33.4142 143.795L32.4801 143.438ZM35.3438 139.807L35.8968 140.64L35.9017 140.637L35.3438 139.807ZM45.0597 139.67L44.5526 140.532L44.5612 140.537L45.0597 139.67ZM48.2301 143.062L47.3384 143.515L47.3427 143.523L48.2301 143.062ZM49.3551 148.33L48.3551 148.324V148.33H49.3551ZM49.3551 165V166H50.3551V165H49.3551ZM42.0938 165H41.0938V166H42.0938V165ZM42.0938 149.625L41.0938 149.618V149.625H42.0938ZM40.8665 145.858L40.1274 146.532L40.132 146.537L40.8665 145.858ZM34.7983 145.142L34.3149 144.267L34.3093 144.27L34.7983 145.142ZM33.0256 146.983L32.1439 146.511L32.1415 146.516L33.0256 146.983ZM31.3778 149.864V165H33.3778V149.864H31.3778ZM32.3778 164H25.1165V166H32.3778V164ZM26.1165 165V130.091H24.1165V165H26.1165ZM25.1165 131.091H32.1733V129.091H25.1165V131.091ZM31.1733 130.091V143.438H33.1733V130.091H31.1733ZM32.1733 144.438H32.4801V142.438H32.1733V144.438ZM33.4142 143.795C33.9343 142.434 34.7603 141.394 35.8968 140.64L34.7907 138.974C33.2908 139.969 32.2077 141.35 31.5461 143.08L33.4142 143.795ZM35.9017 140.637C37.0177 139.886 38.4639 139.477 40.304 139.477V137.477C38.1667 137.477 36.3061 137.955 34.7858 138.977L35.9017 140.637ZM40.304 139.477C41.9726 139.477 43.377 139.841 44.5526 140.532L45.5667 138.809C44.0377 137.909 42.2717 137.477 40.304 137.477V139.477ZM44.5612 140.537C45.7471 141.219 46.6715 142.202 47.3384 143.515L49.1218 142.61C48.2887 140.969 47.0995 139.69 45.5581 138.804L44.5612 140.537ZM47.3427 143.523C48.0135 144.815 48.3658 146.403 48.3551 148.324L50.3551 148.335C50.3672 146.165 49.9695 144.242 49.1176 142.602L47.3427 143.523ZM48.3551 148.33V165H50.3551V148.33H48.3551ZM49.3551 164H42.0938V166H49.3551V164ZM43.0938 165V149.625H41.0938V165H43.0938ZM43.0937 149.632C43.1063 147.848 42.6522 146.317 41.6009 145.179L40.132 146.537C40.7398 147.194 41.1039 148.175 41.0938 149.618L43.0937 149.632ZM41.6056 145.184C40.5577 144.035 39.1161 143.511 37.4233 143.511V145.511C38.6851 145.511 39.5389 145.886 40.1274 146.532L41.6056 145.184ZM37.4233 143.511C36.289 143.511 35.2435 143.754 34.3149 144.267L35.2817 146.017C35.8758 145.689 36.5803 145.511 37.4233 145.511V143.511ZM34.3093 144.27C33.382 144.79 32.6597 145.547 32.1439 146.511L33.9072 147.455C34.2551 146.805 34.7146 146.335 35.2873 146.014L34.3093 144.27ZM32.1415 146.516C31.6302 147.483 31.3905 148.608 31.3779 149.854L33.3778 149.874C33.3879 148.869 33.5801 148.074 33.9097 147.45L32.1415 146.516ZM60.0469 163.875L59.5513 164.744L59.5573 164.747L60.0469 163.875ZM55.581 159.205L54.6926 159.664L54.6937 159.666L55.581 159.205ZM55.581 144.938L54.6916 144.48L54.6916 144.48L55.581 144.938ZM59.9957 140.182L59.4843 139.323L59.482 139.324L59.9957 140.182ZM71.5355 139.312L71.1852 140.249L71.1938 140.252L71.5355 139.312ZM75.456 141.784L74.7525 142.495L74.7561 142.498L75.456 141.784ZM78.081 145.943L77.1444 146.294L77.1452 146.296L78.081 145.943ZM79.0185 153.767V154.767H80.0185V153.767H79.0185ZM56.9105 153.767H55.9105V154.767H56.9105V153.767ZM56.9105 149.267V148.267H55.9105V149.267H56.9105ZM72.1832 149.267V150.267H73.1832V149.267H72.1832ZM71.5014 146.489L70.6302 146.979L70.6302 146.979L71.5014 146.489ZM69.6094 144.597L69.104 145.459L69.1112 145.464L69.1185 145.468L69.6094 144.597ZM63.8991 144.665L64.4102 145.524L64.4136 145.522L63.8991 144.665ZM61.9219 146.693L62.7916 147.187L62.7944 147.182L61.9219 146.693ZM61.1889 149.506L60.1889 149.495V149.506H61.1889ZM61.9048 157.142L61.0125 157.594L61.0169 157.602L61.9048 157.142ZM69.3366 159.75L69.0156 158.803L69.0156 158.803L69.3366 159.75ZM71.0582 158.727L70.3686 158.003L70.3686 158.003L71.0582 158.727ZM72.1491 157.057L72.215 156.059L71.4766 156.01L71.2142 156.702L72.1491 157.057ZM78.8651 157.5L79.8435 157.707L80.0819 156.578L78.9309 156.502L78.8651 157.5ZM76.7685 161.727L76.0168 161.068L76.0163 161.068L76.7685 161.727ZM72.7116 164.523L73.083 165.451L73.0863 165.45L72.7116 164.523ZM67.0014 164.511C64.4441 164.511 62.3018 163.994 60.5364 163.003L59.5573 164.747C61.6783 165.938 64.1724 166.511 67.0014 166.511V164.511ZM60.5425 163.006C58.781 162.001 57.4268 160.588 56.4683 158.743L54.6937 159.666C55.826 161.844 57.4491 163.544 59.5513 164.744L60.5425 163.006ZM56.4693 158.745C55.5112 156.892 55.0128 154.664 55.0128 152.028H53.0128C53.0128 154.916 53.5598 157.472 54.6926 159.664L56.4693 158.745ZM55.0128 152.028C55.0128 149.466 55.5095 147.264 56.4704 145.395L54.6916 144.48C53.5616 146.679 53.0128 149.204 53.0128 152.028H55.0128ZM56.4704 145.395C57.4335 143.521 58.7776 142.077 60.5095 141.04L59.482 139.324C57.4185 140.56 55.8193 142.286 54.6916 144.48L56.4704 145.395ZM60.5072 141.041C62.2388 140.01 64.295 139.477 66.7116 139.477V137.477C63.9919 137.477 61.5709 138.081 59.4843 139.323L60.5072 141.041ZM66.7116 139.477C68.3297 139.477 69.8179 139.738 71.1852 140.249L71.8859 138.376C70.2758 137.774 68.5481 137.477 66.7116 137.477V139.477ZM71.1938 140.252C72.5607 140.749 73.7434 141.496 74.7525 142.495L76.1594 141.073C74.9412 139.868 73.5103 138.967 71.8773 138.373L71.1938 140.252ZM74.7561 142.498C75.7635 143.485 76.5639 144.742 77.1444 146.294L79.0176 145.593C78.3481 143.803 77.3985 142.287 76.1558 141.07L74.7561 142.498ZM77.1452 146.296C77.7184 147.817 78.0185 149.636 78.0185 151.773H80.0185C80.0185 149.455 79.6935 147.387 79.0168 145.591L77.1452 146.296ZM78.0185 151.773V153.767H80.0185V151.773H78.0185ZM79.0185 152.767H56.9105V154.767H79.0185V152.767ZM57.9105 153.767V149.267H55.9105V153.767H57.9105ZM56.9105 150.267H72.1832V148.267H56.9105V150.267ZM73.1832 149.267C73.1832 148.072 72.922 146.973 72.3727 145.998L70.6302 146.979C70.9899 147.618 71.1832 148.371 71.1832 149.267H73.1832ZM72.3727 145.998C71.8285 145.032 71.0662 144.27 70.1002 143.725L69.1185 145.468C69.7662 145.833 70.2653 146.332 70.6302 146.979L72.3727 145.998ZM70.1148 143.734C69.1447 143.166 68.039 142.898 66.831 142.898V144.898C67.7366 144.898 68.4831 145.096 69.104 145.459L70.1148 143.734ZM66.831 142.898C65.5678 142.898 64.4089 143.193 63.3847 143.807L64.4136 145.522C65.094 145.114 65.8896 144.898 66.831 144.898V142.898ZM63.3881 143.805C62.3965 144.395 61.6126 145.199 61.0494 146.205L62.7944 147.182C63.1857 146.483 63.72 145.935 64.4102 145.524L63.3881 143.805ZM61.0522 146.2C60.4855 147.198 60.2021 148.303 60.189 149.495L62.1889 149.517C62.1985 148.64 62.4037 147.87 62.7916 147.187L61.0522 146.2ZM60.1889 149.506V153.784H62.1889V149.506H60.1889ZM60.1889 153.784C60.1889 155.202 60.4503 156.482 61.0126 157.594L62.7971 156.691C62.4049 155.915 62.1889 154.957 62.1889 153.784H60.1889ZM61.0169 157.602C61.5899 158.708 62.4092 159.579 63.4676 160.19L64.4671 158.458C63.7528 158.046 63.197 157.462 62.7927 156.682L61.0169 157.602ZM63.4676 160.19C64.5323 160.804 65.7626 161.091 67.1207 161.091V159.091C66.0471 159.091 65.1751 158.866 64.4671 158.458L63.4676 160.19ZM67.1207 161.091C68.0217 161.091 68.8705 160.964 69.6577 160.697L69.0156 158.803C68.4619 158.991 67.8334 159.091 67.1207 159.091V161.091ZM69.6577 160.697C70.4554 160.427 71.1578 160.013 71.7479 159.451L70.3686 158.003C70.0042 158.35 69.5588 158.619 69.0156 158.803L69.6577 160.697ZM71.7479 159.451C72.341 158.887 72.7848 158.201 73.0841 157.411L71.2142 156.702C71.0135 157.231 70.73 157.659 70.3686 158.003L71.7479 159.451ZM72.0833 158.055L78.7992 158.498L78.9309 156.502L72.215 156.059L72.0833 158.055ZM77.8867 157.293C77.5801 158.744 76.957 159.996 76.0168 161.068L77.5202 162.387C78.6935 161.049 79.4682 159.483 79.8435 157.707L77.8867 157.293ZM76.0163 161.068C75.0865 162.129 73.8697 162.976 72.337 163.596L73.0863 165.45C74.8717 164.728 76.3595 163.711 77.5206 162.386L76.0163 161.068ZM72.3403 163.594C70.8332 164.197 69.0601 164.511 67.0014 164.511V166.511C69.2609 166.511 71.2946 166.167 73.083 165.451L72.3403 163.594ZM95.0028 165H94.0028V166H95.0028V165ZM95.0028 130.091V129.091H94.0028V130.091H95.0028ZM118.526 130.091H119.526V129.091H118.526V130.091ZM118.526 136.176V137.176H119.526V136.176H118.526ZM102.384 136.176V135.176H101.384V136.176H102.384ZM102.384 144.494H101.384V145.494H102.384V144.494ZM117.315 144.494H118.315V143.494H117.315V144.494ZM117.315 150.58V151.58H118.315V150.58H117.315ZM102.384 150.58V149.58H101.384V150.58H102.384ZM102.384 158.915H101.384V159.915H102.384V158.915ZM118.594 158.915H119.594V157.915H118.594V158.915ZM118.594 165V166H119.594V165H118.594ZM96.0028 165V130.091H94.0028V165H96.0028ZM95.0028 131.091H118.526V129.091H95.0028V131.091ZM117.526 130.091V136.176H119.526V130.091H117.526ZM118.526 135.176H102.384V137.176H118.526V135.176ZM101.384 136.176V144.494H103.384V136.176H101.384ZM102.384 145.494H117.315V143.494H102.384V145.494ZM116.315 144.494V150.58H118.315V144.494H116.315ZM117.315 149.58H102.384V151.58H117.315V149.58ZM101.384 150.58V158.915H103.384V150.58H101.384ZM102.384 159.915H118.594V157.915H102.384V159.915ZM117.594 158.915V165H119.594V158.915H117.594ZM118.594 164H95.0028V166H118.594V164ZM131.314 130.091L132.175 129.582L131.884 129.091H131.314V130.091ZM138.354 141.989L137.493 142.498L137.783 142.989H138.354V141.989ZM138.626 141.989V142.989H139.195L139.486 142.5L138.626 141.989ZM145.7 130.091V129.091H145.131L144.841 129.58L145.7 130.091ZM154.036 130.091L154.889 130.612L155.817 129.091H154.036V130.091ZM143.382 147.545L142.529 147.024L142.207 147.551L142.534 148.075L143.382 147.545ZM154.274 165V166H156.077L155.123 164.471L154.274 165ZM145.786 165L144.928 165.515L145.22 166H145.786V165ZM138.626 153.085L139.484 152.57L139.192 152.085H138.626V153.085ZM138.354 153.085V152.085H137.788L137.497 152.57L138.354 153.085ZM131.195 165V166H131.76L132.052 165.515L131.195 165ZM122.74 165L121.892 164.469L120.934 166H122.74V165ZM133.666 147.545L134.514 148.076L134.843 147.55L134.518 147.022L133.666 147.545ZM122.945 130.091V129.091H121.157L122.093 130.614L122.945 130.091ZM130.453 130.6L137.493 142.498L139.214 141.479L132.175 129.582L130.453 130.6ZM138.354 142.989H138.626V140.989H138.354V142.989ZM139.486 142.5L146.56 130.602L144.841 129.58L137.767 141.478L139.486 142.5ZM145.7 131.091H154.036V129.091H145.7V131.091ZM153.182 129.57L142.529 147.024L144.236 148.066L154.889 130.612L153.182 129.57ZM142.534 148.075L153.426 165.529L155.123 164.471L144.23 147.016L142.534 148.075ZM154.274 164H145.786V166H154.274V164ZM146.643 164.485L139.484 152.57L137.769 153.6L144.928 165.515L146.643 164.485ZM138.626 152.085H138.354V154.085H138.626V152.085ZM137.497 152.57L130.337 164.485L132.052 165.515L139.211 153.6L137.497 152.57ZM131.195 164H122.74V166H131.195V164ZM123.588 165.531L134.514 148.076L132.819 147.015L121.892 164.469L123.588 165.531ZM134.518 147.022L123.797 129.568L122.093 130.614L132.814 148.069L134.518 147.022ZM122.945 131.091H131.314V129.091H122.945V131.091ZM157.376 136.176H156.376V137.176H157.376V136.176ZM157.376 130.091V129.091H156.376V130.091H157.376ZM186.047 130.091H187.047V129.091H186.047V130.091ZM186.047 136.176V137.176H187.047V136.176H186.047ZM175.359 136.176V135.176H174.359V136.176H175.359ZM175.359 165V166H176.359V165H175.359ZM168.064 165H167.064V166H168.064V165ZM168.064 136.176H169.064V135.176H168.064V136.176ZM158.376 136.176V130.091H156.376V136.176H158.376ZM157.376 131.091H186.047V129.091H157.376V131.091ZM185.047 130.091V136.176H187.047V130.091H185.047ZM186.047 135.176H175.359V137.176H186.047V135.176ZM174.359 136.176V165H176.359V136.176H174.359ZM175.359 164H168.064V166H175.359V164ZM169.064 165V136.176H167.064V165H169.064ZM168.064 135.176H157.376V137.176H168.064V135.176ZM190.768 165H189.768V166H190.768V165ZM190.768 130.091V129.091H189.768V130.091H190.768ZM211.291 131.506L210.84 132.398L210.846 132.401L211.291 131.506ZM215.57 135.477L214.701 135.972L214.705 135.979L215.57 135.477ZM215.553 147.477L216.409 147.993L216.411 147.991L215.553 147.477ZM211.206 151.295L210.783 150.389L210.781 150.39L211.206 151.295ZM195.132 152.625H194.132V153.625H195.132V152.625ZM195.132 146.693V145.693H194.132V146.693H195.132ZM206.672 146.114L207.055 147.037L207.055 147.037L206.672 146.114ZM208.751 144.375L207.895 143.859L207.889 143.868L208.751 144.375ZM208.751 138.562L207.883 139.059L207.889 139.068L208.751 138.562ZM206.655 136.756L206.244 137.667L206.25 137.67L206.257 137.673L206.655 136.756ZM198.149 136.125V135.125H197.149V136.125H198.149ZM198.149 165V166H199.149V165H198.149ZM209.621 149.114L210.498 148.634L210.214 148.114H209.621V149.114ZM218.297 165V166H219.982L219.175 164.521L218.297 165ZM210.149 165L209.267 165.471L209.55 166H210.149V165ZM201.661 149.114V148.114H199.992L200.779 149.585L201.661 149.114ZM191.768 165V130.091H189.768V165H191.768ZM190.768 131.091H204.541V129.091H190.768V131.091ZM204.541 131.091C207.061 131.091 209.148 131.542 210.84 132.398L211.743 130.613C209.707 129.583 207.294 129.091 204.541 129.091V131.091ZM210.846 132.401C212.554 133.25 213.828 134.44 214.701 135.972L216.439 134.982C215.357 133.083 213.778 131.625 211.736 130.61L210.846 132.401ZM214.705 135.979C215.591 137.507 216.053 139.333 216.053 141.494H218.053C218.053 139.042 217.526 136.857 216.435 134.976L214.705 135.979ZM216.053 141.494C216.053 143.666 215.585 145.476 214.695 146.964L216.411 147.991C217.52 146.138 218.053 143.959 218.053 141.494H216.053ZM214.696 146.961C213.807 148.436 212.516 149.58 210.783 150.389L211.629 152.201C213.691 151.238 215.298 149.837 216.409 147.993L214.696 146.961ZM210.781 150.39C209.06 151.199 206.929 151.625 204.354 151.625V153.625C207.142 153.625 209.579 153.165 211.631 152.201L210.781 150.39ZM204.354 151.625H195.132V153.625H204.354V151.625ZM196.132 152.625V146.693H194.132V152.625H196.132ZM195.132 147.693H203.161V145.693H195.132V147.693ZM203.161 147.693C204.653 147.693 205.964 147.49 207.055 147.037L206.289 145.19C205.516 145.51 204.487 145.693 203.161 145.693V147.693ZM207.055 147.037C208.161 146.579 209.035 145.865 209.613 144.882L207.889 143.868C207.559 144.43 207.046 144.876 206.289 145.19L207.055 147.037ZM209.608 144.891C210.19 143.926 210.45 142.775 210.45 141.494H208.45C208.45 142.509 208.245 143.279 207.895 143.859L209.608 144.891ZM210.45 141.494C210.45 140.203 210.19 139.041 209.614 138.057L207.889 139.068C208.244 139.675 208.45 140.468 208.45 141.494H210.45ZM209.62 138.066C209.045 137.061 208.169 136.322 207.053 135.838L206.257 137.673C207.027 138.007 207.549 138.473 207.883 139.059L209.62 138.066ZM207.066 135.844C205.965 135.347 204.637 135.125 203.126 135.125V137.125C204.457 137.125 205.481 137.323 206.244 137.667L207.066 135.844ZM203.126 135.125H198.149V137.125H203.126V135.125ZM197.149 136.125V165H199.149V136.125H197.149ZM198.149 164H190.768V166H198.149V164ZM208.743 149.593L217.419 165.479L219.175 164.521L210.498 148.634L208.743 149.593ZM218.297 164H210.149V166H218.297V164ZM211.031 164.529L202.542 148.642L200.779 149.585L209.267 165.471L211.031 164.529ZM201.661 150.114H209.621V148.114H201.661V150.114ZM228.286 165V166H229.012L229.236 165.309L228.286 165ZM220.376 165L219.431 164.674L218.973 166H220.376V165ZM232.428 130.091V129.091H231.715L231.482 129.765L232.428 130.091ZM241.939 130.091L242.884 129.765L242.652 129.091H241.939V130.091ZM253.973 165V166H255.375L254.918 164.674L253.973 165ZM246.064 165L245.113 165.309L245.337 166H246.064V165ZM237.32 138.068L238.271 137.759L238.046 137.068H237.32V138.068ZM237.047 138.068V137.068H236.321L236.096 137.759L237.047 138.068ZM227.791 151.278V150.278H226.791V151.278H227.791ZM246.473 151.278H247.473V150.278H246.473V151.278ZM246.473 157.04V158.04H247.473V157.04H246.473ZM227.791 157.04H226.791V158.04H227.791V157.04ZM228.286 164H220.376V166H228.286V164ZM221.322 165.326L233.373 130.417L231.482 129.765L219.431 164.674L221.322 165.326ZM232.428 131.091H241.939V129.091H232.428V131.091ZM240.994 130.417L253.028 165.326L254.918 164.674L242.884 129.765L240.994 130.417ZM253.973 164H246.064V166H253.973V164ZM247.015 164.691L238.271 137.759L236.368 138.377L245.113 165.309L247.015 164.691ZM237.32 137.068H237.047V139.068H237.32V137.068ZM236.096 137.759L227.335 164.691L229.236 165.309L237.998 138.378L236.096 137.759ZM227.791 152.278H246.473V150.278H227.791V152.278ZM245.473 151.278V157.04H247.473V151.278H245.473ZM246.473 156.04H227.791V158.04H246.473V156.04ZM228.791 157.04V151.278H226.791V157.04H228.791ZM269.284 130.091V129.091H268.284V130.091H269.284ZM278.386 130.091L279.312 129.712L279.057 129.091H278.386V130.091ZM288 153.545L287.075 153.925L287.329 154.545H288V153.545ZM288.409 153.545V154.545H289.08L289.334 153.925L288.409 153.545ZM298.023 130.091V129.091H297.352L297.097 129.712L298.023 130.091ZM307.125 130.091H308.125V129.091H307.125V130.091ZM307.125 165V166H308.125V165H307.125ZM299.966 165H298.966V166H299.966V165ZM299.966 142.278H300.966V141.278H299.966V142.278ZM299.676 142.278V141.278H298.999L298.748 141.907L299.676 142.278ZM290.642 164.83V165.83H291.319L291.57 165.201L290.642 164.83ZM285.767 164.83L284.838 165.2L285.089 165.83H285.767V164.83ZM276.733 142.193L277.662 141.823L277.411 141.193H276.733V142.193ZM276.443 142.193V141.193H275.443V142.193H276.443ZM276.443 165V166H277.443V165H276.443ZM269.284 165H268.284V166H269.284V165ZM269.284 131.091H278.386V129.091H269.284V131.091ZM277.461 130.47L287.075 153.925L288.925 153.166L279.312 129.712L277.461 130.47ZM288 154.545H288.409V152.545H288V154.545ZM289.334 153.925L298.948 130.47L297.097 129.712L287.484 153.166L289.334 153.925ZM298.023 131.091H307.125V129.091H298.023V131.091ZM306.125 130.091V165H308.125V130.091H306.125ZM307.125 164H299.966V166H307.125V164ZM300.966 165V142.278H298.966V165H300.966ZM299.966 141.278H299.676V143.278H299.966V141.278ZM298.748 141.907L289.714 164.458L291.57 165.201L300.604 142.65L298.748 141.907ZM290.642 163.83H285.767V165.83H290.642V163.83ZM286.696 164.459L277.662 141.823L275.804 142.564L284.838 165.2L286.696 164.459ZM276.733 141.193H276.443V143.193H276.733V141.193ZM275.443 142.193V165H277.443V142.193H275.443ZM276.443 164H269.284V166H276.443V164ZM270.284 165V130.091H268.284V165H270.284ZM320.587 130.091H321.587V129.091H320.587V130.091ZM320.587 165V166H321.587V165H320.587ZM313.206 165H312.206V166H313.206V165ZM313.206 130.091V129.091H312.206V130.091H313.206ZM319.587 130.091V165H321.587V130.091H319.587ZM320.587 164H313.206V166H320.587V164ZM314.206 165V130.091H312.206V165H314.206ZM313.206 131.091H320.587V129.091H313.206V131.091ZM326.659 165H325.659V166H326.659V165ZM326.659 130.091V129.091H325.659V130.091H326.659ZM334.04 130.091H335.04V129.091H334.04V130.091ZM334.04 158.915H333.04V159.915H334.04V158.915ZM349.006 158.915H350.006V157.915H349.006V158.915ZM349.006 165V166H350.006V165H349.006ZM327.659 165V130.091H325.659V165H327.659ZM326.659 131.091H334.04V129.091H326.659V131.091ZM333.04 130.091V158.915H335.04V130.091H333.04ZM334.04 159.915H349.006V157.915H334.04V159.915ZM348.006 158.915V165H350.006V158.915H348.006ZM349.006 164H326.659V166H349.006V164ZM353.893 165H352.893V166H353.893V165ZM353.893 130.091V129.091H352.893V130.091H353.893ZM377.416 130.091H378.416V129.091H377.416V130.091ZM377.416 136.176V137.176H378.416V136.176H377.416ZM361.274 136.176V135.176H360.274V136.176H361.274ZM361.274 144.494H360.274V145.494H361.274V144.494ZM376.206 144.494H377.206V143.494H376.206V144.494ZM376.206 150.58V151.58H377.206V150.58H376.206ZM361.274 150.58V149.58H360.274V150.58H361.274ZM361.274 158.915H360.274V159.915H361.274V158.915ZM377.484 158.915H378.484V157.915H377.484V158.915ZM377.484 165V166H378.484V165H377.484ZM354.893 165V130.091H352.893V165H354.893ZM353.893 131.091H377.416V129.091H353.893V131.091ZM376.416 130.091V136.176H378.416V130.091H376.416ZM377.416 135.176H361.274V137.176H377.416V135.176ZM360.274 136.176V144.494H362.274V136.176H360.274ZM361.274 145.494H376.206V143.494H361.274V145.494ZM375.206 144.494V150.58H377.206V144.494H375.206ZM376.206 149.58H361.274V151.58H376.206V149.58ZM360.274 150.58V158.915H362.274V150.58H360.274ZM361.274 159.915H377.484V157.915H361.274V159.915ZM376.484 158.915V165H378.484V158.915H376.484ZM377.484 164H353.893V166H377.484V164ZM408.337 138.818H409.337V137.818H408.337V138.818ZM408.337 144.273V145.273H409.337V144.273H408.337ZM392.178 144.273H391.178V145.273H392.178V144.273ZM392.178 138.818V137.818H391.178V138.818H392.178ZM395.876 165H394.876V166H395.876V165ZM396.984 132.205L396.127 131.69L396.123 131.696L396.984 132.205ZM400.053 129.392L399.618 128.491L399.618 128.491L400.053 129.392ZM407.518 128.71L407.336 129.694L407.339 129.694L407.518 128.71ZM409.598 129.17L410.571 129.402L410.789 128.484L409.885 128.213L409.598 129.17ZM408.303 134.625L407.998 135.577L409.026 135.906L409.275 134.856L408.303 134.625ZM407.246 134.369L407.055 135.351L407.06 135.352L407.246 134.369ZM403.751 135L404.509 135.652L404.517 135.644L403.751 135ZM403.121 165V166H404.121V165H403.121ZM407.337 138.818V144.273H409.337V138.818H407.337ZM408.337 143.273H392.178V145.273H408.337V143.273ZM393.178 144.273V138.818H391.178V144.273H393.178ZM392.178 139.818H408.337V137.818H392.178V139.818ZM396.876 165V136.926H394.876V165H396.876ZM396.876 136.926C396.876 135.154 397.222 133.769 397.845 132.713L396.123 131.696C395.27 133.14 394.876 134.903 394.876 136.926H396.876ZM397.842 132.719C398.493 131.634 399.37 130.832 400.487 130.293L399.618 128.491C398.144 129.202 396.976 130.275 396.127 131.69L397.842 132.719ZM400.487 130.293C401.629 129.742 402.948 129.455 404.467 129.455V127.455C402.691 127.455 401.067 127.792 399.618 128.491L400.487 130.293ZM404.467 129.455C405.531 129.455 406.486 129.536 407.336 129.694L407.701 127.727C406.71 127.544 405.631 127.455 404.467 127.455V129.455ZM407.339 129.694C408.262 129.863 408.911 130.008 409.311 130.128L409.885 128.213C409.376 128.06 408.638 127.898 407.698 127.727L407.339 129.694ZM408.625 128.939L407.33 134.394L409.275 134.856L410.571 129.402L408.625 128.939ZM408.607 133.673C408.272 133.565 407.877 133.471 407.432 133.387L407.06 135.352C407.456 135.427 407.765 135.503 407.998 135.577L408.607 133.673ZM407.437 133.388C406.962 133.295 406.478 133.25 405.984 133.25V135.25C406.354 135.25 406.711 135.284 407.055 135.351L407.437 133.388ZM405.984 133.25C404.805 133.25 403.689 133.52 402.986 134.356L404.517 135.644C404.654 135.48 405.028 135.25 405.984 135.25V133.25ZM402.993 134.348C402.367 135.076 402.121 136.026 402.121 137.062H404.121C404.121 136.326 404.295 135.901 404.509 135.652L402.993 134.348ZM402.121 137.062V165H404.121V137.062H402.121ZM403.121 164H395.876V166H403.121V164ZM416.795 163.824L416.286 164.685L416.292 164.688L416.795 163.824ZM412.347 159.085L411.457 159.542L411.458 159.544L412.347 159.085ZM412.347 144.92L413.235 145.38L413.236 145.378L412.347 144.92ZM416.795 140.182L417.301 141.045L417.302 141.044L416.795 140.182ZM430.517 140.182L430.008 141.042L430.014 141.046L430.517 140.182ZM434.983 144.92L434.094 145.378L434.095 145.38L434.983 144.92ZM434.983 159.085L435.871 159.544L435.872 159.542L434.983 159.085ZM430.517 163.824L431.023 164.687L431.024 164.686L430.517 163.824ZM426.716 158.864L427.361 159.627L427.368 159.622L426.716 158.864ZM428.54 156.034L427.597 155.702L427.594 155.71L428.54 156.034ZM428.54 147.886L427.594 148.211L427.597 148.219L428.54 147.886ZM420.631 145.057L419.989 144.289L419.984 144.294L420.631 145.057ZM418.773 147.886L417.83 147.554L417.827 147.562L418.773 147.886ZM418.773 156.034L417.827 156.358L417.83 156.366L418.773 156.034ZM420.631 158.864L419.984 159.627L419.99 159.631L419.996 159.636L420.631 158.864ZM423.665 164.511C421.161 164.511 419.052 163.981 417.299 162.96L416.292 164.688C418.403 165.917 420.873 166.511 423.665 166.511V164.511ZM417.305 162.963C415.549 161.925 414.196 160.486 413.235 158.626L411.458 159.544C412.588 161.73 414.201 163.45 416.286 164.684L417.305 162.963ZM413.236 158.628C412.275 156.758 411.778 154.562 411.778 152.011H409.778C409.778 154.825 410.327 157.344 411.457 159.542L413.236 158.628ZM411.778 152.011C411.778 149.437 412.275 147.236 413.235 145.38L411.458 144.461C410.327 146.65 409.778 149.177 409.778 152.011H411.778ZM413.236 145.378C414.197 143.508 415.549 142.071 417.301 141.045L416.29 139.319C414.201 140.543 412.587 142.265 411.457 144.463L413.236 145.378ZM417.302 141.044C419.055 140.013 421.163 139.477 423.665 139.477V137.477C420.871 137.477 418.4 138.078 416.288 139.32L417.302 141.044ZM423.665 139.477C426.167 139.477 428.268 140.013 430.008 141.042L431.026 139.321C428.925 138.078 426.458 137.477 423.665 137.477V139.477ZM430.014 141.046C431.777 142.073 433.133 143.509 434.094 145.378L435.872 144.463C434.742 142.264 433.121 140.541 431.02 139.318L430.014 141.046ZM434.095 145.38C435.054 147.236 435.551 149.437 435.551 152.011H437.551C437.551 149.177 437.003 146.65 435.871 144.461L434.095 145.38ZM435.551 152.011C435.551 154.562 435.055 156.758 434.094 158.628L435.872 159.542C437.002 157.344 437.551 154.825 437.551 152.011H435.551ZM434.095 158.626C433.134 160.484 431.777 161.923 430.01 162.962L431.024 164.686C433.121 163.452 434.741 161.732 435.871 159.544L434.095 158.626ZM430.012 162.961C428.271 163.981 426.169 164.511 423.665 164.511V166.511C426.456 166.511 428.922 165.917 431.023 164.687L430.012 162.961ZM423.699 160.886C425.105 160.886 426.349 160.483 427.361 159.627L426.07 158.1C425.469 158.608 424.702 158.886 423.699 158.886V160.886ZM427.368 159.622C428.333 158.793 429.03 157.688 429.486 156.358L427.594 155.71C427.232 156.766 426.713 157.548 426.064 158.105L427.368 159.622ZM429.483 156.366C429.948 155.047 430.17 153.574 430.17 151.96H428.17C428.17 153.392 427.973 154.635 427.597 155.702L429.483 156.366ZM430.17 151.96C430.17 150.347 429.948 148.873 429.483 147.554L427.597 148.219C427.973 149.286 428.17 150.528 428.17 151.96H430.17ZM429.486 147.562C429.03 146.232 428.333 145.127 427.368 144.298L426.064 145.815C426.713 146.373 427.232 147.154 427.594 148.211L429.486 147.562ZM427.368 144.298C426.355 143.429 425.109 143.017 423.699 143.017V145.017C424.698 145.017 425.463 145.299 426.064 145.815L427.368 144.298ZM423.699 143.017C422.28 143.017 421.021 143.427 419.989 144.289L421.272 145.824C421.899 145.3 422.686 145.017 423.699 145.017V143.017ZM419.984 144.294C419.008 145.121 418.298 146.224 417.83 147.554L419.716 148.219C420.088 147.163 420.617 146.379 421.277 145.82L419.984 144.294ZM417.827 147.562C417.375 148.879 417.159 150.349 417.159 151.96H419.159C419.159 150.526 419.352 149.28 419.719 148.211L417.827 147.562ZM417.159 151.96C417.159 153.571 417.375 155.042 417.827 156.358L419.719 155.71C419.352 154.64 419.159 153.395 419.159 151.96H417.159ZM417.83 156.366C418.298 157.697 419.008 158.8 419.984 159.627L421.277 158.101C420.617 157.541 420.088 156.758 419.716 155.702L417.83 156.366ZM419.996 159.636C421.028 160.484 422.284 160.886 423.699 160.886V158.886C422.682 158.886 421.893 158.606 421.266 158.091L419.996 159.636ZM441.273 165H440.273V166H441.273V165ZM441.273 138.818V137.818H440.273V138.818H441.273ZM448.312 138.818H449.312V137.818H448.312V138.818ZM448.312 143.386H447.312V144.386H448.312V143.386ZM448.585 143.386V144.386H449.334L449.545 143.668L448.585 143.386ZM450.989 139.705L451.582 140.509L451.587 140.506L450.989 139.705ZM456.051 138.511L456.159 137.517L456.159 137.517L456.051 138.511ZM457.159 138.699H458.159V137.918L457.402 137.729L457.159 138.699ZM457.159 145.142L456.872 146.1L458.159 146.486V145.142H457.159ZM451.227 145.449L451.708 146.326L451.712 146.324L451.227 145.449ZM449.25 147.358L448.391 146.845L448.386 146.854L449.25 147.358ZM448.534 165V166H449.534V165H448.534ZM442.273 165V138.818H440.273V165H442.273ZM441.273 139.818H448.312V137.818H441.273V139.818ZM447.312 138.818V143.386H449.312V138.818H447.312ZM448.312 144.386H448.585V142.386H448.312V144.386ZM449.545 143.668C449.974 142.207 450.668 141.184 451.582 140.509L450.395 138.9C449.06 139.885 448.151 141.315 447.626 143.105L449.545 143.668ZM451.587 140.506C452.532 139.8 453.615 139.443 454.875 139.443V137.443C453.203 137.443 451.696 137.928 450.39 138.904L451.587 140.506ZM454.875 139.443C455.198 139.443 455.553 139.463 455.944 139.506L456.159 137.517C455.708 137.468 455.28 137.443 454.875 137.443V139.443ZM455.944 139.506C456.331 139.547 456.653 139.603 456.917 139.669L457.402 137.729C457.028 137.635 456.612 137.566 456.159 137.517L455.944 139.506ZM456.159 138.699V145.142H458.159V138.699H456.159ZM457.446 144.184C457.031 144.06 456.499 143.96 455.875 143.878L455.613 145.861C456.194 145.937 456.605 146.02 456.872 146.1L457.446 144.184ZM455.875 143.878C455.238 143.794 454.643 143.75 454.091 143.75V145.75C454.539 145.75 455.046 145.786 455.613 145.861L455.875 143.878ZM454.091 143.75C452.872 143.75 451.748 144.017 450.743 144.574L451.712 146.324C452.389 145.949 453.173 145.75 454.091 145.75V143.75ZM450.747 144.572C449.76 145.113 448.971 145.875 448.391 146.845L450.109 147.871C450.507 147.204 451.036 146.694 451.708 146.326L450.747 144.572ZM448.386 146.854C447.809 147.844 447.534 148.965 447.534 150.188H449.534C449.534 149.273 449.737 148.508 450.114 147.862L448.386 146.854ZM447.534 150.188V165H449.534V150.188H447.534ZM448.534 164H441.273V166H448.534V164ZM470.114 130.091V129.091H468.401L469.243 130.582L470.114 130.091ZM478.381 130.091L479.264 129.623L478.983 129.091H478.381V130.091ZM486.341 145.125L485.457 145.593L485.739 146.125H486.341V145.125ZM486.682 145.125V146.125H487.284L487.566 145.593L486.682 145.125ZM494.642 130.091V129.091H494.04L493.758 129.623L494.642 130.091ZM502.909 130.091L503.78 130.582L504.621 129.091H502.909V130.091ZM490.176 152.659L489.305 152.168L489.176 152.396V152.659H490.176ZM490.176 165V166H491.176V165H490.176ZM482.847 165H481.847V166H482.847V165ZM482.847 152.659H483.847V152.396L483.718 152.168L482.847 152.659ZM470.114 131.091H478.381V129.091H470.114V131.091ZM477.497 130.559L485.457 145.593L487.225 144.657L479.264 129.623L477.497 130.559ZM486.341 146.125H486.682V144.125H486.341V146.125ZM487.566 145.593L495.526 130.559L493.758 129.623L485.798 144.657L487.566 145.593ZM494.642 131.091H502.909V129.091H494.642V131.091ZM502.038 129.6L489.305 152.168L491.047 153.15L503.78 130.582L502.038 129.6ZM489.176 152.659V165H491.176V152.659H489.176ZM490.176 164H482.847V166H490.176V164ZM483.847 165V152.659H481.847V165H483.847ZM483.718 152.168L470.985 129.6L469.243 130.582L481.976 153.15L483.718 152.168ZM506.28 163.824L505.771 164.685L505.777 164.688L506.28 163.824ZM501.831 159.085L500.942 159.542L500.943 159.544L501.831 159.085ZM501.831 144.92L502.719 145.38L502.72 145.378L501.831 144.92ZM506.28 140.182L506.785 141.045L506.787 141.044L506.28 140.182ZM520.001 140.182L519.492 141.042L519.498 141.046L520.001 140.182ZM524.467 144.92L523.578 145.378L523.579 145.38L524.467 144.92ZM524.467 159.085L525.356 159.544L525.357 159.542L524.467 159.085ZM520.001 163.824L520.507 164.687L520.508 164.686L520.001 163.824ZM516.2 158.864L516.846 159.627L516.852 159.622L516.2 158.864ZM518.024 156.034L517.081 155.702L517.078 155.71L518.024 156.034ZM518.024 147.886L517.078 148.211L517.081 148.219L518.024 147.886ZM510.115 145.057L509.474 144.289L509.469 144.294L510.115 145.057ZM508.257 147.886L507.314 147.554L507.311 147.562L508.257 147.886ZM508.257 156.034L507.311 156.358L507.314 156.366L508.257 156.034ZM510.115 158.864L509.469 159.627L509.474 159.631L509.48 159.636L510.115 158.864ZM513.149 164.511C510.645 164.511 508.536 163.981 506.783 162.96L505.777 164.688C507.887 165.917 510.357 166.511 513.149 166.511V164.511ZM506.789 162.963C505.034 161.925 503.68 160.486 502.719 158.626L500.943 159.544C502.072 161.73 503.685 163.45 505.771 164.684L506.789 162.963ZM502.72 158.628C501.759 156.758 501.263 154.562 501.263 152.011H499.263C499.263 154.825 499.812 157.344 500.942 159.542L502.72 158.628ZM501.263 152.011C501.263 149.437 501.76 147.236 502.719 145.38L500.943 144.461C499.811 146.65 499.263 149.177 499.263 152.011H501.263ZM502.72 145.378C503.682 143.508 505.033 142.071 506.785 141.045L505.774 139.319C503.685 140.543 502.071 142.265 500.942 144.463L502.72 145.378ZM506.787 141.044C508.539 140.013 510.647 139.477 513.149 139.477V137.477C510.356 137.477 507.884 138.078 505.773 139.32L506.787 141.044ZM513.149 139.477C515.651 139.477 517.753 140.013 519.492 141.042L520.511 139.321C518.409 138.078 515.942 137.477 513.149 137.477V139.477ZM519.498 141.046C521.261 142.073 522.618 143.509 523.578 145.378L525.357 144.463C524.226 142.264 522.605 140.541 520.505 139.318L519.498 141.046ZM523.579 145.38C524.538 147.236 525.036 149.437 525.036 152.011H527.036C527.036 149.177 526.487 146.65 525.356 144.461L523.579 145.38ZM525.036 152.011C525.036 154.562 524.539 156.758 523.578 158.628L525.357 159.542C526.486 157.344 527.036 154.825 527.036 152.011H525.036ZM523.579 158.626C522.619 160.484 521.261 161.923 519.494 162.962L520.508 164.686C522.606 163.452 524.225 161.732 525.356 159.544L523.579 158.626ZM519.496 162.961C517.756 163.981 515.653 164.511 513.149 164.511V166.511C515.941 166.511 518.406 165.917 520.507 164.687L519.496 162.961ZM513.183 160.886C514.589 160.886 515.833 160.483 516.846 159.627L515.555 158.1C514.954 158.608 514.187 158.886 513.183 158.886V160.886ZM516.852 159.622C517.817 158.793 518.514 157.688 518.97 156.358L517.078 155.71C516.716 156.766 516.197 157.548 515.549 158.105L516.852 159.622ZM518.967 156.366C519.432 155.047 519.655 153.574 519.655 151.96H517.655C517.655 153.392 517.457 154.635 517.081 155.702L518.967 156.366ZM519.655 151.96C519.655 150.347 519.432 148.873 518.967 147.554L517.081 148.219C517.457 149.286 517.655 150.528 517.655 151.96H519.655ZM518.97 147.562C518.514 146.232 517.817 145.127 516.852 144.298L515.549 145.815C516.197 146.373 516.716 147.154 517.078 148.211L518.97 147.562ZM516.852 144.298C515.84 143.429 514.593 143.017 513.183 143.017V145.017C514.182 145.017 514.947 145.299 515.549 145.815L516.852 144.298ZM513.183 143.017C511.764 143.017 510.506 143.427 509.474 144.289L510.756 145.824C511.383 145.3 512.171 145.017 513.183 145.017V143.017ZM509.469 144.294C508.493 145.121 507.783 146.224 507.314 147.554L509.2 148.219C509.572 147.163 510.101 146.379 510.761 145.82L509.469 144.294ZM507.311 147.562C506.86 148.879 506.643 150.349 506.643 151.96H508.643C508.643 150.526 508.836 149.28 509.203 148.211L507.311 147.562ZM506.643 151.96C506.643 153.571 506.86 155.042 507.311 156.358L509.203 155.71C508.836 154.64 508.643 153.395 508.643 151.96H506.643ZM507.314 156.366C507.783 157.697 508.493 158.8 509.469 159.627L510.761 158.101C510.101 157.541 509.572 156.758 509.2 155.702L507.314 156.366ZM509.48 159.636C510.512 160.484 511.768 160.886 513.183 160.886V158.886C512.166 158.886 511.377 158.606 510.75 158.091L509.48 159.636ZM547.547 153.852H546.547L546.547 153.862L547.547 153.852ZM547.547 138.818V137.818H546.547V138.818H547.547ZM554.808 138.818H555.808V137.818H554.808V138.818ZM554.808 165V166H555.808V165H554.808ZM547.837 165H546.837V166H547.837V165ZM547.837 160.244H548.837V159.244H547.837V160.244ZM547.564 160.244V159.244H546.877L546.631 159.885L547.564 160.244ZM544.615 163.943L544.054 163.115L544.051 163.118L544.615 163.943ZM535.001 164.148L535.515 163.29L535.515 163.29L535.001 164.148ZM531.882 160.756L530.989 161.206L530.992 161.211L531.882 160.756ZM530.757 155.489L529.757 155.489L529.757 155.494L530.757 155.489ZM530.757 138.818V137.818H529.757V138.818H530.757ZM538.018 138.818H539.018V137.818H538.018V138.818ZM538.018 154.193H537.018L537.018 154.201L538.018 154.193ZM539.263 157.858L540.002 157.184L540.002 157.184L539.263 157.858ZM545.007 158.608L545.47 159.494L545.48 159.489L545.007 158.608ZM546.848 156.801L545.99 156.287L545.985 156.296L546.848 156.801ZM548.547 153.852V138.818H546.547V153.852H548.547ZM547.547 139.818H554.808V137.818H547.547V139.818ZM553.808 138.818V165H555.808V138.818H553.808ZM554.808 164H547.837V166H554.808V164ZM548.837 165V160.244H546.837V165H548.837ZM547.837 159.244H547.564V161.244H547.837V159.244ZM546.631 159.885C546.114 161.226 545.262 162.297 544.054 163.115L545.176 164.771C546.718 163.726 547.832 162.33 548.497 160.604L546.631 159.885ZM544.051 163.118C542.883 163.916 541.424 164.341 539.621 164.341V166.341C541.749 166.341 543.62 165.834 545.179 164.769L544.051 163.118ZM539.621 164.341C538.028 164.341 536.67 163.981 535.515 163.29L534.488 165.006C535.992 165.906 537.714 166.341 539.621 166.341V164.341ZM535.515 163.29C534.356 162.597 533.443 161.61 532.772 160.3L530.992 161.211C531.822 162.833 532.987 164.108 534.488 165.006L535.515 163.29ZM532.775 160.306C532.121 159.007 531.768 157.411 531.757 155.483L529.757 155.494C529.769 157.657 530.166 159.572 530.989 161.206L532.775 160.306ZM531.757 155.489V138.818H529.757V155.489H531.757ZM530.757 139.818H538.018V137.818H530.757V139.818ZM537.018 138.818V154.193H539.018V138.818H537.018ZM537.018 154.201C537.031 155.923 537.498 157.406 538.524 158.532L540.002 157.184C539.391 156.514 539.028 155.554 539.018 154.186L537.018 154.201ZM538.524 158.532C539.557 159.666 540.937 160.205 542.553 160.205V158.205C541.418 158.205 540.605 157.846 540.002 157.184L538.524 158.532ZM542.553 160.205C543.586 160.205 544.563 159.968 545.47 159.494L544.544 157.722C543.928 158.043 543.269 158.205 542.553 158.205V160.205ZM545.48 159.489C546.415 158.987 547.159 158.25 547.711 157.307L545.985 156.296C545.606 156.944 545.122 157.411 544.534 157.727L545.48 159.489ZM547.706 157.316C548.3 156.325 548.56 155.15 548.547 153.843L546.547 153.862C546.557 154.896 546.351 155.686 545.991 156.287L547.706 157.316Z" fill="black"/>
</g>
<g filter="url(#filter1_d_1201_1129)">
<path d="M24.7841 87L4.80682 17.1818H20.9318L32.4886 65.6932H33.0682L45.8182 17.1818H59.625L72.3409 65.7955H72.9545L84.5114 17.1818H100.636L80.6591 87H66.2727L52.9773 41.3523H52.4318L39.1705 87H24.7841ZM107.097 87V17.1818H154.142V29.3523H121.858V45.9886H151.722V58.1591H121.858V74.8295H154.279V87H107.097ZM231.512 39.75C231.035 38.0909 230.365 36.625 229.501 35.3523C228.637 34.0568 227.581 32.9659 226.331 32.0795C225.103 31.1705 223.694 30.4773 222.103 30C220.535 29.5227 218.796 29.2841 216.887 29.2841C213.319 29.2841 210.183 30.1705 207.478 31.9432C204.796 33.7159 202.706 36.2955 201.206 39.6818C199.706 43.0455 198.956 47.1591 198.956 52.0227C198.956 56.8864 199.694 61.0227 201.171 64.4318C202.649 67.8409 204.74 70.4432 207.444 72.2386C210.149 74.0114 213.342 74.8977 217.024 74.8977C220.365 74.8977 223.217 74.3068 225.581 73.125C227.967 71.9205 229.785 70.2273 231.035 68.0455C232.308 65.8636 232.944 63.2841 232.944 60.3068L235.944 60.75H217.944V49.6364H247.16V58.4318C247.16 64.5682 245.865 69.8409 243.274 74.25C240.683 78.6364 237.115 82.0227 232.569 84.4091C228.024 86.7727 222.819 87.9545 216.956 87.9545C210.41 87.9545 204.66 86.5114 199.706 83.625C194.751 80.7159 190.887 76.5909 188.115 71.25C185.365 65.8864 183.99 59.5227 183.99 52.1591C183.99 46.5 184.808 41.4545 186.444 37.0227C188.103 32.5682 190.421 28.7955 193.399 25.7045C196.376 22.6136 199.842 20.2614 203.796 18.6477C207.751 17.0341 212.035 16.2273 216.649 16.2273C220.603 16.2273 224.285 16.8068 227.694 17.9659C231.103 19.1023 234.126 20.7159 236.762 22.8068C239.421 24.8977 241.592 27.3864 243.274 30.2727C244.956 33.1364 246.035 36.2955 246.512 39.75H231.512ZM320.967 52.0909C320.967 59.7045 319.524 66.1818 316.638 71.5227C313.774 76.8636 309.865 80.9432 304.91 83.7614C299.979 86.5568 294.433 87.9545 288.274 87.9545C282.07 87.9545 276.501 86.5455 271.57 83.7273C266.638 80.9091 262.74 76.8295 259.876 71.4886C257.013 66.1477 255.581 59.6818 255.581 52.0909C255.581 44.4773 257.013 38 259.876 32.6591C262.74 27.3182 266.638 23.25 271.57 20.4545C276.501 17.6364 282.07 16.2273 288.274 16.2273C294.433 16.2273 299.979 17.6364 304.91 20.4545C309.865 23.25 313.774 27.3182 316.638 32.6591C319.524 38 320.967 44.4773 320.967 52.0909ZM306.001 52.0909C306.001 47.1591 305.263 43 303.785 39.6136C302.331 36.2273 300.274 33.6591 297.615 31.9091C294.956 30.1591 291.842 29.2841 288.274 29.2841C284.706 29.2841 281.592 30.1591 278.933 31.9091C276.274 33.6591 274.206 36.2273 272.729 39.6136C271.274 43 270.547 47.1591 270.547 52.0909C270.547 57.0227 271.274 61.1818 272.729 64.5682C274.206 67.9545 276.274 70.5227 278.933 72.2727C281.592 74.0227 284.706 74.8977 288.274 74.8977C291.842 74.8977 294.956 74.0227 297.615 72.2727C300.274 70.5227 302.331 67.9545 303.785 64.5682C305.263 61.1818 306.001 57.0227 306.001 52.0909Z" fill="url(#paint0_linear_1201_1129)"/>
<path d="M24.7841 87L23.8227 87.2751L24.0301 88H24.7841V87ZM4.80682 17.1818V16.1818H3.48055L3.8454 17.4569L4.80682 17.1818ZM20.9318 17.1818L21.9046 16.9501L21.7216 16.1818H20.9318V17.1818ZM32.4886 65.6932L31.5159 65.9249L31.6989 66.6932H32.4886V65.6932ZM33.0682 65.6932V66.6932H33.8393L34.0353 65.9474L33.0682 65.6932ZM45.8182 17.1818V16.1818H45.047L44.851 16.9276L45.8182 17.1818ZM59.625 17.1818L60.5925 16.9288L60.3971 16.1818H59.625V17.1818ZM72.3409 65.7955L71.3735 66.0485L71.5688 66.7955H72.3409V65.7955ZM72.9545 65.7955V66.7955H73.7447L73.9274 66.0267L72.9545 65.7955ZM84.5114 17.1818V16.1818H83.7212L83.5385 16.9505L84.5114 17.1818ZM100.636 17.1818L101.598 17.4569L101.963 16.1818H100.636V17.1818ZM80.6591 87V88H81.4131L81.6205 87.2751L80.6591 87ZM66.2727 87L65.3126 87.2796L65.5224 88H66.2727V87ZM52.9773 41.3523L53.9374 41.0726L53.7276 40.3523H52.9773V41.3523ZM52.4318 41.3523V40.3523H51.681L51.4715 41.0733L52.4318 41.3523ZM39.1705 87V88H39.9213L40.1308 87.279L39.1705 87ZM25.7455 86.7249L5.76824 16.9067L3.8454 17.4569L23.8227 87.2751L25.7455 86.7249ZM4.80682 18.1818H20.9318V16.1818H4.80682V18.1818ZM19.959 17.4136L31.5159 65.9249L33.4614 65.4614L21.9046 16.9501L19.959 17.4136ZM32.4886 66.6932H33.0682V64.6932H32.4886V66.6932ZM34.0353 65.9474L46.7853 17.436L44.851 16.9276L32.101 65.439L34.0353 65.9474ZM45.8182 18.1818H59.625V16.1818H45.8182V18.1818ZM58.6575 17.4349L71.3735 66.0485L73.3084 65.5424L60.5925 16.9288L58.6575 17.4349ZM72.3409 66.7955H72.9545V64.7955H72.3409V66.7955ZM73.9274 66.0267L85.4843 17.4131L83.5385 16.9505L71.9817 65.5642L73.9274 66.0267ZM84.5114 18.1818H100.636V16.1818H84.5114V18.1818ZM99.675 16.9067L79.6977 86.7249L81.6205 87.2751L101.598 17.4569L99.675 16.9067ZM80.6591 86H66.2727V88H80.6591V86ZM67.2328 86.7204L53.9374 41.0726L52.0172 41.6319L65.3126 87.2796L67.2328 86.7204ZM52.9773 40.3523H52.4318V42.3523H52.9773V40.3523ZM51.4715 41.0733L38.2102 86.721L40.1308 87.279L53.3921 41.6313L51.4715 41.0733ZM39.1705 86H24.7841V88H39.1705V86ZM107.097 87H106.097V88H107.097V87ZM107.097 17.1818V16.1818H106.097V17.1818H107.097ZM154.142 17.1818H155.142V16.1818H154.142V17.1818ZM154.142 29.3523V30.3523H155.142V29.3523H154.142ZM121.858 29.3523V28.3523H120.858V29.3523H121.858ZM121.858 45.9886H120.858V46.9886H121.858V45.9886ZM151.722 45.9886H152.722V44.9886H151.722V45.9886ZM151.722 58.1591V59.1591H152.722V58.1591H151.722ZM121.858 58.1591V57.1591H120.858V58.1591H121.858ZM121.858 74.8295H120.858V75.8295H121.858V74.8295ZM154.279 74.8295H155.279V73.8295H154.279V74.8295ZM154.279 87V88H155.279V87H154.279ZM108.097 87V17.1818H106.097V87H108.097ZM107.097 18.1818H154.142V16.1818H107.097V18.1818ZM153.142 17.1818V29.3523H155.142V17.1818H153.142ZM154.142 28.3523H121.858V30.3523H154.142V28.3523ZM120.858 29.3523V45.9886H122.858V29.3523H120.858ZM121.858 46.9886H151.722V44.9886H121.858V46.9886ZM150.722 45.9886V58.1591H152.722V45.9886H150.722ZM151.722 57.1591H121.858V59.1591H151.722V57.1591ZM120.858 58.1591V74.8295H122.858V58.1591H120.858ZM121.858 75.8295H154.279V73.8295H121.858V75.8295ZM153.279 74.8295V87H155.279V74.8295H153.279ZM154.279 86H107.097V88H154.279V86ZM231.512 39.75L230.551 40.0265L230.759 40.75H231.512V39.75ZM229.501 35.3523L228.669 35.907L228.674 35.9138L229.501 35.3523ZM226.331 32.0795L225.735 32.8831L225.744 32.8893L225.752 32.8953L226.331 32.0795ZM222.103 30L221.812 30.9567L221.816 30.9578L222.103 30ZM207.478 31.9432L206.93 31.1068L206.927 31.109L207.478 31.9432ZM201.206 39.6818L202.119 40.0891L202.12 40.0868L201.206 39.6818ZM207.444 72.2386L206.891 73.0718L206.896 73.075L207.444 72.2386ZM225.581 73.125L226.028 74.0194L226.031 74.0177L225.581 73.125ZM231.035 68.0455L230.171 67.5416L230.167 67.5483L231.035 68.0455ZM232.944 60.3068L233.09 59.3176L231.944 59.1482V60.3068H232.944ZM235.944 60.75V61.75L236.09 59.7607L235.944 60.75ZM217.944 60.75H216.944V61.75H217.944V60.75ZM217.944 49.6364V48.6364H216.944V49.6364H217.944ZM247.16 49.6364H248.16V48.6364H247.16V49.6364ZM243.274 74.25L244.135 74.7586L244.136 74.7566L243.274 74.25ZM232.569 84.4091L233.031 85.2963L233.034 85.2945L232.569 84.4091ZM199.706 83.625L199.199 84.4873L199.202 84.4891L199.706 83.625ZM188.115 71.25L187.225 71.7062L187.227 71.7108L188.115 71.25ZM186.444 37.0227L185.507 36.6737L185.506 36.6764L186.444 37.0227ZM193.399 25.7045L194.119 26.3983L194.119 26.3983L193.399 25.7045ZM203.796 18.6477L203.419 17.7218L203.419 17.7218L203.796 18.6477ZM227.694 17.9659L227.372 18.9127L227.378 18.9146L227.694 17.9659ZM236.762 22.8068L236.141 23.5903L236.144 23.5929L236.762 22.8068ZM243.274 30.2727L242.41 30.7762L242.411 30.7791L243.274 30.2727ZM246.512 39.75V40.75H247.66L247.503 39.6131L246.512 39.75ZM232.473 39.4735C231.97 37.7253 231.258 36.1608 230.328 34.7908L228.674 35.9138C229.471 37.0892 230.1 38.4566 230.551 40.0265L232.473 39.4735ZM230.333 34.7976C229.403 33.402 228.26 32.2221 226.909 31.2638L225.752 32.8953C226.901 33.7097 227.872 34.7116 228.669 35.907L230.333 34.7976ZM226.926 31.276C225.598 30.2923 224.083 29.5498 222.391 29.0422L221.816 30.9578C223.306 31.4048 224.609 32.0486 225.735 32.8831L226.926 31.276ZM222.394 29.0433C220.718 28.5331 218.879 28.2841 216.887 28.2841V30.2841C218.714 30.2841 220.352 30.5124 221.812 30.9567L222.394 29.0433ZM216.887 28.2841C213.145 28.2841 209.814 29.2164 206.93 31.1068L208.026 32.7795C210.551 31.1245 213.493 30.2841 216.887 30.2841V28.2841ZM206.927 31.109C204.062 33.0024 201.857 35.7428 200.291 39.2768L202.12 40.0868C203.554 36.8481 205.531 34.4294 208.03 32.7774L206.927 31.109ZM200.292 39.2745C198.72 42.8004 197.956 47.0616 197.956 52.0227H199.956C199.956 47.2566 200.691 43.2905 202.119 40.0891L200.292 39.2745ZM197.956 52.0227C197.956 56.9828 198.708 61.2625 200.254 64.8294L202.089 64.0342C200.68 60.783 199.956 56.7899 199.956 52.0227H197.956ZM200.254 64.8294C201.797 68.3895 204.003 71.1546 206.891 73.0718L207.997 71.4055C205.476 69.7318 203.501 67.2923 202.089 64.0342L200.254 64.8294ZM206.896 73.075C209.785 74.9688 213.175 75.8977 217.024 75.8977V73.8977C213.509 73.8977 210.512 73.054 207.992 71.4023L206.896 73.075ZM217.024 75.8977C220.48 75.8977 223.494 75.2866 226.028 74.0194L225.133 72.2306C222.94 73.3271 220.249 73.8977 217.024 73.8977V75.8977ZM226.031 74.0177C228.581 72.7308 230.549 70.9051 231.903 68.5426L230.167 67.5483C229.021 69.5494 227.353 71.1101 225.13 72.2323L226.031 74.0177ZM231.899 68.5493C233.276 66.1892 233.944 63.4293 233.944 60.3068H231.944C231.944 63.1389 231.34 65.5381 230.171 67.5416L231.899 68.5493ZM232.798 61.2961L235.798 61.7393L236.09 59.7607L233.09 59.3176L232.798 61.2961ZM235.944 59.75H217.944V61.75H235.944V59.75ZM218.944 60.75V49.6364H216.944V60.75H218.944ZM217.944 50.6364H247.16V48.6364H217.944V50.6364ZM246.16 49.6364V58.4318H248.16V49.6364H246.16ZM246.16 58.4318C246.16 64.4257 244.896 69.516 242.412 73.7434L244.136 74.7566C246.834 70.1658 248.16 64.7106 248.16 58.4318H246.16ZM242.413 73.7414C239.917 77.9665 236.487 81.223 232.104 83.5237L233.034 85.2945C237.743 82.8225 241.449 79.3062 244.135 74.7586L242.413 73.7414ZM232.108 83.5219C227.724 85.8013 222.682 86.9545 216.956 86.9545V88.9545C222.956 88.9545 228.323 87.7441 233.031 85.2963L232.108 83.5219ZM216.956 86.9545C210.562 86.9545 204.99 85.5463 200.209 82.7609L199.202 84.4891C204.33 87.4765 210.259 88.9545 216.956 88.9545V86.9545ZM200.212 82.7627C195.428 79.9535 191.692 75.9714 189.002 70.7892L187.227 71.7108C190.082 77.2104 194.074 81.4783 199.199 84.4873L200.212 82.7627ZM189.005 70.7938C186.341 65.5992 184.99 59.3987 184.99 52.1591H182.99C182.99 59.6467 184.388 66.1735 187.225 71.7062L189.005 70.7938ZM184.99 52.1591C184.99 46.5954 185.794 41.6705 187.382 37.3691L185.506 36.6764C183.822 41.2386 182.99 46.4046 182.99 52.1591H184.99ZM187.381 37.3718C188.998 33.0319 191.247 29.3802 194.119 26.3983L192.679 25.0108C189.596 28.2107 187.209 32.1045 185.507 36.6737L187.381 37.3718ZM194.119 26.3983C197 23.4073 200.349 21.1343 204.174 19.5736L203.419 17.7218C199.334 19.3884 195.752 21.82 192.679 25.0108L194.119 26.3983ZM204.174 19.5736C208 18.0127 212.154 17.2273 216.649 17.2273V15.2273C211.916 15.2273 207.502 16.0555 203.419 17.7218L204.174 19.5736ZM216.649 17.2273C220.505 17.2273 224.077 17.7921 227.372 18.9127L228.016 17.0191C224.494 15.8215 220.702 15.2273 216.649 15.2273V17.2273ZM227.378 18.9146C230.684 20.0166 233.602 21.5766 236.141 23.5903L237.384 22.0233C234.65 19.8552 231.523 18.1879 228.01 17.0172L227.378 18.9146ZM236.144 23.5929C238.706 25.6069 240.792 28.0001 242.41 30.7762L244.138 29.7693C242.392 26.7727 240.137 24.1885 237.38 22.0207L236.144 23.5929ZM242.411 30.7791C244.023 33.5236 245.062 36.5561 245.522 39.8869L247.503 39.6131C247.009 36.0348 245.888 32.7491 244.136 29.7663L242.411 30.7791ZM246.512 38.75H231.512V40.75H246.512V38.75ZM316.638 71.5227L315.758 71.0473L315.756 71.0502L316.638 71.5227ZM304.91 83.7614L305.404 84.6313L305.405 84.6306L304.91 83.7614ZM271.57 83.7273L272.066 82.859L271.57 83.7273ZM259.876 71.4886L258.995 71.9612L258.995 71.9612L259.876 71.4886ZM259.876 32.6591L260.758 33.1316L260.758 33.1316L259.876 32.6591ZM271.57 20.4545L272.063 21.3245L272.066 21.3228L271.57 20.4545ZM304.91 20.4545L304.414 21.3228L304.419 21.3255L304.91 20.4545ZM316.638 32.6591L315.756 33.1316L315.758 33.1345L316.638 32.6591ZM303.785 39.6136L302.867 40.0083L302.869 40.0135L303.785 39.6136ZM297.615 31.9091L297.065 32.7444L297.065 32.7444L297.615 31.9091ZM278.933 31.9091L279.483 32.7444L279.483 32.7444L278.933 31.9091ZM272.729 39.6136L271.812 39.2138L271.81 39.219L272.729 39.6136ZM272.729 64.5682L271.81 64.9629L271.812 64.968L272.729 64.5682ZM278.933 72.2727L279.483 71.4374L279.483 71.4374L278.933 72.2727ZM297.615 72.2727L297.065 71.4374L297.065 71.4374L297.615 72.2727ZM303.785 64.5682L302.869 64.1683L302.867 64.1735L303.785 64.5682ZM319.967 52.0909C319.967 59.5799 318.548 65.885 315.758 71.0473L317.517 71.9982C320.5 66.4787 321.967 59.8291 321.967 52.0909H319.967ZM315.756 71.0502C312.976 76.236 309.196 80.1731 304.416 82.8921L305.405 84.6306C310.534 81.7133 314.572 77.4912 317.519 71.9953L315.756 71.0502ZM304.417 82.8914C299.649 85.5943 294.276 86.9545 288.274 86.9545V88.9545C294.591 88.9545 300.309 87.5193 305.404 84.6313L304.417 82.8914ZM288.274 86.9545C282.227 86.9545 276.833 85.583 272.066 82.859L271.073 84.5955C276.17 87.5079 281.912 88.9545 288.274 88.9545V86.9545ZM272.066 82.859C267.308 80.1403 263.539 76.2031 260.758 71.0161L258.995 71.9612C261.941 77.456 265.968 81.6779 271.073 84.5955L272.066 82.859ZM260.758 71.0161C257.989 65.8527 256.581 59.5578 256.581 52.0909H254.581C254.581 59.8058 256.036 66.4427 258.995 71.9612L260.758 71.0161ZM256.581 52.0909C256.581 44.6007 257.989 38.2946 260.758 33.1316L258.995 32.1866C256.036 37.7054 254.581 44.3538 254.581 52.0909H256.581ZM260.758 33.1316C263.538 27.9452 267.307 24.0203 272.063 21.3245L271.076 19.5846C265.969 22.4797 261.942 26.6912 258.995 32.1866L260.758 33.1316ZM272.066 21.3228C276.833 18.5988 282.227 17.2273 288.274 17.2273V15.2273C281.912 15.2273 276.17 16.6739 271.073 19.5863L272.066 21.3228ZM288.274 17.2273C294.274 17.2273 299.646 18.5981 304.414 21.3228L305.407 19.5863C300.311 16.6746 294.592 15.2273 288.274 15.2273V17.2273ZM304.419 21.3255C309.198 24.0216 312.976 27.9464 315.756 33.1316L317.519 32.1866C314.572 26.69 310.532 22.4784 305.402 19.5836L304.419 21.3255ZM315.758 33.1345C318.548 38.2969 319.967 44.6019 319.967 52.0909H321.967C321.967 44.3527 320.5 37.7031 317.517 32.1837L315.758 33.1345ZM307.001 52.0909C307.001 47.0651 306.249 42.7609 304.702 39.2138L302.869 40.0135C304.276 43.2391 305.001 47.253 305.001 52.0909H307.001ZM304.704 39.219C303.185 35.6818 301.012 32.9475 298.165 31.0738L297.065 32.7444C299.536 34.3706 301.477 36.7727 302.867 40.0083L304.704 39.219ZM298.165 31.0738C295.323 29.2036 292.013 28.2841 288.274 28.2841V30.2841C291.671 30.2841 294.589 31.1145 297.065 32.7444L298.165 31.0738ZM288.274 28.2841C284.535 28.2841 281.225 29.2036 278.383 31.0738L279.483 32.7444C281.96 31.1145 284.877 30.2841 288.274 30.2841V28.2841ZM278.383 31.0738C275.538 32.9466 273.354 35.679 271.812 39.2138L273.645 40.0135C275.058 36.7756 277.01 34.3716 279.483 32.7444L278.383 31.0738ZM271.81 39.219C270.287 42.7645 269.547 47.0668 269.547 52.0909H271.547C271.547 47.2514 272.261 43.2355 273.647 40.0083L271.81 39.219ZM269.547 52.0909C269.547 57.115 270.287 61.4173 271.81 64.9628L273.647 64.1735C272.261 60.9463 271.547 56.9304 271.547 52.0909H269.547ZM271.812 64.968C273.354 68.5029 275.538 71.2353 278.383 73.1081L279.483 71.4374C277.01 69.8102 275.058 67.4062 273.645 64.1683L271.812 64.968ZM278.383 73.1081C281.225 74.9782 284.535 75.8977 288.274 75.8977V73.8977C284.877 73.8977 281.96 73.0673 279.483 71.4374L278.383 73.1081ZM288.274 75.8977C292.013 75.8977 295.323 74.9782 298.165 73.1081L297.065 71.4374C294.589 73.0673 291.671 73.8977 288.274 73.8977V75.8977ZM298.165 73.1081C301.012 71.2343 303.185 68.5 304.704 64.9628L302.867 64.1735C301.477 67.4091 299.536 69.8112 297.065 71.4374L298.165 73.1081ZM304.702 64.968C306.249 61.4209 307.001 57.1167 307.001 52.0909H305.001C305.001 56.9288 304.276 60.9428 302.869 64.1683L304.702 64.968Z" fill="black"/>
</g>
<defs>
<filter id="filter0_d_1201_1129" x="0.0566406" y="128.455" width="558.752" height="45.0568" filterUnits="userSpaceOnUse" color-interpolation-filters="sRGB">
<feFlood flood-opacity="0" result="BackgroundImageFix"/>
<feColorMatrix in="SourceAlpha" type="matrix" values="0 0 0 0 0 0 0 0 0 0 0 0 0 0 0 0 0 0 127 0" result="hardAlpha"/>
<feOffset dy="4"/>
<feGaussianBlur stdDeviation="2"/>
<feComposite in2="hardAlpha" operator="out"/>
<feColorMatrix type="matrix" values="0 0 0 0 0 0 0 0 0 0 0 0 0 0 0 0 0 0 0.25 0"/>
<feBlend mode="normal" in2="BackgroundImageFix" result="effect1_dropShadow_1201_1129"/>
<feBlend mode="normal" in="SourceGraphic" in2="effect1_dropShadow_1201_1129" result="shape"/>
</filter>
<filter id="filter1_d_1201_1129" x="0.806641" y="16.2273" width="324.16" height="79.7273" filterUnits="userSpaceOnUse" color-interpolation-filters="sRGB">
<feFlood flood-opacity="0" result="BackgroundImageFix"/>
<feColorMatrix in="SourceAlpha" type="matrix" values="0 0 0 0 0 0 0 0 0 0 0 0 0 0 0 0 0 0 127 0" result="hardAlpha"/>
<feOffset dy="4"/>
<feGaussianBlur stdDeviation="2"/>
<feComposite in2="hardAlpha" operator="out"/>
<feColorMatrix type="matrix" values="0 0 0 0 0 0 0 0 0 0 0 0 0 0 0 0 0 0 0.25 0"/>
<feBlend mode="normal" in2="BackgroundImageFix" result="effect1_dropShadow_1201_1129"/>
<feBlend mode="normal" in="SourceGraphic" in2="effect1_dropShadow_1201_1129" result="shape"/>
</filter>
<linearGradient id="paint0_linear_1201_1129" x1="281.578" y1="-101" x2="341.171" y2="141.876" gradientUnits="userSpaceOnUse">
<stop stop-color="#141D89"/>
<stop offset="1" stop-color="#EB0508"/>
</linearGradient>
</defs>
</svg>
