<svg width="193" height="226" viewBox="0 0 193 226" fill="none" xmlns="http://www.w3.org/2000/svg">
<path d="M63.6676 182.318C62.0616 182.318 60.6297 182.023 59.3722 181.432C58.1222 180.841 57.1297 180.027 56.3949 178.989C55.66 177.951 55.2775 176.761 55.2472 175.42H60.0199C60.0729 176.322 60.4517 177.053 61.1562 177.614C61.8608 178.174 62.6979 178.455 63.6676 178.455C64.4403 178.455 65.1222 178.284 65.7131 177.943C66.3116 177.595 66.7775 177.114 67.1108 176.5C67.4517 175.879 67.6222 175.167 67.6222 174.364C67.6222 173.545 67.4479 172.826 67.0994 172.205C66.7585 171.583 66.285 171.098 65.679 170.75C65.0729 170.402 64.3797 170.223 63.5994 170.216C62.9176 170.216 62.2547 170.356 61.6108 170.636C60.9744 170.917 60.4782 171.299 60.1222 171.784L55.7472 171L56.8494 158.727H71.0767V162.75H60.9062L60.304 168.58H60.4403C60.8494 168.004 61.4669 167.527 62.2926 167.148C63.1184 166.769 64.0426 166.58 65.0653 166.58C66.4669 166.58 67.7169 166.909 68.8153 167.568C69.9138 168.227 70.7812 169.133 71.4176 170.284C72.054 171.428 72.3684 172.746 72.3608 174.239C72.3684 175.807 72.0047 177.201 71.2699 178.42C70.5426 179.633 69.5237 180.587 68.2131 181.284C66.91 181.973 65.3949 182.318 63.6676 182.318ZM84.9176 182.511C82.9631 182.504 81.2813 182.023 79.8722 181.068C78.4706 180.114 77.3911 178.731 76.6335 176.92C75.8835 175.11 75.5123 172.932 75.5199 170.386C75.5199 167.848 75.8949 165.686 76.6449 163.898C77.4025 162.11 78.482 160.75 79.8835 159.818C81.2926 158.879 82.9706 158.409 84.9176 158.409C86.8646 158.409 88.5388 158.879 89.9403 159.818C91.3494 160.758 92.4328 162.121 93.1903 163.909C93.9479 165.689 94.3229 167.848 94.3153 170.386C94.3153 172.939 93.9366 175.121 93.179 176.932C92.429 178.742 91.3532 180.125 89.9517 181.08C88.5502 182.034 86.8722 182.511 84.9176 182.511ZM84.9176 178.432C86.2509 178.432 87.3153 177.761 88.1108 176.42C88.9063 175.08 89.3002 173.068 89.2926 170.386C89.2926 168.621 89.1108 167.152 88.7472 165.977C88.3911 164.803 87.8835 163.92 87.2244 163.33C86.5729 162.739 85.804 162.443 84.9176 162.443C83.5919 162.443 82.5313 163.106 81.7358 164.432C80.9403 165.758 80.5388 167.742 80.5312 170.386C80.5312 172.174 80.7093 173.667 81.0653 174.864C81.429 176.053 81.9403 176.947 82.5994 177.545C83.2585 178.136 84.0312 178.432 84.9176 178.432ZM106.949 182.511C104.994 182.504 103.313 182.023 101.903 181.068C100.502 180.114 99.4223 178.731 98.6648 176.92C97.9148 175.11 97.5436 172.932 97.5511 170.386C97.5511 167.848 97.9261 165.686 98.6761 163.898C99.4337 162.11 100.513 160.75 101.915 159.818C103.324 158.879 105.002 158.409 106.949 158.409C108.896 158.409 110.57 158.879 111.972 159.818C113.381 160.758 114.464 162.121 115.222 163.909C115.979 165.689 116.354 167.848 116.347 170.386C116.347 172.939 115.968 175.121 115.21 176.932C114.46 178.742 113.384 180.125 111.983 181.08C110.581 182.034 108.903 182.511 106.949 182.511ZM106.949 178.432C108.282 178.432 109.347 177.761 110.142 176.42C110.938 175.08 111.331 173.068 111.324 170.386C111.324 168.621 111.142 167.152 110.778 165.977C110.422 164.803 109.915 163.92 109.256 163.33C108.604 162.739 107.835 162.443 106.949 162.443C105.623 162.443 104.563 163.106 103.767 164.432C102.972 165.758 102.57 167.742 102.562 170.386C102.562 172.174 102.741 173.667 103.097 174.864C103.46 176.053 103.972 176.947 104.631 177.545C105.29 178.136 106.062 178.432 106.949 178.432ZM126.81 178.455V162.364H130.878V178.455H126.81ZM120.798 172.443V168.375H136.889V172.443H120.798ZM4.78374 199.545L9.00249 212.807H9.16442L13.3917 199.545H17.4826L11.4656 217H6.70987L0.684304 199.545H4.78374ZM24.0046 217.256C22.658 217.256 21.4989 216.983 20.5273 216.438C19.5614 215.886 18.8171 215.108 18.2944 214.102C17.7717 213.091 17.5103 211.895 17.5103 210.514C17.5103 209.168 17.7717 207.986 18.2944 206.969C18.8171 205.952 19.5529 205.159 20.5018 204.591C21.4563 204.023 22.5756 203.739 23.8597 203.739C24.7234 203.739 25.5273 203.878 26.2717 204.156C27.0217 204.429 27.6751 204.841 28.2319 205.392C28.7944 205.943 29.2319 206.636 29.5444 207.472C29.8569 208.301 30.0131 209.273 30.0131 210.386V211.384H18.9592V209.134H26.5955C26.5955 208.611 26.4819 208.148 26.2546 207.744C26.0273 207.341 25.712 207.026 25.3086 206.798C24.9109 206.565 24.4478 206.449 23.9194 206.449C23.3683 206.449 22.8796 206.577 22.4535 206.832C22.033 207.082 21.7035 207.42 21.4648 207.847C21.2262 208.267 21.104 208.736 21.0984 209.253V211.392C21.0984 212.04 21.2177 212.599 21.4563 213.071C21.7006 213.543 22.0444 213.906 22.4876 214.162C22.9308 214.418 23.4563 214.545 24.0643 214.545C24.4677 214.545 24.837 214.489 25.1722 214.375C25.5075 214.261 25.7944 214.091 26.033 213.864C26.2717 213.636 26.4535 213.358 26.5785 213.028L29.9364 213.25C29.766 214.057 29.4165 214.761 28.8881 215.364C28.3654 215.96 27.6893 216.426 26.8597 216.761C26.0359 217.091 25.0842 217.256 24.0046 217.256ZM36.0131 209.432V217H32.3825V199.545H35.9109V206.219H36.0643C36.3597 205.446 36.837 204.841 37.4961 204.403C38.1552 203.96 38.9819 203.739 39.9762 203.739C40.8853 203.739 41.6779 203.938 42.354 204.335C43.0359 204.727 43.5643 205.293 43.9393 206.031C44.32 206.764 44.5075 207.642 44.5018 208.665V217H40.8711V209.312C40.8768 208.506 40.6722 207.878 40.2575 207.429C39.8484 206.98 39.2745 206.756 38.5359 206.756C38.0415 206.756 37.604 206.861 37.2234 207.071C36.8484 207.281 36.5529 207.588 36.337 207.991C36.1268 208.389 36.0188 208.869 36.0131 209.432ZM47.359 217V203.909H50.9897V217H47.359ZM49.1829 202.222C48.6431 202.222 48.18 202.043 47.7937 201.685C47.413 201.321 47.2227 200.886 47.2227 200.381C47.2227 199.881 47.413 199.452 47.7937 199.094C48.18 198.73 48.6431 198.548 49.1829 198.548C49.7227 198.548 50.1829 198.73 50.5636 199.094C50.9499 199.452 51.1431 199.881 51.1431 200.381C51.1431 200.886 50.9499 201.321 50.5636 201.685C50.1829 202.043 49.7227 202.222 49.1829 202.222ZM59.8129 217.256C58.4719 217.256 57.3185 216.972 56.3526 216.403C55.3924 215.83 54.6538 215.034 54.1367 214.017C53.6254 213 53.3697 211.83 53.3697 210.506C53.3697 209.165 53.6282 207.989 54.1452 206.977C54.668 205.96 55.4094 205.168 56.3697 204.599C57.3299 204.026 58.4719 203.739 59.7958 203.739C60.9379 203.739 61.9379 203.946 62.7958 204.361C63.6538 204.776 64.3327 205.358 64.8327 206.108C65.3327 206.858 65.6083 207.739 65.6594 208.75H62.2333C62.1367 208.097 61.881 207.571 61.4663 207.173C61.0572 206.77 60.5202 206.568 59.8555 206.568C59.293 206.568 58.8015 206.722 58.381 207.028C57.9663 207.33 57.6424 207.77 57.4094 208.349C57.1765 208.929 57.06 209.631 57.06 210.455C57.06 211.29 57.1737 212 57.4009 212.585C57.6339 213.17 57.9606 213.616 58.381 213.923C58.8015 214.23 59.293 214.384 59.8555 214.384C60.2702 214.384 60.6424 214.298 60.9719 214.128C61.3072 213.957 61.5827 213.71 61.7987 213.386C62.0202 213.057 62.1651 212.662 62.2333 212.202H65.6594C65.6026 213.202 65.3299 214.082 64.8413 214.844C64.3583 215.599 63.6907 216.19 62.8384 216.616C61.9862 217.043 60.9776 217.256 59.8129 217.256ZM71.6147 199.545V217H67.984V199.545H71.6147ZM80.489 217.256C79.1424 217.256 77.9833 216.983 77.0117 216.438C76.0458 215.886 75.3015 215.108 74.7788 214.102C74.256 213.091 73.9947 211.895 73.9947 210.514C73.9947 209.168 74.256 207.986 74.7788 206.969C75.3015 205.952 76.0373 205.159 76.9862 204.591C77.9407 204.023 79.06 203.739 80.3441 203.739C81.2077 203.739 82.0117 203.878 82.756 204.156C83.506 204.429 84.1594 204.841 84.7163 205.392C85.2788 205.943 85.7163 206.636 86.0288 207.472C86.3413 208.301 86.4975 209.273 86.4975 210.386V211.384H75.4435V209.134H83.0799C83.0799 208.611 82.9663 208.148 82.739 207.744C82.5117 207.341 82.1964 207.026 81.793 206.798C81.3952 206.565 80.9322 206.449 80.4038 206.449C79.8526 206.449 79.364 206.577 78.9379 206.832C78.5174 207.082 78.1879 207.42 77.9492 207.847C77.7106 208.267 77.5884 208.736 77.5827 209.253V211.392C77.5827 212.04 77.7021 212.599 77.9407 213.071C78.185 213.543 78.5288 213.906 78.9719 214.162C79.4151 214.418 79.9407 214.545 80.5487 214.545C80.9521 214.545 81.3214 214.489 81.6566 214.375C81.9918 214.261 82.2788 214.091 82.5174 213.864C82.756 213.636 82.9379 213.358 83.0629 213.028L86.4208 213.25C86.2504 214.057 85.9009 214.761 85.3725 215.364C84.8498 215.96 84.1737 216.426 83.3441 216.761C82.5202 217.091 81.5685 217.256 80.489 217.256ZM109.089 199.545V217H105.902L98.3079 206.014H98.18V217H94.4897V199.545H97.7283L105.262 210.523H105.416V199.545H109.089ZM118.036 217.256C116.689 217.256 115.53 216.983 114.559 216.438C113.593 215.886 112.848 215.108 112.326 214.102C111.803 213.091 111.542 211.895 111.542 210.514C111.542 209.168 111.803 207.986 112.326 206.969C112.848 205.952 113.584 205.159 114.533 204.591C115.488 204.023 116.607 203.739 117.891 203.739C118.755 203.739 119.559 203.878 120.303 204.156C121.053 204.429 121.706 204.841 122.263 205.392C122.826 205.943 123.263 206.636 123.576 207.472C123.888 208.301 124.044 209.273 124.044 210.386V211.384H112.99V209.134H120.627C120.627 208.611 120.513 208.148 120.286 207.744C120.059 207.341 119.743 207.026 119.34 206.798C118.942 206.565 118.479 206.449 117.951 206.449C117.4 206.449 116.911 206.577 116.485 206.832C116.064 207.082 115.735 207.42 115.496 207.847C115.257 208.267 115.135 208.736 115.13 209.253V211.392C115.13 212.04 115.249 212.599 115.488 213.071C115.732 213.543 116.076 213.906 116.519 214.162C116.962 214.418 117.488 214.545 118.096 214.545C118.499 214.545 118.868 214.489 119.203 214.375C119.539 214.261 119.826 214.091 120.064 213.864C120.303 213.636 120.485 213.358 120.61 213.028L123.968 213.25C123.797 214.057 123.448 214.761 122.919 215.364C122.397 215.96 121.721 216.426 120.891 216.761C120.067 217.091 119.115 217.256 118.036 217.256ZM133.377 203.909V206.636H125.493V203.909H133.377ZM127.283 200.773H130.914V212.977C130.914 213.312 130.965 213.574 131.067 213.761C131.169 213.943 131.311 214.071 131.493 214.145C131.681 214.219 131.897 214.256 132.141 214.256C132.311 214.256 132.482 214.241 132.652 214.213C132.823 214.179 132.953 214.153 133.044 214.136L133.615 216.838C133.434 216.895 133.178 216.96 132.848 217.034C132.519 217.114 132.118 217.162 131.647 217.179C130.772 217.213 130.005 217.097 129.346 216.83C128.692 216.562 128.184 216.148 127.82 215.585C127.456 215.023 127.277 214.312 127.283 213.455V200.773ZM138.324 217L134.762 203.909H138.435L140.463 212.705H140.583L142.696 203.909H146.301L148.449 212.653H148.56L150.554 203.909H154.219L150.665 217H146.821L144.571 208.767H144.409L142.159 217H138.324ZM161.743 217.256C160.419 217.256 159.274 216.974 158.308 216.412C157.348 215.844 156.606 215.054 156.083 214.043C155.561 213.026 155.299 211.847 155.299 210.506C155.299 209.153 155.561 207.972 156.083 206.96C156.606 205.943 157.348 205.153 158.308 204.591C159.274 204.023 160.419 203.739 161.743 203.739C163.066 203.739 164.208 204.023 165.169 204.591C166.135 205.153 166.879 205.943 167.402 206.96C167.924 207.972 168.186 209.153 168.186 210.506C168.186 211.847 167.924 213.026 167.402 214.043C166.879 215.054 166.135 215.844 165.169 216.412C164.208 216.974 163.066 217.256 161.743 217.256ZM161.76 214.443C162.362 214.443 162.865 214.273 163.268 213.932C163.672 213.585 163.975 213.114 164.18 212.517C164.39 211.92 164.495 211.241 164.495 210.48C164.495 209.719 164.39 209.04 164.18 208.443C163.975 207.847 163.672 207.375 163.268 207.028C162.865 206.682 162.362 206.509 161.76 206.509C161.152 206.509 160.64 206.682 160.225 207.028C159.816 207.375 159.507 207.847 159.297 208.443C159.092 209.04 158.99 209.719 158.99 210.48C158.99 211.241 159.092 211.92 159.297 212.517C159.507 213.114 159.816 213.585 160.225 213.932C160.64 214.273 161.152 214.443 161.76 214.443ZM170.547 217V203.909H174.066V206.193H174.203C174.441 205.381 174.842 204.767 175.404 204.352C175.967 203.932 176.615 203.722 177.348 203.722C177.529 203.722 177.725 203.733 177.936 203.756C178.146 203.778 178.331 203.81 178.49 203.849V207.071C178.319 207.02 178.083 206.974 177.782 206.935C177.481 206.895 177.206 206.875 176.956 206.875C176.422 206.875 175.944 206.991 175.524 207.224C175.109 207.452 174.779 207.77 174.535 208.179C174.297 208.588 174.177 209.06 174.177 209.594V217H170.547ZM183.657 213.233L183.665 208.878H184.194L188.387 203.909H192.554L186.921 210.489H186.06L183.657 213.233ZM180.367 217V199.545H183.998V217H180.367ZM188.549 217L184.696 211.298L187.117 208.733L192.801 217H188.549Z" fill="#020988"/>
<path d="M53.2812 188.364H139.719V190.545H53.2812V188.364Z" fill="#020988"/>
<path d="M16.1237 0C10.5334 0 6 4.27419 6 9.51563V97.0385C6 102.28 11.0897 107.077 16.68 107.077H31.2537C32.9503 116.566 41.7112 123.808 52.28 123.808C62.8487 123.808 71.6097 116.566 73.3062 107.077H106.236C111.813 107.077 116.36 102.803 116.36 97.5613V9.72476C116.36 4.36569 111.868 0 106.347 0H16.1237ZM123.48 23.4231V107.077C125.19 116.553 134.271 123.808 144.84 123.808C155.409 123.808 164.17 116.553 165.866 107.077H173.32C178.91 107.077 184 102.293 184 97.0385V64.8317C184 58.1002 178.841 51.2249 178.215 50.4014L163.419 31.7885C160.026 27.9456 154.7 23.4231 148.4 23.4231H123.48ZM141.28 40.1538H161.194L172.541 54.375C173.751 55.9827 176.88 60.9105 176.88 64.8317V66.9231H141.28C137.72 66.9231 134.16 63.5769 134.16 60.2308V46.8462C134.16 43.1471 137.72 40.1538 141.28 40.1538ZM52.28 90.3462C60.137 90.3462 66.52 96.3457 66.52 103.731C66.52 111.116 60.137 117.115 52.28 117.115C44.423 117.115 38.04 111.116 38.04 103.731C38.04 96.3457 44.423 90.3462 52.28 90.3462ZM144.84 90.3462C152.697 90.3462 159.08 96.3457 159.08 103.731C159.08 111.116 152.697 117.115 144.84 117.115C136.983 117.115 130.6 111.116 130.6 103.731C130.6 96.3457 136.983 90.3462 144.84 90.3462Z" fill="black"/>
</svg>
